<svg width="600" height="600" viewBox="0 0 600 600" fill="none" xmlns="http://www.w3.org/2000/svg">
<path d="M158.792 533.964C148.047 533.875 136.745 533.391 124.255 532.49C107.859 531.969 91.729 529.5 76.729 526.906L73.0884 526.297C65.578 525.037 57.8072 523.729 50.1145 523.281C48.7499 523.182 47.2655 523.135 45.3228 523.135L43.427 523.146L36.6509 523.563C36.4218 523.568 36.1665 523.573 35.9061 523.573C31.4738 523.573 27.2134 522.307 23.9165 520.005C20.5468 517.677 17.7447 514.177 15.5832 509.583C14.7134 507.75 13.9322 505.688 13.1874 503.297L12.2447 500.063L11.7759 498.432C11.6197 497.818 11.6457 497.229 11.6978 496.745C12.0155 494.396 12.9686 492.354 13.8905 490.38C14.7447 488.62 15.7447 486.797 17.1197 484.49C19.6249 480.307 22.3645 476.276 24.4686 473.234C26.3645 470.5 28.302 467.797 30.2343 465.104L32.2551 462.281C34.578 458.708 37.8332 455.49 41.7395 452.875C45.229 450.505 49.1353 448.521 53.6926 446.807C57.229 445.479 60.8697 444.453 64.5051 443.76L66.302 443.417L66.6926 441.63C66.729 441.474 66.8957 440.813 66.8957 440.813V440.438C66.8593 437.49 67.5884 434.557 68.229 432.333C69.0624 429.156 70.5832 426.016 72.8801 422.667C74.8801 419.859 77.4634 417.328 80.5415 415.193C81.0155 414.854 81.5051 414.552 81.9947 414.245L82.8124 413.729L83.4009 413.401C83.979 413.083 84.5676 412.755 85.1718 412.464C85.9478 412.083 87.0936 411.552 88.4009 411.229L90.6718 410.672L90.5051 408.339C90.1822 403.74 90.927 398.75 92.7186 393.505C94.4322 388.5 96.9634 383.458 100.463 378.099C106.318 369.203 113.859 360.813 123.516 352.458C124.927 351.271 126.354 350.109 127.781 348.948C130.911 346.391 133.844 344 136.75 341.349C140.807 337.719 144.88 333.792 149.172 329.354C151.917 326.526 154.646 323.594 157.281 320.755C157.281 320.755 159.885 317.953 161.005 316.755C164.713 312.818 168.104 309.323 172.073 306.448L173.953 305.083L172.406 301.896C170.724 298.432 169.047 294.969 167.307 291.542C166.568 290.068 165.812 288.599 165.031 287.146C164.25 285.714 163.458 284.193 162.891 282.693C161.802 279.938 161.114 276.792 160.771 273.037C160.26 266.646 160.76 260.193 161.239 253.948L161.297 253.255L163.01 233.542C163.562 226.995 164.005 220.349 164.333 213.781C164.719 206.188 166.062 199.885 168.437 194.505C170.463 189.849 173.698 185.271 178.052 180.885L178.338 180.594L178.531 180.229C179.396 178.599 180.286 176.99 181.172 175.385C181.677 174.469 182.182 173.557 182.682 172.635C184.177 169.88 185.625 166.906 187.125 163.547C188.239 161.109 189.26 158.594 190.25 156.162C191.755 152.458 193.312 148.641 195.213 144.979C196.729 142.229 198.646 139.51 201.036 136.719C203.578 133.849 206.141 131.75 208.828 130.333C211.484 128.901 214.651 128.047 218.536 127.708C219.437 127.62 220.318 127.552 221.187 127.479C222.766 127.354 224.234 127.234 225.719 127.021L227.958 126.703L228.099 124.448C228.135 123.859 228.182 123.24 228.26 122.615L228.594 119.287L229.114 116.047C229.974 111.349 231.203 107.219 232.859 103.49C234.489 99.7657 236.792 96.0001 239.708 92.2865C241.146 90.4584 242.656 88.7188 243.943 87.2553L244.979 86.0782C246.073 84.8334 247.156 83.599 248.323 82.3699C251.005 79.3282 254.198 76.4897 258.151 73.6147C261.896 70.9428 265.864 69.0209 269.917 67.922C272.177 67.3438 274.344 67.047 276.318 67.047C278.266 67.047 280.088 67.3334 281.745 67.9063L282.911 68.3074L283.989 67.7084C285.474 66.8855 287.271 66.3595 289.328 66.1511C289.927 66.099 290.542 66.073 291.156 66.073C292.703 66.073 294.328 66.2345 295.984 66.5574C300.151 67.4115 304.318 69.1303 308.333 71.6563C315.536 76.1667 321.661 83.0209 326.042 91.4845C330 99.0522 333.479 107.12 336.682 116.156C338.307 120.802 339.578 125.016 340.552 129.021C341.651 133.495 342.141 137.156 342.088 140.547L342.068 141.932L343.161 142.781C343.891 143.344 344.599 143.912 345.307 144.474C347.042 145.875 348.797 147.146 350.661 148.484L351.396 149.016C355.338 151.823 359.474 154.922 363.141 158.651C369.333 164.901 373.771 172.583 375.989 180.88L376.031 181.031L376.088 181.182C377.463 184.662 378.391 188.365 379.292 191.938L379.354 192.172C379.599 193.151 379.849 194.13 380.104 195.109C381.364 200.208 382.604 205.662 383.766 211.292C385.729 221.01 387.838 232.531 388.588 244.135C388.656 253.667 388.875 263.146 389.099 272.026L389.104 272.234L389.141 272.438C389.505 274.51 390.052 276.693 390.901 279.51C391.974 283.073 393.307 286.609 394.469 289.635C396.469 294.781 398.734 299.922 400.927 304.885C401.594 306.396 402.255 307.906 402.917 309.417C404.338 312.63 405.766 316.057 406.328 319.573C406.932 322.995 407.005 326.594 406.547 330.318C405.698 336.828 403.505 343.156 400.031 349.099L399.307 350.333L399.896 351.635C400.719 353.474 401.193 355.287 401.307 357.026C401.417 358.537 401.255 360.068 400.838 361.589L400.135 364.13L402.641 364.958C402.891 365.042 403.141 365.13 403.391 365.219C404.349 365.656 405.141 366.141 405.984 366.651L406.635 367.042C407.323 367.432 407.917 367.901 408.542 368.401C408.896 368.693 409.26 368.979 409.63 369.245C410.625 369.964 411.552 370.813 412.401 371.625C415.713 374.625 418.943 378.229 422.312 382.682C425.161 386.49 427.927 390.651 430.526 395.042C431.792 397.167 433.026 399.339 434.193 401.5C435.005 402.984 435.922 404.755 436.646 406.708L436.984 407.625L437.823 408.125C438.776 408.693 439.786 409.365 440.828 410.109C445.422 413.464 449.807 417.198 453.906 420.74L455.906 422.495C459.239 425.406 462.656 428.391 465.651 431.708L466.364 432.5L467.422 432.609C471.224 433 474.651 433.573 477.906 434.365L479.937 434.833C481.177 435.12 482.396 435.396 483.609 435.708L489.276 437.229C497.307 439.526 504.521 442.109 511.281 445.104C517.833 448.037 524.562 451.677 531.844 456.224L541.713 462.51L544.568 464.349C551.781 468.391 558.219 473.422 563.859 479.391C571.854 487.755 577.755 497.745 582.01 505.51C583.266 507.766 584.552 510.078 586.01 512.453C586.245 512.87 586.583 513.526 586.745 514.287C586.896 514.979 586.838 515.693 586.588 516.266C585.969 517.568 584.729 518.203 583.49 518.688C580.943 519.599 578.427 519.828 575.641 520.016C574.276 520.089 572.833 520.13 571.255 520.13C570.057 520.13 568.859 520.104 567.667 520.073C563.385 519.943 559.052 519.62 554.865 519.307L551.75 519.078C548.344 518.88 544.854 518.755 541.484 518.641C539.583 518.578 537.687 518.51 535.807 518.432C515.937 517.531 495.151 515.646 472.271 512.677C460.937 511.151 450.614 509.573 440.734 507.859C428.963 505.807 420.016 503.927 411.724 501.771L410.276 501.396L409 502.537C408.187 503.229 407.37 503.859 406.557 504.412C405.828 504.964 405.068 505.427 404.333 505.875L403.948 506.115C396.411 510.568 388.026 513.016 380.818 514.818C373.818 516.537 366.062 517.917 356.422 519.156C339.422 521.302 322.609 522.094 306.969 522.63C289.141 523.188 272.932 523.885 257.417 524.75C241.63 525.672 224.818 526.74 207.995 528.745C203.38 529.297 199.37 529.875 195.724 530.521C194.443 530.724 193.172 531 191.896 531.281C191.094 531.458 190.391 531.615 189.682 531.755C187.812 532.182 185.833 532.526 183.547 532.823C175.422 533.823 167.224 533.964 159.578 533.964H158.792Z" fill="white"/>
<path d="M583.651 509.484C582.87 508.25 582.057 506.969 581.552 505.776C577.344 498.031 571.49 488.068 563.547 479.698C559.687 475.542 555.115 471.547 549.896 467.787C547.375 466.526 544.693 464.974 541.448 462.906L531.552 456.708C524.375 452.281 517.651 448.688 510.99 445.734C504.219 442.682 497.057 440.068 489.104 437.74L483.495 436.182C482.24 435.849 480.984 435.552 479.724 435.25C479.094 435.099 478.458 434.948 477.812 434.792C476.969 434.609 476.052 434.38 474.99 434.089L472.156 433.464L471.37 433.26C469.828 432.859 468.229 432.443 466.693 431.938L466.542 431.917L466.417 431.948C463.432 429.745 460.604 427.26 457.87 424.854C456.443 423.604 455.021 422.354 453.568 421.13C449.245 417.469 444.995 413.906 440.463 410.641C439.547 409.99 438.323 409.151 436.958 408.396L433.276 406.375L425.88 402.365L418.047 398.146C415.891 396.99 413.667 395.797 411.667 394.255C414.229 395.063 416.599 396.318 418.901 397.537L426.37 401.443L433.844 405.38C434.219 405.578 434.604 405.792 434.99 406.005L436.859 407.047L435.969 405.563C435.224 404.333 434.49 403.047 433.776 401.729C432.62 399.667 431.365 397.458 430.052 395.339C427.573 391.214 424.781 387.099 421.76 383.115C418.484 378.677 415.307 375.052 412.057 372.037C411.213 371.208 410.292 370.344 409.276 369.594C408.958 369.359 408.651 369.104 408.338 368.849C407.708 368.328 407.057 367.792 406.344 367.391L403.276 365.432C402.516 365.031 401.745 364.594 400.974 364.115L400.536 363.844L400.312 364.307C398.219 368.714 394.766 372.047 391.354 374.995C388.057 377.818 384.51 380.391 381.088 382.875L380.156 383.552C376.766 386.031 373.146 388.662 369.406 391.224C372.396 388.172 375.802 385.599 379.609 382.802L380.016 382.505C383.594 379.87 387.297 377.151 390.677 374.214C393.698 371.583 397.417 368.005 399.396 363.651C401.115 359.969 401.031 355.573 399.172 351.589L398.865 350.927L398.396 351.49C398.281 351.635 398.167 351.781 398.057 351.927C397.932 352.099 397.802 352.266 397.667 352.422C396.021 354.281 394.088 356.13 391.599 358.234C390.005 359.557 388.338 360.833 386.729 362.063L385.005 363.385C383.937 364.224 382.828 365.083 381.76 365.984L381.547 366.156C380.609 366.938 379.719 367.672 378.641 368.255C379.182 367.25 379.995 366.297 381.177 365.281C382.286 364.307 383.427 363.385 384.396 362.609L385.844 361.453C387.505 360.12 389.229 358.74 390.854 357.354C393.38 355.271 395.302 353.479 396.911 351.729C397.776 350.792 398.63 349.755 399.526 348.547C399.708 348.276 399.891 348.021 400.099 347.719C403.156 342.214 405.177 336.172 405.943 330.245C406.411 326.568 406.349 323.021 405.755 319.703C405.198 316.094 403.719 312.656 402.411 309.625C401.812 308.24 401.208 306.854 400.599 305.469C398.37 300.375 396.062 295.104 394.026 289.818C392.667 286.323 391.568 283.042 390.656 279.797L389.75 279.932L390.422 305.99C389.927 296.917 389.49 287.5 389.083 277.333C388.635 267.141 388.411 256.745 388.193 246.688L388.135 244.146C387.359 233.203 385.213 222.193 383.12 211.427C382.078 206.182 380.891 200.729 379.583 195.219C379.078 192.979 378.49 190.729 377.927 188.557C377.292 186.12 376.635 183.599 376.068 181.026C374.526 176.917 373.177 173.849 371.698 171.078C369.208 166.464 366.198 162.412 362.76 159.026C359.057 155.297 354.75 152.13 351.036 149.526L349.891 148.703C348.234 147.521 346.526 146.292 344.896 144.99C343.005 143.49 340.979 141.906 338.833 140.526C336.432 138.964 334.255 137.896 332.193 137.26C331.271 136.922 330.333 136.76 329.422 136.609C329.151 136.563 328.875 136.516 328.51 136.458H328.365C328.036 136.458 327.713 136.443 327.385 136.427C327.047 136.412 326.703 136.401 326.365 136.401C325.781 136.401 325.307 136.443 324.911 136.537C320.542 137.078 316.094 139.469 312.047 143.453C310.37 145.151 308.859 146.849 306.984 149.037C305.37 150.844 303.682 152.682 301.833 154.651C298.911 157.729 295.75 160.995 292.427 164L292.375 164.047L292.344 164.104C291.932 164.776 291.516 165.432 291.099 166.083C290.349 167.266 289.573 168.484 288.87 169.745C287.781 171.76 286.781 173.984 285.885 176.349C285.307 177.87 284.755 179.417 284.198 180.969C283.13 183.969 282.021 187.068 280.682 190.047C278.687 194.526 276.13 198.776 273.083 202.672C271.542 204.646 269.969 206.531 268.448 208.359C267.193 209.891 265.672 211.662 263.88 213.203L263.713 213.349L263.719 213.573C263.745 214.141 263.755 214.708 263.766 215.271C263.781 216.125 263.797 216.969 263.849 217.818C263.979 219.734 264.245 222.203 265.146 224.297C265.495 225.094 266.104 226.141 267.016 226.609C267.766 227.016 268.948 227.151 270.104 227.255C270.562 227.287 271.026 227.313 271.469 227.313C272.213 227.313 272.792 227.234 273.26 227.068C274.276 226.776 274.911 226.182 275.323 225.141C276.016 223.25 275.943 220.885 275.812 218.635C275.719 216.396 275.234 214.151 274.771 211.984C274.698 211.63 274.625 211.281 274.547 210.927C274.156 209.078 273.75 207.167 273.958 205.073C274.068 204.063 274.562 202.719 275.672 201.953C276.495 201.313 277.521 200.99 278.885 200.922C278.911 200.922 278.948 200.917 278.99 200.912L279.047 200.901C280.13 202.693 280.906 204.573 281.521 206.177L283.672 211.667L284.969 214.979L285.062 215.057C286.937 216.583 288.656 218.469 290.646 221.172C292.599 223.771 294.297 226.495 295.833 229.042C298.797 234.083 301.463 239.625 303.974 245.969L305.63 250.365L307.073 254.87C307.755 256.828 308.302 258.87 308.833 260.844C309.104 261.865 309.38 262.891 309.672 263.891C310.182 265.885 310.635 267.938 311.073 269.922C311.307 270.969 311.536 272.016 311.771 273.037C312.411 276.365 312.776 279.135 312.917 281.693C311.99 278.766 311.385 275.802 310.88 273.214C310.635 272.193 310.401 271.167 310.167 270.141C309.708 268.167 309.24 266.13 308.713 264.125C308.417 263.141 308.141 262.151 307.865 261.156C307.318 259.182 306.75 257.141 306.042 255.182L304.573 250.74L302.891 246.412C300.359 239.917 297.76 234.396 294.948 229.542C292.911 225.948 290.427 222.302 287.125 218.078L286.328 218.516C286.854 219.99 287.219 221.474 287.411 222.938C287.88 226.38 287.526 230.151 286.297 234.813C285.812 236.604 285.245 238.458 284.552 240.469L284.505 240.599C283.896 242.307 283.318 243.922 282.396 245.62L282.302 245.797L282.365 245.99C282.693 246.953 282.969 247.948 283.187 248.938L283.365 249.75L283.958 249.167C284.838 248.307 285.859 247.287 286.792 246.26L287.26 245.745C288.474 244.422 289.724 243.052 290.766 241.479C290.156 243.583 288.797 245.281 287.453 246.849C285.943 248.557 284.302 250.177 282.724 251.74C281.588 252.844 280.453 253.932 279.312 255.016C277.219 257.021 275.057 259.089 272.984 261.182L272.24 261.943C269.37 264.875 266.401 267.906 264.068 271.224C262.755 273.057 261.547 274.927 260.318 276.839C260.094 277.182 259.875 277.531 259.651 277.875C258.854 279.12 258.026 280.412 257.042 281.568L256.953 281.672L256.937 281.813C256.818 282.906 256.719 284.068 256.635 285.391C256.604 287.052 256.562 288.771 256.641 290.474C256.734 293.964 257.026 297.448 257.323 300.693C257.547 303.333 257.802 305.979 258.052 308.63C258.448 312.74 258.854 316.99 259.135 321.193C259.396 324.922 259.521 328.292 259.521 331.505C259.562 334.979 259.26 338.089 258.599 340.995L258.615 331.495C258.578 328.292 258.422 324.844 258.151 321.255C257.828 317 257.375 312.677 256.937 308.49C256.667 305.927 256.396 303.365 256.156 300.797C255.797 296.677 255.609 293.5 255.547 290.479C255.474 288.797 255.526 287.13 255.578 285.323C255.708 283.641 255.854 281.854 256.094 280.167C256.547 276.557 257.021 273.219 257.552 269.964C258.094 266.912 258.651 263.755 259.911 260.719L260.01 260.479L259.859 260.271C258.12 257.865 256.49 255.359 254.911 252.927L253.708 251.099C252.453 249.198 251.156 247.229 249.812 245.359C249.276 244.646 248.719 243.922 248.156 243.193C246.875 241.526 245.547 239.802 244.354 238.021C243.536 236.807 242.687 235.479 242 233.995C241.25 232.417 240.901 230.755 241.01 229.323C241.255 226.057 242.838 223.401 244.37 220.833L246.859 216.771C247.365 215.938 247.776 215.146 248.219 214.307C248.479 213.813 248.75 213.292 249.042 212.755C250.771 209.875 253.141 207.859 255.896 206.927L256.031 206.88L256.12 206.766C256.948 205.662 257.885 204.833 258.901 204.313C258.943 204.292 258.984 204.276 259.031 204.255C259.104 204.229 259.177 204.198 259.25 204.167L259.599 203.99L260.031 203.833C260.906 203.521 261.849 203.344 262.75 203.328L263.047 203.323C263.724 203.323 264.401 203.375 265.052 203.484L265.625 203.583L265.588 203C265.542 202.318 265.635 201.583 265.885 200.693L266.677 197.755C267.01 196.594 267.365 195.448 267.719 194.307C267.958 193.531 268.203 192.755 268.432 191.979L268.5 191.76C269.057 189.943 269.641 188.068 270.109 186.182C270.328 185.234 270.552 184.255 270.724 183.281C270.87 182.359 271.005 181.495 271.406 180.646L271.448 180.537V180.349L271.417 180.266C271.042 179.287 270.687 178.307 270.338 177.333C269.807 175.854 269.26 174.323 268.635 172.849C267.51 170.255 266.115 167.802 264.495 165.547C261.24 161.135 257.042 157.385 252.036 154.412C248.766 152.344 245.151 150.719 241.651 149.146C240.036 148.422 238.417 147.693 236.812 146.917L229.141 143.198C226.719 142.016 224.151 140.693 221.776 138.964C223.505 139.568 225.297 140.323 227.573 141.406L228.354 141.776L228.224 140.922C227.974 139.234 227.792 137.505 227.615 135.833L227.604 135.74C227.583 135.052 227.557 134.365 227.531 133.672C227.474 132.182 227.417 130.646 227.453 129.162C227.49 128.51 227.51 127.875 227.531 127.224L227.547 126.542L226.906 126.776C224.62 127.625 222.167 127.854 219.786 128.078L218.588 128.193C214.776 128.557 211.667 129.422 209.094 130.833C202.906 134.188 198.745 140.328 195.797 145.323C193.932 148.844 192.354 152.641 190.828 156.313C189.802 158.771 188.745 161.307 187.609 163.76C185.844 167.521 183.641 172.208 180.948 176.333L181.641 176.932C186.083 173.026 190.865 169.391 195.391 166.073C193.198 168.078 190.901 170.031 188.677 171.927C185.963 174.234 183.156 176.62 180.536 179.099C175.021 184.271 171.219 189.375 168.911 194.708C166.562 200.078 165.255 206.328 164.917 213.807C164.63 220.135 164.224 226.599 163.677 233.583C163.354 237.865 162.953 242.203 162.562 246.401C162.354 248.703 162.141 251.005 161.937 253.313C161.391 259.792 160.823 266.49 161.307 273.01C161.625 276.682 162.286 279.792 163.333 282.51C163.911 284.031 164.599 285.375 165.448 286.927C166.224 288.401 166.958 289.859 167.698 291.349C170.354 296.766 172.38 301.365 174.094 305.859C175.974 309.849 177.677 313.932 179.099 317.401L185.125 331.974L197.255 361.063L209.406 390.135C211.338 394.755 213.37 399.432 215.333 403.953C217.37 408.63 219.469 413.464 221.484 418.292C219.156 414.568 217.323 410.547 215.547 406.656L214.786 404.99L208.5 390.531L196.187 361.521L184.182 332.359L178.229 317.771C176.776 314.203 175.094 309.984 173.599 305.714L173.37 305.068L172.854 305.521C168.922 309.026 165.24 312.943 161.677 316.734L161.359 317.073C160.057 318.469 158.766 319.875 157.474 321.281C154.906 324.073 152.25 326.958 149.583 329.74C145.323 334.172 141.266 338.13 137.177 341.828C134.198 344.563 131 347.188 127.911 349.729C126.583 350.818 125.266 351.901 123.963 352.99C114.302 361.271 106.766 369.583 100.917 378.396C93.9843 388.662 90.2499 399.682 90.1093 410.271V410.354C90.1093 410.354 90.151 410.469 90.1614 410.49L89.5208 410.833C88.7239 411.266 87.9166 411.656 87.1145 412.047C86.5364 412.328 85.9583 412.609 85.3906 412.896C84.776 413.208 84.1666 413.552 83.5676 413.891L83.0468 414.182L82.3333 414.656C81.8385 414.979 81.3489 415.297 80.8749 415.635C77.9218 417.745 75.4218 420.255 73.4426 423.104C71.1353 426.349 69.5989 429.422 68.7447 432.464C68.2812 433.635 68.0468 434.87 67.8228 436.063C67.7239 436.583 67.6249 437.104 67.4999 437.651C67.4374 438.037 67.3853 438.422 67.3281 438.802C67.2031 439.703 67.0781 440.552 66.8749 441.427L66.8645 441.484V441.547C66.8801 442.037 66.8801 442.526 66.8749 443.01C66.8749 443.604 66.8749 444.193 66.901 444.771C66.9947 446.672 67.2812 448.162 67.7968 449.453C68.7291 452.104 70.8176 454.474 74.0156 456.49C76.5781 458.13 79.5624 459.495 82.8489 460.531C83.8958 460.922 84.9791 461.214 86.0312 461.5C86.5416 461.635 87.0624 461.776 87.5937 461.932L87.7864 461.979C89.2395 462.354 90.6145 462.703 91.9531 463.38C91.8906 463.38 91.8333 463.38 91.776 463.38C89.0781 463.38 86.4426 462.615 83.8958 461.875C83.4426 461.74 82.9947 461.609 82.552 461.484C79.0312 460.427 76.0312 459.115 73.3853 457.474C71.0833 455.99 68.0781 453.453 66.8333 449.802C66.3072 448.406 66.0208 446.771 65.9583 444.781C65.9426 444.557 65.9478 444.323 65.9531 444.094L65.9583 443.13L65.3749 443.287C55.8228 445.88 48.1874 449.151 42.026 453.281C38.0572 455.964 34.9999 459.016 32.6822 462.589C31.9114 463.682 31.1301 464.771 30.3593 465.859C28.5676 468.375 26.7135 470.974 24.9478 473.557C22.8489 476.609 20.1249 480.641 17.6458 484.807C16.2708 487.125 15.2916 488.938 14.4635 490.672C13.5728 492.557 12.6041 494.745 12.3489 496.807C12.2916 497.349 12.3124 497.87 12.4218 498.281L12.8853 499.896L13.8489 503.083C14.5312 505.307 15.3333 507.396 16.2187 509.281C18.3072 513.771 21.026 517.198 24.2864 519.469C27.5468 521.755 31.5937 522.964 35.9843 522.964C36.2187 522.964 36.4478 522.958 36.6926 522.953L43.3853 522.568C43.9478 522.563 44.5156 522.557 45.0781 522.557C47.1249 522.557 48.6822 522.604 50.1406 522.714C57.8437 523.188 65.5312 524.5 72.9635 525.771C74.2447 525.99 75.5312 526.208 76.8072 526.422C87.4114 528.266 95.5937 529.521 103.349 530.495C108.755 531.208 114.531 531.833 121.542 532.479C135.396 533.26 147.578 533.641 158.792 533.641C166.698 533.625 175.156 533.464 183.484 532.401C185.875 532.073 187.797 531.729 189.526 531.323C190.271 531.172 191.01 531.005 191.755 530.839C193.026 530.557 194.333 530.266 195.635 530.068C199.312 529.422 203.333 528.833 207.927 528.276C224.557 526.313 241.479 525.229 257.38 524.287C273.26 523.412 289.474 522.724 306.953 522.177C322.641 521.63 339.484 520.833 356.37 518.698C366.213 517.427 373.724 516.094 380.724 514.375C387.932 512.563 396.297 510.12 403.713 505.724L404.021 505.531C404.781 505.068 405.562 504.583 406.255 504.052C407.016 503.557 407.797 502.964 408.708 502.188C410.245 500.87 411.755 499.453 413.193 497.979C416.208 494.927 419.146 491.677 421.62 488.901C422.458 487.974 423.286 487.042 424.12 486.104C426.005 483.99 427.953 481.802 429.922 479.682C431.276 478.219 432.724 476.672 434.266 475.224L434.568 474.932C435.979 473.557 437.312 472.255 438.557 470.818C441.474 467.589 443.797 464.198 445.474 460.74C447.359 456.75 448.375 452.797 448.5 448.99C448.693 445.109 447.995 441.094 446.411 437.057C445.078 433.594 443.219 430.281 440.87 427.198C446.578 432.833 449.755 440.917 449.406 449.021C449.271 452.943 448.229 457.016 446.307 461.135C444.594 464.63 442.213 468.094 439.234 471.427C438.135 472.703 436.911 473.906 435.724 475.068L434.885 475.885C433.401 477.276 431.974 478.802 430.573 480.297C428.505 482.557 426.458 484.859 424.406 487.162L422.302 489.526C419.5 492.646 416.745 495.693 413.849 498.63C413.052 499.443 412.182 500.281 411.182 501.198L410.505 501.823L411.411 501.995C420.484 503.708 430.771 505.656 440.823 507.396C450.708 509.073 461.021 510.62 472.349 512.13C494.958 515.01 515.724 516.844 535.839 517.74C537.807 517.828 539.76 517.896 541.719 517.969C544.995 518.089 548.391 518.214 551.781 518.422L554.464 518.63C558.797 518.969 563.276 519.318 567.687 519.458C568.964 519.505 570.234 519.531 571.5 519.531C572.964 519.531 574.307 519.495 575.609 519.422C578.182 519.276 580.896 519.021 583.26 518.167C584.75 517.781 585.656 517.135 586.031 516.193C586.75 514.37 585.245 512 583.651 509.484ZM99.2656 489.844L99.2864 490.292C103.292 490.599 107.349 491 111.276 491.391C112.88 491.552 114.479 491.714 116.083 491.865C121.229 492.359 126.745 492.776 132.948 493.141C141.521 493.662 150.588 493.927 159.896 493.927C162.182 493.927 164.463 493.912 166.745 493.885C171.37 493.885 176.068 493.703 180.615 493.531L183.656 493.422L192.073 492.901L196.302 492.625L200.49 492.234C206.958 491.781 213.453 490.859 219.74 489.969C224.005 489.359 228.406 488.74 232.802 488.26C228.198 489.375 222.875 490.542 217.427 491.208L209.026 492.354L200.594 493.219L196.375 493.646L192.156 493.922L183.703 494.495L180.115 494.641C175.74 494.828 171.213 495.016 166.755 495.031C164.974 495.052 163.187 495.063 161.401 495.063C151.812 495.063 142.224 494.76 132.896 494.162C126.245 493.729 120.88 493.292 116.01 492.797C110.969 492.302 105.042 491.62 99.2499 490.307C99.2551 490.297 99.2656 490.292 99.2656 490.292V489.844ZM152.901 416.542C153.302 416.943 153.708 417.339 154.115 417.74C154.786 418.396 155.453 419.052 156.125 419.75C158.51 421.995 160.755 423.953 162.974 425.745C164.922 427.328 166.948 428.896 168.906 430.412C171.698 432.568 174.578 434.797 177.318 437.146C182.146 441.302 186.385 445.802 189.917 450.516C191.667 452.885 193.5 455.448 195.078 458.151C196.484 460.297 197.75 462.807 198.937 465.807C197.88 464.38 196.943 462.854 196.042 461.38C195.469 460.448 194.896 459.516 194.307 458.62C192.802 456.115 191.146 453.844 189.135 451.125C185.531 446.432 181.297 442.026 176.552 438.021C173.797 435.63 170.87 433.323 168.036 431.094C166.13 429.589 164.213 428.078 162.323 426.526C160.062 424.677 157.755 422.62 155.458 420.422C154.443 419.385 153.411 418.292 152.328 417.089C151.203 415.682 150.333 414.51 149.599 413.375C149.604 413.37 149.615 413.365 149.625 413.365L149.667 413.401C150.656 414.26 151.677 415.255 152.901 416.542ZM253.109 407.115L252.802 407.672C252.307 408.578 251.797 409.516 251.24 410.37C250.495 411.37 249.786 412.224 249.13 412.964C249.568 411.979 250.057 411.016 250.63 410.021C250.823 409.646 251.005 409.271 251.182 408.891C251.536 408.167 251.885 407.448 252.286 406.719C253.417 404.25 254.281 401.99 254.932 399.818C256.276 395.385 257.167 390.609 257.651 385.229C258.099 380.859 258.302 375.995 258.281 370.354C258.281 367.917 258.229 365.448 258.177 363.063L258.172 362.87C258.099 360.5 258.088 357.958 258.49 355.422L258.531 355.453C258.932 357.787 259.057 360.094 259.115 362.839L259.161 364.292C259.224 366.302 259.286 368.313 259.302 370.339C259.385 376.109 259.234 380.875 258.823 385.339C258.224 390.922 257.266 395.755 255.88 400.12C255.187 402.344 254.276 404.641 253.109 407.115ZM295.656 417.693C293.5 417.078 291.38 416.063 289.167 414.594C285.667 412.193 282.38 408.901 279.125 404.547C276.578 401.125 274.151 397.177 271.713 392.479C269.708 388.609 267.807 384.391 265.906 379.599C264.396 375.724 262.713 371.099 261.719 366.109L261.729 365.672V366.109L261.771 366.135C262.453 367.896 263.115 369.656 263.781 371.422C264.771 374.037 265.755 376.656 266.786 379.255C268.682 383.969 270.588 388.141 272.615 392C275.01 396.568 277.422 400.453 279.995 403.88C283.255 408.182 286.474 411.365 289.828 413.62C291.865 415.005 293.927 416.016 295.969 416.62C297.172 416.974 298.266 417.198 299.312 417.302L302.828 417.635C307.219 418.016 311.932 418.578 316.838 419.297C321.391 419.948 326.062 420.818 330.719 421.88C334.859 422.88 339.224 424.037 343.292 426.146C334.713 423.51 325.766 421.537 316.687 420.271C311.307 419.537 306.87 419.042 302.724 418.714L299.208 418.401C298.088 418.297 296.896 418.063 295.656 417.693ZM369.495 392.057C380.427 395.766 389.333 398.922 397.609 402.037C409.838 406.787 422.469 411.693 433.865 418.547C432.021 417.708 430.182 416.865 428.344 416.026C424.375 414.208 420.276 412.328 416.187 410.557C410.359 408.047 404.135 405.552 397.156 402.927C384.578 398.245 372.146 394.083 358.365 389.516L338.932 382.901C337.531 382.406 336.135 381.922 334.734 381.438C329.755 379.714 324.609 377.927 319.599 375.865C312.995 373.063 306.974 369.625 301.698 365.651C298.906 363.599 296.312 361.292 294 358.797C291.203 355.708 289.375 353.109 288.146 350.385C289.724 352.912 291.828 355.484 294.568 358.245C296.755 360.505 299.271 362.688 302.26 364.917C307.49 368.807 313.453 372.172 320.005 374.922C324.958 376.943 330.177 378.734 335.219 380.469C336.578 380.932 337.927 381.396 339.281 381.865L358.734 388.412C362.01 389.505 365.281 390.615 368.557 391.724L368.635 391.75L368.625 391.76L369.495 392.057ZM298.135 213.932C296.182 212.594 293.948 211.354 291.5 210.245C290.453 209.771 289.292 209.307 287.885 208.802C286.76 208.417 285.594 208.016 284.615 207.406L284.604 207.292L284.552 207.266C284.687 207.255 284.823 207.25 284.953 207.25C286.146 207.25 287.24 207.594 288.266 207.943C289.484 208.344 290.703 208.807 291.885 209.318C294.562 210.458 296.818 211.651 298.776 212.953C301.031 214.516 303 216.276 304.604 218.151C304.781 218.396 304.969 218.641 305.151 218.885C305.781 219.724 306.38 220.521 306.844 221.458C307.443 222.385 307.807 223.542 307.922 224.896C307.443 224.333 307.115 223.74 306.771 223.109C306.536 222.688 306.302 222.266 306.052 221.906C305.615 221.047 305.016 220.287 304.443 219.557C304.255 219.318 304.068 219.083 303.859 218.813C302.292 217.063 300.365 215.422 298.135 213.932ZM259.333 203.396C258.526 202.729 257.958 201.932 257.458 201.156L256.802 200.198C256.406 199.615 256.005 199.026 255.583 198.448L255.245 197.995C254.068 196.417 252.849 194.781 251.557 193.271C249.927 191.292 248.531 189.74 247.151 188.375C246.38 187.63 245.588 186.854 244.75 186.167L244.542 185.984C243.797 185.344 243.094 184.74 242.578 184.026L242.599 183.901L242.552 183.844C243.687 184.099 244.526 184.74 245.359 185.432C246.26 186.162 247.099 186.927 247.87 187.646C249.359 189.052 250.859 190.651 252.453 192.526C253.865 194.229 255.198 196.026 256.406 197.849C256.698 198.333 257.01 198.797 257.323 199.266C258.219 200.609 259.068 201.88 259.411 203.458L259.333 203.396ZM90.2031 410.542C90.2083 410.542 90.2083 410.537 90.2083 410.526C91.8749 419.719 99.2656 426.354 104.677 430.542C109.208 434.068 114.088 437.349 118.807 440.516C121.094 442.052 123.38 443.589 125.646 445.162C131.458 449.229 138.974 454.734 145.594 461.313C148.755 464.469 151.562 467.766 153.943 471.109C156.557 474.792 158.432 478.271 159.651 481.719C157.594 478.234 155.536 474.839 153.193 471.646C150.807 468.323 148.016 465.089 144.896 462.026C138.302 455.557 130.786 450.13 124.974 446.125C122.781 444.589 120.557 443.078 118.333 441.563C113.578 438.328 108.667 434.984 104.042 431.349C100.021 428.162 97.0781 425.307 94.776 422.359C92.0103 418.938 90.3853 414.979 90.2031 411.219L90.1666 410.5C90.1822 410.526 90.1926 410.542 90.2031 410.542Z" fill="#F97645"/>
<path d="M284.844 87.2449C284.469 86.3022 284.193 85.3751 283.953 84.5261C283.479 82.7084 283.224 80.8751 282.984 79.0001C282.776 77.2397 282.667 75.5053 282.563 73.4532L282.469 70.6407C282.427 69.7292 282.505 69.0001 282.708 68.3595L282.865 67.8699L282.359 67.7657C280.927 67.4792 279.401 67.3334 277.823 67.3334C275.359 67.3334 272.734 67.6876 270.031 68.3855C266.052 69.4845 262.156 71.3959 258.453 74.0782C254.526 76.9792 251.365 79.8334 248.807 82.7917C245.688 86.1876 242.813 89.5261 240.26 92.7136C237.313 96.4376 235.073 100.042 233.412 103.74C231.766 107.417 230.526 111.479 229.625 116.167L229.089 119.396L228.755 122.62C228.568 124.073 228.51 125.552 228.458 126.984C228.432 127.703 228.406 128.427 228.359 129.167L228.307 135.703C228.328 138.016 228.318 139.781 228.271 141.438L228.26 141.729L228.526 141.865C228.698 141.948 228.87 142.031 229.047 142.109C229.214 142.188 237.245 145.99 237.245 145.99C238.87 146.771 240.568 147.51 242.203 148.229C245.698 149.755 249.307 151.333 252.625 153.412C252.714 153.469 252.797 153.531 252.88 153.589C253.016 153.688 253.156 153.787 253.307 153.88L253.979 154.297L254.01 153.505C254.026 153.063 254.109 152.641 254.188 152.276L254.672 149.682L254.917 148.245C255.135 146.99 255.354 145.74 255.537 144.484C255.818 142.839 256.109 141.068 256.318 139.26C256.412 138.391 256.505 137.516 256.578 136.646C256.63 136.063 256.682 135.458 256.859 134.865L257.005 134.359L256.484 134.281C255.828 134.182 255.234 134.047 254.724 133.891C252.563 133.198 250.818 132.177 249.521 130.854C249.104 130.448 248.75 129.974 248.396 129.474L248.063 129.01L247.677 129.432C247.479 129.651 247.276 129.87 247.073 130.083C246.724 130.458 246.37 130.833 246.037 131.224C244.849 132.662 244.005 133.813 243.297 134.958L241.063 138.615C241.089 137.037 241.792 135.703 242.516 134.474C243.255 133.245 244.125 132.01 245.25 130.589C245.912 129.781 246.635 129 247.339 128.245L247.547 128.021L247.422 127.74C247.063 126.943 246.828 126.224 246.698 125.552C246.318 123.537 246.203 121.641 246.333 119.589C246.5 117.344 246.984 115.443 247.823 113.76C248.594 112.162 250.229 110.313 252.521 109.912C252.88 109.849 253.25 109.818 253.615 109.818C255.099 109.818 256.656 110.323 258.375 111.37C259.745 112.198 260.917 113.229 261.859 114.438L262.167 114.839L262.537 114.49C263.141 113.922 263.729 113.391 264.412 112.802C264.75 112.391 265.068 111.958 265.396 111.51C266.307 110.177 267.193 108.865 267.964 107.49C268.672 106.276 269.495 104.823 270.255 103.26C270.609 102.531 270.948 101.807 271.266 101.078C271.313 100.964 271.359 100.849 271.427 100.734L271.891 99.9324L270.969 100.047C269.406 100.25 267.76 100.344 265.927 100.344C265.047 100.344 264.167 100.323 263.307 100.287L262.172 100.208C260.74 100.104 259.385 100.005 258.01 100.005C257.427 100.005 256.844 100.021 256.26 100.063C253.823 100.203 251.542 100.688 249.474 101.5C247.276 102.38 245.297 103.688 243.745 105.292C242.412 106.693 241.208 108.37 239.912 110.703C240.167 108.641 241.26 106.552 243.083 104.651C244.677 102.953 246.755 101.542 249.083 100.563C251.776 99.4324 254.964 98.8595 258.563 98.8595C260.052 98.8595 261.656 98.9584 263.359 99.1563C264.479 99.2188 265.5 99.2501 266.484 99.2501C270.74 99.2501 274.229 98.6511 277.156 97.4167C279.448 96.4584 281.328 95.0522 282.604 93.3438C283.74 91.7917 284.537 89.8855 284.958 87.6876L284.948 87.4011L284.844 87.2449ZM241.063 138.87H241.073L241.063 138.885C241.063 138.88 241.063 138.875 241.063 138.87ZM342.578 141.76L341.359 140.875C340.734 140.422 340.115 139.969 339.458 139.547C337.073 137.974 334.802 136.875 332.505 136.177C331.505 135.813 330.495 135.651 329.422 135.479L328.662 135.359C328.646 135.359 328.63 135.359 328.615 135.359C328.349 135.359 328.026 135.344 327.703 135.333C327.302 135.318 326.896 135.297 326.49 135.297C325.828 135.297 325.292 135.344 324.802 135.448C321.5 135.865 318.245 137.24 315.089 139.531L313.922 140.375L314.375 139.01C314.5 138.635 314.589 138.245 314.677 137.854C314.87 137.099 315.026 136.344 315.182 135.599L315.375 134.672L315.401 134.62C317.167 131.188 318.448 127.693 319.208 124.224C319.797 121.589 320.005 119.432 319.865 117.443C319.708 114.969 318.865 112.672 317.49 110.969C316.13 109.203 314.188 107.964 312.469 106.87L312.182 106.682C310.745 105.698 309.344 104.568 307.99 103.479L306.927 102.625L301.255 97.9376L299.932 96.849L300.323 96.0417C303.234 96.6928 306.177 97.2345 309.016 97.7605C309.505 97.8542 309.984 97.9376 310.464 98.0209C312.229 98.3334 313.896 98.6303 315.526 99.224C317.76 99.974 319.703 101 321.297 102.271C323.083 103.682 324.432 105.458 325.193 107.401C325.927 109.276 326.172 111.26 326.427 113.365L326.438 113.458C327 111.432 326.865 109.13 326.052 107.073C325.266 104.974 323.844 103.037 321.938 101.474C318.865 98.9532 314.703 97.3699 309.224 96.6355L308.068 96.4324C304.073 95.7345 299.943 95.0157 296.016 93.9428C293.365 93.1772 291.479 92.4063 289.891 91.4532C288.479 90.5678 287.292 89.5626 286.26 88.3595L286.203 88.2917L286.177 88.2084C286.031 87.7709 285.87 87.3542 285.688 86.9011C285.422 86.1459 285.193 85.297 284.979 84.2917C284.63 82.5522 284.349 80.724 284.141 78.8647C283.901 77.0522 283.714 75.198 283.583 73.3751L283.417 70.6303C283.38 69.797 283.323 69.047 283.042 68.3126L282.88 67.8959L283.287 67.7188C285.323 66.8334 287.662 66.3855 290.234 66.3855C291.99 66.3855 293.885 66.5938 295.88 67.0105C299.984 67.8647 304.083 69.5782 308.052 72.099C315.146 76.5938 321.167 83.4011 325.469 91.7917C329.698 100.146 333.292 108.406 336.146 116.349C337.797 120.896 339.089 125.078 340.099 129.135C340.948 132.563 341.677 136.224 342.401 140.656L342.578 141.76Z" fill="#3A5471"/>
<mask id="mask0_203_121" style="mask-type:luminance" maskUnits="userSpaceOnUse" x="10" y="65" width="578" height="471">
<path d="M10.6667 65.0312H588V535.031H10.6667V65.0312Z" fill="white"/>
</mask>
<g mask="url(#mask0_203_121)">
<path d="M587.651 514.094C587.479 513.297 587.156 512.604 586.797 511.969C585.391 509.667 584.125 507.406 582.823 505.068C577.719 495.745 571.974 486.542 564.531 478.755C558.875 472.771 552.307 467.635 545.146 463.615C544.167 462.984 543.188 462.359 542.208 461.729L532.333 455.443C525.698 451.297 518.823 447.469 511.656 444.255C504.474 441.073 497.047 438.49 489.516 436.339L483.839 434.813C481.943 434.323 480.031 433.922 478.125 433.469C474.641 432.62 471.099 432.063 467.526 431.693C467.422 431.568 467.328 431.432 467.219 431.302L467.146 431.229C463.005 427.417 458.823 423.662 454.563 419.974C450.302 416.297 445.979 412.693 441.365 409.365C440.219 408.547 438.995 407.745 437.75 407.047C437.037 404.948 436.057 402.984 435.01 401.063C433.828 398.875 432.594 396.708 431.323 394.573C428.787 390.287 426.042 386.125 423.052 382.125C420.042 378.146 416.771 374.333 413.042 370.953C412.13 370.089 411.203 369.24 410.172 368.5C409.151 367.755 408.234 366.88 407.12 366.255C406.026 365.604 404.958 364.912 403.802 364.386C402.927 364.068 402.037 363.792 401.146 363.542C401.984 361.484 402.391 359.208 402.229 356.964C402.078 354.641 401.344 352.422 400.328 350.401C404.057 344.271 406.542 337.526 407.464 330.427C407.912 326.787 407.885 323.068 407.24 319.427C406.656 315.771 405.198 312.297 403.766 309.047C400.891 302.464 397.922 295.958 395.333 289.307C394.057 285.979 392.813 282.641 391.787 279.245C391.078 276.891 390.438 274.511 390.016 272.104C389.787 262.771 389.578 253.474 389.51 244.073C388.792 232.917 386.87 221.979 384.672 211.104C383.547 205.672 382.333 200.261 381 194.875C379.76 190.167 378.74 185.37 376.938 180.813C374.693 172.276 370.047 164.313 363.802 158.005C360.182 154.323 356.068 151.208 351.938 148.266C349.88 146.781 347.833 145.328 345.885 143.755C344.943 142.995 343.984 142.24 343.005 141.495C343.198 137.203 342.464 132.932 341.453 128.802C340.38 124.412 339.042 120.099 337.557 115.849C334.542 107.359 331.042 99.0522 326.865 91.0574C322.688 83.0001 316.609 75.7449 308.823 70.8699C304.953 68.4376 300.682 66.5782 296.156 65.6459C293.891 65.2084 291.557 65.0314 289.234 65.2293C287 65.4584 284.74 66.0678 282.823 67.323C278.594 65.5991 273.943 65.9376 269.677 67.0314C265.313 68.2136 261.24 70.2761 257.604 72.8647C254 75.4897 250.589 78.4011 247.656 81.7345C246.109 83.3543 244.708 84.9949 243.25 86.6459C241.797 88.2918 240.354 89.9689 238.979 91.7136C236.24 95.2032 233.813 99.0105 232.01 103.115C230.198 107.208 229 111.537 228.198 115.906L227.672 119.193L227.344 122.5C227.203 123.625 227.146 124.755 227.104 125.88C224.302 126.427 221.438 126.49 218.453 126.787C215.057 127.083 211.521 127.833 208.401 129.516C205.266 131.162 202.625 133.531 200.333 136.115C198.078 138.75 196.078 141.495 194.391 144.552C191.208 150.682 189.068 157.063 186.281 163.172C184.917 166.234 183.464 169.25 181.87 172.193C180.448 174.807 178.984 177.386 177.589 180.042C173.516 184.104 169.922 188.781 167.594 194.136C164.849 200.333 163.745 207.083 163.412 213.734C163.078 220.318 162.641 226.891 162.094 233.458L160.375 253.182C159.865 259.771 159.313 266.412 159.854 273.125C160.156 276.469 160.771 279.844 162.026 283.021C162.625 284.604 163.448 286.167 164.219 287.583C164.995 289.031 165.745 290.49 166.484 291.958C168.641 296.208 170.688 300.516 172.781 304.813C168.068 307.969 164.146 312.068 160.333 316.12C156.385 320.333 152.51 324.589 148.51 328.708C144.516 332.839 140.401 336.844 136.13 340.667C131.875 344.542 127.391 348.011 122.906 351.755C114.146 359.344 106.099 367.859 99.6876 377.594C96.5105 382.469 93.7397 387.656 91.8438 393.208C90.0053 398.589 89.0261 404.391 89.7449 410.057C87.9584 410.229 86.3282 410.859 84.7709 411.63C83.9376 412.031 83.1407 412.495 82.3334 412.932C81.5626 413.432 80.7657 413.901 80.0157 414.432C76.9897 416.537 74.2657 419.12 72.1199 422.141C70.0313 425.182 68.2761 428.505 67.3386 432.073C66.5365 434.88 65.8959 437.787 65.974 440.703C65.797 441.328 65.672 441.974 65.5938 442.625C61.4115 443.339 57.3334 444.453 53.3647 445.943C49.1251 447.537 45.0105 449.537 41.224 452.109C37.4532 454.635 33.9792 457.932 31.5053 461.745C28.9063 465.38 26.2709 469.016 23.7084 472.708C21.1511 476.401 18.6459 480.141 16.323 484.016C15.1667 485.958 14.0522 487.927 13.0574 489.984C12.0834 492.057 11.1147 494.146 10.7813 496.646C10.7136 497.276 10.7032 497.958 10.8907 498.688L11.3542 500.318L12.3022 503.573C12.9792 505.74 13.7657 507.896 14.7449 509.979C16.698 514.12 19.4845 518.068 23.3855 520.76C27.2761 523.474 32.0938 524.635 36.7084 524.484L43.4272 524.073C45.6355 524.052 47.8438 524.047 50.0574 524.203C58.922 524.724 67.7397 526.359 76.573 527.818C92.2136 530.521 108.037 532.88 123.948 533.406C135.537 534.25 147.151 534.787 158.792 534.885C167.073 534.896 175.375 534.76 183.662 533.74C185.734 533.474 187.802 533.135 189.865 532.662C191.885 532.255 193.849 531.75 195.885 531.432C199.927 530.719 204.01 530.151 208.104 529.662C224.479 527.714 240.979 526.641 257.469 525.677C273.969 524.75 290.474 524.073 307 523.552C323.526 522.984 340.083 522.151 356.542 520.073C364.76 519.016 372.964 517.698 381.042 515.714C389.094 513.703 397.146 511.208 404.422 506.906C405.323 506.354 406.229 505.818 407.078 505.177C407.953 504.578 408.792 503.932 409.599 503.245C409.912 502.974 410.208 502.693 410.516 502.417C420.432 505.042 430.484 507.01 440.573 508.771C451.068 510.594 461.599 512.172 472.151 513.594C493.266 516.333 514.484 518.391 535.766 519.354C541.063 519.578 546.464 519.693 551.682 520C556.969 520.38 562.292 520.839 567.641 520.995C570.318 521.073 573 521.089 575.698 520.938C578.396 520.76 581.12 520.521 583.828 519.547C585.13 519.042 586.646 518.297 587.432 516.635C587.797 515.807 587.818 514.88 587.651 514.094ZM295.787 67.4636C300.042 68.3543 304.109 70.1459 307.802 72.4897C315.229 77.1876 321.047 84.172 325.057 92.0001C329.073 99.9376 332.708 108.12 335.719 116.5C337.224 120.693 338.573 124.938 339.656 129.24C340.589 133.042 341.333 136.854 341.958 140.719C341.224 140.182 340.479 139.656 339.708 139.162C337.547 137.734 335.188 136.505 332.641 135.74C331.391 135.276 330.047 135.13 328.734 134.896C327.396 134.891 326.037 134.714 324.714 134.995C321.047 135.464 317.724 137.052 314.823 139.156C314.938 138.761 315.047 138.359 315.141 137.953C315.375 136.943 315.589 135.917 315.802 134.896C317.516 131.573 318.839 128.037 319.667 124.328C320.156 122.094 320.49 119.781 320.323 117.412C320.177 115.052 319.396 112.594 317.849 110.688C316.365 108.761 314.229 107.438 312.427 106.297C310.651 105.068 308.948 103.651 307.219 102.261L302.057 97.9845C301.443 97.5053 300.844 96.9949 300.24 96.4949C303.135 97.1407 306.037 97.6668 308.927 98.2136C311.177 98.6407 313.328 98.922 315.365 99.6511C317.406 100.349 319.359 101.318 321.021 102.63C322.672 103.943 324.005 105.625 324.766 107.568C325.531 109.521 325.75 111.609 326.026 113.849C326.042 113.995 326.146 114.13 326.292 114.182C326.5 114.245 326.719 114.13 326.787 113.927C327.505 111.693 327.37 109.162 326.484 106.901C325.63 104.625 324.089 102.636 322.234 101.125C318.526 98.0886 313.698 96.7761 309.292 96.1772C304.859 95.3959 300.412 94.6668 296.146 93.4897C294.031 92.8855 291.948 92.1564 290.13 91.0574C288.792 90.2345 287.635 89.2397 286.609 88.0626C286.458 87.6251 286.302 87.1928 286.12 86.7397C285.833 85.9272 285.609 85.0626 285.422 84.1928C285.073 82.4324 284.792 80.6303 284.594 78.8178C284.354 77.0053 284.172 75.1772 284.042 73.3491L283.87 70.5991C283.839 69.7761 283.776 68.9584 283.469 68.1407C287.302 66.4845 291.688 66.6095 295.787 67.4636ZM291.974 163.391C290.984 163.682 290.156 164.011 289.177 164.151L288.349 164.292L287.49 164.313C286.922 164.359 286.339 164.302 285.76 164.245C283.432 164.005 281.109 163.339 278.865 162.5C276.599 161.703 274.375 160.724 272.234 159.589C271.167 159.021 270.109 158.427 269.083 157.787C268.057 157.146 267.073 156.484 265.859 156.073L265.839 156.063C265.693 156.016 265.526 156.031 265.391 156.125C265.156 156.287 265.099 156.599 265.255 156.828C266 157.922 267.026 158.688 268.083 159.359C269.135 160.047 270.219 160.688 271.313 161.297C273.505 162.516 275.781 163.589 278.151 164.464C280.542 165.287 283.01 165.948 285.599 166.151C286.245 166.203 286.896 166.25 287.557 166.188L288.547 166.136L289.542 165.943C289.615 165.932 289.693 165.901 289.771 165.886C287.438 168.833 285.906 172.396 284.505 175.797C284.276 176.37 284.068 176.948 283.849 177.521C283.682 177.474 283.516 177.448 283.349 177.453C282.912 177.474 282.474 177.474 282.037 177.563C281.151 177.677 280.302 178.037 279.531 178.484C278.875 178.906 278.307 179.432 277.807 180.011C277.797 179.964 277.787 179.922 277.771 179.88C277.693 179.412 277.292 178.917 277.005 178.479C276.573 178.063 276.094 177.698 275.495 177.563C274.344 177.271 273.271 177.604 272.417 178.115C272.151 178.281 271.906 178.49 271.682 178.719C270.938 173.662 268.589 168.901 265.677 164.698C262.734 160.62 259.021 157.141 254.891 154.333C255.193 153.776 255.375 153.193 255.521 152.594L256.13 149.995C256.537 148.255 256.849 146.5 257.151 144.74C257.412 142.969 257.63 141.193 257.792 139.412C257.87 138.516 257.938 137.625 257.99 136.729C258.026 136.115 258.037 135.5 257.922 134.88C258.823 134.906 259.729 134.844 260.609 134.63C260.75 134.594 260.87 134.479 260.901 134.333C260.948 134.12 260.807 133.912 260.599 133.87C258.693 133.432 256.88 133.13 255.135 132.583C253.417 131.995 251.787 131.125 250.578 129.849C250.115 129.37 249.729 128.828 249.385 128.266C250.51 127.136 251.677 126.042 252.865 124.974C255.146 122.891 257.552 120.875 259.896 118.792C261.068 117.755 262.24 116.703 263.38 115.609C263.406 115.583 263.432 115.557 263.458 115.537C264.057 115.24 264.552 114.818 264.964 114.333C265.542 113.729 266.057 113.073 266.589 112.427C267.615 111.12 268.521 109.724 269.37 108.307C270.177 106.865 270.912 105.386 271.594 103.891C271.932 103.141 272.255 102.386 272.563 101.62C272.755 101.162 272.922 100.688 273.01 100.182C274.609 99.8647 276.198 99.4168 277.734 98.7605C280.026 97.7761 282.198 96.2605 283.719 94.172C284.792 92.7189 285.453 90.9793 285.641 89.2189C286.516 90.6095 287.766 91.797 289.156 92.6407C291.198 93.9011 293.412 94.6876 295.609 95.3439C295.912 95.4324 296.214 95.5001 296.516 95.5782C297.813 97.047 299.391 98.1459 300.828 99.448L305.912 103.828C307.615 105.297 309.391 106.703 311.318 107.969C313.271 109.151 314.979 110.245 316.266 111.828C315.995 112.849 315.922 113.88 315.87 114.912L315.641 118.724C315.479 121.266 315.281 123.802 315.021 126.318C314.813 128.844 314.5 131.344 314.073 133.828C313.854 135.073 313.609 136.313 313.349 137.557C313.141 138.547 312.979 139.552 312.995 140.594C312.313 141.172 311.651 141.766 311.031 142.386C309.224 144.214 307.49 146.219 305.891 148.089C304.234 149.974 302.521 151.833 300.797 153.688C297.818 156.875 294.828 160.063 291.974 163.391ZM263.979 211.083V211.063C263.953 210.886 263.828 210.729 263.641 210.667C263.38 210.583 263.104 210.724 263.016 210.984C262.281 213.25 262.339 215.578 262.427 217.901C262.563 220.219 262.797 222.578 263.734 224.906C264.224 226.037 264.938 227.271 266.271 228.005C267.625 228.682 268.771 228.75 269.984 228.88C271.172 228.938 272.422 228.99 273.745 228.573C274.391 228.375 275.073 228.026 275.615 227.5C276.167 226.979 276.505 226.333 276.755 225.719C277.63 223.198 277.438 220.849 277.323 218.531C277.188 216.182 276.667 213.88 276.167 211.672C275.682 209.474 275.109 207.245 275.302 205.25C275.396 204.261 275.724 203.422 276.391 202.766C276.948 202.193 277.75 201.766 278.609 201.396C278.979 203.219 279.568 204.953 280.224 206.667L282.297 212.182L284.375 217.698C285.099 219.511 285.589 221.271 285.818 223.146C286.266 226.865 285.797 230.703 284.839 234.427C284.359 236.297 283.802 238.177 283.203 240.016C282.599 241.818 281.901 243.745 281.094 245.261L281.042 245.365C280.927 245.573 280.906 245.828 281.005 246.063C281.505 247.318 282.052 248.552 282.714 249.75C282.385 250.068 282.057 250.396 281.724 250.714C278.469 253.818 275.115 256.865 271.875 260.052C269.875 262.037 267.906 264.052 266.057 266.198C265.208 265.396 264.458 264.412 263.724 263.448C262.854 262.229 261.948 261.026 261.12 259.766C259.406 257.276 257.745 254.729 256.104 252.167C254.453 249.604 252.828 247.021 251.037 244.495C249.177 241.995 247.318 239.662 245.656 237.151C244.026 234.662 242.438 232.063 242.62 229.396C242.771 226.901 244.042 224.464 245.443 222.094C245.432 222.146 245.417 222.198 245.406 222.255L245.073 223.886C244.964 224.432 244.912 224.99 245.229 225.63C245.245 225.656 245.266 225.698 245.292 225.724C245.458 225.932 245.771 225.958 245.979 225.787C246.531 225.349 246.719 224.833 246.859 224.307L247.307 222.724L248.208 219.578C248.484 218.526 248.776 217.479 249.104 216.453C249.26 215.938 249.443 215.438 249.62 214.932C249.662 214.839 249.693 214.745 249.729 214.651C249.932 214.245 250.135 213.854 250.333 213.5C251.339 211.729 252.844 210.146 254.552 209.115C254.484 209.255 254.417 209.396 254.354 209.542C253.63 211.193 253.026 212.875 252.474 214.573C251.964 216.281 251.484 218 251.141 219.755C250.964 220.63 250.797 221.511 250.667 222.401C250.526 223.287 250.479 224.219 250.859 225.151C250.891 225.229 250.948 225.302 251.026 225.349C251.224 225.474 251.484 225.412 251.609 225.214L251.62 225.193C252.135 224.37 252.307 223.563 252.479 222.714C252.641 221.87 252.844 221.031 253.052 220.193C253.484 218.516 253.938 216.839 254.469 215.193C254.964 213.531 255.5 211.88 256.141 210.297C256.464 209.505 256.818 208.734 257.198 207.99C257.391 207.677 257.563 207.359 257.729 207.037C258.255 206.438 258.865 205.922 259.568 205.547C260.547 205.011 261.672 204.755 262.833 204.656C264.844 204.531 266.953 204.917 268.99 205.511C268.458 206.172 267.927 206.833 267.396 207.495C266.229 208.932 265.083 210.386 264.073 211.948C264.042 211.662 264.026 211.375 263.979 211.083ZM260.375 261.745C260.422 261.802 260.464 261.859 260.505 261.917C260.464 261.859 260.417 261.802 260.375 261.75V261.745ZM260.188 262.802C259.328 267.755 258.51 272.828 257.875 277.891C258.51 272.823 259.318 267.755 260.188 262.802ZM259.099 276.078C260.297 274.151 261.521 272.229 262.797 270.344C263.339 269.563 263.906 268.818 264.49 268.089C263.912 268.823 263.339 269.563 262.802 270.344C261.51 272.234 260.307 274.156 259.104 276.078C258.953 276.328 258.797 276.573 258.646 276.818C258.797 276.573 258.953 276.323 259.099 276.078ZM261.302 262.922C261.547 263.234 261.813 263.531 262.078 263.833C261.813 263.531 261.547 263.229 261.302 262.922ZM269.745 204.573C268.787 204.057 267.792 203.667 266.745 203.37C266.599 203.328 266.453 203.297 266.307 203.261C266.724 202.552 266.979 201.813 267.203 201.063L268.115 198.203L269.979 192.448C270.552 190.5 271.094 188.537 271.542 186.531C271.76 185.531 271.953 184.516 272.109 183.495C272.25 182.599 272.313 181.672 272.094 180.74C272.495 180.354 272.87 180.026 273.385 179.708C273.922 179.406 274.547 179.297 274.969 179.432C275.839 179.573 276.12 181.156 276.047 182.578C275.979 183.333 275.958 184.078 275.771 184.849C275.635 185.615 275.484 186.38 275.255 187.151C275.052 187.917 274.875 188.688 274.594 189.443C274.339 190.203 274.13 190.979 274.271 191.901L274.276 191.922C274.287 192 274.323 192.078 274.375 192.141C274.531 192.318 274.802 192.339 274.984 192.182C275.677 191.573 276.031 190.818 276.333 190.042C276.656 189.281 276.885 188.474 277.141 187.677C277.422 186.891 277.625 186.068 277.781 185.229C277.99 184.422 278.052 183.557 278.13 182.698C278.245 182.583 278.333 182.458 278.417 182.328C278.609 182.042 278.828 181.776 279.057 181.516C279.516 181.011 280.052 180.589 280.625 180.266C281.177 179.906 281.792 179.651 282.438 179.479C282.672 179.401 282.917 179.365 283.167 179.328C281.901 182.745 280.693 186.136 279.198 189.386C277.297 193.807 274.839 197.953 271.932 201.781C271.214 202.714 270.484 203.646 269.745 204.573ZM248.214 125.234C247.901 123.479 247.818 121.526 247.958 119.708C248.063 117.87 248.443 116.047 249.203 114.469C249.958 112.891 251.219 111.662 252.787 111.37C254.359 111.047 256.115 111.656 257.662 112.568C258.865 113.313 260 114.193 261.193 115.068C260.344 115.828 259.495 116.594 258.625 117.339C256.266 119.375 253.854 121.339 251.484 123.432C250.453 124.349 249.458 125.307 248.49 126.297C248.38 125.948 248.281 125.594 248.214 125.234ZM317.755 114.396C317.755 114.599 317.734 114.802 317.734 114.984L317.589 118.833C317.458 121.386 317.328 123.953 317.109 126.526C317.073 126.734 317.042 126.964 317.021 127.188C317.016 127.198 317.016 127.214 317.01 127.224C317.037 126.99 317.073 126.755 317.099 126.521C317.328 123.953 317.464 121.391 317.583 118.833L317.734 114.995C317.745 114.792 317.745 114.589 317.755 114.386C318.156 115.464 318.375 116.625 318.448 117.828C318.37 116.63 318.156 115.474 317.755 114.396ZM318.448 117.859C318.49 118.609 318.484 119.37 318.427 120.141C318.479 119.37 318.495 118.609 318.448 117.859ZM229.552 119.443L230.083 116.25C230.891 112.011 232.073 107.844 233.839 103.932C235.594 100.011 237.932 96.3855 240.625 93.0053C243.307 89.6459 246.224 86.2918 249.141 83.0991C251.984 79.8282 255.266 77.0001 258.719 74.4532C262.198 71.9428 266.068 69.9636 270.162 68.8334C274.104 67.8074 278.307 67.4272 282.276 68.2293C282.005 69.0418 281.979 69.8595 282.005 70.6668L282.104 73.4636C282.188 75.3334 282.313 77.198 282.516 79.0626C282.766 80.922 283.037 82.7918 283.516 84.6407C283.76 85.5626 284.037 86.4897 284.412 87.4064C284.438 87.4689 284.474 87.5366 284.505 87.6043C284.109 89.6251 283.401 91.4897 282.224 93.073C280.922 94.823 279.047 96.1251 276.979 96.9949C272.797 98.7449 268.021 98.948 263.396 98.6876C258.76 98.1564 253.537 98.1928 248.917 100.13C246.609 101.094 244.469 102.511 242.745 104.344C241.016 106.151 239.651 108.396 239.417 110.958C239.401 111.104 239.474 111.25 239.609 111.323C239.792 111.432 240.031 111.365 240.135 111.182L240.156 111.136C241.292 109.141 242.531 107.245 244.073 105.62C245.635 104.005 247.557 102.771 249.651 101.927C251.75 101.099 254.005 100.656 256.287 100.521C258.604 100.354 260.813 100.583 263.281 100.74C265.828 100.854 268.438 100.839 271.016 100.511C270.958 100.636 270.901 100.766 270.844 100.896C270.526 101.625 270.188 102.344 269.833 103.063C269.135 104.495 268.37 105.891 267.563 107.255C266.781 108.641 265.906 109.953 265.016 111.261C264.714 111.667 264.417 112.073 264.104 112.469C263.464 113.016 262.839 113.573 262.224 114.151C261.24 112.896 260.021 111.828 258.625 110.969C256.88 109.927 254.74 109.052 252.432 109.464C250.099 109.859 248.318 111.677 247.401 113.563C246.453 115.479 246.016 117.531 245.87 119.563C245.75 121.615 245.854 123.573 246.25 125.636C246.396 126.412 246.667 127.162 246.99 127.891C246.271 128.677 245.568 129.474 244.896 130.307C243.901 131.552 242.948 132.844 242.12 134.234C241.297 135.615 240.547 137.109 240.604 138.906C240.609 139.031 240.672 139.151 240.787 139.224C240.969 139.333 241.203 139.276 241.313 139.094L241.359 139.026L243.688 135.193C244.484 133.912 245.417 132.698 246.391 131.526C246.906 130.906 247.448 130.302 247.995 129.708C248.359 130.24 248.755 130.745 249.208 131.193C250.708 132.724 252.63 133.698 254.578 134.328C255.182 134.516 255.797 134.641 256.417 134.74C256.229 135.359 256.172 135.974 256.13 136.599C256.052 137.469 255.964 138.339 255.859 139.208C255.651 140.948 255.385 142.677 255.089 144.406C254.833 146.146 254.505 147.87 254.214 149.604L253.724 152.198C253.641 152.615 253.573 153.031 253.547 153.458C253.323 153.318 253.099 153.167 252.875 153.031C247.943 149.932 242.516 147.99 237.438 145.568L229.745 141.932C229.412 141.771 229.073 141.609 228.734 141.443C228.797 139.516 228.781 137.604 228.76 135.693L228.823 129.167C228.948 127 228.927 124.823 229.208 122.672L229.552 119.443ZM583.141 517.719C580.828 518.552 578.182 518.807 575.589 518.964C572.979 519.104 570.339 519.083 567.703 519C562.422 518.828 557.141 518.365 551.823 517.964C546.427 517.63 541.188 517.51 535.865 517.271C514.641 516.339 493.474 514.354 472.401 511.667C461.87 510.276 451.365 508.724 440.891 506.932C431.078 505.234 421.281 503.396 411.5 501.531C412.412 500.688 413.307 499.828 414.172 498.948C417.104 495.984 419.885 492.912 422.646 489.828C425.406 486.745 428.13 483.641 430.917 480.615C432.318 479.115 433.724 477.604 435.198 476.219C436.677 474.771 438.214 473.318 439.589 471.734C442.38 468.604 444.865 465.146 446.714 461.328C448.51 457.5 449.729 453.323 449.865 449.047C450.234 440.5 446.708 431.912 440.49 426.203C440.354 426.078 440.146 426.068 440 426.182C439.833 426.313 439.802 426.552 439.932 426.719L439.958 426.745C442.469 429.927 444.542 433.479 445.984 437.224C447.453 440.964 448.234 444.969 448.042 448.969C447.912 452.974 446.776 456.901 445.068 460.537C443.307 464.162 440.927 467.484 438.224 470.516C436.885 472.052 435.417 473.443 433.938 474.885C432.401 476.328 430.99 477.849 429.573 479.37C426.76 482.422 424.031 485.526 421.276 488.604C418.521 491.677 415.75 494.734 412.865 497.651C411.432 499.115 409.943 500.516 408.406 501.833C407.641 502.49 406.844 503.104 406.01 503.672C405.208 504.281 404.333 504.797 403.474 505.323C396.484 509.464 388.552 511.943 380.604 513.922C372.625 515.885 364.479 517.193 356.307 518.245C339.948 520.307 323.443 521.141 306.938 521.708C290.412 522.229 273.88 522.906 257.365 523.833C240.854 524.797 224.339 525.87 207.88 527.828C203.766 528.318 199.656 528.885 195.557 529.615C193.51 529.932 191.464 530.453 189.432 530.865C187.469 531.328 185.453 531.667 183.427 531.932C175.302 532.979 167.031 533.156 158.797 533.182C146.391 533.177 133.979 532.729 121.578 532.01C115.51 531.453 109.453 530.828 103.417 530.042C94.547 528.922 85.7188 527.495 76.8907 525.964C68.0574 524.484 59.2136 522.813 50.172 522.255C47.9115 522.089 45.6407 522.094 43.3699 522.104L36.6719 522.495C32.3542 522.62 28.0365 521.537 24.547 519.089C21.0417 516.656 18.4688 513.026 16.6355 509.094C15.7084 507.115 14.9428 505.057 14.2813 502.953L13.3386 499.755L12.8751 498.162C12.7813 497.807 12.7657 497.344 12.8178 496.865C13.0574 494.901 13.9532 492.828 14.8803 490.865C15.8334 488.885 16.9167 486.953 18.0469 485.042C20.3178 481.219 22.7917 477.5 25.323 473.823C27.8542 470.141 30.4688 466.51 33.0626 462.849C35.4792 459.125 38.6303 456.135 42.2813 453.656C49.2657 448.979 57.3282 445.958 65.5053 443.729C65.4897 444.089 65.4845 444.448 65.5053 444.807C65.547 446.531 65.7709 448.302 66.4115 449.969C67.5626 453.391 70.2605 456.016 73.1251 457.859C76.0574 459.667 79.2136 460.964 82.4272 461.922C85.6459 462.839 88.8334 463.953 92.2501 463.833C92.3855 463.828 92.5105 463.755 92.5834 463.625C92.6824 463.432 92.6095 463.198 92.4167 463.099L92.3959 463.089C90.8803 462.287 89.297 461.885 87.7084 461.484C86.1407 461.016 84.5365 460.662 83.0157 460.094C79.9115 459.115 76.9167 457.813 74.2553 456.104C71.599 454.427 69.2553 452.198 68.2345 449.297C67.6563 447.88 67.4324 446.323 67.3699 444.75C67.3126 443.698 67.3595 442.625 67.3334 441.537C67.6251 440.26 67.7501 438.99 67.9532 437.724C68.349 436.021 68.5365 434.266 69.172 432.635C70.1095 429.266 71.8178 426.182 73.8126 423.365C75.7917 420.516 78.3022 418.042 81.1355 416.016C81.8386 415.505 82.5886 415.052 83.3126 414.568C84.073 414.141 84.8178 413.693 85.599 413.302C86.9688 412.615 88.3751 411.99 89.7345 411.255C89.9532 415.432 91.8282 419.458 94.422 422.656C97.1303 426.115 100.375 429.037 103.75 431.708C110.521 437.042 117.75 441.615 124.719 446.495C131.719 451.323 138.531 456.427 144.563 462.349C147.578 465.307 150.354 468.5 152.823 471.906C155.307 475.307 157.469 478.906 159.62 482.583C159.708 482.74 159.901 482.818 160.073 482.76C160.276 482.693 160.385 482.479 160.318 482.276C158.969 478.167 156.807 474.359 154.313 470.839C151.797 467.318 148.969 464.031 145.917 460.99C139.797 454.901 132.917 449.688 125.912 444.781C118.88 439.906 111.63 435.38 104.953 430.182C98.3438 425.047 92.1615 418.734 90.6563 410.448C90.6459 410.37 90.6095 410.302 90.5626 410.245C90.7345 398.885 94.9688 388.037 101.292 378.651C107.609 369.146 115.589 360.776 124.266 353.344C128.62 349.693 133.229 346.073 137.479 342.167C141.776 338.287 145.906 334.229 149.906 330.057C153.912 325.891 157.781 321.609 161.693 317.396C165.422 313.417 169.12 309.453 173.167 305.87C174.578 309.943 176.172 313.948 177.802 317.938L183.76 332.531L195.755 361.688L208.073 390.714L214.37 405.177C216.573 409.958 218.646 414.787 221.563 419.271C221.662 419.422 221.854 419.484 222.026 419.412C222.219 419.333 222.313 419.109 222.234 418.917L222.219 418.885C218.224 409.234 213.891 399.646 209.833 389.964L197.682 360.886L185.552 331.792L179.526 317.229C177.927 313.344 176.302 309.469 174.516 305.656C172.63 300.714 170.448 295.896 168.12 291.141C167.38 289.656 166.625 288.182 165.849 286.714C165.047 285.229 164.344 283.859 163.776 282.349C162.62 279.37 162.047 276.182 161.771 272.964C161.281 266.495 161.854 259.912 162.396 253.354C162.979 246.792 163.646 240.219 164.141 233.625C164.662 227.037 165.073 220.432 165.37 213.828C165.682 207.328 166.74 200.818 169.339 194.901C171.896 188.964 176.094 183.886 180.865 179.438C185.609 174.943 190.818 170.87 195.714 166.422C195.891 166.255 195.927 165.974 195.776 165.771C195.615 165.557 195.313 165.511 195.099 165.672C190.412 169.156 185.76 172.703 181.333 176.589C183.943 172.594 186.021 168.255 188.021 163.953C190.875 157.813 193.115 151.37 196.208 145.547C199.516 139.927 203.625 134.339 209.318 131.24C212.151 129.688 215.339 128.969 218.641 128.651C221.365 128.375 224.328 128.229 227.063 127.219C227.042 127.854 227.021 128.495 226.99 129.13C226.932 131.339 227.094 133.547 227.135 135.75C227.318 137.5 227.521 139.24 227.771 140.979C225.87 140.078 223.943 139.224 221.932 138.537C221.734 138.464 221.5 138.531 221.375 138.714C221.219 138.938 221.271 139.24 221.49 139.396C223.844 141.052 226.37 142.359 228.927 143.609L236.615 147.333C241.76 149.828 247.083 151.818 251.787 154.807C256.573 157.656 260.839 161.359 264.125 165.818C265.74 168.063 267.099 170.49 268.208 173.031C269.229 175.448 270.037 177.938 270.984 180.448C270.984 180.448 270.984 180.448 270.984 180.453C270.557 181.365 270.422 182.271 270.266 183.198C270.094 184.167 269.885 185.13 269.646 186.094C269.172 188.016 268.589 189.922 267.984 191.833C267.417 193.755 266.787 195.672 266.24 197.625L265.432 200.563C265.229 201.354 265.073 202.167 265.12 203.016C264.339 202.896 263.542 202.839 262.734 202.859C261.781 202.886 260.813 203.063 259.88 203.391C259.401 201.146 257.938 199.474 256.813 197.609C255.573 195.745 254.224 193.953 252.807 192.224C251.349 190.516 249.823 188.87 248.193 187.318C247.37 186.552 246.537 185.792 245.656 185.078C244.787 184.354 243.87 183.677 242.662 183.391C242.526 183.354 242.375 183.38 242.25 183.469C242.021 183.63 241.969 183.948 242.13 184.177L242.162 184.219C242.813 185.125 243.635 185.813 244.458 186.511C245.281 187.208 246.068 187.953 246.839 188.714C248.38 190.24 249.818 191.875 251.198 193.557C252.609 195.214 253.906 196.969 255.203 198.729C255.854 199.604 256.453 200.521 257.078 201.417C257.625 202.255 258.208 203.068 259.037 203.745C258.922 203.797 258.802 203.844 258.688 203.901C257.51 204.516 256.526 205.443 255.755 206.49C252.594 207.552 250.255 209.833 248.641 212.511C247.828 213.99 247.266 215.214 246.464 216.531L244.089 220.417C242.526 223.026 240.802 225.839 240.542 229.287C240.412 230.995 240.896 232.74 241.578 234.193C242.26 235.672 243.104 236.99 243.969 238.281C245.693 240.839 247.662 243.261 249.453 245.641C251.208 248.073 252.849 250.641 254.521 253.188C256.13 255.646 257.734 258.115 259.464 260.521C258.193 263.594 257.662 266.729 257.109 269.886C256.542 273.287 256.068 276.693 255.635 280.104C255.401 281.792 255.245 283.542 255.115 285.297C255.063 287.037 255.016 288.776 255.073 290.511C255.151 293.974 255.391 297.417 255.698 300.839C256.339 307.688 257.167 314.49 257.682 321.297C257.953 324.703 258.125 328.109 258.162 331.505L258.125 341.714C258.125 341.886 258.24 342.052 258.417 342.099C258.62 342.146 258.833 342.021 258.88 341.818C259.724 338.443 260.016 334.953 259.99 331.5C259.984 328.042 259.839 324.594 259.594 321.162C259.13 314.292 258.359 307.464 257.776 300.651C257.458 297.25 257.188 293.849 257.094 290.458C257.021 288.761 257.057 287.073 257.094 285.391C257.172 284.219 257.271 283.047 257.396 281.865C258.672 280.375 259.651 278.708 260.703 277.089C261.922 275.198 263.151 273.307 264.438 271.479C266.964 267.912 270.193 264.703 273.313 261.5C276.484 258.313 279.792 255.24 283.042 252.073C284.662 250.484 286.276 248.88 287.807 247.162C289.281 245.427 290.776 243.526 291.328 241.146C291.365 240.99 291.302 240.823 291.156 240.734C290.979 240.62 290.74 240.672 290.63 240.854L290.615 240.88C289.458 242.708 287.948 244.302 286.453 245.948C285.557 246.927 284.62 247.875 283.667 248.818C283.432 247.807 283.135 246.813 282.813 245.833C283.776 244.068 284.354 242.38 284.995 240.62C285.635 238.734 286.219 236.854 286.74 234.922C287.766 231.068 288.417 226.979 287.865 222.88C287.667 221.344 287.271 219.802 286.76 218.349C289.594 221.974 292.271 225.755 294.557 229.776C297.651 235.141 300.214 240.802 302.469 246.573L304.141 250.917L305.609 255.333C306.656 258.255 307.375 261.281 308.26 264.261C309.063 267.261 309.708 270.302 310.443 273.323C311.026 276.38 311.662 279.417 312.667 282.412L312.672 282.427C312.724 282.589 312.875 282.698 313.052 282.693C313.266 282.682 313.427 282.5 313.417 282.292C313.281 279.141 312.813 276.031 312.234 272.953C311.521 269.896 310.901 266.818 310.115 263.776C309.25 260.755 308.547 257.693 307.516 254.719L306.068 250.234L304.412 245.813C302.089 239.969 299.432 234.24 296.234 228.802C294.604 226.099 292.922 223.427 291.021 220.896C289.365 218.651 287.557 216.495 285.354 214.703L284.099 211.495L281.958 206.005C281.25 204.172 280.484 202.359 279.432 200.662C279.328 200.495 279.13 200.396 278.927 200.432C278.896 200.438 278.875 200.453 278.849 200.464C277.693 200.526 276.443 200.771 275.38 201.578C274.26 202.37 273.63 203.776 273.495 205.031C273.245 207.594 273.87 209.859 274.313 212.083C274.797 214.307 275.25 216.469 275.359 218.662C275.484 220.849 275.547 223.177 274.885 224.974C274.537 225.87 274.016 226.375 273.141 226.636C272.287 226.917 271.208 226.875 270.141 226.802C269.115 226.708 267.927 226.568 267.245 226.203C266.542 225.854 265.974 225.042 265.568 224.115C264.766 222.229 264.464 219.99 264.318 217.792C264.224 216.391 264.24 214.979 264.188 213.563C265.901 212.068 267.385 210.386 268.813 208.656C270.37 206.771 271.927 204.891 273.453 202.958C276.5 199.047 279.094 194.766 281.109 190.24C283.13 185.714 284.594 181.016 286.313 176.505C287.172 174.25 288.151 172.057 289.281 169.964C290.359 168.042 291.578 166.245 292.755 164.339C296.031 161.354 299.125 158.188 302.162 154.964C303.896 153.109 305.63 151.255 307.323 149.344C309.026 147.375 310.625 145.547 312.38 143.781C315.88 140.318 320.208 137.578 324.964 137C326.135 136.74 327.339 136.927 328.526 136.922C329.698 137.146 330.891 137.271 332.026 137.703C334.333 138.401 336.516 139.552 338.573 140.912C340.656 142.245 342.625 143.776 344.615 145.359C346.615 146.953 348.714 148.427 350.771 149.896C354.912 152.807 358.922 155.818 362.438 159.354C365.99 162.849 368.932 166.917 371.281 171.307C372.99 174.474 374.37 177.797 375.646 181.188C376.672 185.943 378.063 190.583 379.13 195.328C380.417 200.698 381.583 206.094 382.662 211.511C384.776 222.333 386.906 233.229 387.672 244.172C387.912 255.162 388.141 266.307 388.62 277.344C389.063 288.412 389.573 299.469 390.208 310.521C390.224 310.729 390.396 310.891 390.599 310.886C390.813 310.88 390.979 310.703 390.974 310.495L390.214 279.943C391.162 283.359 392.318 286.698 393.594 289.979C396.182 296.703 399.146 303.25 401.984 309.813C403.422 313.12 404.755 316.318 405.302 319.766C405.906 323.193 405.927 326.714 405.495 330.182C404.719 336.167 402.682 342.068 399.771 347.354C399.557 347.662 399.349 347.974 399.146 348.287C398.344 349.37 397.495 350.422 396.578 351.422C394.734 353.422 392.682 355.24 390.557 356.995C388.464 358.787 386.281 360.495 384.109 362.25C383.021 363.125 381.932 364.005 380.87 364.938C379.802 365.849 378.797 366.906 378.141 368.234C378.089 368.344 378.083 368.479 378.146 368.594C378.25 368.792 378.49 368.865 378.688 368.761L378.703 368.75C379.979 368.073 380.995 367.208 382.057 366.333C383.109 365.448 384.198 364.599 385.297 363.75C387.49 362.057 389.724 360.38 391.901 358.594C394.042 356.776 396.125 354.854 398.021 352.724C398.276 352.432 398.521 352.125 398.766 351.823C400.495 355.531 400.703 359.755 398.974 363.448C397.141 367.49 393.839 370.844 390.38 373.87C386.885 376.896 383.109 379.651 379.344 382.438C375.641 385.151 371.917 387.927 368.698 391.287C365.427 390.177 362.156 389.073 358.885 387.969L339.427 381.432C332.984 379.182 326.438 377.052 320.182 374.495C313.932 371.875 307.958 368.578 302.542 364.542C299.839 362.526 297.245 360.344 294.901 357.927C292.537 355.547 290.292 352.958 288.542 350.146L288.516 350.104C288.391 349.901 288.125 349.818 287.901 349.922C287.662 350.037 287.557 350.323 287.672 350.563C289.177 353.787 291.323 356.537 293.667 359.109C296.026 361.656 298.635 363.969 301.422 366.031C306.969 370.198 313.063 373.583 319.422 376.281C325.833 378.927 332.307 381.052 338.776 383.339L358.224 389.953C371.208 394.271 384.188 398.594 397 403.359C403.391 405.761 409.74 408.281 416.01 410.979C422.266 413.708 428.432 416.599 434.672 419.412C434.849 419.49 435.057 419.432 435.162 419.266C435.271 419.089 435.219 418.854 435.037 418.74C423.318 411.516 410.438 406.516 397.672 401.563C388.385 398.063 379.021 394.802 369.641 391.609C373.297 389.115 376.854 386.542 380.432 383.927C384.224 381.172 388.047 378.427 391.656 375.349C395.162 372.313 398.615 368.927 400.74 364.511C401.505 364.984 402.281 365.432 403.063 365.833L406.104 367.781C407.151 368.375 408.031 369.245 409 369.958C409.974 370.677 410.865 371.511 411.74 372.359C415.313 375.667 418.474 379.438 421.385 383.38C424.354 387.287 427.115 391.365 429.662 395.573C430.943 397.677 432.177 399.802 433.37 401.953C434.089 403.276 434.818 404.589 435.599 405.875L434.016 405.016L426.573 401.063C421.583 398.479 416.703 395.682 411.412 393.688C411.25 393.625 411.063 393.677 410.958 393.828C410.839 394 410.88 394.24 411.057 394.359C415.703 397.583 420.76 400.031 425.688 402.724L433.083 406.734L436.755 408.771C437.948 409.453 439.063 410.193 440.198 411.005C444.682 414.266 448.953 417.917 453.208 421.552C457.443 425.182 461.625 428.896 465.75 432.651C467.896 435.203 469.802 438.115 471.365 441.12C472.922 444.156 474.146 447.365 474.776 450.682C475.401 453.995 475.385 457.417 474.526 460.641C473.714 463.891 472.016 466.849 469.932 469.573L469.927 469.583C469.787 469.771 469.792 470.037 469.958 470.214C470.146 470.406 470.453 470.417 470.646 470.229C473.224 467.787 475.292 464.641 476.26 461.12C477.307 457.615 477.266 453.875 476.641 450.339C475.979 446.792 474.703 443.412 473.094 440.234C471.776 437.682 470.271 435.266 468.526 432.969C469.698 433.297 470.87 433.609 472.042 433.912L474.885 434.552C475.823 434.802 476.766 435.031 477.714 435.25C479.599 435.714 481.5 436.13 483.375 436.63L488.984 438.177C496.427 440.37 503.745 442.974 510.802 446.162C517.885 449.297 524.698 453.016 531.313 457.094L541.208 463.307C543.958 465.052 546.766 466.734 549.688 468.203C554.563 471.703 559.12 475.615 563.203 480.01C570.479 487.662 576.083 496.682 581.151 505.995C583.01 510.438 589.219 516.146 583.141 517.719ZM307.234 221.219C307.969 222.349 308.313 223.708 308.396 225.057C308.406 225.271 308.245 225.458 308.031 225.469C307.906 225.479 307.797 225.427 307.719 225.344L307.667 225.287C306.75 224.271 306.339 223.151 305.646 222.125C305.083 221.031 304.26 220.104 303.526 219.125C301.87 217.292 299.953 215.693 297.88 214.307C295.823 212.896 293.599 211.708 291.302 210.677C290.156 210.151 288.984 209.688 287.797 209.266C286.604 208.849 285.412 208.443 284.302 207.75L284.281 207.734C284.042 207.589 283.969 207.276 284.12 207.042C284.208 206.896 284.359 206.813 284.516 206.802C285.901 206.719 287.167 207.073 288.406 207.5C289.646 207.917 290.875 208.375 292.078 208.896C294.484 209.922 296.844 211.115 299.047 212.578C301.219 214.094 303.234 215.854 304.984 217.88C305.776 218.969 306.635 220 307.234 221.219ZM259.766 370.328C259.839 375.339 259.75 380.37 259.276 385.396C258.755 390.406 257.859 395.412 256.328 400.25C255.568 402.677 254.604 405.031 253.51 407.328C252.906 408.453 252.313 409.578 251.615 410.646C250.844 411.667 250.031 412.656 249.162 413.578C249.016 413.729 248.776 413.74 248.62 413.594C248.5 413.479 248.469 413.307 248.531 413.162L248.547 413.125C249.052 411.964 249.615 410.87 250.219 409.807C250.771 408.714 251.281 407.604 251.865 406.531C252.891 404.313 253.792 402.031 254.495 399.682C255.927 394.984 256.745 390.104 257.198 385.188C257.698 380.276 257.849 375.318 257.828 370.344C257.823 367.859 257.766 365.37 257.714 362.875C257.646 360.386 257.635 357.875 258.021 355.37C258.063 355.099 258.313 354.917 258.578 354.958C258.792 354.99 258.953 355.167 258.99 355.37C259.401 357.854 259.516 360.328 259.578 362.828C259.656 365.323 259.74 367.823 259.766 370.328ZM344.234 426.135C344.417 426.234 344.484 426.469 344.38 426.651C344.292 426.813 344.104 426.88 343.938 426.828L343.891 426.818C335.047 424.057 325.885 422.021 316.625 420.734C311.995 420.089 307.349 419.547 302.682 419.167L299.162 418.854C297.927 418.745 296.708 418.49 295.521 418.146C293.146 417.458 290.932 416.328 288.912 414.974C284.885 412.224 281.604 408.63 278.755 404.818C275.906 400.99 273.479 396.891 271.302 392.688C269.125 388.479 267.208 384.156 265.474 379.761C263.75 375.365 262.208 370.891 261.271 366.234C261.219 365.974 261.391 365.714 261.651 365.662C261.891 365.615 262.12 365.745 262.203 365.964L262.208 365.974C263.891 370.339 265.484 374.734 267.208 379.073C268.943 383.406 270.859 387.667 273.021 391.792C275.182 395.917 277.589 399.912 280.37 403.609C283.146 407.287 286.328 410.703 290.083 413.24C291.953 414.51 293.969 415.552 296.104 416.182C297.172 416.5 298.26 416.734 299.365 416.839L302.859 417.167C307.557 417.583 312.234 418.156 316.901 418.839C321.573 419.516 326.214 420.38 330.823 421.438C335.417 422.542 340.01 423.797 344.234 426.135ZM162.031 426.891C159.656 424.943 157.365 422.88 155.141 420.75C154.052 419.656 153.005 418.521 151.969 417.38C151.005 416.177 150.063 414.948 149.214 413.656C149.068 413.432 149.13 413.13 149.354 412.984C149.542 412.859 149.781 412.885 149.943 413.026L149.964 413.042C151.12 414.057 152.188 415.13 153.224 416.224C154.307 417.276 155.385 418.333 156.438 419.412C158.641 421.479 160.901 423.484 163.266 425.385C167.974 429.208 172.943 432.781 177.62 436.787C182.276 440.813 186.589 445.302 190.287 450.245C192.109 452.729 193.901 455.24 195.469 457.891C197.151 460.469 198.453 463.276 199.563 466.151C199.635 466.344 199.542 466.568 199.344 466.646C199.182 466.708 199 466.651 198.901 466.521L198.885 466.5C197.005 464.052 195.583 461.38 193.912 458.859C192.349 456.266 190.568 453.823 188.76 451.406C185.099 446.609 180.865 442.281 176.255 438.37C171.688 434.406 166.771 430.797 162.031 426.891ZM234.422 488C234.443 488.193 234.318 488.37 234.135 488.412C228.641 489.75 223.099 490.984 217.484 491.672L209.078 492.818L200.635 493.677L196.417 494.099L192.182 494.391L183.719 494.958C178.068 495.188 172.422 495.474 166.766 495.5C155.458 495.615 144.146 495.349 132.859 494.625C127.219 494.26 121.583 493.823 115.953 493.266C110.328 492.698 104.708 492.021 99.1667 490.781C98.9063 490.724 98.7397 490.464 98.797 490.203C98.849 489.964 99.073 489.807 99.3074 489.823L99.3178 489.828C104.932 490.266 110.531 490.859 116.135 491.406C121.74 491.938 127.354 492.349 132.974 492.688C144.219 493.359 155.484 493.563 166.74 493.412C172.37 493.417 177.995 493.156 183.62 492.958L192.047 492.438L196.255 492.167L200.458 491.766C211.708 490.984 222.75 488.818 233.99 487.662H234.005C234.214 487.641 234.401 487.792 234.422 488Z" fill="black"/>
</g>
</svg>
