<svg width="499" height="499" viewBox="0 0 499 499" fill="none" xmlns="http://www.w3.org/2000/svg">
<mask id="mask0_201_16" style="mask-type:luminance" maskUnits="userSpaceOnUse" x="17" y="31" width="465" height="437">
<path d="M17.7422 31.3348H481.409V467.951H17.7422V31.3348Z" fill="white"/>
</mask>
<g mask="url(#mask0_201_16)">
<path d="M481.687 427.533C481.687 429.456 480.175 431.037 478.252 431.124L431.735 430.968C429.785 422.188 431.219 415.21 431.31 414.794L427.312 416.046L422.149 397.346L419.121 445.951L413.425 445.864L413.408 445.951L415.617 447.406L426.112 454.337C428.36 455.602 430.725 456.646 433.177 457.46L442.169 460.444C443.642 460.93 444.634 462.307 444.634 463.853C444.634 465.777 443.122 467.358 441.199 467.444L394.682 467.288C392.668 458.235 394.266 451.075 394.266 451.075L394.141 445.574L393.829 431.86H326.576V432.315H344.163C353.727 432.315 361.71 439.064 363.62 448.06C367.852 449.117 370.988 452.933 370.988 457.495C370.988 462.87 366.631 467.232 361.251 467.232C355.871 467.232 351.513 462.87 351.513 457.495C351.513 453.899 353.467 450.768 356.36 449.083C354.961 443.642 350.032 439.605 344.163 439.605H301.505C295.657 439.605 290.737 443.616 289.32 449.026C292.27 450.698 294.263 453.86 294.263 457.495C294.263 462.87 289.901 467.232 284.525 467.232C279.145 467.232 274.788 462.87 274.788 457.495C274.788 452.977 277.868 449.187 282.039 448.086C283.94 439.077 291.928 432.315 301.505 432.315H319.195V431.86H111.4L79.2725 281.718L37.5376 321.786C34.1979 324.995 28.8831 324.887 25.6733 321.543L20.5837 316.241C17.374 312.897 17.4823 307.587 20.8263 304.377L73.3339 253.962L25.7427 31.5383H326.442L362.472 199.947L363.984 199.929C366.055 199.908 368.008 200.878 369.238 202.537L370.369 204.057C371.59 205.703 372.418 207.605 372.79 209.619L374.337 218.001C374.337 218.001 398.585 246.572 401.37 260.377C403.527 271.041 399.152 276.287 386.565 274.714C383.953 274.385 381.059 273.67 378.04 272.696L383.507 298.252C396.861 295.61 412.017 292.768 415.023 292.846C415.028 292.846 415.032 292.846 415.032 292.846C415.686 292.838 416.318 292.907 416.938 293.037C427.451 294.722 430.621 308.163 434.537 328.426C434.537 328.43 434.541 328.439 434.541 328.448C438.05 346.61 449.602 409.059 449.602 409.063L452.669 411.086L463.16 418.016C465.413 419.281 467.778 420.325 470.225 421.14L479.222 424.124C480.695 424.609 481.687 425.987 481.687 427.533Z" fill="#FBEEEC"/>
</g>
<path d="M196.616 309.038L214.891 394.457H128.995L110.72 309.038H196.616ZM88.4686 208.748L93.9134 234.205L120.427 208.748H88.4686ZM177.92 225.39C168.703 222.544 159.897 218.057 151.974 211.923L99.8521 261.962L106.744 294.167H192.639L177.92 225.39ZM135.259 194.51C117.274 169.223 115.376 136.103 129.264 109.182H67.4041L85.6791 194.601H135.168L135.259 194.51ZM401.375 260.377C398.585 246.572 374.337 218.001 374.337 218.001L358.262 222.207L348.291 215.575L338.077 211.603C337.076 211.213 336.764 209.948 337.47 209.138L337.925 208.618C338.086 208.432 338.276 208.281 338.467 208.129C338.458 208.125 338.449 208.125 338.441 208.125C338.229 208.094 337.995 208.068 337.748 208.047C337.709 208.042 337.665 208.038 337.626 208.038C336.019 207.904 333.91 207.921 332.94 207.908L313.465 207.843C313.465 207.843 302.419 209.117 292.309 214.349C288.415 216.363 284.668 218.971 281.74 222.315C281.532 222.549 281.32 222.783 281.121 223.03C280.934 223.255 280.744 223.502 280.558 223.74C277.92 227.097 275.07 231.507 272.28 236.41C272.007 236.882 271.739 237.359 271.47 237.839C269.187 241.937 266.965 246.325 264.942 250.687C264.721 251.163 264.5 251.64 264.284 252.112C263.76 253.268 263.249 254.416 262.759 255.556C258.735 264.903 255.954 273.536 255.954 278.128C255.954 284.811 262.27 287.324 266.874 287.882C268.247 288.051 269.703 288.186 271.21 288.298C278.297 288.827 286.583 288.788 293.596 288.432L293.461 302.64H306.686L309.679 287.692L304.117 287.54L304.247 271.097L314.73 262.447L320.963 231.294H376.182L368.623 269.066C371.807 270.461 374.991 271.712 378.04 272.696C381.059 273.67 383.953 274.385 386.565 274.714C399.157 276.287 403.527 271.041 401.375 260.377Z" fill="#847CB0"/>
<path d="M226.14 78.1984L158.766 205.201C155.613 202.844 152.594 200.232 149.778 197.3C149.297 196.798 148.843 196.278 148.379 195.767L212.491 74.9064C217.117 75.5604 221.687 76.6563 226.14 78.1984ZM158.762 205.209C159.035 205.413 159.303 205.617 159.581 205.816C159.303 205.617 159.039 205.404 158.766 205.201L158.762 205.209ZM147.361 194.636C147.595 194.9 147.838 195.165 148.076 195.429C147.833 195.16 147.612 194.883 147.374 194.61L147.361 194.636ZM151.875 94.4332C123.767 121.419 122.069 165.532 147.374 194.61L210.988 74.6941C190.079 72.1775 168.252 78.7095 151.875 94.4332ZM204.408 219.621C204.898 219.608 205.387 219.582 205.872 219.556C205.392 219.582 204.906 219.582 204.421 219.599L204.408 219.621ZM254.741 96.5297C246.854 88.317 237.497 82.3957 227.487 78.7052L159.923 206.067C173.125 215.54 188.819 220.058 204.421 219.599L263.669 107.913C261.118 103.906 258.155 100.086 254.741 96.5297ZM263.669 107.909V107.913C263.764 108.06 263.868 108.203 263.963 108.355C263.868 108.203 263.764 108.056 263.669 107.909ZM226.551 78.3413C226.868 78.454 227.175 78.5882 227.487 78.7052L227.5 78.6792C227.184 78.5622 226.868 78.454 226.551 78.3413ZM206.067 219.547C222.909 218.672 239.525 211.988 252.645 199.396C277.656 175.382 281.762 137.797 264.539 109.321L206.067 219.547ZM352.943 231.294H320.963L314.712 262.525L313.465 268.763L324.991 269.153L337.748 268.923C339.138 268.897 340.303 269.967 340.399 271.353C340.472 272.436 339.914 273.467 338.969 273.995L336.769 275.23L333.039 282.936C332.281 284.504 330.865 285.652 329.171 286.063L323.895 287.35C322.093 287.787 320.24 287.986 318.381 287.934L309.679 287.692L306.686 302.64H361.909L368.623 269.066L376.182 231.294H352.943Z" fill="#91A362"/>
<path d="M257.171 208.034C257.843 207.431 258.523 206.834 259.181 206.201C277.959 188.178 286.28 163.305 284.031 139.204C283.988 138.728 283.941 138.256 283.889 137.779C283.412 133.452 282.602 129.155 281.437 124.932C281.307 124.451 281.151 123.979 281.008 123.502C279.713 119.119 278.058 114.818 276.014 110.655C275.78 110.174 275.529 109.702 275.286 109.23C271.738 102.347 267.173 95.8539 261.546 89.9932C248.317 76.2144 231.403 68.0797 213.812 65.5977C206.141 64.5191 198.344 64.5148 190.664 65.5977C174.178 67.9281 158.242 75.2398 145.338 87.6282C138.646 94.0563 133.301 101.359 129.264 109.182C115.376 136.103 117.274 169.227 135.258 194.51L135.167 194.601L120.427 208.748L93.9133 234.205L73.3339 253.961L20.822 304.377C17.4823 307.587 17.374 312.897 20.5837 316.241L25.6734 321.543C28.8831 324.887 34.1936 324.995 37.5376 321.786L79.2725 281.718L99.852 261.962L151.974 211.923C159.897 218.057 168.703 222.544 177.92 225.39C195.359 230.766 214.267 230.242 231.455 223.74C232.633 223.294 233.802 222.813 234.963 222.311C242.279 219.148 249.227 214.865 255.556 209.463C256.101 209 256.638 208.514 257.171 208.034ZM206.067 219.547C206.002 219.551 205.937 219.551 205.872 219.556C189.798 220.348 173.537 215.835 159.923 206.067V206.071C159.806 205.989 159.693 205.898 159.58 205.816C156.128 203.308 152.836 200.484 149.778 197.296C149.297 196.793 148.842 196.278 148.379 195.762V195.766C148.275 195.654 148.175 195.541 148.076 195.429C122.025 166.368 123.502 121.675 151.874 94.4331C168.252 78.7094 190.079 72.1774 210.988 74.694L210.992 74.6897C211.495 74.7503 211.993 74.8283 212.495 74.9019C217.117 75.556 221.687 76.6562 226.14 78.1983V78.1939C226.278 78.2416 226.413 78.2936 226.551 78.3412C236.917 82.0014 246.606 88.057 254.741 96.5296C258.28 100.216 261.351 104.184 263.963 108.351C264.158 108.667 264.349 108.992 264.544 109.308L264.539 109.321C281.762 137.797 277.66 175.378 252.645 199.392C239.524 211.988 222.908 218.672 206.067 219.547ZM380.639 359.471C382.229 361.346 383.195 363.767 383.195 366.418C383.195 372.353 378.378 377.165 372.444 377.165H272.31L271.968 377.256L269.239 366.678L268.871 365.249L265.553 352.401L265.185 350.976L261.871 338.129L261.499 336.699L258.215 323.969L257.847 322.544L254.529 309.696L254.161 308.267L243.353 266.389L242.985 264.959L241.751 260.169C241.019 257.331 241.495 254.464 242.851 252.112C243.141 251.609 243.479 251.133 243.847 250.687C245.242 248.976 247.17 247.668 249.474 247.074C253.658 245.996 257.899 247.546 260.472 250.687C260.836 251.129 261.165 251.605 261.46 252.112C261.932 252.935 262.317 253.832 262.564 254.797L262.759 255.556C258.735 264.903 255.954 273.532 255.954 278.123C255.954 284.807 262.27 287.323 266.874 287.882C268.247 288.051 269.703 288.185 271.21 288.298L276.365 308.267L276.733 309.696L280.051 322.544L280.415 323.969L283.702 336.699L284.07 338.129L287.388 350.976L287.757 352.406L288.597 355.672H309.38C327.811 361.558 362.585 360.519 380.639 359.471ZM452.669 411.086C451.028 412.559 449.343 414.733 448.472 417.865L431.392 414.768L449.602 409.063C449.602 409.059 438.05 346.61 434.541 328.452C438.05 346.614 449.602 409.059 449.602 409.063L452.669 411.086ZM415.032 292.846C415.686 292.842 416.323 292.911 416.938 293.037C416.323 292.937 415.695 292.864 415.028 292.846H415.032ZM413.408 445.951L415.617 447.406C413.975 448.879 412.286 451.053 411.419 454.185L394.262 451.075L394.136 445.574L413.421 445.864L413.408 445.951ZM341.36 207.276C340.312 207.159 339.281 207.483 338.467 208.125C338.276 208.276 338.085 208.428 337.925 208.618L337.47 209.138C336.764 209.948 337.076 211.213 338.077 211.603L348.291 215.575L358.262 222.207L374.337 218.001L372.79 209.619C372.422 207.605 371.59 205.699 370.369 204.057L369.238 202.537C368.008 200.878 366.055 199.907 363.988 199.929L362.477 199.946L352.471 200.05C350.387 200.072 348.637 201.631 348.377 203.698L348.33 204.07L348.317 204.079L348.291 204.326L347.801 209.181L343.522 207.518L341.36 207.276ZM367.35 211.737L373.15 216.515L365.643 216.121L355.421 212.149C356.863 211.85 358.448 209.753 359.237 208.584L367.35 211.737ZM302.133 188.719C301.042 185.808 302.497 181.641 306.686 181.758C306.928 181.767 307.18 181.78 307.439 181.819C308.111 181.914 308.717 182.087 309.272 182.304L316.648 170.149C327.755 169.708 334.17 178.037 336.691 182.243C337.206 182.053 337.769 181.905 338.38 181.819C338.575 181.793 338.757 181.784 338.943 181.775C343.275 181.529 344.791 185.765 343.686 188.719C342.404 192.145 339.77 193.514 337.86 194.064C337.631 196.065 336.912 197.911 335.82 199.479L330.219 197.304C329.011 196.832 327.646 197.43 327.174 198.643C327.005 199.08 326.979 199.539 327.07 199.972C327.226 200.722 327.746 201.385 328.517 201.683L332.94 203.407V207.908L313.465 207.843V202.394C310.831 200.514 308.999 197.59 308.57 194.224C307.288 193.939 305.486 193.267 304 191.716C303.264 190.95 302.605 189.979 302.133 188.719ZM314.712 262.525L313.465 268.763L324.991 269.152L337.748 268.923C339.138 268.897 340.303 269.967 340.399 271.353C340.472 272.436 339.913 273.467 338.969 273.995L336.769 275.23L333.039 282.936C332.281 284.504 330.865 285.651 329.171 286.063L323.895 287.349C322.093 287.787 320.239 287.986 318.381 287.934L309.679 287.692L304.117 287.54L304.247 271.097L314.729 262.447L314.712 262.525Z" fill="#D49476"/>
<path d="M190.664 65.5977H57.9266C57.5325 65.5977 57.2119 65.2772 57.2119 64.883C57.2119 64.4888 57.5325 64.1726 57.9266 64.1726H308.531C308.925 64.1726 309.246 64.4888 309.246 64.883C309.246 65.2772 308.925 65.5977 308.531 65.5977H213.816C206.141 64.5148 198.348 64.5148 190.664 65.5977ZM231.455 223.74H280.558C280.744 223.502 280.935 223.255 281.121 223.025C281.32 222.783 281.532 222.549 281.74 222.311H234.963C233.802 222.813 232.633 223.294 231.455 223.74ZM284.032 139.205H323.181C323.575 139.205 323.895 138.888 323.895 138.494C323.895 138.1 323.575 137.779 323.181 137.779H283.889C283.941 138.252 283.988 138.728 284.032 139.205ZM281.437 124.932H320.097C320.491 124.932 320.811 124.611 320.811 124.217C320.811 123.823 320.491 123.502 320.097 123.502H281.008C281.151 123.979 281.307 124.451 281.437 124.932ZM276.014 110.655H317.359C317.753 110.655 318.074 110.334 318.074 109.94C318.074 109.546 317.753 109.226 317.359 109.226H275.286C275.533 109.702 275.78 110.174 276.014 110.655ZM347.801 209.181L348.291 204.33L335.82 199.479L330.219 197.3C329.007 196.832 327.647 197.43 327.174 198.643C327.005 199.08 326.979 199.539 327.066 199.968C327.226 200.722 327.746 201.385 328.513 201.683L332.94 203.403L343.517 207.518L347.801 209.181ZM292.309 214.349C302.419 209.117 313.465 207.843 313.465 207.843V202.39C310.827 200.51 308.999 197.59 308.57 194.224C307.288 193.939 305.486 193.263 303.996 191.712C299.647 195.29 293.795 201.203 292.314 208.038H257.171C256.634 208.519 256.102 209 255.556 209.463H292.071C291.876 211.053 291.928 212.69 292.309 214.349ZM243.847 250.683H204.153C203.759 250.683 203.438 251.003 203.438 251.397C203.438 251.791 203.759 252.112 204.153 252.112H242.851C243.141 251.609 243.479 251.133 243.847 250.683ZM373.15 216.515L367.35 211.737L359.237 208.584C358.449 209.753 356.863 211.85 355.421 212.144L365.643 216.121L373.15 216.515ZM337.748 208.042C337.735 208.042 337.717 208.034 337.704 208.034H337.627C337.665 208.038 337.709 208.042 337.748 208.042ZM306.686 176.733V181.758C306.928 181.767 307.175 181.78 307.44 181.819C308.111 181.914 308.717 182.087 309.272 182.304L316.649 170.149C327.755 169.708 334.17 178.037 336.691 182.243C337.206 182.053 337.765 181.905 338.38 181.819C338.575 181.793 338.757 181.784 338.943 181.775V176.738C338.943 169.171 332.81 163.037 325.242 163.037H320.387C312.819 163.033 306.686 169.171 306.686 176.733ZM265.185 350.976H227.483C227.088 350.976 226.768 351.297 226.768 351.691C226.768 352.085 227.088 352.401 227.483 352.401H265.553L265.185 350.976ZM242.985 264.959H207.237C206.843 264.959 206.522 265.28 206.522 265.674C206.522 266.068 206.843 266.389 207.237 266.389H243.354L242.985 264.959ZM200.7 237.12C200.7 237.514 201.017 237.835 201.411 237.835H271.47C271.739 237.354 272.007 236.882 272.276 236.41H201.411C201.017 236.41 200.7 236.726 200.7 237.12ZM434.542 328.452C434.542 328.443 434.537 328.435 434.537 328.426C430.622 308.167 427.455 294.726 416.938 293.037C416.323 292.937 415.695 292.864 415.028 292.846C412.017 292.773 396.865 295.61 383.507 298.252C372.05 300.522 361.909 302.64 361.909 302.64H293.462C293.462 302.64 292.933 304.801 292.396 308.267H276.365L276.733 309.692H292.184C291.694 313.179 291.261 317.675 291.278 322.539H280.047L280.415 323.969H291.291C291.387 328.131 291.842 332.502 292.881 336.699H283.702L284.071 338.129H293.258C294.462 342.382 296.316 346.415 299.093 349.785C299.43 350.201 299.825 350.591 300.249 350.976H287.384L287.753 352.401H302.116C304.061 353.675 306.526 354.753 309.38 355.667C327.807 361.558 362.585 360.519 380.639 359.471C387.669 359.063 392.166 358.656 392.166 358.656L393.825 431.86L394.137 445.574L413.421 445.864L419.117 445.951L422.145 397.35L427.308 416.046L431.306 414.794L431.393 414.768L449.603 409.063C449.603 409.059 438.05 346.61 434.542 328.452ZM363.62 448.056C361.71 439.064 353.727 432.315 344.159 432.315H326.577V377.165H319.196V432.315H301.505C291.928 432.315 283.936 439.077 282.035 448.086C277.863 449.187 274.784 452.977 274.784 457.495C274.784 462.87 279.146 467.232 284.521 467.232C289.901 467.232 294.259 462.87 294.259 457.495C294.259 453.86 292.266 450.698 289.321 449.026C290.737 443.612 295.658 439.605 301.505 439.605H344.163C350.032 439.605 354.962 443.642 356.361 449.083C353.467 450.768 351.514 453.899 351.514 457.495C351.514 462.87 355.871 467.232 361.251 467.232C366.627 467.232 370.988 462.87 370.988 457.495C370.988 452.933 367.852 449.117 363.62 448.056ZM230.562 365.249C230.168 365.249 229.852 365.569 229.852 365.964C229.852 366.358 230.168 366.678 230.562 366.678H269.239L268.871 365.249H230.562ZM264.942 250.683H260.472C260.836 251.129 261.165 251.605 261.46 252.112H264.288C264.5 251.635 264.721 251.159 264.942 250.683ZM254.161 308.267H219.292C218.897 308.267 218.577 308.587 218.577 308.981C218.577 309.376 218.897 309.692 219.292 309.692H254.529L254.161 308.267ZM257.847 322.539H222.029C221.635 322.539 221.319 322.86 221.319 323.254C221.319 323.648 221.635 323.969 222.029 323.969H258.215L257.847 322.539ZM261.499 336.699H224.741C224.347 336.699 224.026 337.02 224.026 337.414C224.026 337.808 224.347 338.129 224.741 338.129H261.867L261.499 336.699Z" fill="#3A5471"/>
</svg>
