<svg width="534" height="534" viewBox="0 0 534 534" fill="none" xmlns="http://www.w3.org/2000/svg">
<g clip-path="url(#clip0_201_32)">
<path d="M273.262 61.4101L265.911 33.0645C265.595 31.8454 264.608 30.9786 263.454 30.7375L245.343 24.54C244.416 24.0903 243.304 24.0996 242.386 24.6234L242.237 24.7208C242.034 24.8366 241.843 24.9757 241.672 25.1333L219.014 42.6135C217.628 43.6842 217.373 45.6775 218.449 47.0588L218.931 47.6892C219.992 49.0752 221.981 49.3255 223.376 48.264L233.273 40.6156L219.399 66.8289C218.764 68.683 219.663 70.6624 221.406 71.265L225.925 72.8086L219.946 90.2748C219.213 92.421 220.358 94.7573 222.504 95.4897L223.807 95.9347C225.939 96.6671 228.276 95.5267 229.013 93.3759L234.988 75.9097L239.141 77.3327L233.161 94.7943C232.424 96.9405 233.569 99.2768 235.72 100.009L237.009 100.454C239.16 101.191 241.491 100.046 242.228 97.8954L248.203 80.4338L252.982 82.0701C254.73 82.6635 256.654 81.6437 257.284 79.7895L262.874 49.9791L266.314 63.2225C266.745 64.9237 268.497 65.9528 270.203 65.5078L270.977 65.3085C272.688 64.8588 273.698 63.1205 273.262 61.4101Z" fill="#F6B33E"/>
<path d="M424.947 70.653C422.778 76.9804 415.885 80.3596 409.562 78.1949C403.23 76.0255 399.856 69.1419 402.02 62.8099C404.185 56.4826 411.073 53.0987 417.405 55.2681C423.733 57.4328 427.112 64.3211 424.947 70.653Z" fill="#91A362"/>
<path d="M427.571 114.221L420.214 85.8711C419.904 84.6567 418.921 83.7898 417.767 83.5442L399.652 77.3466C398.725 76.897 397.617 76.9062 396.694 77.4347L396.546 77.5274C396.337 77.6433 396.152 77.787 395.976 77.9446L373.322 95.4247C371.941 96.4955 371.681 98.4841 372.757 99.8701L373.239 100.496C374.301 101.882 376.294 102.137 377.684 101.075L387.586 93.4269L373.712 119.636C373.077 121.485 373.967 123.469 375.714 124.067L380.234 125.62L374.259 143.086C373.526 145.228 374.667 147.564 376.818 148.296L378.111 148.746C380.257 149.478 382.593 148.329 383.326 146.187L389.301 128.721L393.445 130.135L387.465 147.606C386.733 149.752 387.882 152.088 390.024 152.82L391.322 153.261C393.468 153.998 395.8 152.853 396.537 150.707L402.516 133.24L407.295 134.877C409.034 135.47 410.962 134.455 411.597 132.601L417.178 102.786L420.618 116.029C421.058 117.735 422.801 118.759 424.511 118.314L425.285 118.11C426.996 117.67 428.016 115.932 427.571 114.221Z" fill="#91A362"/>
<mask id="mask0_201_32" style="mask-type:luminance" maskUnits="userSpaceOnUse" x="525" y="129" width="9" height="78">
<path d="M525.693 129.667H534V206.48H525.693V129.667Z" fill="white"/>
</mask>
<g mask="url(#mask0_201_32)">
<path d="M581.448 166.879L574.078 138.525C573.767 137.315 572.789 136.443 571.63 136.198L553.52 130C552.597 129.555 551.489 129.564 550.562 130.088L550.409 130.181C550.21 130.297 550.025 130.44 549.849 130.598L527.186 148.078C525.805 149.154 525.545 151.138 526.62 152.524L527.103 153.154C528.173 154.54 530.162 154.8 531.553 153.724L541.454 146.085L527.575 172.289C526.945 174.143 527.844 176.132 529.587 176.73L534.102 178.269L528.127 195.74C527.385 197.886 528.539 200.222 530.69 200.954L531.979 201.399C534.13 202.132 536.457 200.992 537.194 198.841L543.174 181.374L547.313 182.793L541.338 200.264C540.605 202.41 541.746 204.742 543.897 205.479L545.19 205.919C547.341 206.656 549.668 205.511 550.4 203.365L556.375 185.899L561.164 187.535C562.897 188.128 564.83 187.108 565.465 185.259L571.046 155.444L574.486 168.683C574.926 170.393 576.664 171.413 578.38 170.973L579.154 170.769C580.864 170.328 581.889 168.585 581.448 166.879Z" fill="#F6B33E"/>
</g>
<path d="M197.854 38.9607L190.302 9.90592C190.015 8.78415 189.171 7.94514 188.147 7.61602C188.013 7.55113 187.883 7.4955 187.744 7.44915L167.014 0.35696C166.894 0.315242 166.764 0.282794 166.639 0.254982C165.721 -0.0509561 164.696 0.0556585 163.839 0.611909C163.431 0.825137 163.06 1.1079 162.736 1.44628L140.054 18.945C138.645 20.0436 138.376 22.0832 139.475 23.497L139.966 24.1459C141.07 25.5644 143.105 25.8239 144.528 24.7346L157.873 14.4208L151.147 34.075C151.068 34.3114 151.017 34.5478 150.976 34.7796L141.57 62.2722C140.662 64.9283 141.714 67.6957 143.907 68.4466L145.232 68.9009C147.434 69.6518 149.96 68.1082 150.864 65.4568L159.148 41.2599L168.998 44.6345L160.668 68.9611C159.764 71.6172 160.812 74.3799 163.014 75.1309L164.344 75.5851C166.541 76.3361 169.058 74.7971 169.967 72.141L179.622 43.9252C179.687 43.7306 179.748 43.5405 179.785 43.3458L186.376 24.0903L190.715 40.8056C191.179 42.5624 192.963 43.61 194.711 43.1558L195.513 42.9518C197.26 42.4975 198.303 40.7036 197.854 38.9607Z" fill="#9F3D4B"/>
<path d="M482.881 103.634C489.375 105.854 496.435 102.396 498.655 95.9115C500.88 89.4219 497.413 82.3622 490.923 80.1372C484.438 77.9214 477.388 81.3795 475.163 87.869C472.942 94.354 476.396 101.418 482.881 103.634Z" fill="#9F3D4B"/>
<path d="M501.876 143.003L494.335 113.952C494.042 112.821 493.199 111.992 492.17 111.663C492.045 111.598 491.915 111.542 491.771 111.496L471.051 104.403C470.916 104.357 470.791 104.329 470.661 104.297C469.748 103.986 468.724 104.102 467.866 104.654C467.463 104.872 467.083 105.15 466.763 105.493L444.082 122.992C442.664 124.085 442.404 126.125 443.503 127.543L443.994 128.192C445.102 129.611 447.137 129.87 448.551 128.777L461.905 118.467L455.179 138.122C455.1 138.358 455.045 138.594 455.008 138.826L445.598 166.314C444.689 168.975 445.741 171.738 447.939 172.488L449.264 172.947C451.462 173.698 453.983 172.155 454.892 169.499L463.175 145.302L473.03 148.676L464.7 173.008C463.796 175.664 464.839 178.422 467.037 179.173L468.362 179.627C470.559 180.378 473.086 178.839 473.994 176.188L483.65 147.967C483.715 147.777 483.766 147.587 483.817 147.392L490.404 128.137L494.742 144.852C495.201 146.604 496.986 147.657 498.743 147.202L499.531 146.994C501.283 146.539 502.335 144.75 501.876 143.003Z" fill="#9F3D4B"/>
<path d="M331.599 52.1485C338.084 54.3688 345.144 50.9108 347.364 44.4259C349.589 37.9316 346.127 30.8765 339.637 28.6562C333.147 26.4312 326.092 29.8938 323.872 36.3834C321.652 42.873 325.11 49.9281 331.599 52.1485Z" fill="#847CB0"/>
<path d="M350.586 91.5125L343.049 62.467C342.752 61.3405 341.913 60.5062 340.889 60.1771C340.754 60.1122 340.624 60.0565 340.481 60.0102L319.76 52.9134C319.635 52.8716 319.506 52.8346 319.38 52.8114C318.463 52.5054 317.438 52.6121 316.585 53.1683C316.177 53.3862 315.797 53.6689 315.473 54.0073L292.796 71.506C291.373 72.6 291.114 74.6396 292.212 76.058L292.708 76.7023C293.811 78.1254 295.846 78.385 297.26 77.291L310.619 66.9818L303.889 86.636C303.81 86.8724 303.754 87.1088 303.717 87.3406L294.307 114.829C293.399 117.489 294.442 120.252 296.653 121.008L297.974 121.457C300.171 122.213 302.697 120.669 303.601 118.009L311.885 93.8163L321.74 97.1909L313.419 121.518C312.506 124.174 313.554 126.936 315.746 127.687L317.072 128.142C319.274 128.892 321.795 127.354 322.709 124.697L332.36 96.4863C332.429 96.2962 332.48 96.1015 332.522 95.9115L339.113 76.6467L343.457 93.3666C343.916 95.1188 345.696 96.1711 347.452 95.7168L348.24 95.5128C349.993 95.0539 351.05 93.2693 350.586 91.5125Z" fill="#847CB0"/>
<path d="M193.07 102.568C190.91 108.895 184.017 112.27 177.685 110.105C171.358 107.94 167.983 101.052 170.148 94.7201C172.312 88.3881 179.201 85.0135 185.533 87.1829C191.865 89.3476 195.239 96.2359 193.07 102.568Z" fill="#F6B33E"/>
<path d="M195.698 146.132L188.346 117.786C188.031 116.571 187.044 115.695 185.89 115.454L167.779 109.257C166.852 108.807 165.739 108.816 164.822 109.34V109.345L164.673 109.438C164.469 109.553 164.279 109.692 164.103 109.85L141.445 127.33C140.069 128.41 139.809 130.394 140.88 131.78L141.362 132.411C142.428 133.792 144.417 134.052 145.807 132.981L155.708 125.337L141.835 151.546C141.2 153.4 142.099 155.388 143.842 155.982L148.361 157.525L142.382 174.992C141.649 177.142 142.799 179.479 144.94 180.211L146.238 180.651C148.375 181.384 150.711 180.244 151.444 178.093L157.424 160.631L161.572 162.05L155.597 179.516C154.86 181.662 156.005 183.994 158.156 184.731L159.445 185.176C161.595 185.908 163.922 184.768 164.664 182.617L170.639 165.151L175.418 166.792C177.166 167.385 179.089 166.36 179.72 164.511L185.31 134.701L188.75 147.939C189.181 149.645 190.933 150.67 192.634 150.229L193.413 150.025C195.119 149.585 196.134 147.837 195.698 146.132Z" fill="#F6B33E"/>
<path d="M347.378 155.379C345.213 161.706 338.32 165.081 331.993 162.912C325.666 160.751 322.291 153.859 324.451 147.531C326.621 141.199 333.509 137.825 339.836 139.989C346.168 142.154 349.547 149.047 347.378 155.379Z" fill="#91A362"/>
<path d="M350.007 198.938L342.65 170.593C342.335 169.374 341.352 168.507 340.198 168.266L322.087 162.068C321.165 161.619 320.057 161.628 319.13 162.152L318.977 162.244C318.773 162.36 318.588 162.504 318.412 162.662L295.758 180.142C294.377 181.213 294.117 183.206 295.193 184.592L295.675 185.218C296.736 186.599 298.73 186.854 300.12 185.792L310.017 178.144L296.148 204.357C295.517 206.211 296.403 208.191 298.15 208.789L302.67 210.337L296.695 227.803C295.962 229.949 297.098 232.286 299.253 233.018L300.547 233.463C302.693 234.195 305.024 233.05 305.761 230.904L311.737 213.438L315.876 214.861L309.901 232.327C309.168 234.469 310.323 236.805 312.46 237.538L313.758 237.983C315.904 238.72 318.235 237.57 318.968 235.428L324.943 217.962L329.731 219.594C331.469 220.187 333.398 219.172 334.033 217.322L339.614 187.512L343.053 200.746C343.498 202.457 345.237 203.481 346.947 203.036L347.721 202.837C349.432 202.392 350.451 200.649 350.007 198.938Z" fill="#91A362"/>
<path d="M501.251 208.028C499.081 214.365 492.193 217.739 485.87 215.57C479.534 213.405 476.155 206.517 478.324 200.19C480.489 193.858 487.382 190.483 493.709 192.648C500.036 194.813 503.411 201.701 501.251 208.028Z" fill="#F6B33E"/>
<path d="M503.884 251.597L496.513 223.251C496.198 222.032 495.225 221.165 494.066 220.924L475.951 214.722C475.033 214.277 473.92 214.286 472.998 214.81L472.85 214.907C472.646 215.018 472.456 215.162 472.284 215.32L449.621 232.8C448.24 233.871 447.981 235.859 449.051 237.245L449.538 237.871C450.613 239.262 452.597 239.517 453.983 238.45L463.889 230.802L450.015 257.015C449.38 258.865 450.28 260.849 452.018 261.447L456.537 262.995L450.562 280.461C449.821 282.603 450.975 284.939 453.126 285.676L454.414 286.121C456.561 286.854 458.892 285.709 459.629 283.562L465.604 266.096L469.748 267.515L463.773 284.981C463.036 287.127 464.181 289.463 466.327 290.196L467.625 290.641C469.776 291.373 472.103 290.228 472.836 288.082L478.811 270.616L483.599 272.257C485.333 272.85 487.266 271.83 487.901 269.976L493.482 240.161L496.921 253.404C497.362 255.11 499.1 256.135 500.815 255.69L501.584 255.486C503.3 255.045 504.319 253.307 503.884 251.597Z" fill="#F6B33E"/>
<path d="M101.284 84.3089C107.778 86.5293 114.838 83.0712 117.063 76.5817C119.279 70.0967 115.816 63.037 109.326 60.812C102.846 58.5962 95.7909 62.0543 93.5706 68.5438C91.3456 75.0334 94.8036 82.0885 101.284 84.3089Z" fill="#9F3D4B"/>
<path d="M120.289 123.678L112.738 94.6227C112.446 93.5009 111.607 92.6666 110.583 92.3375C110.448 92.2726 110.314 92.2169 110.175 92.1706L89.4498 85.0738C89.3293 85.032 89.1949 84.9996 89.0697 84.9718C88.1565 84.6658 87.1321 84.7725 86.2746 85.3287C85.8666 85.5419 85.4958 85.8247 85.1713 86.1677L62.4902 103.662C61.0764 104.765 60.8122 106.8 61.9108 108.218L62.4022 108.863C63.5054 110.286 65.5357 110.545 66.9588 109.451L80.3088 99.1422L73.5874 118.796C73.504 119.033 73.4484 119.274 73.4066 119.501L64.0014 146.994C63.0975 149.65 64.1497 152.417 66.3376 153.163L67.668 153.618C69.8698 154.369 72.3961 152.83 73.3 150.174L81.5835 125.981L91.4291 129.351L83.1039 153.678C82.1954 156.334 83.243 159.097 85.4494 159.848L86.7798 160.302C88.9724 161.058 91.494 159.514 92.3979 156.858L102.058 128.647C102.123 128.457 102.183 128.267 102.22 128.072L108.812 108.807L113.151 125.532C113.61 127.279 115.399 128.336 117.146 127.882L117.944 127.669C119.696 127.214 120.739 125.43 120.289 123.678Z" fill="#9F3D4B"/>
<path d="M405.316 188.356C411.81 190.576 418.87 187.113 421.091 180.628C423.316 174.139 419.848 167.084 413.359 164.859C406.874 162.638 399.819 166.096 397.598 172.591C395.378 179.08 398.831 186.135 405.316 188.356Z" fill="#9F3D4B"/>
<path d="M424.312 227.72L416.766 198.669C416.474 197.548 415.635 196.713 414.606 196.384C414.476 196.315 414.351 196.259 414.207 196.213L393.482 189.12C393.352 189.079 393.227 189.046 393.097 189.018C392.184 188.712 391.155 188.819 390.297 189.375C389.899 189.589 389.519 189.867 389.199 190.21L366.518 207.708C365.099 208.812 364.84 210.847 365.938 212.265L366.43 212.909C367.533 214.332 369.568 214.597 370.986 213.493L384.341 203.189L377.615 222.838C377.532 223.075 377.481 223.316 377.439 223.548L368.034 251.04C367.125 253.696 368.173 256.464 370.374 257.215L371.7 257.664C373.897 258.415 376.419 256.876 377.328 254.22L385.606 230.023L395.466 233.398L387.136 257.725C386.232 260.381 387.275 263.143 389.468 263.894L390.798 264.344C392.995 265.1 395.517 263.561 396.425 260.904L406.086 232.693C406.151 232.499 406.202 232.309 406.248 232.114L412.839 212.854L417.178 229.574C417.637 231.321 419.422 232.378 421.174 231.924L421.967 231.715C423.719 231.261 424.771 229.476 424.312 227.72Z" fill="#9F3D4B"/>
<path d="M254.035 136.874C260.52 139.09 267.579 135.632 269.8 129.143C272.025 122.653 268.562 115.593 262.072 113.378C255.583 111.157 248.528 114.615 246.307 121.105C244.087 127.59 247.545 134.649 254.035 136.874Z" fill="#847CB0"/>
<path d="M273.021 176.234L265.484 147.184C265.188 146.062 264.349 145.223 263.324 144.894C263.19 144.834 263.06 144.773 262.921 144.727L242.196 137.635C242.066 137.593 241.941 137.561 241.816 137.533C240.898 137.227 239.869 137.333 239.016 137.89C238.613 138.103 238.233 138.386 237.908 138.724L215.232 156.223C213.809 157.321 213.549 159.361 214.643 160.779L215.144 161.424C216.242 162.842 218.282 163.106 219.696 162.012L233.055 151.703L226.324 171.353C226.245 171.589 226.19 171.826 226.148 172.062L216.743 199.555C215.834 202.206 216.877 204.969 219.084 205.729L220.409 206.183C222.607 206.934 225.128 205.391 226.037 202.735L234.316 178.542L244.171 181.912L235.85 206.239C234.942 208.895 235.989 211.658 238.177 212.409L239.507 212.858C241.709 213.614 244.231 212.075 245.144 209.419L254.8 181.203C254.865 181.013 254.916 180.818 254.957 180.628L261.549 161.368L265.892 178.083C266.346 179.84 268.131 180.888 269.883 180.434L270.676 180.23C272.423 179.775 273.48 177.986 273.021 176.234Z" fill="#847CB0"/>
<path d="M132.652 296.592C130.487 302.92 123.599 306.294 117.267 304.13C110.94 301.965 107.56 295.077 109.725 288.745C111.894 282.413 118.778 279.038 125.105 281.208C131.447 283.372 134.817 290.261 132.652 296.592Z" fill="#F6B33E"/>
<path d="M135.28 340.156L127.919 311.811C127.604 310.596 126.626 309.725 125.471 309.479L107.351 303.281C106.434 302.832 105.321 302.841 104.399 303.365V303.369L104.246 303.462C104.046 303.578 103.856 303.722 103.68 303.879L81.0269 321.36C79.6456 322.435 79.3906 324.419 80.4568 325.805L80.9435 326.435C82.0097 327.821 83.9983 328.076 85.3889 327.005L95.2855 319.362L81.4163 345.575C80.7813 347.424 81.6805 349.413 83.4188 350.006L87.943 351.559L81.9633 369.021C81.2309 371.167 82.3759 373.503 84.5221 374.236L85.8153 374.676C87.9569 375.413 90.2931 374.268 91.0255 372.117L97.0052 354.66L101.149 356.074L95.1742 373.54C94.4418 375.687 95.5868 378.023 97.7284 378.76L99.0263 379.2C101.172 379.933 103.504 378.792 104.241 376.646L110.216 359.18L115 360.816C116.747 361.414 118.662 360.39 119.297 358.536L124.883 328.725L128.327 341.964C128.762 343.67 130.51 344.694 132.216 344.254L132.995 344.055C134.7 343.61 135.716 341.862 135.28 340.156Z" fill="#F6B33E"/>
<path d="M286.96 349.404C284.795 355.731 277.903 359.106 271.575 356.936C265.243 354.776 261.869 347.883 264.033 341.556C266.203 335.224 273.091 331.85 279.418 334.014C285.746 336.179 289.125 343.072 286.96 349.404Z" fill="#91A362"/>
<path d="M289.588 392.963L282.232 364.617C281.917 363.403 280.934 362.531 279.775 362.29L261.665 356.093C260.742 355.643 259.634 355.652 258.707 356.176V356.181L258.559 356.269C258.355 356.385 258.169 356.528 257.989 356.686L235.335 374.166C233.959 375.242 233.699 377.23 234.765 378.616L235.247 379.242C236.318 380.623 238.307 380.878 239.702 379.817L249.599 372.168L235.729 398.382C235.09 400.231 235.984 402.22 237.727 402.818L242.251 404.361L236.276 421.828C235.535 423.974 236.68 426.31 238.83 427.047L240.124 427.487C242.275 428.22 244.606 427.079 245.339 424.929L251.318 407.462L255.458 408.885L249.483 426.352C248.75 428.493 249.895 430.83 252.041 431.562L253.335 432.012C255.481 432.744 257.817 431.594 258.55 429.453L264.525 411.987L269.308 413.623C271.047 414.221 272.98 413.196 273.61 411.347L279.196 381.537L282.631 394.771C283.071 396.481 284.818 397.506 286.529 397.061L287.303 396.861C289.009 396.416 290.033 394.673 289.588 392.963Z" fill="#91A362"/>
<path d="M440.824 402.062C438.663 408.389 431.771 411.764 425.443 409.595C419.116 407.43 415.737 400.542 417.906 394.214C420.071 387.882 426.964 384.508 433.291 386.673C439.618 388.837 442.993 395.725 440.824 402.062Z" fill="#F6B33E"/>
<path d="M443.456 445.621L436.095 417.276C435.78 416.057 434.802 415.19 433.648 414.949L415.533 408.746C414.615 408.301 413.502 408.311 412.58 408.835L412.575 408.839L412.427 408.932C412.228 409.043 412.038 409.187 411.861 409.344L389.203 426.825C387.822 427.895 387.563 429.884 388.633 431.27L389.12 431.9C390.186 433.286 392.179 433.537 393.565 432.475L403.471 424.827L389.593 451.035C388.962 452.894 389.852 454.878 391.6 455.471L396.115 457.02L390.135 474.486C389.403 476.632 390.552 478.964 392.703 479.705L393.997 480.146C396.138 480.878 398.47 479.738 399.207 477.587L405.182 460.121L409.33 461.539L403.355 479.005C402.618 481.152 403.763 483.488 405.91 484.22L407.203 484.665C409.358 485.398 411.681 484.253 412.418 482.107L418.393 464.645L423.176 466.281C424.915 466.875 426.848 465.855 427.483 464.001L433.064 434.19L436.503 447.429C436.944 449.135 438.682 450.159 440.392 449.719L441.162 449.515C442.882 449.075 443.897 447.332 443.456 445.621Z" fill="#F6B33E"/>
<path d="M40.8658 278.334C47.3554 280.559 54.4244 277.101 56.6401 270.606C58.8605 264.121 55.3979 257.062 48.9083 254.841C42.428 252.621 35.3636 256.079 33.1478 262.573C30.9275 269.058 34.3855 276.118 40.8658 278.334Z" fill="#9F3D4B"/>
<path d="M59.8711 317.702L52.32 288.647C52.028 287.526 51.1843 286.691 50.1553 286.362C50.0255 286.302 49.8957 286.246 49.7566 286.195L29.0317 279.103C28.9065 279.057 28.7767 279.024 28.6516 278.996C27.7384 278.69 26.7093 278.797 25.8564 279.353C25.4485 279.567 25.0776 279.854 24.7485 280.197L2.06744 297.686C0.658269 298.794 0.389415 300.829 1.48801 302.248L1.984 302.887C3.08259 304.31 5.11754 304.575 6.54061 303.476L19.8906 293.167L13.1646 312.826C13.0858 313.057 13.0302 313.294 12.9931 313.53L3.58322 341.018C2.67004 343.674 3.72691 346.442 5.91483 347.193L7.24983 347.647C9.44702 348.403 11.9687 346.854 12.8819 344.198L21.1607 320.006L31.011 323.376L22.6858 347.703C21.7772 350.359 22.8248 353.121 25.0313 353.877L26.357 354.331C28.5542 355.082 31.0712 353.539 31.9798 350.882L41.6354 322.671C41.7003 322.481 41.7559 322.291 41.7976 322.097L48.3938 302.832L52.7325 319.556C53.1868 321.304 54.9807 322.361 56.7236 321.906L57.5256 321.698C59.2685 321.239 60.3207 319.454 59.8711 317.702Z" fill="#9F3D4B"/>
<path d="M344.894 382.38C351.388 384.605 358.452 381.147 360.668 374.653C362.888 368.163 359.43 361.108 352.941 358.888C346.456 356.667 339.396 360.125 337.18 366.62C334.955 373.105 338.413 380.164 344.894 382.38Z" fill="#9F3D4B"/>
<path d="M363.894 421.744L356.348 392.694C356.056 391.572 355.212 390.738 354.183 390.409C354.053 390.344 353.923 390.293 353.784 390.242L333.059 383.15C332.93 383.103 332.809 383.071 332.679 383.043C331.766 382.737 330.732 382.844 329.884 383.4C329.481 383.613 329.101 383.896 328.781 384.244L306.1 401.733C304.681 402.836 304.417 404.871 305.52 406.294L306.012 406.934C307.115 408.357 309.145 408.621 310.568 407.523L323.923 397.214L317.197 416.868C317.114 417.104 317.063 417.341 317.021 417.577L307.616 445.065C306.702 447.721 307.755 450.488 309.952 451.239L311.278 451.694C313.479 452.445 315.996 450.901 316.91 448.245L325.188 424.053L335.043 427.423L326.718 451.749C325.814 454.405 326.857 457.168 329.05 457.919L330.375 458.373C332.573 459.129 335.099 457.585 336.008 454.929L345.663 426.718C345.728 426.528 345.779 426.333 345.83 426.143L352.422 406.878L356.76 423.598C357.215 425.346 359.004 426.403 360.756 425.953L361.544 425.74C363.292 425.286 364.348 423.501 363.894 421.744Z" fill="#9F3D4B"/>
<path d="M193.612 330.899C200.102 333.115 207.162 329.657 209.382 323.167C211.602 316.678 208.14 309.623 201.655 307.402C195.165 305.182 188.11 308.64 185.89 315.125C183.665 321.619 187.123 328.674 193.612 330.899Z" fill="#847CB0"/>
<path d="M212.599 370.259L205.062 341.208C204.769 340.087 203.93 339.248 202.901 338.919C202.767 338.858 202.637 338.798 202.493 338.752L181.769 331.659C181.643 331.618 181.518 331.585 181.393 331.557C180.48 331.252 179.451 331.358 178.593 331.914C178.19 332.128 177.81 332.41 177.49 332.749L154.809 350.247C153.391 351.351 153.131 353.386 154.225 354.804L154.716 355.448C155.824 356.867 157.854 357.131 159.273 356.032L172.628 345.728L165.906 365.377C165.823 365.614 165.772 365.855 165.73 366.087L156.325 393.579C155.416 396.235 156.459 398.994 158.666 399.754L159.987 400.208C162.189 400.959 164.71 399.415 165.619 396.759L173.898 372.567L183.753 375.937L175.427 400.264C174.523 402.92 175.566 405.682 177.759 406.433L179.089 406.883C181.282 407.639 183.813 406.1 184.721 403.444L194.377 375.232C194.442 375.033 194.497 374.843 194.539 374.653L201.131 355.393L205.469 372.108C205.928 373.865 207.713 374.913 209.465 374.463L210.258 374.254C212.01 373.8 213.062 372.011 212.599 370.259Z" fill="#847CB0"/>
<path d="M204.032 213.526C201.868 219.853 194.979 223.232 188.647 221.068C182.32 218.898 178.945 212.01 181.106 205.683C183.275 199.346 190.163 195.971 196.491 198.141C202.827 200.306 206.202 207.194 204.032 213.526Z" fill="#F6B33E"/>
<path d="M206.661 257.09L199.3 228.739C198.989 227.525 198.007 226.663 196.852 226.417L178.737 220.219C177.815 219.765 176.702 219.774 175.78 220.308L175.631 220.4C175.427 220.516 175.237 220.655 175.061 220.813L152.413 238.293C151.027 239.368 150.772 241.357 151.838 242.738L152.329 243.364C153.391 244.755 155.379 245.01 156.77 243.939L166.667 236.295L152.797 262.508C152.162 264.358 153.062 266.342 154.8 266.94L159.324 268.488L153.349 285.954C152.612 288.1 153.757 290.437 155.903 291.169L157.196 291.61C159.338 292.347 161.674 291.202 162.411 289.055L168.386 271.589L172.53 273.008L166.555 290.474C165.823 292.62 166.963 294.956 169.114 295.689L170.407 296.134C172.553 296.866 174.885 295.726 175.622 293.575L181.597 276.109L186.381 277.75C188.128 278.348 190.043 277.323 190.678 275.469L196.268 245.659L199.703 258.897C200.143 260.603 201.891 261.628 203.597 261.187L204.376 260.983C206.081 260.538 207.097 258.795 206.661 257.09Z" fill="#F6B33E"/>
<path d="M358.345 266.332C356.176 272.66 349.283 276.034 342.961 273.874C336.624 271.709 333.249 264.817 335.419 258.489C337.583 252.157 344.472 248.783 350.799 250.947C357.126 253.112 360.506 260.005 358.345 266.332Z" fill="#91A362"/>
<path d="M360.969 309.901L353.613 281.551C353.298 280.336 352.32 279.465 351.161 279.224L333.045 273.021C332.123 272.576 331.015 272.586 330.088 273.109L329.94 273.202C329.736 273.318 329.55 273.462 329.374 273.619L306.716 291.099C305.34 292.175 305.08 294.163 306.151 295.549L306.633 296.175C307.699 297.557 309.688 297.821 311.083 296.75L320.979 289.106L307.11 315.31C306.471 317.169 307.365 319.153 309.108 319.751L313.632 321.295L307.657 338.761C306.92 340.907 308.061 343.243 310.216 343.976L311.509 344.421C313.655 345.153 315.982 344.013 316.724 341.862L322.699 324.396L326.843 325.819L320.864 343.285C320.131 345.431 321.276 347.763 323.422 348.5L324.716 348.94C326.862 349.677 329.198 348.532 329.93 346.386L335.91 328.92L340.694 330.556C342.428 331.149 344.36 330.13 344.991 328.28L350.577 298.465L354.011 311.704C354.452 313.414 356.199 314.439 357.91 313.994L358.684 313.794C360.39 313.349 361.414 311.607 360.969 309.901Z" fill="#91A362"/>
<path d="M512.209 318.995C510.044 325.323 503.151 328.697 496.824 326.528C490.497 324.363 487.118 317.475 489.287 311.148C491.452 304.816 498.345 301.441 504.672 303.606C510.999 305.771 514.378 312.663 512.209 318.995Z" fill="#F6B33E"/>
<path d="M514.842 362.554L507.476 334.209C507.161 332.99 506.183 332.123 505.029 331.882L486.918 325.684C485.996 325.235 484.883 325.244 483.961 325.768L483.808 325.86C483.608 325.976 483.423 326.12 483.247 326.278L460.584 343.758C459.203 344.829 458.939 346.817 460.019 348.198L460.501 348.834C461.567 350.22 463.56 350.474 464.941 349.408L474.852 341.76L460.978 367.973C460.343 369.823 461.238 371.807 462.985 372.409L467.496 373.953L461.516 391.419C460.783 393.565 461.933 395.897 464.084 396.634L465.377 397.079C467.519 397.811 469.855 396.671 470.587 394.52L476.562 377.054L480.711 378.477L474.736 395.939C473.999 398.085 475.144 400.421 477.295 401.153L478.588 401.598C480.739 402.336 483.066 401.186 483.798 399.044L489.778 381.578L494.557 383.21C496.295 383.808 498.228 382.788 498.863 380.934L504.444 351.119L507.884 364.362C508.324 366.068 510.063 367.092 511.773 366.652L512.547 366.453C514.262 366.008 515.282 364.265 514.842 362.554Z" fill="#F6B33E"/>
<path d="M112.247 195.267C118.736 197.487 125.805 194.029 128.021 187.544C130.241 181.05 126.779 173.995 120.289 171.775C113.809 169.559 106.749 173.017 104.529 179.502C102.308 185.991 105.766 193.047 112.247 195.267Z" fill="#9F3D4B"/>
<path d="M131.247 234.636L123.701 205.585C123.413 204.459 122.57 203.625 121.536 203.295C121.406 203.231 121.276 203.175 121.142 203.129L100.412 196.032C100.287 195.99 100.162 195.958 100.037 195.93C99.119 195.624 98.0899 195.73 97.237 196.287C96.8291 196.505 96.4583 196.787 96.1338 197.126L73.4527 214.624C72.0435 215.723 71.7747 217.763 72.8733 219.176L73.3646 219.821C74.4632 221.244 76.4982 221.508 77.9212 220.414L91.2712 210.1L84.5452 229.759C84.4664 229.991 84.4155 230.227 84.3737 230.464L74.9638 257.952C74.0553 260.608 75.1122 263.375 77.3001 264.126L78.6305 264.58C80.8276 265.331 83.3493 263.788 84.2625 261.132L92.546 236.939L102.396 240.309L94.0664 264.636C93.1578 267.292 94.2055 270.055 96.4119 270.806L97.7376 271.265C99.9348 272.016 102.452 270.472 103.36 267.816L113.016 239.605C113.081 239.415 113.141 239.225 113.178 239.03L119.774 219.765L124.113 236.49C124.572 238.242 126.361 239.289 128.104 238.84L128.911 238.631C130.649 238.177 131.701 236.388 131.247 234.636Z" fill="#9F3D4B"/>
<path d="M416.279 299.314C422.769 301.534 429.833 298.076 432.049 291.586C434.274 285.097 430.811 278.042 424.322 275.821C417.837 273.601 410.782 277.064 408.561 283.549C406.341 290.038 409.794 297.093 416.279 299.314Z" fill="#9F3D4B"/>
<path d="M435.275 338.678L427.733 309.632C427.436 308.506 426.597 307.671 425.564 307.342C425.438 307.277 425.309 307.222 425.17 307.175L404.445 300.078C404.315 300.037 404.19 300.004 404.06 299.976C403.147 299.67 402.118 299.777 401.265 300.333C400.861 300.547 400.481 300.829 400.162 301.172L377.48 318.671C376.062 319.765 375.802 321.809 376.901 323.223L377.388 323.867C378.491 325.29 380.531 325.55 381.949 324.456L395.299 314.147L388.578 333.806C388.499 334.037 388.443 334.274 388.406 334.51L378.996 361.998C378.083 364.654 379.14 367.422 381.332 368.173L382.663 368.627C384.86 369.378 387.377 367.834 388.29 365.178L396.574 340.986L406.429 344.356L398.103 368.683C397.195 371.339 398.238 374.101 400.435 374.852L401.756 375.311C403.958 376.058 406.484 374.519 407.388 371.862L417.044 343.651C417.109 343.457 417.16 343.267 417.206 343.077L423.802 323.812L428.141 340.532C428.595 342.279 430.384 343.336 432.132 342.882L432.929 342.678C434.672 342.219 435.734 340.434 435.275 338.678Z" fill="#9F3D4B"/>
<path d="M264.993 247.833C271.482 250.053 278.542 246.59 280.762 240.101C282.983 233.611 279.52 226.556 273.035 224.336C266.546 222.111 259.49 225.569 257.27 232.058C255.05 238.552 258.503 245.608 264.993 247.833Z" fill="#847CB0"/>
<path d="M283.98 287.192L276.442 258.142C276.15 257.02 275.311 256.186 274.278 255.852C274.153 255.787 274.018 255.731 273.874 255.685L253.154 248.593C253.024 248.551 252.899 248.514 252.774 248.491C251.861 248.185 250.832 248.291 249.979 248.848C249.571 249.061 249.195 249.344 248.871 249.682L226.19 267.181C224.771 268.284 224.507 270.319 225.606 271.737L226.102 272.382C227.21 273.8 229.24 274.064 230.654 272.966L244.013 262.661L237.287 282.311C237.208 282.547 237.153 282.784 237.111 283.02L227.706 310.508C226.797 313.169 227.84 315.932 230.047 316.687L231.372 317.137C233.569 317.888 236.091 316.349 237 313.693L245.283 289.5L255.138 292.87L246.813 317.197C245.904 319.853 246.947 322.616 249.144 323.367L250.47 323.816C252.667 324.572 255.194 323.033 256.102 320.377L265.758 292.166C265.827 291.976 265.878 291.781 265.92 291.586L272.512 272.326L276.85 289.046C277.309 290.794 279.094 291.851 280.851 291.392L281.639 291.188C283.391 290.733 284.443 288.949 283.98 287.192Z" fill="#847CB0"/>
<path d="M140.374 406.73C138.209 413.057 131.321 416.437 124.985 414.272C118.657 412.103 115.283 405.219 117.447 398.882C119.617 392.55 126.505 389.18 132.832 391.345C139.164 393.515 142.539 400.398 140.374 406.73Z" fill="#F6B33E"/>
<path d="M142.998 450.294L135.646 421.948C135.331 420.734 134.348 419.862 133.189 419.617L115.079 413.419C114.156 412.974 113.039 412.983 112.121 413.507L111.973 413.6C111.769 413.716 111.579 413.855 111.403 414.017L88.7496 431.497C87.3683 432.573 87.1133 434.557 88.1794 435.947L88.6662 436.573C89.7323 437.959 91.7209 438.214 93.1162 437.148L103.008 429.499L89.1343 455.713C88.5039 457.562 89.3986 459.551 91.1415 460.144L95.6656 461.697L89.6906 479.159C88.9489 481.305 90.1031 483.641 92.2401 484.373L93.538 484.814C95.6796 485.551 98.0158 484.406 98.7528 482.26L104.728 464.798L108.877 466.212L102.897 483.678C102.165 485.829 103.305 488.161 105.456 488.898L106.744 489.338C108.895 490.07 111.231 488.93 111.964 486.784L117.939 469.318L122.723 470.954C124.465 471.552 126.389 470.523 127.02 468.673L132.61 438.863L136.049 452.102C136.48 453.807 138.233 454.837 139.934 454.392L140.717 454.188C142.423 453.747 143.438 452 142.998 450.294Z" fill="#F6B33E"/>
<path d="M294.678 459.541C292.518 465.869 285.62 469.243 279.293 467.078C272.966 464.914 269.591 458.021 271.761 451.693C273.921 445.361 280.814 441.987 287.141 444.156C293.468 446.316 296.847 453.209 294.678 459.541Z" fill="#91A362"/>
<mask id="mask1_201_32" style="mask-type:luminance" maskUnits="userSpaceOnUse" x="241" y="465" width="57" height="69">
<path d="M241.361 465.173H297.853V534H241.361V465.173Z" fill="white"/>
</mask>
<g mask="url(#mask1_201_32)">
<path d="M297.306 503.1L289.955 474.755C289.639 473.545 288.652 472.669 287.502 472.428L269.387 466.23C268.469 465.781 267.352 465.79 266.43 466.314V466.318L266.282 466.411C266.082 466.527 265.892 466.666 265.711 466.823L243.058 484.304C241.681 485.374 241.417 487.368 242.493 488.754L242.975 489.379C244.036 490.765 246.029 491.02 247.42 489.954L257.321 482.306L243.447 508.519C242.817 510.373 243.702 512.357 245.45 512.955L249.969 514.499L243.994 531.965C243.262 534.116 244.402 536.447 246.549 537.18L247.851 537.625C249.993 538.357 252.329 537.217 253.061 535.071L259.036 517.6L263.185 519.023L257.205 536.489C256.473 538.635 257.618 540.967 259.764 541.699L261.057 542.149C263.208 542.881 265.54 541.732 266.272 539.59L272.247 522.124L277.031 523.76C278.769 524.358 280.702 523.334 281.337 521.484L286.918 491.674L290.353 504.908C290.798 506.619 292.541 507.643 294.247 507.198L295.021 506.999C296.732 506.554 297.751 504.811 297.306 503.1Z" fill="#91A362"/>
</g>
<path d="M448.551 512.195C446.386 518.527 439.493 521.902 433.171 519.737C426.839 517.568 423.464 510.679 425.624 504.352C427.793 498.02 434.682 494.645 441.009 496.81C447.341 498.975 450.72 505.863 448.551 512.195Z" fill="#F6B33E"/>
<mask id="mask2_201_32" style="mask-type:luminance" maskUnits="userSpaceOnUse" x="395" y="518" width="57" height="16">
<path d="M395.16 518.314H451.731V534H395.16V518.314Z" fill="white"/>
</mask>
<g mask="url(#mask2_201_32)">
<path d="M451.179 555.759L443.813 527.413C443.498 526.194 442.525 525.327 441.37 525.086L423.255 518.889C422.333 518.439 421.225 518.448 420.298 518.977L420.15 519.069C419.946 519.181 419.76 519.324 419.584 519.487L396.926 536.962C395.54 538.033 395.285 540.026 396.356 541.407L396.843 542.033C397.913 543.424 399.902 543.679 401.288 542.613L411.189 534.964L397.32 561.178C396.685 563.032 397.58 565.011 399.323 565.609L403.837 567.157L397.862 584.623C397.13 586.774 398.275 589.101 400.426 589.843L401.714 590.283C403.865 591.016 406.197 589.875 406.929 587.725L412.909 570.263L417.048 571.677L411.073 589.143C410.341 591.289 411.486 593.625 413.632 594.358L414.93 594.803C417.076 595.535 419.403 594.395 420.136 592.244L426.111 574.778L430.899 576.419C432.637 577.012 434.57 575.997 435.201 574.143L440.782 544.328L444.226 557.567C444.666 559.272 446.4 560.301 448.115 559.856L448.884 559.652C450.604 559.212 451.619 557.469 451.179 555.759Z" fill="#F6B33E"/>
</g>
<path d="M48.5885 388.471C55.0827 390.696 62.1424 387.238 64.3628 380.744C66.5831 374.259 63.1205 367.199 56.6263 364.979C50.146 362.758 43.0908 366.216 40.8658 372.711C38.6455 379.196 42.1081 386.255 48.5885 388.471Z" fill="#9F3D4B"/>
<path d="M67.5891 427.84L60.0426 398.785C59.7552 397.663 58.9069 396.829 57.8779 396.5C57.7481 396.439 57.6183 396.384 57.4839 396.333L36.7543 389.241C36.6291 389.194 36.504 389.162 36.3788 389.134C35.4564 388.828 34.4319 388.935 33.579 389.491C33.1711 389.709 32.7956 389.987 32.4712 390.334L9.79469 407.824C8.38089 408.932 8.11204 410.967 9.21526 412.385L9.70662 413.029C10.8052 414.448 12.8402 414.712 14.2586 413.614L27.6132 403.309L20.8826 422.963C20.8038 423.195 20.7528 423.436 20.7111 423.668L11.3012 451.156C10.3973 453.812 11.4495 456.579 13.6421 457.33L14.9678 457.784C17.1696 458.535 19.6913 456.992 20.5998 454.336L28.8833 430.143L38.7336 433.513L30.413 457.84C29.4998 460.496 30.5521 463.259 32.7493 464.014L34.0796 464.464C36.2768 465.224 38.7939 463.676 39.7024 461.02L49.358 432.809C49.4229 432.619 49.4831 432.429 49.5202 432.234L56.1118 412.969L60.4552 429.694C60.9141 431.441 62.6987 432.498 64.4463 432.044L65.2482 431.84C66.9911 431.376 68.0387 429.592 67.5891 427.84Z" fill="#9F3D4B"/>
<path d="M352.621 492.518C359.11 494.743 366.17 491.28 368.391 484.79C370.616 478.306 367.153 471.246 360.659 469.025C354.174 466.805 347.119 470.263 344.898 476.757C342.678 483.242 346.136 490.297 352.621 492.518Z" fill="#9F3D4B"/>
<mask id="mask3_201_32" style="mask-type:luminance" maskUnits="userSpaceOnUse" x="312" y="492" width="61" height="43">
<path d="M312.094 492.467H372.099V534H312.094V492.467Z" fill="white"/>
</mask>
<g mask="url(#mask3_201_32)">
<path d="M371.612 531.882L364.07 502.831C363.778 501.71 362.935 500.875 361.906 500.546C361.781 500.481 361.651 500.43 361.512 500.379L340.787 493.287C340.657 493.241 340.532 493.208 340.402 493.181C339.489 492.875 338.46 492.981 337.607 493.537C337.204 493.755 336.819 494.033 336.504 494.381L313.827 511.875C312.399 512.974 312.14 515.009 313.243 516.432L313.734 517.076C314.833 518.495 316.873 518.759 318.286 517.66L331.646 507.356L324.915 527.005C324.836 527.242 324.781 527.483 324.744 527.714L315.334 555.202C314.43 557.858 315.477 560.626 317.675 561.377L319.005 561.831C321.198 562.582 323.724 561.038 324.628 558.382L332.911 534.19L342.766 537.56L334.446 561.887C333.532 564.543 334.58 567.305 336.768 568.056L338.098 568.511C340.3 569.266 342.822 567.723 343.735 565.067L353.386 536.855C353.451 536.665 353.502 536.471 353.553 536.281L360.14 517.016L364.483 533.74C364.937 535.488 366.727 536.54 368.474 536.091L369.267 535.877C371.019 535.423 372.071 533.638 371.612 531.882Z" fill="#9F3D4B"/>
</g>
<path d="M201.335 441.037C207.82 443.253 214.884 439.794 217.1 433.31C219.325 426.815 215.862 419.756 209.377 417.54C202.887 415.319 195.828 418.778 193.607 425.267C191.392 431.752 194.845 438.812 201.335 441.037Z" fill="#847CB0"/>
<path d="M220.321 480.396L212.784 451.346C212.492 450.224 211.648 449.385 210.624 449.056C210.49 448.996 210.36 448.94 210.221 448.889L189.496 441.797C189.371 441.755 189.241 441.723 189.116 441.695C188.202 441.389 187.169 441.496 186.321 442.052C185.913 442.27 185.537 442.548 185.217 442.891L162.536 460.385C161.113 461.484 160.849 463.523 161.947 464.946L162.443 465.586C163.542 467.009 165.582 467.269 166.995 466.175L180.355 455.87L173.629 475.52C173.55 475.751 173.494 475.992 173.453 476.224L164.047 503.717C163.134 506.373 164.182 509.136 166.384 509.891L167.714 510.345C169.906 511.096 172.433 509.553 173.341 506.897L181.62 482.704L191.48 486.079L183.155 510.406C182.246 513.057 183.289 515.82 185.481 516.571L186.807 517.025C189.009 517.776 191.535 516.237 192.444 513.581L202.099 485.365C202.164 485.175 202.215 484.985 202.262 484.79L208.853 465.53L213.192 482.25C213.651 484.002 215.436 485.05 217.188 484.6L217.98 484.392C219.728 483.937 220.789 482.148 220.321 480.396Z" fill="#847CB0"/>
<mask id="mask4_201_32" style="mask-type:luminance" maskUnits="userSpaceOnUse" x="517" y="237" width="17" height="78">
<path d="M517.387 237.82H534V314.467H517.387V237.82Z" fill="white"/>
</mask>
<g mask="url(#mask4_201_32)">
<path d="M576.599 277.11L569.048 248.06C568.756 246.929 567.917 246.099 566.888 245.765C566.758 245.705 566.629 245.649 566.49 245.603L545.765 238.511C545.639 238.469 545.51 238.432 545.38 238.409C544.467 238.098 543.438 238.209 542.589 238.766C542.177 238.979 541.801 239.262 541.477 239.6L518.805 257.099C517.387 258.197 517.122 260.237 518.216 261.651L518.717 262.3C519.811 263.718 521.85 263.978 523.269 262.888L536.624 252.574L529.893 272.229C529.814 272.465 529.759 272.701 529.717 272.933L520.312 300.421C519.403 303.077 520.455 305.849 522.648 306.596L523.978 307.055C526.175 307.805 528.702 306.262 529.61 303.606L537.889 279.414L547.739 282.783L539.414 307.115C538.506 309.766 539.558 312.529 541.76 313.285L543.09 313.739C545.283 314.49 547.804 312.946 548.713 310.295L558.368 282.079C558.433 281.884 558.489 281.694 558.531 281.504L565.117 262.244L569.465 278.959C569.92 280.711 571.709 281.764 573.457 281.309L574.254 281.105C576.001 280.651 577.049 278.857 576.599 277.11Z" fill="#847CB0"/>
</g>
<path d="M490.942 432.076C497.431 434.292 504.5 430.834 506.716 424.349C508.936 417.86 505.474 410.8 498.984 408.579C492.504 406.359 485.444 409.817 483.224 416.307C481.003 422.792 484.461 429.856 490.942 432.076Z" fill="#847CB0"/>
<path d="M509.947 471.44L502.396 442.39C502.109 441.268 501.265 440.429 500.231 440.1C500.101 440.035 499.972 439.98 499.837 439.933L479.108 432.841C478.987 432.799 478.857 432.767 478.732 432.739C477.814 432.429 476.785 432.54 475.932 433.096C475.524 433.309 475.154 433.592 474.829 433.931L452.148 451.429C450.739 452.528 450.47 454.567 451.569 455.986L452.06 456.63C453.163 458.049 455.193 458.308 456.617 457.219L469.967 446.91L463.245 466.559C463.162 466.796 463.111 467.032 463.069 467.264L453.659 494.756C452.751 497.413 453.807 500.18 455.995 500.931L457.33 501.385C459.528 502.136 462.054 500.597 462.958 497.941L471.241 473.749L481.087 477.119L472.762 501.445C471.858 504.097 472.901 506.864 475.107 507.615L476.433 508.069C478.63 508.82 481.152 507.281 482.06 504.625L491.711 476.409C491.776 476.215 491.841 476.025 491.878 475.835L498.47 456.575L502.808 473.29C503.267 475.047 505.057 476.094 506.804 475.64L507.606 475.436C509.349 474.977 510.397 473.188 509.947 471.44Z" fill="#847CB0"/>
</g>
<defs>
<clipPath id="clip0_201_32">
<rect width="534" height="534" fill="white"/>
</clipPath>
</defs>
</svg>
