<svg width="504" height="504" viewBox="0 0 504 504" fill="none" xmlns="http://www.w3.org/2000/svg">
<path d="M131.451 363.37C204.851 336.306 242.152 296.039 280.293 237.641C289.314 224.171 297.049 210 303.489 195.121C309.929 180.241 314.974 164.907 318.618 149.109C343.455 34.7288 409.132 38.2594 417.966 40.7707C442.899 47.7444 439.644 152.364 419.921 209.462C402.618 259.306 341.407 397.683 243.827 438.506C164.198 471.8 69.873 476.451 48.4749 423.815C32.7555 386.431 81.1255 381.876 131.451 363.37Z" fill="#FFF4BB"/>
<path d="M417.966 40.7707C413.758 40.0051 409.514 39.7776 405.244 40.0926C400.974 40.4076 396.813 41.2564 392.758 42.6301C400.571 78.3432 408.013 141.671 380.481 195.886C339.365 276.605 342.34 391.733 88.7563 431.253H52.1025C79.5469 475.799 168.289 470.125 243.828 438.506C341.408 397.683 402.619 259.306 419.83 209.462C439.644 152.552 442.899 47.7445 417.966 40.7707Z" fill="#F4DF76"/>
<path d="M433.41 16.2225C432.495 15.7194 431.537 15.3125 430.54 15.0019C429.546 14.6913 428.527 14.4769 427.49 14.3675C426.453 14.2538 425.412 14.245 424.371 14.3369C423.334 14.4288 422.31 14.6213 421.308 14.9188C420.306 15.2119 419.344 15.5969 418.416 16.0825C417.493 16.5638 416.623 17.1325 415.809 17.7888C414.995 18.4407 414.256 19.1713 413.586 19.9719C412.917 20.7725 412.331 21.63 411.828 22.5444L401.875 40.5869C378.433 44.0257 336.757 63.6476 318.155 149.109C313.675 168.954 306.915 187.985 297.872 206.207C316.479 223.598 349.69 244.055 405.13 246.194C411.548 231.595 416.386 218.947 419.733 209.462C435.457 163.896 440.76 87.6401 429.039 55.4663L438.9 35.1925C439.311 34.3832 439.648 33.5432 439.902 32.6682C440.16 31.7975 440.331 30.9094 440.418 30.0038C440.501 29.0982 440.506 28.1925 440.418 27.2869C440.335 26.3813 440.169 25.4932 439.915 24.6182C439.661 23.7475 439.329 22.9032 438.918 22.0938C438.506 21.2844 438.021 20.5188 437.465 19.8013C436.91 19.0794 436.288 18.4188 435.606 17.8194C434.923 17.2157 434.193 16.6863 433.41 16.2225Z" fill="#F79797"/>
<path d="M433.409 16.2225C432.494 15.7194 431.536 15.3125 430.539 15.0019C429.546 14.6913 428.526 14.4769 427.489 14.3675C426.453 14.2538 425.411 14.245 424.37 14.3369C423.333 14.4288 422.309 14.6213 421.308 14.9188C420.306 15.2119 419.343 15.5969 418.416 16.0825C417.493 16.5638 416.622 17.1325 415.808 17.7888C414.994 18.4407 414.255 19.1713 413.586 19.9719C412.916 20.7725 412.33 21.63 411.827 22.5444L401.874 40.5869C398.715 40.9938 395.613 41.6763 392.573 42.63C400.386 78.3432 407.828 141.671 380.292 195.886C373.222 209.742 367.456 224.621 361.689 239.873C376 243.569 390.543 245.674 405.317 246.194C411.735 231.595 416.574 218.947 419.921 209.462C435.64 163.896 440.943 87.6401 429.222 55.4663L439.083 35.1925C439.494 34.3788 439.823 33.53 440.072 32.655C440.326 31.7757 440.488 30.8832 440.571 29.9732C440.649 29.0675 440.645 28.1575 440.553 27.2519C440.457 26.3419 440.282 25.4538 440.019 24.5788C439.757 23.7038 439.416 22.8638 438.996 22.0544C438.576 21.245 438.081 20.4838 437.517 19.7663C436.948 19.0532 436.323 18.3969 435.631 17.7975C434.94 17.2025 434.201 16.6775 433.409 16.2225Z" fill="#F9706A"/>
<path d="M255.64 272.046C251.763 277.296 247.695 282.389 243.438 287.328C239.177 292.272 234.74 297.045 230.12 301.652C225.505 306.259 220.718 310.686 215.77 314.934C210.818 319.183 205.717 323.238 200.458 327.106C195.203 330.969 189.809 334.631 184.279 338.091C178.749 341.552 173.097 344.798 167.322 347.83C161.547 350.866 155.667 353.679 149.677 356.274C143.692 358.868 137.615 361.231 131.451 363.37C81.4972 381.968 33.1272 386.431 48.5666 423.815C70.2447 476.451 164.57 471.8 243.919 438.506C286.059 420.84 321.409 385.035 349.409 345.516L255.64 272.046Z" fill="#FFE000"/>
<path d="M349.318 345.98L319.454 322.359C284.293 368.856 221.874 410.515 88.7563 431.253H52.1025C79.5469 475.799 168.289 470.125 243.828 438.506C285.968 420.84 321.318 385.035 349.318 345.98Z" fill="#E8C707"/>
<path d="M131.452 472.824C122.339 473.012 113.287 472.321 104.305 470.759C95.3232 469.193 86.5732 466.782 78.0594 463.523C73.7982 461.952 69.7382 459.97 65.8794 457.573C62.0207 455.175 58.4463 452.414 55.1519 449.286C51.8575 446.163 48.9132 442.737 46.3144 439.009C43.72 435.286 41.5238 431.336 39.73 427.162C38.6013 424.931 37.7175 422.603 37.0832 420.179C36.4488 417.76 36.0725 415.297 35.9632 412.794C35.8494 410.296 36.0025 407.811 36.4182 405.339C36.8338 402.872 37.5032 400.474 38.4307 398.147C46.5244 380.761 69.4057 373.507 98.4294 364.394C107.731 361.414 117.688 358.256 127.641 354.629C198.617 328.405 234.339 289.997 271.92 232.619C278.439 222.784 284.332 212.586 289.595 202.024C291.454 198.118 293.318 194.119 295.081 190.12L296.293 187.237C297.597 184.074 298.896 180.915 300.012 177.94L301.504 174.125L304.571 164.828L305.686 161.013C306.99 156.643 308.106 151.712 309.129 147.621C310.153 143.531 311.361 138.324 312.573 133.582L313.504 130.231C314.712 125.956 316.016 121.769 317.315 117.863C318.619 113.96 320.294 109.681 321.782 105.963L322.898 103.171C324.385 99.7281 325.873 96.4731 327.364 93.3144C328.852 90.1513 330.899 86.5244 332.571 84.0131L333.966 81.7819C335.55 79.0869 337.129 76.4794 338.805 74.0644C340.481 71.645 342.804 68.67 344.663 66.3469L346.059 64.6713C347.826 62.6238 349.502 60.5806 351.269 58.8131C353.037 57.0456 355.548 54.6263 357.408 52.955L358.431 52.115C360.667 50.2556 362.434 48.7681 364.202 47.4688C365.969 46.165 368.573 44.4894 370.432 43.2819L371.828 42.4463L377.13 39.5631C379.361 38.4475 381.317 37.7038 383.176 36.96L384.2 36.4919C385.968 35.8444 387.735 35.1925 389.411 34.7288C391.086 34.2606 393.129 33.705 394.805 33.2413H395.737L403.551 19.0094C403.927 18.2656 404.343 17.5394 404.793 16.835C405.239 16.1306 405.725 15.4481 406.241 14.7919C406.758 14.1356 407.309 13.5056 407.886 12.9019C408.468 12.3025 409.076 11.7294 409.711 11.1869C410.349 10.6444 411.01 10.1369 411.697 9.66001C412.384 9.18314 413.093 8.74126 413.823 8.33439C414.554 7.92751 415.302 7.56001 416.072 7.22751C416.838 6.89501 417.621 6.60189 418.417 6.34376C419.213 6.09001 420.018 5.87564 420.836 5.70064C421.654 5.52564 422.481 5.39439 423.313 5.30251C424.144 5.20626 424.975 5.15376 425.811 5.14501C426.646 5.13626 427.482 5.16689 428.318 5.23689C429.149 5.31126 429.976 5.42501 430.798 5.57814C431.621 5.73564 432.434 5.92814 433.235 6.16439C434.036 6.39626 434.828 6.67189 435.602 6.98689C436.376 7.29751 437.133 7.64751 437.877 8.03689C438.538 8.40001 439.181 8.79376 439.802 9.21814C440.428 9.64251 441.027 10.0975 441.609 10.5788C442.186 11.06 442.746 11.5675 443.276 12.1056C443.809 12.6394 444.313 13.1994 444.789 13.7813C445.271 14.3631 445.717 14.9669 446.141 15.5925C446.561 16.2225 446.951 16.8656 447.309 17.5263C447.668 18.1913 447.996 18.8694 448.289 19.565C448.583 20.2606 448.845 20.965 449.073 21.6825C449.3 22.4044 449.493 23.1306 449.65 23.87C449.808 24.605 449.926 25.3488 450.013 26.1013C450.101 26.8494 450.153 27.6019 450.166 28.3544C450.179 29.1069 450.162 29.8594 450.101 30.6119C450.044 31.3644 449.952 32.1125 449.825 32.8563C449.698 33.6 449.532 34.335 449.335 35.0613C449.134 35.7875 448.902 36.505 448.635 37.2094C448.368 37.9181 448.071 38.605 447.738 39.2831L439.456 56.21C440.594 59.9288 441.46 63.7088 442.064 67.5544C443.586 76.7944 444.453 86.0913 444.667 95.4538C444.667 102.056 444.667 108.938 444.667 116.191C444.667 120.466 444.667 123.909 444.107 127.444C443.551 130.974 444.107 134.698 443.271 138.136C442.436 141.579 442.528 145.762 442.156 149.109V150.224C441.224 157.478 440.296 164.176 439.084 170.778V172.638C438.433 175.801 437.877 178.959 437.225 181.939V182.866C436.573 186.121 435.921 188.913 435.178 191.608L425.876 190.864L435.178 193.095C434.434 196.07 433.598 198.861 432.758 201.653V203.512C431.923 206.303 430.991 209.186 430.063 211.789C429.131 214.393 428.479 216.344 427.552 218.855V219.879C425.408 225.645 423.177 231.411 420.574 237.733L419.922 239.221C399.272 288.693 341.316 407.912 249.131 446.412C230.568 454.615 211.388 460.937 191.586 465.382C171.785 469.823 151.743 472.308 131.452 472.824ZM425.784 23.5681C425.189 23.5638 424.608 23.6425 424.039 23.8C423.47 23.9531 422.928 24.185 422.42 24.4869C421.913 24.7888 421.453 25.1563 421.046 25.585C420.639 26.0138 420.294 26.4863 420.014 27.0069L410.524 45.0494C409.829 46.3269 408.884 47.3856 407.689 48.2169C406.495 49.0525 405.178 49.5775 403.734 49.7919L400.108 50.4438C398.248 50.9075 396.944 51.1875 395.549 51.6513C394.153 52.0188 392.788 52.4825 391.458 53.0469H390.526C389.131 53.6069 387.735 54.1625 386.248 54.9063L381.781 57.3256L380.853 57.8813L376.106 61.0444C374.483 62.195 372.934 63.4331 371.456 64.7631L370.248 65.695C368.664 67.0906 367.177 68.5781 365.598 70.1575C364.014 71.7369 362.338 73.6925 360.851 75.46L359.643 76.8556C358.059 78.8069 356.572 80.7581 354.993 82.9894C353.409 85.225 351.829 87.8281 350.434 90.1513L349.318 92.1025C347.734 94.71 346.247 97.405 344.851 100.288C343.456 103.171 341.968 106.518 340.664 109.589L339.549 112.193C338.245 115.539 336.849 118.978 335.642 122.701C334.434 126.42 333.131 130.511 332.015 134.509L331.175 137.581C329.968 141.855 328.852 146.134 327.828 150.784C326.804 155.435 325.501 160.549 324.201 165.292L322.898 169.474C321.874 172.826 320.758 176.264 319.551 179.611L318.059 183.702C316.759 187.237 315.456 190.68 314.06 194.027L312.756 197.094C310.805 201.464 308.849 205.743 306.806 209.93C301.263 221.126 295.064 231.945 288.199 242.384C249.503 301.529 210.338 343.84 134.803 371.739C124.478 375.55 114.429 378.713 104.756 381.688C82.15 388.85 60.6644 395.636 56.0094 405.589C55.5282 406.761 55.1825 407.978 54.9813 409.229C54.78 410.48 54.7232 411.74 54.8107 413.009C54.8982 414.273 55.13 415.516 55.5063 416.728C55.8825 417.939 56.39 419.094 57.0332 420.188C58.3544 423.207 59.9644 426.064 61.8632 428.759C63.7619 431.449 65.91 433.93 68.3075 436.188C70.705 438.449 73.3038 440.449 76.1038 442.186C78.9038 443.923 81.8525 445.362 84.9413 446.504C120.291 461.108 181.222 454.598 240.201 429.953C326.061 394.056 381.225 280.044 401.223 232.711L401.875 231.131C404.386 225.273 406.526 219.691 408.385 214.673L408.945 213.185C409.877 210.766 410.713 208.443 411.364 206.395C412.016 204.348 413.04 201.373 413.784 198.769V197.19C414.619 194.583 415.271 191.888 416.015 189.193L425.316 190.028L416.015 187.797C416.667 185.286 417.319 182.683 417.874 179.983L427.176 180.635L417.874 178.684C418.526 175.801 419.086 172.826 419.642 169.383V167.615C420.758 161.385 421.689 154.967 422.525 149.017V147.529C422.525 144.274 423.269 141.019 423.549 137.764C423.829 134.509 424.201 130.419 424.389 127.164C424.573 123.909 424.853 120.094 424.944 116.843C424.944 109.309 424.944 102.799 424.944 96.7531C425.216 88.2394 424.905 79.7475 424.017 71.2731C423.33 67.0381 422.306 62.8819 420.946 58.8131C420.469 57.6669 420.228 56.4725 420.228 55.2344C420.228 53.9919 420.469 52.7975 420.946 51.6513L430.807 31.3775C431.109 30.8263 431.297 30.2356 431.376 29.6056C431.454 28.98 431.415 28.3631 431.258 27.7506C431.104 27.1381 430.842 26.5781 430.474 26.0619C430.107 25.55 429.661 25.1213 429.131 24.7756C428.129 24.0494 427.014 23.6469 425.784 23.5681Z" fill="#795A8E"/>
<path d="M131.452 472.824C122.339 473.012 113.287 472.321 104.305 470.759C95.3232 469.192 86.5732 466.782 78.0594 463.522C73.7982 461.952 69.7382 459.97 65.8794 457.572C62.0207 455.175 58.4463 452.414 55.1519 449.286C51.8575 446.162 48.9132 442.737 46.3144 439.009C43.72 435.286 41.5238 431.336 39.73 427.162C38.6013 424.931 37.7175 422.603 37.0832 420.179C36.4488 417.76 36.0725 415.297 35.9632 412.794C35.8494 410.296 36.0025 407.811 36.4182 405.339C36.8338 402.872 37.5032 400.474 38.4307 398.147C46.5244 380.761 69.4057 373.507 98.4294 364.394C107.731 361.414 117.688 358.256 127.641 354.629C139.607 350.503 151.205 345.511 162.427 339.653C173.649 333.795 184.372 327.132 194.596 319.672C204.821 312.209 214.433 304.027 223.432 295.124C232.431 286.226 240.718 276.701 248.291 266.56C248.658 266.048 249.074 265.571 249.538 265.142C250.001 264.714 250.504 264.333 251.047 264.005C251.589 263.677 252.158 263.406 252.753 263.196C253.348 262.981 253.961 262.832 254.591 262.745C255.216 262.657 255.846 262.636 256.476 262.679C257.111 262.719 257.732 262.824 258.34 262.99C258.953 263.161 259.539 263.388 260.103 263.677C260.663 263.966 261.193 264.307 261.687 264.701L355.364 339.097C355.828 339.465 356.257 339.876 356.642 340.327C357.031 340.773 357.373 341.259 357.666 341.771C357.959 342.287 358.204 342.825 358.396 343.389C358.589 343.949 358.724 344.522 358.808 345.113C358.886 345.699 358.913 346.29 358.882 346.885C358.847 347.476 358.759 348.062 358.619 348.635C358.475 349.212 358.278 349.768 358.029 350.306C357.779 350.849 357.478 351.356 357.132 351.837C323.269 399.079 286.432 431.349 247.643 447.527C229.273 455.442 210.316 461.527 190.768 465.784C171.225 470.041 151.454 472.386 131.452 472.824ZM257.224 285.162C249.297 295.133 240.704 304.496 231.451 313.25C222.198 322.004 212.376 330.063 201.981 337.426C191.582 344.794 180.723 351.387 169.392 357.21C158.061 363.037 146.375 368.034 134.339 372.203C124.01 376.018 113.965 379.177 104.292 382.152C81.6863 389.314 60.1963 396.104 55.5457 406.052C55.1344 407.212 54.8544 408.402 54.71 409.622C54.5657 410.843 54.5569 412.068 54.6838 413.289C54.815 414.514 55.0775 415.708 55.4713 416.872C55.8694 418.036 56.39 419.142 57.0332 420.188C58.3544 423.207 59.9644 426.064 61.8632 428.759C63.7619 431.449 65.91 433.93 68.3075 436.187C70.705 438.449 73.3038 440.449 76.1038 442.186C78.9038 443.922 81.8525 445.362 84.9413 446.504C120.291 461.107 181.222 454.597 240.201 429.953C273.779 415.817 306.154 388.198 336.478 347.651L257.224 285.162Z" fill="#795A8E"/>
<path d="M297.78 324.87C299.381 323.807 300.812 322.551 302.072 321.099C303.327 319.646 304.369 318.049 305.187 316.312C306.009 314.576 306.578 312.756 306.902 310.861C307.221 308.967 307.282 307.064 307.081 305.156C305.314 279.672 295.269 210.857 241.22 212.161C175.083 213.832 103.547 303.761 117.779 325.986C132.011 348.211 183.549 301.157 202.987 290.832C229.127 276.793 269.596 340.957 297.78 324.87Z" fill="#FFED85"/>
<path d="M103.547 470.592C102.003 470.614 100.546 470.273 99.172 469.569C98.6383 469.28 98.1351 468.943 97.6626 468.554C97.1945 468.169 96.7658 467.74 96.3808 467.267C95.9914 466.799 95.6589 466.296 95.3701 465.758C95.0814 465.22 94.8495 464.66 94.6745 464.078C94.4951 463.496 94.377 462.901 94.3201 462.297C94.2589 461.689 94.2589 461.086 94.3158 460.477C94.377 459.874 94.4908 459.279 94.6658 458.697C94.8451 458.111 95.0726 457.551 95.3614 457.012C96.3414 455.022 97.1639 452.961 97.8333 450.844C98.5026 448.726 99.0058 446.565 99.347 444.369C99.6883 442.177 99.8633 439.967 99.8676 437.745C99.872 435.522 99.7101 433.313 99.3776 431.112C99.0495 428.916 98.5551 426.755 97.8945 424.633C97.2383 422.511 96.4201 420.451 95.4489 418.451C94.4776 416.452 93.362 414.54 92.0976 412.711C90.8333 410.882 89.442 409.159 87.9195 407.54C87.4951 407.102 87.1145 406.626 86.7864 406.109C86.4539 405.597 86.1783 405.055 85.9551 404.486C85.7276 403.917 85.5614 403.331 85.4564 402.732C85.347 402.132 85.2989 401.524 85.3076 400.912C85.3164 400.304 85.3908 399.7 85.5176 399.101C85.6489 398.506 85.837 397.924 86.0776 397.364C86.3226 396.804 86.6201 396.274 86.9658 395.771C87.3158 395.268 87.7095 394.809 88.1514 394.384C88.5889 393.96 89.0658 393.579 89.582 393.251C90.0939 392.919 90.6364 392.643 91.2051 392.42C91.7739 392.197 92.3601 392.031 92.9595 391.921C93.5633 391.812 94.167 391.764 94.7795 391.772C95.392 391.786 95.9958 391.856 96.5908 391.982C97.1901 392.114 97.7676 392.302 98.3276 392.542C98.8876 392.787 99.4214 393.085 99.9245 393.431C100.423 393.781 100.887 394.174 101.311 394.616C102.414 395.771 103.473 396.966 104.483 398.199C105.494 399.433 106.452 400.706 107.366 402.019C108.276 403.327 109.138 404.67 109.948 406.044C110.757 407.422 111.51 408.826 112.214 410.261C112.914 411.692 113.557 413.153 114.148 414.636C114.734 416.119 115.263 417.624 115.736 419.147C116.213 420.669 116.624 422.209 116.978 423.767C117.333 425.324 117.626 426.891 117.862 428.47C118.094 430.049 118.265 431.633 118.378 433.226C118.488 434.818 118.54 436.411 118.527 438.007C118.518 439.604 118.444 441.197 118.313 442.785C118.177 444.377 117.985 445.957 117.726 447.532C117.473 449.107 117.153 450.673 116.781 452.222C116.405 453.775 115.968 455.306 115.473 456.824C114.979 458.342 114.428 459.839 113.82 461.313C113.211 462.787 112.546 464.24 111.825 465.662C111.426 466.41 110.932 467.092 110.346 467.709C109.76 468.322 109.103 468.847 108.373 469.28C107.642 469.717 106.868 470.046 106.05 470.269C105.231 470.487 104.396 470.597 103.547 470.592Z" fill="#795A8E"/>
<path d="M143.64 434.879C143.028 434.958 142.415 434.971 141.803 434.928C141.19 434.884 140.587 434.779 139.996 434.617C139.401 434.451 138.832 434.232 138.281 433.956C137.73 433.681 137.213 433.353 136.728 432.976C136.242 432.596 135.8 432.176 135.398 431.712C134.995 431.244 134.641 430.745 134.339 430.211C134.033 429.678 133.783 429.118 133.591 428.536C133.398 427.949 133.263 427.354 133.184 426.742C133.11 426.134 133.092 425.521 133.136 424.909C133.18 424.296 133.285 423.693 133.447 423.098C133.613 422.507 133.832 421.934 134.107 421.383C134.383 420.836 134.707 420.315 135.083 419.829C135.463 419.344 135.883 418.902 136.347 418.499C136.811 418.097 137.314 417.743 137.848 417.436C138.382 417.134 138.942 416.885 139.523 416.688C140.105 416.496 140.705 416.36 141.313 416.281C163.35 410.235 184.813 402.579 205.704 393.321C226.599 384.064 246.685 373.306 265.965 361.043C266.473 360.701 267.007 360.413 267.571 360.176C268.135 359.936 268.717 359.756 269.317 359.634C269.916 359.511 270.524 359.45 271.132 359.446C271.745 359.446 272.353 359.503 272.952 359.616C273.552 359.734 274.138 359.909 274.702 360.141C275.271 360.373 275.809 360.658 276.317 360.994C276.828 361.331 277.301 361.716 277.734 362.149C278.167 362.578 278.557 363.046 278.898 363.554C279.23 364.061 279.515 364.591 279.747 365.151C279.978 365.711 280.153 366.288 280.272 366.883C280.39 367.478 280.451 368.078 280.451 368.686C280.451 369.294 280.394 369.893 280.28 370.488C280.162 371.083 279.987 371.661 279.76 372.221C279.532 372.781 279.248 373.314 278.915 373.822C278.583 374.329 278.202 374.798 277.773 375.231C277.349 375.659 276.885 376.049 276.387 376.39C256.283 389.305 235.318 400.623 213.483 410.336C191.652 420.044 169.208 428.041 146.152 434.324C145.342 434.626 144.502 434.814 143.64 434.879Z" fill="#795A8E"/>
<path d="M414.339 258.007C408.192 257.762 402.071 257.241 395.968 256.449C389.869 255.658 383.814 254.599 377.807 253.264C371.805 251.934 365.868 250.338 360.005 248.474C354.143 246.614 348.372 244.493 342.702 242.117C337.028 239.741 331.472 237.116 326.029 234.246C320.591 231.372 315.293 228.261 310.13 224.919C304.968 221.572 299.963 218.002 295.124 214.209C290.281 210.42 285.613 206.417 281.129 202.208C280.704 201.771 280.328 201.294 280 200.778C279.667 200.266 279.392 199.723 279.169 199.154C278.945 198.586 278.779 198.004 278.674 197.4C278.565 196.801 278.517 196.197 278.525 195.584C278.539 194.976 278.609 194.373 278.74 193.773C278.867 193.178 279.055 192.601 279.3 192.041C279.545 191.481 279.838 190.947 280.188 190.448C280.538 189.945 280.932 189.481 281.369 189.057C281.807 188.637 282.284 188.256 282.8 187.928C283.312 187.596 283.854 187.32 284.423 187.097C284.992 186.874 285.574 186.708 286.177 186.598C286.777 186.489 287.385 186.441 287.993 186.449C288.605 186.463 289.209 186.528 289.804 186.659C290.404 186.791 290.981 186.974 291.541 187.219C292.101 187.46 292.63 187.758 293.134 188.103C293.637 188.453 294.1 188.847 294.525 189.284C298.615 193.029 302.864 196.595 307.265 199.973C311.666 203.346 316.207 206.526 320.889 209.51C325.565 212.489 330.369 215.263 335.287 217.823C340.209 220.386 345.235 222.731 350.359 224.858C355.486 226.979 360.692 228.878 365.986 230.549C371.275 232.221 376.63 233.656 382.047 234.863C387.463 236.066 392.923 237.033 398.422 237.759C403.926 238.486 409.447 238.976 414.99 239.221C415.603 239.221 416.207 239.282 416.806 239.4C417.405 239.518 417.987 239.698 418.552 239.929C419.116 240.161 419.65 240.45 420.157 240.787C420.665 241.128 421.137 241.513 421.57 241.946C421.999 242.375 422.384 242.848 422.725 243.355C423.067 243.863 423.351 244.396 423.583 244.961C423.819 245.525 423.994 246.107 424.112 246.706C424.235 247.306 424.292 247.909 424.292 248.522C424.309 249.169 424.257 249.808 424.134 250.447C424.016 251.081 423.832 251.698 423.583 252.293C423.338 252.893 423.032 253.457 422.664 253.991C422.297 254.524 421.881 255.014 421.413 255.461C420.945 255.907 420.433 256.301 419.882 256.642C419.335 256.979 418.753 257.259 418.145 257.478C417.537 257.701 416.911 257.854 416.268 257.941C415.629 258.029 414.986 258.051 414.339 258.007Z" fill="#795A8E"/>
<path d="M345.411 187.609H343.643C343.022 187.504 342.418 187.337 341.827 187.11C341.241 186.882 340.686 186.598 340.156 186.257C339.627 185.916 339.137 185.526 338.686 185.084C338.236 184.647 337.833 184.166 337.483 183.645C337.129 183.12 336.836 182.569 336.595 181.987C336.354 181.405 336.175 180.806 336.057 180.189C335.939 179.572 335.882 178.946 335.891 178.316C335.899 177.686 335.974 177.065 336.105 176.448C337.129 171.614 338.432 166.407 340.108 160.921C340.318 160.383 340.576 159.867 340.882 159.377C341.189 158.887 341.539 158.427 341.928 158.003C342.322 157.579 342.751 157.189 343.214 156.844C343.678 156.498 344.168 156.201 344.689 155.947C345.209 155.693 345.747 155.487 346.307 155.334C346.863 155.181 347.432 155.081 348.009 155.032C348.587 154.989 349.16 154.993 349.737 155.054C350.311 155.116 350.879 155.225 351.431 155.391C351.986 155.557 352.52 155.772 353.036 156.039C353.548 156.301 354.034 156.612 354.493 156.971C354.948 157.325 355.368 157.719 355.749 158.152C356.134 158.585 356.471 159.053 356.768 159.547C357.061 160.046 357.311 160.567 357.507 161.109C357.709 161.652 357.853 162.212 357.949 162.781C358.041 163.354 358.085 163.927 358.072 164.504C358.059 165.082 357.993 165.655 357.875 166.219C356.387 171.15 355.267 175.521 354.34 180.171C354.235 180.683 354.086 181.186 353.898 181.672C353.71 182.162 353.478 182.63 353.211 183.081C352.94 183.531 352.634 183.956 352.297 184.354C351.956 184.752 351.584 185.119 351.181 185.456C350.779 185.793 350.35 186.091 349.895 186.353C349.44 186.616 348.967 186.839 348.477 187.022C347.987 187.206 347.484 187.346 346.968 187.447C346.452 187.543 345.931 187.6 345.411 187.609Z" fill="white"/>
<path d="M357.784 148.925C357.412 148.916 357.04 148.89 356.673 148.837C356.305 148.789 355.942 148.715 355.583 148.623C355.224 148.531 354.874 148.413 354.529 148.277C354.183 148.142 353.846 147.989 353.523 147.809C353.194 147.634 352.879 147.442 352.578 147.227C352.271 147.013 351.983 146.781 351.707 146.532C351.431 146.287 351.173 146.02 350.928 145.74C350.683 145.46 350.46 145.171 350.25 144.861C350.04 144.554 349.852 144.239 349.681 143.911C349.511 143.579 349.358 143.242 349.226 142.896C349.099 142.546 348.99 142.196 348.903 141.833C348.811 141.474 348.745 141.111 348.701 140.739C348.658 140.372 348.636 140.004 348.636 139.632C348.636 139.261 348.658 138.893 348.701 138.526C348.745 138.158 348.811 137.791 348.898 137.432C348.986 137.073 349.095 136.719 349.222 136.369C355.211 121.664 362.063 107.376 369.78 93.4981C370.078 92.9512 370.423 92.4393 370.826 91.9624C371.224 91.4856 371.666 91.0524 372.151 90.6631C372.637 90.2781 373.153 89.9412 373.709 89.6568C374.26 89.3724 374.838 89.1449 375.433 88.9743C376.032 88.8037 376.64 88.6987 377.261 88.6506C377.883 88.6024 378.499 88.6199 379.116 88.6943C379.733 88.7731 380.337 88.9087 380.928 89.1099C381.518 89.3068 382.083 89.5606 382.621 89.8712C383.15 90.1774 383.649 90.5274 384.113 90.9299C384.576 91.3324 384.996 91.7787 385.373 92.2643C385.744 92.7499 386.068 93.2662 386.344 93.8131C386.615 94.3643 386.834 94.9331 386.991 95.5281C387.153 96.1187 387.254 96.7224 387.293 97.3306C387.333 97.9431 387.315 98.5556 387.236 99.1637C387.153 99.7718 387.018 100.367 386.821 100.944C386.619 101.526 386.37 102.082 386.059 102.611C378.793 115.797 372.283 129.342 366.525 143.251C366.162 144.108 365.685 144.891 365.086 145.6C364.491 146.313 363.804 146.921 363.025 147.429C362.246 147.932 361.406 148.312 360.514 148.566C359.621 148.824 358.711 148.942 357.784 148.925Z" fill="white"/>
<path d="M312.664 328.125C313.18 326.511 313.906 325.001 314.847 323.597C315.783 322.188 316.899 320.937 318.19 319.843C319.485 318.749 320.902 317.857 322.442 317.161C323.986 316.466 325.596 315.997 327.268 315.757C349.318 311.662 409.968 305.06 420.293 351.277C433.501 407.912 372.667 488.167 350.805 481.473C328.943 474.775 357.503 420.188 362.062 401.402C368.572 375.922 304.758 355.744 312.664 328.125Z" fill="#FFED85"/>
<path d="M328.291 315.569H327.268C325.596 315.814 323.986 316.282 322.442 316.978C320.902 317.673 319.484 318.566 318.189 319.659C316.899 320.753 315.783 322.004 314.847 323.409C313.906 324.818 313.18 326.327 312.664 327.937C304.758 355.836 368.48 375.738 362.434 401.03C357.967 419.633 330.991 471.148 349.689 480.261C366.524 447.808 389.594 399.731 392.757 375.366C395.64 352.581 358.899 330.076 328.291 315.569Z" fill="#FFE000"/>
<mask id="mask0_206_281" style="mask-type:luminance" maskUnits="userSpaceOnUse" x="301" y="302" width="132" height="189">
<path d="M301.28 302.4H432.32V490.678H301.28V302.4Z" fill="white"/>
</mask>
<g mask="url(#mask0_206_281)">
<path d="M354.152 490.958C352.187 490.976 350.267 490.696 348.386 490.118C347.056 489.724 345.782 489.195 344.566 488.539C343.346 487.878 342.208 487.099 341.149 486.203C340.095 485.306 339.141 484.308 338.292 483.214C337.439 482.121 336.713 480.953 336.105 479.706C329.407 465.754 336.665 443.901 346.99 416.841C349.374 411.005 351.422 405.055 353.128 398.987C354.804 392.385 342.711 382.432 332.014 373.691C315.919 360.579 297.78 345.791 303.454 325.614C303.839 324.398 304.307 323.212 304.859 322.061C305.406 320.911 306.031 319.799 306.731 318.732C307.436 317.669 308.206 316.654 309.046 315.691C309.886 314.733 310.787 313.832 311.754 312.996C312.716 312.161 313.731 311.391 314.799 310.695C315.871 309.999 316.982 309.378 318.137 308.831C319.292 308.289 320.477 307.825 321.694 307.44C322.91 307.059 324.148 306.762 325.408 306.548C382.06 296.227 420.945 312.13 429.594 349.143C440.479 395.636 407.177 453.014 381.224 476.914C379.483 478.853 377.584 480.62 375.528 482.213C373.467 483.809 371.28 485.205 368.97 486.404C366.66 487.607 364.258 488.587 361.769 489.353C359.279 490.118 356.742 490.652 354.152 490.958ZM357.875 322.359C348.149 322.446 338.507 323.378 328.943 325.15C328.125 325.268 327.337 325.491 326.581 325.819C325.824 326.143 325.119 326.568 324.476 327.079C323.829 327.596 323.26 328.186 322.774 328.851C322.284 329.516 321.891 330.238 321.593 331.008C319.178 339.281 332.386 350.07 344.015 359.647C358.899 371.831 375.826 385.687 371.455 403.633C370.151 408.844 367.548 415.726 364.573 423.723C359.174 437.763 349.317 463.991 353.128 471.892C353.128 472.36 353.128 472.452 353.968 472.636C354.804 472.824 362.246 470.964 374.058 458.224C398.059 432.373 419.361 386.991 411.272 353.697C405.781 328.125 380.481 322.359 357.875 322.359Z" fill="#795A8E"/>
</g>
<path d="M307.27 305.712C296.468 297.522 285.084 290.242 273.118 283.881C261.148 277.515 248.75 272.147 235.918 267.772C206.618 258.007 165.222 269.911 130.708 284.603C118.615 302.273 112.941 318.268 117.78 325.986C131.731 348.119 183.549 301.158 202.987 290.833C229.128 276.793 269.596 340.957 297.78 324.87C299.36 323.846 300.777 322.634 302.028 321.23C303.28 319.826 304.321 318.281 305.156 316.593C305.992 314.908 306.587 313.141 306.946 311.294C307.305 309.448 307.414 307.589 307.27 305.712Z" fill="#FFE000"/>
<path d="M129.22 340.957C127.483 341.106 125.746 341.106 124.009 340.957C122.583 340.708 121.196 340.309 119.853 339.776C118.505 339.238 117.228 338.568 116.02 337.768C114.813 336.967 113.697 336.053 112.678 335.024C111.659 333.996 110.753 332.872 109.965 331.656C104.291 322.359 106.059 309.711 115.08 292.788C133.967 257.263 187.267 204.256 241.22 202.952C283.732 201.836 311.92 240.153 316.57 304.504C316.697 305.891 316.728 307.278 316.662 308.669C316.597 310.061 316.439 311.443 316.181 312.808C315.923 314.178 315.573 315.525 315.131 316.842C314.685 318.163 314.155 319.445 313.534 320.692C312.913 321.939 312.209 323.138 311.421 324.288C310.634 325.434 309.767 326.524 308.831 327.552C307.89 328.584 306.889 329.543 305.817 330.431C304.745 331.323 303.616 332.133 302.43 332.868C282.712 344.4 261.406 328.961 242.712 315.197C229.687 305.9 214.804 294.923 207.362 299.018C201.127 302.684 195.112 306.683 189.315 311.014C165.222 327.937 145.219 340.957 129.22 340.957ZM243.084 221.554H241.872C197.129 222.67 148.85 268.048 131.731 300.878C124.661 314.081 125.313 320.128 125.873 321.055C126.074 321.418 126.35 321.711 126.695 321.939C127.037 322.171 127.413 322.311 127.824 322.359C138.149 324.498 163.546 306.548 178.71 295.855C186.615 290.277 193.502 285.438 198.708 282.555C216.571 273.258 235.917 286.834 253.872 300.226C268.664 311.014 284.012 322.171 293.221 316.781C294.096 316.186 294.875 315.486 295.557 314.681C296.24 313.876 296.8 312.992 297.246 312.034C297.688 311.076 297.994 310.078 298.165 309.037C298.331 307.991 298.362 306.946 298.244 305.9C296.2 280.324 287.083 221.554 243.084 221.554Z" fill="#795A8E"/>
</svg>
