<svg width="496" height="796" viewBox="0 0 496 796" fill="none" xmlns="http://www.w3.org/2000/svg">
<path d="M244.005 422.63C244.797 432.964 246.068 448.703 247.182 467.943C248.932 496.88 249.411 517.229 250.203 538.219C251.792 587.667 252.432 612.313 254.021 634.885C256.724 674.479 260.698 711.521 265.307 745.708H280.255C287.089 712 292.812 671.297 294.406 625.031C295.359 595.458 294.562 568.271 292.812 543.943C300.766 506.417 308.557 468.896 316.505 431.214C308.396 432.802 297.745 434.078 285.026 433.12C267.219 431.849 253.068 426.76 244.005 422.63ZM167.052 413.724C180.563 422.313 193.281 427.719 203.776 431.375C179.292 463.172 154.797 494.974 130.156 526.771C131.271 552.208 131.427 579.875 130.156 609.448C128.25 654.443 123.479 694.99 117.438 730.125H100.589C89.1406 679.724 82.9323 637.115 79.4375 606.109C71.9688 539.49 76.0938 521.844 78.0104 514.37C86.276 483.208 98.8333 467.146 123.797 428.354C128.563 421.037 135.568 409.906 143.99 396.234C150.193 401.802 157.823 407.844 167.052 413.724Z" fill="white"/>
<path d="M182.63 75.3854C183.583 70.7708 186.448 56.7812 193.76 39.7656C195.349 35.9531 197.099 32.4531 199.964 28.1615C202.349 24.6615 211.568 10.5104 226.354 3.98958C246.865 -5.07292 268.328 5.26563 271.828 6.85417C299.495 19.8906 297.266 44.6979 317.937 69.8177C356.094 116.245 413.333 93.5052 437.344 128.964C448.792 145.974 453.24 176.823 422.714 238.036C332.724 218.797 242.573 199.557 152.583 180.161C145.26 170.938 143.354 162.99 142.719 158.062C138.745 127.214 175.156 114.656 182.63 75.3854Z" fill="white"/>
<path d="M108.219 305.13C92.9531 306.245 79.276 305.766 67.8281 304.656C64.9688 303.859 55.9063 301.156 49.0677 292.411C42.7083 284.302 41.7604 275.719 41.5938 272.698C45.7344 267.448 51.4531 260.453 58.7708 252.979C61.9479 249.802 65.4427 246.464 69.2656 242.964C69.901 242.328 70.5313 241.849 71.1719 241.214C94.3802 221.339 102.969 223.724 124.589 206.234C150.505 185.25 149.396 172.849 175.792 149.797C176.906 148.839 177.859 147.88 179.135 146.932C183.266 143.438 187.401 140.412 191.375 137.547C200.917 130.714 209.5 125.786 216.021 122.443C221.109 140.729 236.052 154.401 254.656 157.745C272.625 160.922 290.906 153.771 302.036 139.458C309.984 142.958 320.323 148.203 331.453 156.307C335.266 159.01 339.083 162.036 342.901 165.531C343.854 166.328 344.646 167.125 345.599 167.917C364.839 185.724 362.615 194.151 381.693 209.573C403.953 227.542 416.354 223.724 438.135 243.917C439.089 244.87 440.047 245.667 440.839 246.464C446.089 251.708 450.38 256.953 453.557 261.406C455.786 264.589 457.375 267.292 458.807 269.516C456.104 277.781 449.109 294.953 432.094 308.469C399.979 333.75 360.229 323.417 355.458 322.146C352.599 331.208 346.078 346.151 331.927 357.917C311.417 374.771 287.25 374.292 260.536 373.818C229.854 373.339 206.641 372.865 185.333 356.01C161.328 336.932 154.797 309.266 152.891 297.656C140.651 300.995 125.547 304.016 108.219 305.13Z" fill="white"/>
<path d="M166.891 416.906C156.552 410.865 148.286 404.344 142.078 398.62C147.969 389.719 153.849 380.813 159.729 371.912C165.141 363.641 170.547 355.531 175.792 347.266C180.88 352.354 188.516 359.188 199.328 364.755C203.62 366.979 213.318 371.271 246.391 373.5C295.833 376.839 311.896 369.682 316.984 367.297C323.661 364.12 328.75 360.464 332.089 357.917C332.562 367.297 332.406 379.38 329.703 393.214C326.682 409.75 321.276 422.948 316.505 432.167C307.76 433.76 294.562 435.188 278.984 433.12C264.036 431.057 252.115 426.604 244.161 422.787C244.005 418.333 243.526 413.406 242.729 408.162C242.094 403.708 241.302 399.734 240.349 395.917C238.438 400.844 234.781 408.318 228.104 415.63C219.198 425.49 209.182 430.099 203.62 432.01C193.76 429.464 180.88 425.016 166.891 416.906Z" fill="white"/>
<mask id="mask0_353_2" style="mask-type:luminance" maskUnits="userSpaceOnUse" x="0" y="13" width="496" height="319">
<path d="M0.916656 13.0417H495.839V332H0.916656V13.0417Z" fill="white"/>
</mask>
<g mask="url(#mask0_353_2)">
<path d="M451.812 285.417C449.901 288.911 447.833 291.776 445.927 294.318C446.562 298.453 447.995 304.495 451.812 310.854C457.375 319.76 466.281 326.911 468.187 325.484C468.984 324.844 468.661 321.984 463.578 312.286C469.302 316.26 490.766 330.411 495.057 325.958C498.714 322.146 489.016 305.766 479.474 295.432C471.047 286.208 461.984 280.646 455.786 277.464C454.672 279.849 453.401 282.552 451.812 285.417ZM43.0312 281.281C35.8802 283.984 24.75 289.547 15.2083 300.521C5.82288 311.49 -1.80212 327.865 1.84892 331.047C3.28642 332.318 8.53121 333.75 34.9218 312.125C32.2187 315.464 27.1354 321.984 28.401 323.417C29.6718 324.844 36.1979 321.031 39.6927 318.646C44.302 315.625 50.9843 309.901 56.5468 299.25C54 297.5 50.3437 294.479 47.3281 289.708C45.0937 286.688 43.8281 283.667 43.0312 281.281ZM246.391 41.1979C254.974 48.6719 263.401 53.125 269.604 55.9844C273.896 55.0313 278.187 56.1406 280.094 58.8438C282.958 62.8177 281.37 70.7656 274.214 74.5886C273.099 77.7656 270.875 82.5365 266.422 87.3073C263.88 90.0104 261.177 91.9167 258.948 93.349C258.474 96.0521 257.995 100.344 258.63 105.276C259.266 110.198 260.859 114.021 261.969 116.557C267.375 117.833 274.531 120.057 282.161 124.354C291.385 129.443 297.745 135.484 301.88 139.932C289.156 155.677 268.49 162.51 249.729 157.266C224.286 150.109 216.339 124.672 215.859 123.083C223.016 121.646 228.26 116.083 228.583 110.047C228.901 104.479 225.083 100.661 224.286 99.8646C220.63 99.0677 215.385 97.3229 210.932 92.8698C197.896 79.8334 204.729 55.5104 207.432 45.6511C209.5 38.3334 213.953 26.0938 224.286 13.2136C228.104 20.0521 234.781 31.0209 246.391 41.1979Z" fill="white"/>
</g>
<mask id="mask1_353_2" style="mask-type:luminance" maskUnits="userSpaceOnUse" x="42" y="58" width="416" height="738">
<path d="M42.6667 58.6667H457.234V795.25H42.6667V58.6667Z" fill="white"/>
</mask>
<g mask="url(#mask1_353_2)">
<path d="M84.8385 515.958C86.5937 518.182 88.3437 519.932 90.5677 521.365C92.3177 522.479 95.0208 524.547 97.0885 523.75C97.7239 523.589 98.0416 522.797 97.7239 522.161C96.7656 520.411 94.0625 519.932 92.3177 518.823C90.25 517.547 88.0208 515.958 86.276 514.37C85.3177 513.417 83.8906 514.844 84.8385 515.958ZM283.266 555.391C279.292 556.823 275.156 556.823 271.182 555.708C269.755 555.391 269.276 557.458 270.547 557.776C275 559.365 279.609 558.729 283.901 556.823C284.698 556.505 284.062 555.073 283.266 555.391ZM324.604 363.167C326.036 369.047 324.13 376.203 323.016 381.927C322.062 387.49 320.792 392.896 319.359 398.141C316.656 408.479 313.156 418.495 310.135 428.828C309.5 431.214 313 432.167 313.797 429.781C317.771 417.224 320.948 404.344 323.495 391.464C325.083 383.354 329.219 370.479 325.88 362.526C325.562 361.891 324.448 362.37 324.604 363.167ZM230.641 389.401C235.411 394.328 243.359 400.37 250.672 399.734C252.104 399.573 253.219 397.349 251.469 396.552C248.286 395.12 244.792 394.802 241.453 393.375C237.953 391.943 234.615 390.037 231.594 387.807C230.958 387.49 230.005 388.76 230.641 389.401ZM148.594 404.026C164.177 391.307 172.922 370.953 185.802 355.849C186.917 354.578 185.167 352.828 183.896 353.943C176.901 359.823 172.448 369.208 167.521 376.839C161.479 386.057 153.365 394.01 147.797 403.391C147.484 403.865 148.115 404.344 148.594 404.026ZM455.297 268.719C441.781 281.599 429.854 294.479 413.161 303.859C397.104 312.76 379.453 318.646 361.328 321.031C358.151 321.505 359.578 326.276 362.599 325.802C381.682 323.099 399.807 316.74 416.344 306.88C431.448 297.818 447.823 285.417 456.729 269.833C457.203 268.88 455.932 267.927 455.297 268.719ZM43.8177 268.563C45.0833 283.031 57.8021 300.042 70.8437 306.083C72.75 307.037 75.1354 304.495 73.2291 302.906C67.8229 298.615 62.4166 294.797 57.9635 289.547C52.401 283.031 49.2187 276.193 46.0416 268.245C45.7239 267.13 43.6562 267.13 43.8177 268.563ZM157.969 302.906C165.927 321.505 175.469 340.427 191.682 353.307C198.203 358.552 205.833 362.688 213.943 364.594C223.641 366.979 233.5 365.391 243.198 365.865C264.505 366.823 286.604 373.974 307.594 366.979C326.036 360.938 342.255 343.292 353.703 328.188C355.292 325.958 351.635 323.891 350.042 325.958C338.276 341.542 320.948 359.823 301.391 364.276C282.151 368.729 262.437 362.844 243.198 362.052C233.661 361.573 224.12 363.323 214.896 361.099C206.151 359.031 198.203 354.26 191.365 348.38C176.896 335.974 168.63 318.167 159.724 301.792C159.089 300.677 157.495 301.792 157.969 302.906ZM198.203 135.005C224.917 176.026 281.359 183.5 317.766 150.589C319.516 149 316.974 146.453 315.224 148.042C280.724 179.047 226.187 172.37 200.589 133.573C199.635 132.302 197.25 133.573 198.203 135.005ZM319.359 264.109C320.948 274.604 323.807 284.458 329.375 293.521C334.938 302.745 343.365 309.74 349.089 318.964C350.359 321.031 353.38 319.281 352.427 317.052C348.297 308.151 339.87 301.948 334.302 293.839C328.104 284.776 323.172 274.604 320.786 263.792C320.469 262.839 319.198 263.156 319.359 264.109ZM195.661 236.604C190.411 247.094 184.214 257.115 177.214 266.495C170.38 275.557 160.682 283.349 155.115 293.203C154.156 294.797 156.38 296.703 157.651 295.115C173.401 277.464 187.073 258.859 196.771 237.24C197.089 236.604 195.979 235.807 195.661 236.604ZM237.318 99.2292C241.13 99.3855 245.109 99.2292 248.766 98.7553C251.151 98.4376 254.172 97.9584 255.281 95.573C255.599 94.9428 255.281 94.1459 254.49 94.1459C251.943 94.4636 249.557 96.0521 246.854 96.6824C243.677 97.323 240.339 97.6407 237.156 98.2761C236.682 98.5938 236.839 99.2292 237.318 99.2292ZM272.771 66.474C273.885 66.1615 274.839 65.6824 275.792 65.0469C276.589 64.5678 277.859 64.2501 278.021 63.2969C278.021 62.9792 277.859 62.6615 277.542 62.5001C276.589 62.1824 275.635 63.1407 274.839 63.6146C273.885 64.2501 272.932 64.7292 272.135 65.5261C271.979 66.0001 272.297 66.6355 272.771 66.474ZM273.568 60.4324C275.635 60.2761 277.224 61.073 277.703 63.2969C278.021 65.0469 277.062 66.474 276.906 68.2292C276.906 68.8594 277.859 69.3386 278.177 68.7084C281.042 65.3646 278.495 56.7813 273.25 59.4844C272.771 59.6407 272.932 60.5938 273.568 60.4324ZM229.682 145.495L227.62 114.021C226.979 115.287 225.708 117.672 223.005 119.74C220.146 121.969 217.443 122.604 216.01 122.766C216.964 126.26 218.714 131.031 222.052 136.115C224.599 140.255 227.458 143.271 229.682 145.495ZM280.88 155.677L273.885 120.219L262.12 116.557V158.854C265.297 158.854 269.115 158.693 273.568 157.745C276.271 157.266 278.656 156.469 280.88 155.677ZM264.026 733.464C262.437 738.234 260.214 745.073 258.62 753.5C254.807 772.578 252.422 784.823 259.099 791.021C265.937 797.38 281.198 796.427 287.24 789.115C291.849 783.708 289.625 771.943 285.172 748.885C283.901 742.37 282.63 736.964 281.677 733.307C281.198 733.943 278.339 736.964 273.885 737.438C268.161 738.078 264.505 733.781 264.026 733.464ZM113.615 712.635C118.859 707.073 120.604 701.031 121.401 698.167L141.917 719.948C119.177 738.234 96.2812 756.677 73.5469 774.964C72.4323 773.531 71 770.99 70.3698 767.651C69.2552 760.969 72.5885 755.245 84.5156 738.714C87.8594 734.099 91.9844 728.536 96.9166 722.177C99.4635 721.542 107.089 719.63 113.615 712.635Z" fill="white"/>
</g>
<path d="M453.557 261.724C451.812 263.953 448.948 265.38 445.771 265.38C440.203 265.38 435.75 260.932 435.75 255.365C435.75 251.708 437.818 248.37 440.682 246.62L453.557 261.724ZM361.979 284.146C356.411 284.146 351.964 288.594 351.964 294.161C351.964 299.724 356.411 304.177 361.979 304.177C367.542 304.177 371.995 299.724 371.995 294.161C371.995 288.594 367.542 284.146 361.979 284.146ZM368.177 227.063C362.615 227.063 358.161 231.516 358.161 237.083C358.161 242.646 362.615 247.099 368.177 247.099C373.745 247.099 378.198 242.646 378.198 237.083C378.198 231.516 373.745 227.063 368.177 227.063ZM319.047 218.161C313.484 218.161 309.031 222.615 309.031 228.177C309.031 233.74 313.484 238.193 319.047 238.193C324.615 238.193 329.068 233.74 329.068 228.177C329.068 222.615 324.453 218.161 319.047 218.161ZM343.057 165.849C339.24 162.51 335.266 159.333 331.609 156.625C328.271 158.219 326.047 161.719 326.047 165.531C326.047 171.099 330.495 175.552 336.062 175.552C340.672 175.552 344.49 172.37 345.76 168.078C344.807 167.443 344.01 166.646 343.057 165.849ZM203.62 178.729C198.052 178.729 193.604 183.182 193.604 188.745C193.604 194.313 198.052 198.76 203.62 198.76C209.182 198.76 213.635 194.313 213.635 188.745C213.635 183.182 209.182 178.729 203.62 178.729ZM175.953 150.109C177.542 153.292 181.042 155.516 184.859 155.516C190.422 155.516 194.875 151.063 194.875 145.5C194.875 142.479 193.604 139.776 191.375 137.87L175.953 150.109ZM156.552 203.057C150.984 203.057 146.531 207.505 146.531 213.073C146.531 218.635 150.984 223.089 156.552 223.089C162.12 223.089 166.573 218.635 166.573 213.073C166.573 207.505 162.12 203.057 156.552 203.057ZM129.359 257.432C123.797 257.432 119.349 261.885 119.349 267.448C119.349 273.016 123.797 277.464 129.359 277.464C134.922 277.464 139.38 273.016 139.38 267.448C139.38 261.885 134.771 257.432 129.359 257.432ZM78.4792 251.073C78.4792 256.635 74.0364 261.089 68.4687 261.089C63.5364 261.089 59.5625 257.594 58.6042 253.141C61.7864 249.958 65.2917 246.62 69.1042 243.125C69.7344 242.484 70.375 242.01 71.0104 241.375C75.4635 242.646 78.4792 246.464 78.4792 251.073Z" fill="white"/>
<path d="M247.438 415.01C248.156 424.307 249.297 438.469 250.302 455.776C251.875 481.813 252.302 500.125 253.016 519.005C254.448 563.495 255.021 585.667 256.453 605.979C258.88 641.599 262.458 674.927 266.609 705.682H280.052C286.203 675.359 291.354 638.74 292.786 597.109C293.646 570.505 292.927 546.042 291.354 524.156C298.505 490.396 305.516 456.635 312.667 422.734C305.375 424.161 295.792 425.307 284.344 424.448C268.323 423.307 255.594 418.729 247.438 415.01ZM178.203 407C190.359 414.724 201.807 419.589 211.245 422.875C189.219 451.484 167.182 480.094 145.01 508.708C146.016 531.594 146.156 556.484 145.01 583.094C143.292 623.573 139 660.052 133.562 691.667H118.406C108.104 646.318 102.526 607.984 99.3802 580.089C92.6562 520.151 96.3698 504.271 98.0937 497.547C105.531 469.51 116.828 455.063 139.286 420.156C143.578 413.578 149.875 403.563 157.458 391.26C163.036 396.271 169.901 401.703 178.203 407Z" fill="#EFBFA0"/>
<path d="M192.224 102.589C193.078 98.4375 195.656 85.8542 202.234 70.5469C203.667 67.1146 205.24 63.9688 207.812 60.1042C209.958 56.9531 218.255 44.224 231.562 38.3594C250.016 30.2031 269.323 39.5052 272.474 40.9323C297.365 52.6615 295.359 74.9792 313.958 97.5834C348.286 139.354 399.786 118.896 421.385 150.797C431.688 166.104 435.693 193.854 408.224 248.927C327.26 231.62 246.151 214.313 165.187 196.859C158.599 188.563 156.88 181.411 156.312 176.974C152.74 149.224 185.5 137.922 192.224 102.589Z" fill="#F14947"/>
<path d="M125.271 309.297C111.536 310.297 99.2344 309.87 88.9323 308.865C86.3594 308.151 78.2031 305.719 72.0521 297.849C66.3333 290.557 65.4791 282.833 65.3333 280.115C69.0521 275.391 74.1979 269.099 80.7812 262.375C83.6406 259.516 86.7864 256.51 90.2239 253.365C90.7969 252.792 91.3646 252.359 91.9427 251.792C112.823 233.906 120.552 236.052 140 220.318C163.318 201.438 162.318 190.276 186.073 169.536C187.073 168.677 187.932 167.818 189.073 166.964C192.792 163.818 196.516 161.094 200.089 158.521C208.672 152.375 216.396 147.938 222.26 144.932C226.839 161.38 240.286 173.682 257.021 176.693C273.187 179.547 289.641 173.115 299.651 160.24C306.802 163.385 316.104 168.109 326.115 175.401C329.547 177.833 332.984 180.552 336.417 183.698C337.276 184.411 337.99 185.13 338.849 185.844C356.156 201.865 354.151 209.448 371.318 223.323C391.344 239.49 402.505 236.052 422.104 254.219C422.958 255.078 423.818 255.797 424.531 256.51C429.255 261.229 433.115 265.953 435.979 269.958C437.979 272.818 439.411 275.25 440.698 277.25C438.266 284.693 431.974 300.141 416.667 312.297C387.771 335.042 352.005 325.745 347.719 324.599C345.141 332.755 339.276 346.203 326.547 356.786C308.094 371.953 286.349 371.521 262.318 371.094C234.708 370.661 213.823 370.234 194.651 355.073C173.052 337.906 167.182 313.016 165.464 302.573C154.453 305.578 140.865 308.292 125.271 309.297Z" fill="#4A8EA5"/>
<path d="M178.057 409.859C168.755 404.422 161.318 398.557 155.734 393.406C161.036 385.396 166.328 377.385 171.62 369.375C176.484 361.938 181.349 354.641 186.073 347.203C190.646 351.781 197.516 357.932 207.24 362.938C211.104 364.943 219.828 368.802 249.583 370.807C294.073 373.813 308.521 367.375 313.099 365.229C319.104 362.365 323.682 359.078 326.688 356.787C327.115 365.229 326.974 376.099 324.542 388.547C321.823 403.422 316.958 415.297 312.667 423.594C304.802 425.021 292.927 426.307 278.911 424.448C265.464 422.589 254.734 418.583 247.583 415.151C247.438 411.146 247.01 406.714 246.292 401.99C245.724 397.984 245.005 394.412 244.151 390.974C242.432 395.412 239.141 402.135 233.135 408.714C225.125 417.583 216.109 421.734 211.104 423.448C202.234 421.162 190.646 417.156 178.057 409.859Z" fill="#F9B53F"/>
<mask id="mask2_353_2" style="mask-type:luminance" maskUnits="userSpaceOnUse" x="28" y="46" width="446" height="288">
<path d="M28.7292 46.5H473.729V333.333H28.7292V46.5Z" fill="white"/>
</mask>
<g mask="url(#mask2_353_2)">
<path d="M434.406 291.557C432.688 294.703 430.828 297.281 429.109 299.568C429.682 303.286 430.969 308.724 434.406 314.443C439.411 322.453 447.422 328.891 449.141 327.604C449.854 327.031 449.568 324.458 444.99 315.734C450.141 319.307 469.453 332.042 473.312 328.036C476.604 324.599 467.875 309.87 459.297 300.568C451.714 292.271 443.557 287.266 437.979 284.406C436.979 286.552 435.833 288.984 434.406 291.557ZM66.625 287.839C60.1875 290.271 50.1719 295.276 41.5885 305.146C33.1458 315.016 26.2864 329.75 29.5729 332.615C30.8646 333.755 35.5833 335.042 59.3281 315.589C56.8958 318.594 52.3177 324.458 53.4583 325.745C54.6041 327.031 60.4739 323.599 63.6198 321.453C67.7656 318.734 73.776 313.589 78.7812 304C76.4948 302.427 73.2031 299.708 70.4844 295.417C68.4791 292.703 67.3385 289.984 66.625 287.839ZM249.583 71.8333C257.307 78.5573 264.891 82.5625 270.469 85.1406C274.333 84.276 278.193 85.276 279.911 87.7083C282.484 91.2864 281.057 98.4375 274.62 101.875C273.615 104.734 271.615 109.026 267.609 113.318C265.318 115.75 262.885 117.464 260.885 118.755C260.458 121.187 260.026 125.047 260.599 129.484C261.172 133.911 262.604 137.349 263.604 139.635C268.469 140.781 274.906 142.781 281.771 146.651C290.068 151.224 295.792 156.661 299.51 160.661C288.062 174.828 269.469 180.979 252.589 176.26C229.698 169.823 222.547 146.932 222.12 145.505C228.557 144.214 233.276 139.208 233.562 133.776C233.849 128.766 230.417 125.333 229.698 124.615C226.411 123.901 221.687 122.333 217.682 118.323C205.953 106.594 212.104 84.7083 214.536 75.8385C216.396 69.2552 220.401 58.2448 229.703 46.651C233.135 52.8073 239.141 62.677 249.583 71.8333Z" fill="#EFBFA0"/>
</g>
<mask id="mask3_353_2" style="mask-type:luminance" maskUnits="userSpaceOnUse" x="66" y="86" width="374" height="665">
<path d="M66.6667 86.6667H439.281V750.26H66.6667V86.6667Z" fill="white"/>
</mask>
<g mask="url(#mask3_353_2)">
<path d="M104.24 498.979C105.818 500.979 107.391 502.552 109.391 503.844C110.969 504.844 113.401 506.703 115.26 505.99C115.828 505.844 116.115 505.13 115.828 504.557C114.969 502.984 112.536 502.552 110.969 501.552C109.109 500.411 107.099 498.979 105.531 497.547C104.672 496.688 103.385 497.979 104.24 498.979ZM282.766 534.453C279.188 535.74 275.469 535.74 271.891 534.74C270.604 534.453 270.177 536.312 271.323 536.599C275.328 538.031 279.474 537.458 283.339 535.74C284.052 535.458 283.479 534.167 282.766 534.453ZM319.958 361.51C321.245 366.802 319.526 373.24 318.526 378.385C317.667 383.396 316.526 388.26 315.234 392.979C312.807 402.276 309.656 411.292 306.938 420.589C306.37 422.734 309.516 423.594 310.229 421.448C313.807 410.146 316.667 398.557 318.958 386.969C320.385 379.677 324.104 368.089 321.104 360.938C320.818 360.365 319.812 360.792 319.958 361.51ZM235.417 385.109C239.708 389.547 246.859 394.979 253.438 394.411C254.729 394.266 255.729 392.266 254.156 391.547C251.292 390.26 248.146 389.974 245.141 388.688C241.995 387.401 238.99 385.682 236.276 383.682C235.703 383.396 234.844 384.536 235.417 385.109ZM161.599 398.271C175.62 386.828 183.49 368.516 195.073 354.927C196.078 353.781 194.505 352.208 193.359 353.214C187.063 358.505 183.057 366.943 178.625 373.812C173.188 382.109 165.891 389.26 160.88 397.698C160.599 398.13 161.167 398.557 161.599 398.271ZM437.542 276.536C425.38 288.125 414.651 299.708 399.63 308.151C385.182 316.161 369.307 321.453 353 323.599C350.135 324.031 351.422 328.323 354.141 327.891C371.307 325.458 387.615 319.74 402.495 310.87C416.083 302.714 430.818 291.557 438.828 277.536C439.255 276.682 438.109 275.823 437.542 276.536ZM67.3281 276.396C68.4687 289.411 79.9115 304.719 91.6458 310.151C93.3646 311.01 95.5104 308.724 93.7917 307.292C88.9271 303.432 84.0625 299.995 80.0573 295.276C75.0521 289.411 72.1927 283.26 69.3281 276.109C69.0469 275.104 67.1823 275.104 67.3281 276.396ZM170.031 307.292C177.193 324.031 185.776 341.052 200.365 352.641C206.234 357.359 213.099 361.078 220.396 362.797C229.12 364.943 237.99 363.51 246.714 363.938C265.885 364.797 285.766 371.234 304.651 364.943C321.245 359.505 335.833 343.625 346.135 330.036C347.562 328.036 344.276 326.177 342.844 328.036C332.26 342.052 316.667 358.505 299.073 362.51C281.76 366.516 264.026 361.224 246.714 360.505C238.13 360.078 229.547 361.651 221.25 359.646C213.385 357.786 206.234 353.495 200.078 348.203C187.062 337.047 179.625 321.026 171.609 306.292C171.036 305.292 169.609 306.292 170.031 307.292ZM206.234 156.234C230.266 193.135 281.047 199.859 313.807 170.25C315.38 168.823 313.089 166.531 311.516 167.958C280.474 195.854 231.406 189.849 208.375 154.943C207.521 153.802 205.375 154.943 206.234 156.234ZM315.234 272.385C316.667 281.828 319.24 290.698 324.25 298.849C329.255 307.146 336.833 313.443 341.984 321.74C343.13 323.599 345.849 322.026 344.99 320.021C341.271 312.01 333.688 306.432 328.682 299.135C323.104 290.984 318.667 281.828 316.521 272.099C316.234 271.245 315.094 271.526 315.234 272.385ZM203.943 247.641C199.224 257.078 193.646 266.094 187.349 274.531C181.198 282.687 172.474 289.698 167.464 298.562C166.604 299.995 168.604 301.714 169.75 300.281C183.917 284.401 196.219 267.667 204.943 248.214C205.229 247.641 204.229 246.922 203.943 247.641ZM241.422 124.047C244.854 124.187 248.432 124.047 251.724 123.615C253.87 123.333 256.583 122.901 257.589 120.755C257.875 120.187 257.589 119.469 256.87 119.469C254.583 119.755 252.438 121.187 250.005 121.755C247.146 122.333 244.141 122.615 241.281 123.187C240.849 123.469 240.995 124.047 241.422 124.047ZM273.323 94.5729C274.323 94.2917 275.182 93.8594 276.042 93.2917C276.755 92.8594 277.901 92.5729 278.042 91.7135C278.042 91.4271 277.901 91.1458 277.615 91C276.755 90.7135 275.896 91.5729 275.182 92C274.323 92.5729 273.464 93.0052 272.75 93.7187C272.604 94.1458 272.891 94.7187 273.323 94.5729ZM274.036 89.1406C275.896 89 277.328 89.7135 277.755 91.7135C278.042 93.2917 277.182 94.5729 277.042 96.151C277.042 96.7187 277.901 97.151 278.188 96.5833C280.76 93.5729 278.474 85.8542 273.75 88.2812C273.323 88.4219 273.464 89.2812 274.036 89.1406ZM234.557 165.672L232.698 137.349C232.125 138.49 230.979 140.635 228.547 142.495C225.974 144.505 223.542 145.073 222.255 145.219C223.109 148.365 224.688 152.656 227.688 157.234C229.979 160.953 232.552 163.672 234.557 165.672ZM280.62 174.828L274.323 142.927L263.74 139.635V177.687C266.599 177.687 270.031 177.542 274.036 176.687C276.469 176.26 278.615 175.542 280.62 174.828ZM265.453 694.672C264.026 698.964 262.021 705.115 260.589 712.693C257.156 729.859 255.01 740.875 261.021 746.453C267.172 752.177 280.901 751.318 286.339 744.74C290.49 739.875 288.484 729.286 284.479 708.547C283.333 702.682 282.193 697.818 281.333 694.526C280.901 695.099 278.328 697.818 274.323 698.245C269.172 698.818 265.885 694.958 265.453 694.672ZM130.125 675.932C134.849 670.922 136.417 665.49 137.13 662.911L155.589 682.51C135.13 698.964 114.536 715.557 94.0781 732.005C93.0781 730.719 91.7865 728.427 91.2187 725.427C90.2135 719.417 93.2187 714.266 103.948 699.391C106.953 695.24 110.667 690.234 115.104 684.516C117.396 683.943 124.255 682.224 130.125 675.932Z" fill="#3B5170"/>
</g>
<path d="M435.979 270.245C434.406 272.245 431.828 273.531 428.969 273.531C423.964 273.531 419.958 269.526 419.958 264.521C419.958 261.229 421.818 258.224 424.391 256.651L435.979 270.245ZM353.583 290.411C348.573 290.411 344.568 294.417 344.568 299.427C344.568 304.432 348.573 308.438 353.583 308.438C358.589 308.438 362.594 304.432 362.594 299.427C362.594 294.417 358.589 290.411 353.583 290.411ZM359.161 239.057C354.151 239.057 350.146 243.062 350.146 248.068C350.146 253.078 354.151 257.083 359.161 257.083C364.167 257.083 368.172 253.078 368.172 248.068C368.172 243.062 364.167 239.057 359.161 239.057ZM314.958 231.047C309.953 231.047 305.948 235.052 305.948 240.057C305.948 245.068 309.953 249.073 314.958 249.073C319.964 249.073 323.969 245.068 323.969 240.057C323.969 235.052 319.823 231.047 314.958 231.047ZM336.557 183.984C333.125 180.979 329.547 178.12 326.26 175.688C323.255 177.115 321.25 180.266 321.25 183.698C321.25 188.703 325.255 192.708 330.266 192.708C334.411 192.708 337.844 189.849 338.99 185.984C338.13 185.417 337.417 184.698 336.557 183.984ZM211.104 195.573C206.099 195.573 202.094 199.578 202.094 204.583C202.094 209.589 206.099 213.594 211.104 213.594C216.109 213.594 220.115 209.589 220.115 204.583C220.115 199.578 216.109 195.573 211.104 195.573ZM186.214 169.823C187.646 172.682 190.792 174.682 194.224 174.682C199.229 174.682 203.234 170.677 203.234 165.672C203.234 162.953 202.094 160.526 200.089 158.812L186.214 169.823ZM168.755 217.458C163.75 217.458 159.745 221.464 159.745 226.469C159.745 231.474 163.75 235.479 168.755 235.479C173.766 235.479 177.776 231.474 177.776 226.469C177.776 221.464 173.766 217.458 168.755 217.458ZM144.292 266.38C139.286 266.38 135.286 270.385 135.286 275.391C135.286 280.401 139.286 284.406 144.292 284.406C149.302 284.406 153.307 280.401 153.307 275.391C153.307 270.385 149.161 266.38 144.292 266.38ZM98.5156 260.656C98.5156 265.667 94.5156 269.672 89.5104 269.672C85.0729 269.672 81.4948 266.521 80.6354 262.516C83.4948 259.656 86.6458 256.651 90.0781 253.505C90.651 252.932 91.2239 252.505 91.7969 251.932C95.8021 253.078 98.5156 256.51 98.5156 260.656Z" fill="#F9B53F"/>
</svg>
