<svg width="565" height="525" viewBox="0 0 565 525" fill="none" xmlns="http://www.w3.org/2000/svg">
<path d="M250.078 413.693L263.411 508.182C264.87 509.443 267.089 511.125 269.818 513.016C279.474 519.417 291.969 524.354 293.333 522.146C294.177 520.891 291.234 517.74 288.927 515.323C284.937 510.917 280.62 508.604 277.901 507.448C279.161 475.219 280.526 443.089 281.786 410.859C277.167 411.172 272.547 411.594 267.927 412.01C261.943 412.537 255.948 413.063 250.078 413.693ZM202.307 392.693C183.505 418.943 164.719 445.188 145.927 471.438C146.974 473.958 148.448 477.734 150.125 482.25C154.536 494.849 155.583 501.568 156.635 501.464C157.578 501.359 158.422 496.323 158.208 474.271C184.25 450.964 210.276 427.656 236.323 404.349C232.651 404.766 225.406 405.188 217.005 402.036C209.75 399.516 204.932 395.318 202.307 392.693ZM464.474 485.505C466.047 486.766 469.828 490.229 471.401 496.109C473.807 505.141 468.984 512.49 468.25 513.646C474.854 504.932 481.583 496.109 488.198 487.396L476.125 474.063L464.474 485.505ZM384.562 494.432C384.677 499.682 384.781 505.037 384.885 510.287C375.641 514.484 366.411 518.578 357.172 522.776C360.318 519.943 364.729 515.219 368.286 508.396C371.031 503.042 372.286 498.208 373.016 494.537L384.562 494.432Z" fill="white"/>
<path d="M97.4166 18.2917L95.4218 4.43229C90.6979 3.80208 82.2968 3.27604 72.9531 6.74479C54.7916 13.4635 47.3333 29.6302 45.7604 33.099C45.026 33.3073 31.6927 36.9792 30.7447 44.6458C29.9062 51.5729 39.776 57.9792 46.8072 62.599C49.4322 64.2813 52.901 66.4844 57.7291 68.1615C69.5937 72.151 80.4062 69.9479 85.8645 68.2708C86.6041 67.1146 87.4374 65.4375 87.9635 63.2292C89.0156 58.8177 87.8645 55.1458 87.2291 53.5677C90.6979 41.8125 94.0572 30.0521 97.4166 18.2917ZM161.677 219.245L248.292 200.661L233.177 294.104V397.312H214.906C211.229 378.521 206.297 364.24 202.401 354.474C199.25 346.708 193.698 334.109 192.016 318.255C191.807 316.151 191.375 311.849 191.177 306.599C190.651 296.938 190.969 288.958 191.177 283.292L181.203 308.698L197.057 386.182C196.323 386.286 195.693 386.5 194.958 386.604C196.005 390.172 197.151 393.849 198.203 397.417C189.604 401.724 180.995 406.026 172.479 410.333C171.755 409.911 170.807 409.281 170.38 408.229C169.552 405.922 172.385 403.297 175.01 399.938C176.792 397.625 179.104 394.161 181.203 389.542C183.62 389.016 186.13 388.495 188.552 387.969C189.917 387.651 191.177 387.443 192.542 387.13C188.026 388.073 183.62 389.016 179.104 389.964C169.443 366.234 162.724 349.854 158.734 339.984C152.75 325.5 150.021 318.99 148.76 308.802C147.396 297.99 148.448 289.802 151.703 271.323C154.104 257.042 157.37 239.51 161.677 219.245Z" fill="white"/>
<path d="M42.5052 306.182C34.6354 305.339 27.8073 303.344 22.2448 301.245C23.0833 307.333 23.8177 313.427 24.6614 319.516C21.9271 327.495 19.3021 336.839 17.6198 347.443C14.1614 368.964 15.4167 387.547 17.6198 401.198H29.276C31.7917 385.974 34.6354 373.797 36.7344 365.396C40.0937 352.167 42.6094 344.922 45.026 331.693C47.0156 321.193 47.8594 312.479 48.3854 306.703C46.4948 306.495 44.6094 306.391 42.5052 306.182ZM77.9896 299.88C70.8542 300.302 65.1823 302.193 61.5104 303.766C62.2396 308.698 63.0833 313.74 63.8177 318.672C60.4583 327.495 57.0989 337.781 54.5833 349.438C50.276 369.49 49.75 387.234 50.3802 401.094H61.1927C67.0729 382.406 73.0573 367.812 77.5729 357.625C82.1927 347.234 86.7083 338.203 89.5417 324.448C91.4323 314.792 91.7448 306.599 91.7448 301.036C88.3854 300.302 83.6615 299.568 77.9896 299.88ZM75.0573 70.2656C79.3542 69.9479 83.1406 69.2135 85.974 68.2708C87.6562 69.0052 89.4375 69.6354 91.1146 70.3698C93.6354 71.8385 96.9948 74.2552 100.036 77.9271C107.292 86.9583 106.859 97.0365 107.5 113.729C107.812 122.234 108.432 134.521 110.01 149.531L142.031 90.8438C146.229 79.7135 148.854 74.3594 149.906 74.5677C150.651 74.7813 150.651 77.5104 149.906 82.8646C163.146 72.5729 165.875 72.9948 166.609 73.7292C168.396 75.4115 164.604 83.4948 159.156 88.7448C154.432 93.2604 149.078 95.0417 145.823 95.776C145.823 95.776 128.286 147.016 117.682 170.74C107.078 194.469 97.4167 179.036 97.4167 179.036C72.1146 179.562 46.7083 180.193 21.401 180.719C22.8698 164.865 23.8177 152.474 24.3437 144.911C26.5469 113.625 26.651 98.401 37.2604 83.2865C39.5677 80.0313 41.7708 77.6146 43.1354 76.2448C48.0677 73.5208 53.0052 70.7865 57.9427 68.0625C61.7187 69.4219 67.7031 70.6875 75.0573 70.2656Z" fill="white"/>
<path d="M215.328 48.0052C218.266 45.1719 223.401 39.6042 226.141 30.8906C227.505 26.6927 228.974 21.7552 227.401 16.2969C224.776 7.26562 214.906 2.01562 207.453 0.442699C199.578 -1.13022 198.63 2.33332 181.203 4.22395C167.755 5.58853 161.781 4.74999 160.406 7.99999C159.682 9.79166 160.099 13.0417 167.135 19.7656C170.906 21.651 174.693 23.5417 178.474 25.5364L215.328 48.0052ZM317.484 388.703C315.698 390.698 314.021 392.484 312.339 394.057C302.573 403.401 293.547 407.495 287.141 409.495C279.37 411.906 277.901 410.542 250.078 413.693C230.13 415.896 229.922 416.734 225.5 415.792C211.651 412.854 209.75 404.135 194.75 401.198C186.245 399.625 184.667 401.932 174.797 401.198C165.349 400.568 154.536 397.521 142.776 389.964C152.005 368.443 163.776 344.714 178.896 320.042C181.401 315.943 184.026 311.745 186.771 307.547C190.13 302.401 193.594 297.255 197.266 292.109C207.349 277.833 217.531 264.917 227.505 253.266L280.839 251.583C292.286 294.214 303.719 336.839 315.068 379.464C315.792 382.51 316.641 385.661 317.484 388.703ZM404.625 294.948C398.536 302.609 392.344 311.432 386.661 321.719C366.714 357.625 362.516 392.693 361.99 415.37C364.833 441.307 367.562 467.24 370.391 493.276C371.552 494.01 373.234 494.849 375.438 495.375C381.109 496.635 385.729 494.115 387.094 493.276C392.964 457.578 398.734 421.984 404.625 386.292L414.182 425.87L460.797 486.24C462.255 486.135 467.307 485.719 471.609 481.62C474.552 478.891 475.703 475.74 476.229 474.167C473.922 467.344 469.932 456.74 463.214 444.667C454.708 429.443 450.615 427.448 448.724 419.151C445.573 404.979 453.448 394.271 463.734 375.266C470.036 363.505 478.005 345.76 483.255 321.297C478.646 310.062 474.13 298.938 469.51 287.703C461.323 290.745 450.089 294 436.438 295.365C423.839 296.729 412.911 296.099 404.625 294.948ZM49.6406 72.6771C47.2291 83.2865 47.7552 91.8906 48.4844 97.3542C49.4323 104.385 50.4791 111.318 55.9375 114.677C59.0885 116.568 62.8698 116.672 64.1302 116.776C64.651 116.776 70.1146 116.88 74.3125 114.255C78.4114 111.63 80.0885 107.115 82.6094 92.625C83.7604 86.2187 85.026 77.9271 86.0729 68.3698C88.8021 69.7396 91.5312 71.1042 94.2604 72.4687C93.2083 123.182 96.2604 163.917 99.1979 191.74C103.292 230.271 112.745 295.891 97.4114 301.245C92.6875 302.927 87.8594 298.094 75.0521 300.406C70.9531 301.141 70.0104 301.875 58.3541 304.604C49.8541 306.599 47.7552 306.812 45.4375 306.703C44.0781 306.703 42.5052 306.495 31.6875 303.766C22.2396 301.349 22.3385 301.245 20.0312 300.828C10.6875 299.354 5.96352 301.979 3.7604 301.245C-2.11981 299.25 -0.963562 270.38 24.5469 163.391L42.9219 76.3542L49.6406 72.6771Z" fill="white"/>
<path d="M176.271 81.0781C182.042 74.1458 188.229 69.0052 193.802 65.2239C201.781 65.1198 209.75 65.1198 217.844 65.1198C221.729 67.3229 228.974 72.1562 234.948 80.9687C241.25 90.3177 242.823 99.3437 243.255 103.859C245.88 135.672 248.505 167.38 251.13 199.193L235.693 207.49L214.474 246.229L196.953 238.776L209.974 215.047C191.281 216.729 172.479 218.406 153.802 220.089C152.438 187.75 154.432 160.766 156.729 141.026C160.313 110.266 165.13 94.6198 176.271 81.0781Z" fill="white"/>
<path d="M199.474 239.719C194.12 244.969 191.807 248.224 192.646 249.484C193.172 250.323 195.052 250.323 198.318 249.484C190.547 261.979 190.854 264.396 191.599 265.026C193.172 266.391 200.104 261.245 204.406 256.937C208.703 252.635 211.229 248.328 212.703 245.286C208.177 243.5 203.776 241.609 199.474 239.719ZM181.203 20.5C179.417 23.125 176.901 27.5312 176.156 33.4114C175.219 41.2864 177.422 53.2552 185.297 56.2968C188.344 57.4531 191.375 57.0364 193.594 56.2968V65.0156C195.271 66.1666 198.948 68.4791 204.198 68.7916C211.125 69.3177 216.167 66.0625 217.74 65.0156C217.844 60.2864 217.323 56.2968 216.693 53.5677C216.271 51.7864 215.849 49.8958 215.219 47.901C214.276 44.8541 213.016 42.2291 211.849 40.026C213.333 36.7708 212.375 32.9895 209.75 30.8906C207.453 29 204.198 28.6875 201.469 30.052C200.828 28.5833 199.052 24.802 194.854 22.177C188.755 18.3958 182.255 20.1823 181.203 20.5ZM95.8385 13.0416C96.8906 16.1927 98.151 20.8125 98.7812 26.375C99.4114 32.4635 100.99 47.7968 93.2135 52.3125C91.9531 53.0468 89.7552 53.8854 86.3906 53.4635C85.2396 54.4114 84.0833 55.3541 82.9271 56.2968C83.5573 55.0364 84.1875 53.1458 84.5052 50.7343C84.9219 46.7448 83.6614 43.5937 82.9271 42.125C84.2916 40.9687 86.8125 38.5573 88.3854 34.6718C90.2812 29.8385 89.7552 25.6406 89.4375 23.8593C90.2812 23.4375 91.2239 22.8073 92.1666 21.8645C95.4219 18.7135 95.7396 14.5156 95.8385 13.0416Z" fill="white"/>
<path d="M242.099 145.016C233.807 142.813 227.505 136.302 225.823 128.115C224.042 119.083 228.125 109.74 236.219 104.807C228.448 105.542 221.823 100.708 220.776 94.8334C219.724 88.323 225.615 83.073 229.5 80.9688C230.339 80.5521 237.375 76.8802 244.198 80.6615C249.87 83.8073 252.911 90.6355 251.651 97.7709C257.521 93.9896 264.776 93.8855 270.234 97.3542C275.896 101.026 277.167 107.219 277.375 108.375C273.703 118.875 269.922 129.271 266.245 139.771L242.099 145.016ZM504.156 280.458C504.156 279.406 502.677 273.844 499.75 262.714C498.802 259.354 496.177 249.276 488.932 225.755C482.109 203.708 481.062 201.401 478.437 198.563C470.349 189.849 458.583 187.854 451.234 187.432C447.776 188.276 443.786 189.115 439.276 189.536C434.026 190.057 429.297 189.953 425.417 189.641C422.792 166.542 420.167 143.547 417.542 120.448C418.589 103.651 418.906 85.4844 418.161 66.0625C417.75 55.6719 417.109 45.698 416.177 36.0365C413.656 35.5105 410.505 34.9896 406.724 34.8802C402.734 34.8802 399.375 35.4063 396.75 36.0365C394.651 60.6042 393.391 87.375 393.391 115.938C393.484 149.427 395.385 180.297 398.432 208.328C399.589 227.646 398.641 243.292 397.276 254.422C395.807 266.807 394.234 272.688 398.115 277.203C401.583 281.193 407.88 282.245 437.49 278.359C450.505 276.677 461.323 274.787 469.406 273.318V263.552L479.693 280.25L445.781 347.651L455.755 354.057C460.156 349.016 466.151 342.089 472.974 333.792C501.531 299.25 504.474 289.276 504.156 280.458Z" fill="white"/>
<path d="M448.828 349.75C446.729 351.115 442.948 353.953 440.115 358.99C438.224 362.458 437.385 365.708 437.057 367.917C436.531 369.911 436.755 370.542 437.057 370.646C438.224 371.276 441.688 364.766 448.609 359.094C451.453 356.786 454.078 355.214 455.958 354.266C453.552 352.797 451.135 351.328 448.828 349.75ZM399.901 35.6146C397.484 32.9896 394.234 29 391.188 23.651C387.714 17.5573 382.99 7.16665 384.995 5.69269C386.255 4.85415 390.557 7.16665 404.625 22.3906C405.677 17.6666 406.609 15.25 407.464 15.3541C408.828 15.4583 409.76 22.0729 410.401 35.1979C406.938 35.3021 403.365 35.4062 399.901 35.6146Z" fill="white"/>
<mask id="mask0_353_3" style="mask-type:luminance" maskUnits="userSpaceOnUse" x="227" y="118" width="338" height="136">
<path d="M227 118H564.672V254H227V118Z" fill="white"/>
</mask>
<g mask="url(#mask0_353_3)">
<path d="M419.849 163.182C430.349 168.432 440.734 173.682 451.234 178.932C462.687 181.24 471.823 180.609 478.75 179.245C488.307 177.354 490.51 174.625 498.479 174.203C510.984 173.682 514.229 179.979 524.63 181.135C545 183.339 567.047 162.76 564.625 154.469C563.792 151.63 560.016 150.375 552.453 147.854C543.844 145.016 536.276 144.599 531.349 144.807C521.484 134.625 512.557 131.37 506.354 130.109C491.557 127.172 482.844 134.307 466.677 130.948C457.333 128.953 450.401 124.547 446.203 121.396C444 120.448 429.708 114.359 415.859 121.604C410.286 124.547 406.833 128.536 404.839 131.37L406.411 141.656L419.849 163.182ZM227.401 253.266C228.24 234.995 229.078 216.833 229.922 198.562C239.37 195.307 250.812 192.266 264.042 190.057C276.745 188.062 288.193 187.328 297.943 187.432C297.849 196.672 296.802 209.271 292.693 223.552C289.344 235.099 284.818 244.552 280.839 251.583L227.401 253.266Z" fill="white"/>
</g>
<path d="M356.74 148.38C355.281 155.729 352.656 161.5 350.661 165.281C349.391 174.521 347.406 187.646 344.573 203.604C338.797 236.359 335.854 244.234 329.87 246.125C323.365 248.224 315.594 242.135 309.292 237.203C300.792 230.589 296.276 222.922 294.068 218.302C295.318 208.016 296.693 197.724 297.943 187.542L229.922 198.562L228.766 253.266C242.099 242.448 255.422 231.635 268.766 220.823C274.75 209.167 278.427 203.604 279.896 204.13C280.62 204.443 280.734 206.542 280.214 210.531C291.339 199.089 293.651 199.193 294.385 199.719C296.172 200.979 293.125 209.693 287.771 215.781C282.719 221.453 276.641 223.865 273.073 224.917C270.865 230.062 267.193 237.307 261.417 245.182C254.276 254.734 244.302 264.604 234.854 271.01C230.552 273.948 226.453 276.151 222.677 277.411C218.266 278.88 214.38 278.99 211.547 277.307C207.766 275.104 206.823 269.854 204.828 259.354C203.453 252.214 202.833 243.708 204.5 228.276C205.458 219.354 207.349 207.172 211.125 193C215.219 187.432 220.156 181.24 226.141 174.943C231.599 169.167 236.953 164.339 241.995 160.24C242.099 155.203 242.203 150.057 242.297 145.016L246.719 138.927C245.448 136.198 246.193 132.943 248.401 131.161C250.172 129.687 252.797 129.375 255.016 130.318C257.635 128.745 260.474 126.854 263.297 124.547C270.026 119.083 274.542 113.203 277.469 108.479C278.74 112.469 280.318 118.453 280.526 125.698C280.839 134.099 281.146 143.547 275.276 147.641C274.016 148.484 270.448 150.583 263.62 149.005C262.995 150.057 261.839 152.474 261.943 155.62C262.047 157.724 262.573 159.297 263.099 160.349C269.714 161.5 276.422 162.656 283.047 163.708C285.672 164.125 288.297 164.547 290.922 165.073C293.333 167.906 295.75 170.844 298.167 173.995C310.016 189.536 318.323 205.073 324.193 219.245C330.292 200.771 336.38 182.292 342.568 163.812C343.208 160.557 344.047 155.729 344.255 149.849C344.573 141.87 343.729 136.094 344.573 135.99C344.99 135.885 345.714 137.25 347.615 143.76C352.865 129.057 355.281 126.328 356.542 126.542C358.536 126.854 358.745 138.615 356.74 148.38ZM469.51 273.526C457.12 276.365 442.948 278.672 427.411 279.828C419.432 280.458 411.859 280.667 404.625 280.667C405.255 282.349 406.203 285.391 405.99 289.172C405.781 291.589 405.255 293.583 404.625 295.052C412.911 296.208 423.839 296.943 436.438 295.578C449.984 294.214 461.208 290.958 469.51 287.911C468.984 286.234 468.464 283.818 468.354 280.875C468.354 277.729 468.984 275.208 469.51 273.526ZM441.375 171.583C433.708 164.125 430.667 155.62 429.297 151C427.609 151.214 421.635 151.63 415.755 147.641C409.875 143.651 407.88 137.984 407.464 136.406C406.411 139.979 405.359 144.599 404.943 150.161C404.417 157.302 403.365 172.422 411.24 177.672C413.958 179.562 415.964 178.932 419.536 181.87C422.688 184.391 424.365 187.542 425.307 189.745C428.776 190.057 432.859 190.057 437.385 189.745C442.635 189.323 447.255 188.484 451.135 187.542V178.932C448.302 177.25 444.839 174.943 441.375 171.583Z" fill="white"/>
<path d="M271.813 262.609C267.615 262.609 264.25 266.073 264.25 270.271C264.25 274.474 267.615 277.833 271.813 277.833C276.01 277.833 279.37 274.474 279.37 270.271C279.37 266.073 276.01 262.609 271.813 262.609ZM256.063 382.089C251.865 382.089 248.505 385.448 248.505 389.651C248.505 393.849 251.865 397.312 256.063 397.312C260.26 397.312 263.729 393.849 263.729 389.651C263.729 385.448 260.26 382.089 256.063 382.089ZM172.177 378.938C167.974 378.938 164.604 382.406 164.604 386.604C164.604 390.802 167.974 394.161 172.177 394.161C176.375 394.161 179.828 390.802 179.828 386.604C179.828 382.406 176.375 378.938 172.177 378.938ZM271.813 307.125C267.615 307.125 264.25 310.484 264.25 314.682C264.25 318.885 267.615 322.349 271.813 322.349C276.01 322.349 279.37 318.885 279.37 314.682C279.37 310.484 276.01 307.125 271.813 307.125ZM315.068 379.464C314.219 379.151 313.281 378.938 312.339 378.938C308.141 378.938 304.771 382.406 304.771 386.604C304.771 390.802 308.141 394.161 312.339 394.161H312.443C314.125 392.484 315.906 390.698 317.589 388.807C316.641 385.661 315.792 382.51 315.068 379.464ZM222.464 341.458C218.266 341.458 214.802 344.818 214.802 349.016C214.802 353.219 218.151 356.682 222.464 356.682C226.667 356.682 230.026 353.219 230.026 349.016C230.026 344.818 226.667 341.458 222.464 341.458ZM186.771 307.547L178.896 320.042C180.26 321.406 182.151 322.349 184.354 322.349C188.552 322.349 192.016 318.885 192.016 314.682C191.807 311.323 189.708 308.594 186.771 307.547ZM417.016 78.4531C416.911 78.3438 416.807 78.2448 416.698 78.2448H416.583C416.49 78.2448 416.49 78.3438 416.385 78.3438C415.536 77.9271 413.656 77.2969 413.438 77.2969C411.453 76.9844 409.458 76.7708 407.464 76.6667C403.365 76.3542 398.958 75.8281 394.969 76.8802C394.125 77.0886 394.01 78.5573 394.969 78.7656C400.531 79.7136 406.724 79.0833 412.385 79.3958C412.604 79.5052 417.75 80.3438 417.016 78.4531ZM418.276 70.6823C413.339 68.6875 408.615 67.4271 403.26 67.4271C401.161 67.4271 394.969 67.1146 393.813 69.3177C393.391 70.0521 394.125 71.2083 394.969 70.8958H395.063C395.177 70.8958 395.177 70.8958 395.281 70.7865C397.161 69.8438 399.693 69.6354 402.104 69.6354C403.682 69.6354 405.255 69.7396 406.609 69.8438C410.401 70.0521 414.286 70.5781 417.958 71.7344C418.682 71.8386 418.906 70.8958 418.276 70.6823ZM416.49 60.1875C410.083 58.0833 402.104 59.2396 395.703 60.7083C394.339 61.0208 394.865 63.1198 396.333 62.9115C403.052 61.6563 409.875 62.0729 416.583 60.9219C416.807 60.8125 416.698 60.2865 416.49 60.1875ZM417.328 51.8906C410.505 50.3125 403.682 50.1042 396.75 50.6302C395.177 50.7344 395.177 53.1458 396.75 53.0469C403.578 52.5208 410.401 52.7292 417.224 53.0469C417.75 53.0469 417.958 51.9948 417.328 51.8906ZM416.177 44.5417C409.875 42.8646 402.844 41.599 396.438 43.0729C395.385 43.2813 395.703 44.8542 396.635 44.8542C403.156 44.9635 409.349 44.3333 415.964 45.3802C416.49 45.4844 416.807 44.6458 416.177 44.5417ZM416.49 35.4063C414.391 33.4115 410.813 33.3073 407.984 33.3073C404.208 33.1979 400.427 33.6198 396.75 34.5677C394.234 35.1979 395.911 38.7656 397.802 38.0313C401.161 37.401 404.51 36.7708 407.984 36.7708C410.714 36.7708 413.76 37.401 416.177 36.349C416.583 36.1406 416.807 35.724 416.49 35.4063ZM478.12 326.026C472.661 323.505 467.62 319.724 462.583 316.365C461.427 315.63 460.271 317.521 461.427 318.255C464.682 320.25 467.833 322.349 471.089 324.24C473.188 325.5 475.286 326.969 477.911 326.865C478.328 326.969 478.531 326.234 478.12 326.026ZM473.281 333.161C468.776 329.49 464.354 325.604 459.854 321.927C458.698 320.88 456.911 322.661 458.057 323.609C462.583 327.495 467.411 330.958 472.557 334.109C473.083 334.422 473.807 333.583 473.281 333.161ZM468.984 338.411C466.979 336.208 464.786 334.109 462.583 332.01C460.797 330.328 459.01 328.125 456.703 327.281C456.073 327.073 455.651 327.807 455.865 328.333C457.005 330.646 459.854 332.427 461.849 334.109C463.948 335.891 466.151 337.677 468.354 339.255C468.88 339.568 469.302 338.833 468.984 338.411ZM464.786 343.557C463.422 341.984 461.323 340.932 459.536 339.776C457.531 338.516 455.432 337.26 453.333 336.104C452.281 335.578 451.453 337.047 452.396 337.677L458.698 341.141C460.589 342.193 462.37 343.661 464.354 344.292C464.88 344.292 465.099 343.87 464.786 343.557ZM460.797 347.339C456.807 345.344 452.714 343.661 448.51 341.984C447.557 341.562 447.146 343.245 448.083 343.557C452.188 345.026 456.177 346.604 460.156 348.385C460.901 348.703 461.531 347.651 460.797 347.339ZM455.865 353.531C455.021 352.167 453.333 351.224 451.979 350.484C450.401 349.542 448.609 348.911 447.146 347.865C445.458 346.604 443.682 349.542 445.458 350.802C446.938 351.745 448.828 352.479 450.505 353.219C451.979 353.849 453.76 354.792 455.339 354.688C455.755 354.474 456.177 353.953 455.865 353.531ZM468.672 271.635C463.734 273.109 459.328 274.891 454.286 275.734C447.99 276.781 441.583 277.411 435.177 277.938C429.51 278.464 423.932 278.776 418.276 278.88C413.552 278.99 408.406 278.25 404.099 280.141C403.786 280.245 403.786 280.875 404.099 281.089C408.615 283.292 414.391 282.557 419.323 282.557C425.625 282.453 431.922 282.135 438.224 281.615C448.609 280.771 461.005 280.354 470.036 274.578C471.401 273.74 470.458 271.115 468.672 271.635ZM450.401 187.224C442.307 187.646 434.547 191.109 426.359 188.589C425.307 188.276 424.786 189.745 425.625 190.375C431.714 194.677 444.734 193.313 451.135 190.057C452.5 189.323 451.875 187.12 450.401 187.224ZM412.708 187.646C411.031 190.057 409.349 192.37 407.661 194.677C405.99 196.99 403.891 199.193 402.526 201.609C402 202.552 403.26 203.5 403.984 202.766C408.089 198.984 411.135 193.104 413.865 188.276C414.286 187.542 413.13 186.911 412.708 187.646ZM470.245 262.292C466.781 248.432 465.208 234.469 463 220.401C462.896 219.875 461.953 219.984 462.057 220.505C462.583 228.276 463.307 236.047 463.948 243.818C464.578 250.323 464.995 257.359 468.354 263.031C468.984 264.078 470.563 263.448 470.245 262.292ZM234.75 271.01C230.443 273.948 226.349 276.151 222.573 277.411C222.781 281.401 226.026 284.656 230.13 284.656C234.328 284.656 237.688 281.297 237.688 277.099C237.688 274.578 236.526 272.375 234.75 271.01Z" fill="white"/>
<mask id="mask1_353_3" style="mask-type:luminance" maskUnits="userSpaceOnUse" x="10" y="31" width="483" height="494">
<path d="M10.2864 31.5416H492.198V524.891H10.2864V31.5416Z" fill="white"/>
</mask>
<g mask="url(#mask1_353_3)">
<path d="M82.927 204.969C83.6614 204.234 82.6145 203.182 81.7708 203.813C80.5156 204.865 79.4635 206.016 78.5156 207.385C77.7812 208.536 76.7343 210.115 77.0468 211.479C77.1562 212.214 78.0989 212.318 78.625 211.896C79.5677 211.057 79.7812 209.484 80.4062 208.432C81.0364 207.172 81.8802 206.016 82.927 204.969ZM26.7604 210.01C27.4948 211.161 28.5416 213.052 30.0104 212.948C30.6406 212.948 31.0625 212.526 31.0625 211.896C31.1666 210.531 29.6927 209.484 29.0677 208.432C28.2291 207.172 27.4948 205.911 26.9687 204.651C26.3333 203.286 24.1354 204.234 24.6614 205.599C25.1823 207.068 25.8125 208.536 26.7604 210.01ZM15.8385 280.458C13.8437 282.349 11.5364 284.865 10.901 287.703C10.5885 288.964 12.2708 289.802 13.1093 288.646C14.5781 286.443 15.5208 284.026 17.4114 282.031C18.3593 280.984 16.8854 279.51 15.8385 280.458ZM53.7395 291.479C55.2083 290.224 55.8385 288.12 56.6823 286.443C57.625 284.552 58.5677 282.557 59.5156 280.667C60.1406 279.51 58.3593 278.464 57.7291 279.62C56.6823 281.615 55.526 283.609 54.3698 285.495C53.427 287.177 52.1666 288.854 51.9583 290.745C51.8489 291.693 53.1093 292.005 53.7395 291.479ZM89.0156 272.896C88.3854 271.531 86.0781 272.479 86.6041 273.948C87.8645 277.625 89.0156 281.719 90.9062 285.182C91.7448 286.755 94.3698 285.708 93.8489 283.922C92.7968 280.141 90.6979 276.365 89.0156 272.896ZM65.2916 255.786C66.5468 254.63 67.1823 252.427 68.0156 250.953C68.9635 249.172 70.0156 247.49 71.1666 245.813C71.7968 244.969 70.3281 243.818 69.6979 244.656C68.4375 246.333 67.1823 248.016 66.026 249.802C65.0833 251.375 63.7135 253.266 63.7135 255.156C63.7135 255.995 64.6562 256.307 65.2916 255.786ZM41.1406 261.141C40.7187 260.297 39.3593 260.927 39.5677 261.771C40.302 264.396 40.7187 267.542 42.1927 269.854C43.0312 271.219 44.9166 270.271 44.7083 268.802C44.1823 266.073 42.401 263.552 41.1406 261.141ZM17.5208 262.401C19.0937 261.349 19.6198 259.354 20.4583 257.781C21.401 255.786 22.4531 253.792 23.3958 251.797C23.9218 250.849 22.4531 250.01 21.927 250.953C20.7708 252.844 19.6198 254.734 18.5677 256.625C17.6198 258.198 16.2604 259.776 16.2604 261.661C16.151 262.292 16.8854 262.818 17.5208 262.401ZM86.8125 237.307C85.7656 233.318 83.0312 229.641 80.8281 226.281C80.0885 225.229 78.625 226.177 79.1458 227.224C80.9323 230.797 82.1927 234.891 84.2916 238.25C85.1302 239.719 87.2291 238.88 86.8125 237.307ZM49.9583 223.026C48.6979 225.229 47.3333 227.333 46.0729 229.536C44.9166 231.427 43.4479 233.422 42.927 235.625C42.7187 236.573 43.8698 237.307 44.6093 236.573C46.1823 234.995 47.125 232.688 48.177 230.693C49.3333 228.484 50.4843 226.177 51.6406 223.974C52.1666 222.922 50.5885 221.979 49.9583 223.026ZM83.6614 132.208C84.2916 133.469 84.7135 135.042 85.9739 135.781C86.4948 136.094 87.3385 135.781 87.4375 135.151C87.7552 133.677 86.8125 132.313 86.0781 131.052C85.2395 129.583 84.2916 128.115 83.3489 126.75C82.5052 125.594 80.6145 126.646 81.3541 127.906C82.1927 129.375 82.927 130.74 83.6614 132.208ZM72.4323 183.969C71.1666 185.859 69.8073 187.75 68.3333 189.536C67.2812 190.901 65.7083 192.161 65.5 193.839C65.3906 194.365 66.1302 194.786 66.5468 194.677C68.2291 194.156 69.3802 192.052 70.3281 190.688C71.6927 188.802 72.8489 186.911 74.1093 184.917C74.9479 183.865 73.1666 182.922 72.4323 183.969ZM36.7343 185.755C37.677 187.328 38.5156 189.323 40.302 190.057C40.8281 190.271 41.4583 189.745 41.3489 189.219C41.2448 187.328 39.5677 185.755 38.6198 184.182C37.3593 182.292 36.2083 180.297 35.1562 178.198C34.526 177.042 32.9531 178.089 33.4739 179.245C34.4166 181.448 35.4687 183.656 36.7343 185.755ZM61.9323 160.24C63.6093 159.401 64.3437 156.99 65.3906 155.516C66.7552 153.625 68.3333 151.948 70.1145 150.375C70.8541 149.745 69.8073 148.38 69.0677 149.005C67.1823 150.479 65.2916 152.052 63.7135 153.943C62.4583 155.411 60.3541 157.615 60.5677 159.609C60.6666 160.135 61.2968 160.557 61.9323 160.24ZM42.927 134.625C44.1823 134.203 45.026 133.047 45.7604 132C46.7083 130.844 47.5416 129.583 48.3854 128.323C49.0156 127.484 47.651 126.432 46.9166 127.172C45.8645 128.219 44.8177 129.375 43.7656 130.531C42.927 131.578 41.9843 132.526 41.7708 133.891C41.7708 134.307 42.401 134.729 42.927 134.625ZM439.156 177.458C435.802 179.979 431.708 180.401 428.036 182.078C427.51 182.292 427.932 183.026 428.453 183.026C430.755 182.708 432.969 181.87 435.177 181.24C436.958 180.714 438.63 180.193 440.203 179.245C441.255 178.51 440.109 176.724 439.156 177.458ZM201.255 54.1979C203.771 53.9896 208.604 53.4688 209.651 50.5261C209.865 50 209.125 49.474 208.698 49.7917C207.552 50.6302 206.599 51.2656 205.135 51.6823C203.667 52.099 202.302 52.5209 200.937 53.1511C200.516 53.3646 200.729 54.1979 201.255 54.1979ZM202.724 34.0417C204.297 33.625 206.073 32.8906 207.448 34.1511C207.026 34.4636 206.818 34.9896 206.599 35.4063C206.396 35.9323 205.979 36.349 205.661 36.7761C205.453 36.9844 205.875 37.2969 206.073 37.1927C206.599 36.875 207.026 36.5625 207.448 36.1406C207.646 35.9323 207.974 35.724 208.172 35.5156C208.391 36.4584 208.286 37.5104 208.172 38.4531C208.078 39.6094 210.073 39.7136 210.073 38.4531C210.073 36.4584 209.651 34.0417 207.76 32.9948C206.292 32.1511 203.448 31.9427 202.094 32.9948C201.672 33.5156 202.198 34.1511 202.724 34.0417ZM159.349 134.729C170.375 133.052 177.104 112.156 165.125 107.328C164.505 107.016 164.073 108.063 164.599 108.484C170.49 112.26 169.849 119.193 167.026 124.651C165.031 128.641 162.302 130.635 158.302 132.526C157.156 133.156 158.208 134.943 159.349 134.729ZM158.417 151.948C171.328 151.844 179.099 136.307 181.62 125.703C184.245 114.781 183.089 99.0365 170.698 94.4115C169.849 94.099 169.547 95.2552 170.177 95.7813C181.302 103.13 181.62 115.729 177.943 127.484C176.37 132.63 174.052 137.568 170.375 141.661C166.698 145.755 162.5 147.224 157.776 149.432C156.422 149.953 157.156 151.948 158.417 151.948ZM206.292 207.49C188.547 207.807 170.281 211.167 152.958 214.63C150.859 215.052 151.698 218.302 153.901 217.885C171.328 214.526 189.073 212.318 206.505 208.854C207.24 208.646 207.026 207.49 206.292 207.49ZM204.193 68.7969C208.917 68.6875 213.224 65.6459 217.734 65.75C218.672 65.75 219.312 64.3854 218.578 63.7552C216.161 61.6563 213.854 63.4427 211.229 64.2813C205.453 66.2761 200.203 66.5886 194.521 63.9636C193.693 63.5469 192.646 64.599 193.474 65.3334C196.318 67.9584 200.297 68.9011 204.193 68.7969ZM212.49 116.359C212.37 115.62 211.323 115.938 211.437 116.672C213.328 126.854 215.109 136.938 216.573 147.224C218.052 157.411 218.672 167.906 220.99 177.88C221.203 179.036 223.094 178.828 223.094 177.568C222.776 167.698 220.469 157.411 218.672 147.646C216.792 137.25 214.693 126.75 212.49 116.359ZM252.698 170.115C257.74 170.531 263.932 166.646 264.25 161.292C264.344 160.245 262.766 160.141 262.568 161.083C259.526 170.745 246.083 169.589 241.677 161.922C241.464 161.609 240.833 161.714 240.937 162.135C241.464 167.172 248.292 169.797 252.698 170.115ZM296.271 187.646C292.911 187.75 289.448 188.276 286.089 188.906C285.771 188.172 285.339 187.438 285.036 186.703C284.51 185.443 284.198 184.078 283.88 182.714C283.766 182.292 283.042 182.396 283.042 182.818C283.24 184.813 283.672 187.229 284.51 189.328C277.896 190.693 271.167 192.474 264.667 193.63C253.12 195.625 241.568 197.203 230.021 198.458C229.917 195.839 229.693 193.318 229.391 191.005C229.391 190.693 228.865 190.589 228.865 190.901C228.12 196.464 227.292 202.974 228.12 208.542C228.234 209.172 229.172 209.063 229.286 208.542C229.812 206.333 230.021 203.922 230.125 201.401C241.359 200.141 252.49 198.568 263.516 196.464C274.224 194.469 286.609 193 296.583 188.38C296.693 188.068 296.583 187.646 296.271 187.646ZM470.979 481.938C473.182 480.047 475.281 477.422 475.599 474.38C475.703 473.75 474.755 473.328 474.229 473.854C472.344 475.849 470.87 478.052 468.771 479.63C467.615 480.469 466.453 481.099 465.099 481.625C464.047 482.042 463.208 482.151 462.682 483.302C462.37 483.828 462.578 484.458 463.104 484.771C465.516 486.349 469.193 483.406 470.979 481.938ZM370.604 494.12C375.432 497.057 382.891 497.688 387.51 493.802C388.349 493.068 387.401 491.911 386.458 492.125C381.208 493.38 377.208 493.906 372.391 491.177C370.385 490.021 368.714 492.859 370.604 494.12ZM428.13 310.594C427.193 310.802 426.776 311.745 426.672 312.589C426.557 313.219 427.078 313.531 427.604 313.635C427.823 313.953 428.245 314.161 428.656 314.161C429.177 314.161 429.927 313.74 430.031 313.109C430.135 312.484 430.135 312.063 430.031 311.432C429.703 310.802 428.875 310.38 428.13 310.594ZM429.703 300.302C428.771 300.302 428.036 301.667 428.875 302.297L428.979 302.401C429.401 302.823 430.031 302.823 430.448 302.401L430.557 302.297C431.281 301.563 430.661 300.302 429.703 300.302ZM469.719 306.391C467.094 304.083 463.208 303.135 460.151 301.141C456.594 298.833 453.328 296 450.505 292.849C450.083 292.323 449.13 293.057 449.557 293.583C451.87 297.047 454.599 300.094 457.958 302.615C460.896 304.818 465.203 308.073 469.078 307.969C469.823 308.073 470.453 307.021 469.719 306.391ZM416.172 296.943C416.484 296.313 415.646 295.891 415.333 296.417C412.38 300.724 409.755 305.13 405.88 308.599C401.578 312.484 396.109 314.792 390.766 316.786C389.396 317.313 390.026 319.516 391.38 318.99C402.406 314.583 410.807 307.755 416.172 296.943ZM428.453 331.38C426.776 330.854 424.979 330.854 423.312 330.438C423.203 330.328 422.995 330.328 422.88 330.328C422.786 330.328 422.682 330.224 422.578 330.224C420.474 329.385 418.797 328.021 417.104 326.448C416.578 325.922 415.531 326.656 415.964 327.286C417.219 329.073 419.323 330.958 421.734 332.219C417.745 342.51 414.177 352.906 410.5 363.193C407.245 372.224 401.995 382.198 404.833 391.958C405.25 393.536 407.562 392.906 407.354 391.224C405.464 380.833 411.026 369.599 414.177 359.938C417.104 350.906 420.255 341.88 422.995 332.745C424.885 333.479 426.776 333.693 428.562 333.167C429.297 332.849 429.297 331.589 428.453 331.38ZM280.208 250.01C272.125 251.375 263.932 250.854 255.943 251.901C255.323 252.005 255.323 253.057 255.943 253.161C263.932 254.844 273.068 254.526 281.047 252.953C282.937 252.635 282.099 249.698 280.208 250.01ZM251.125 143.13C252.594 145.859 256.687 147.12 259.417 148.172C259.62 148.276 259.839 147.854 259.62 147.75C258.266 146.911 256.901 146.177 255.531 145.333C254.167 144.495 253.12 143.339 251.859 142.396C251.333 142.078 250.917 142.708 251.125 143.13ZM249.026 136.094C249.026 135.464 249.12 134.833 249.339 134.313C249.646 134.625 249.969 134.729 250.391 134.943C250.693 135.151 250.917 135.255 251.333 135.255C251.542 135.255 251.651 134.943 251.651 134.833C251.542 134.521 251.333 134.313 251.021 134.099C250.693 133.891 250.495 133.578 250.167 133.365C250.807 132.948 251.745 132.422 252.385 132.734C252.792 132.948 253.224 132.526 253.016 132.104C252.385 130.953 250.286 131.792 249.547 132.318C248.396 133.156 247.542 134.729 247.766 136.307C247.87 137.042 249.026 136.828 249.026 136.094ZM35.2604 404.453C33.7916 403.927 31.5885 402.984 29.1718 401.094H17.6198L15.4218 411.068C25.1875 411.281 34.9427 411.49 44.6093 411.698C44.5 410.438 44.1875 408.656 42.927 407.292C41.2448 405.401 38.9375 405.714 35.2604 404.453ZM67.0729 403.823C65.6093 403.302 63.6093 402.562 61.1927 401.094H50.4843C50.3854 404.036 50.1666 407.078 50.0677 410.021C57.9427 410.125 65.7083 410.125 73.5833 410.229C73.901 409.177 74.1093 407.708 73.375 406.448C72.4323 404.875 70.3333 404.875 67.0729 403.823ZM489.458 483.828C487.042 482.255 484.521 482.464 483.776 482.568C478.745 495.375 475.281 501.573 473.276 501.151C472.448 500.943 471.922 499.682 471.703 497.37C469.719 501.365 467.828 504.406 466.453 506.505C464.88 508.922 463.828 510.182 463.828 512.073C463.943 514.802 466.255 516.901 467.724 518.057C475.901 507.557 483.995 497.161 492.177 486.661C491.651 485.927 490.927 484.771 489.458 483.828ZM384.781 505.036C385.932 508.714 387.182 512.281 388.349 515.958C376.484 519 364.609 522.047 352.755 525.089C352.651 523.724 352.651 521.943 353.49 520.156C355.161 516.167 359.687 513.75 365.042 513.646C366.187 514.068 367.349 514.276 368.286 514.38C377.01 515.115 383.729 506.505 384.781 505.036Z" fill="white"/>
</g>
<path d="M252.51 404.505L264.807 491.641C266.151 492.807 268.198 494.354 270.714 496.099C279.62 502 291.141 506.552 292.401 504.521C293.177 503.359 290.464 500.453 288.333 498.229C284.656 494.161 280.677 492.031 278.167 490.964C279.328 461.245 280.589 431.615 281.75 401.891C277.49 402.182 273.229 402.573 268.969 402.958C263.453 403.443 257.922 403.927 252.51 404.505ZM208.458 385.146C191.12 409.349 173.797 433.552 156.469 457.755C157.438 460.078 158.792 463.568 160.339 467.729C164.406 479.349 165.375 485.542 166.344 485.448C167.214 485.349 167.99 480.703 167.797 460.37C191.807 438.875 215.807 417.385 239.828 395.891C236.438 396.276 229.76 396.667 222.016 393.76C215.323 391.438 210.88 387.563 208.458 385.146ZM450.214 470.729C451.667 471.891 455.151 475.089 456.604 480.51C458.818 488.833 454.375 495.615 453.698 496.677C459.786 488.641 465.995 480.51 472.094 472.474L460.958 460.177L450.214 470.729ZM376.526 478.958C376.63 483.802 376.729 488.74 376.823 493.578C368.297 497.453 359.786 501.229 351.266 505.099C354.172 502.484 358.234 498.13 361.516 491.839C364.047 486.901 365.208 482.443 365.875 479.057L376.526 478.958Z" fill="#EFBF9E"/>
<path d="M111.734 39.8906L109.896 27.1094C105.536 26.5313 97.7917 26.0469 89.1771 29.2396C72.4271 35.4375 65.5521 50.349 64.099 53.5417C63.4219 53.7344 51.1302 57.125 50.2552 64.1927C49.4844 70.5833 58.5833 76.4896 65.0677 80.7448C67.4896 82.2969 70.6823 84.3333 75.1406 85.8802C86.0781 89.5573 96.0469 87.5261 101.083 85.9792C101.766 84.9115 102.536 83.3646 103.021 81.3281C103.99 77.2656 102.927 73.875 102.344 72.4219C105.536 61.5781 108.635 50.7344 111.734 39.8906ZM170.99 225.198L250.865 208.062L236.922 294.229V389.401H220.078C216.688 372.073 212.141 358.906 208.547 349.901C205.641 342.734 200.521 331.12 198.969 316.5C198.776 314.562 198.38 310.594 198.198 305.75C197.714 296.844 198.005 289.484 198.198 284.26L189 307.688L203.62 379.141C202.943 379.234 202.359 379.432 201.682 379.526C202.651 382.818 203.703 386.208 204.672 389.5C196.745 393.469 188.807 397.438 180.953 401.406C180.286 401.021 179.411 400.438 179.016 399.474C178.25 397.344 180.865 394.922 183.286 391.823C184.932 389.693 187.063 386.5 189 382.24C191.224 381.755 193.542 381.271 195.776 380.786C197.036 380.495 198.198 380.302 199.453 380.01C195.292 380.88 191.224 381.755 187.063 382.625C178.156 360.745 171.958 345.641 168.281 336.542C162.76 323.177 160.245 317.177 159.083 307.786C157.823 297.812 158.792 290.26 161.792 273.224C164.01 260.052 167.021 243.885 170.99 225.198Z" fill="#3A5471"/>
<path d="M61.0989 305.365C53.8385 304.594 47.5469 302.75 42.4166 300.818C43.1875 306.432 43.8646 312.047 44.6406 317.661C42.125 325.021 39.7031 333.635 38.151 343.417C34.9583 363.26 36.1198 380.401 38.151 392.984H48.901C51.2239 378.948 53.8385 367.719 55.776 359.969C58.875 347.771 61.1927 341.094 63.4219 328.891C65.2604 319.208 66.0364 311.177 66.5208 305.849C64.776 305.656 63.0364 305.557 61.0989 305.365ZM93.8229 299.557C87.2396 299.943 82.0104 301.688 78.6198 303.141C79.2969 307.688 80.0729 312.339 80.75 316.885C77.6562 325.021 74.5573 334.51 72.2344 345.255C68.2656 363.745 67.7812 380.109 68.3646 392.891H78.3281C83.7552 375.656 89.2708 362.198 93.4375 352.807C97.6927 343.224 101.859 334.896 104.469 322.214C106.214 313.307 106.505 305.755 106.505 300.62C103.411 299.943 99.0521 299.266 93.8229 299.557ZM91.1146 87.8177C95.0833 87.5261 98.5677 86.849 101.182 85.9792C102.734 86.6563 104.375 87.2396 105.922 87.9167C108.25 89.2709 111.349 91.4948 114.151 94.8855C120.839 103.214 120.443 112.505 121.031 127.901C121.323 135.745 121.896 147.068 123.349 160.917L152.875 106.792C156.75 96.5313 159.172 91.5938 160.135 91.7865C160.823 91.9792 160.823 94.5 160.135 99.4323C172.344 89.948 174.865 90.3334 175.542 91.0105C177.187 92.5625 173.693 100.016 168.667 104.859C164.312 109.021 159.375 110.667 156.37 111.344C156.37 111.344 140.203 158.594 130.422 180.474C120.646 202.354 111.734 188.12 111.734 188.12C88.401 188.604 64.9739 189.188 41.6406 189.672C42.9896 175.052 43.8646 163.625 44.3489 156.656C46.3802 127.802 46.4791 113.766 56.2604 99.823C58.3906 96.823 60.4219 94.5938 61.6771 93.3334C66.2291 90.8177 70.7812 88.3021 75.3333 85.7865C78.8125 87.0417 84.3385 88.2084 91.1146 87.8177Z" fill="#ECA97C"/>
<path d="M220.464 67.2917C223.177 64.6771 227.911 59.5469 230.437 51.5104C231.698 47.6354 233.052 43.0886 231.599 38.0521C229.177 29.724 220.078 24.8854 213.203 23.4323C205.943 21.9792 205.073 25.1771 189 26.9167C176.599 28.1771 171.089 27.4011 169.818 30.4011C169.151 32.0521 169.536 35.0521 176.026 41.25C179.5 42.9896 182.995 44.7344 186.479 46.5729L220.464 67.2917ZM314.667 381.464C313.021 383.302 311.474 384.948 309.922 386.401C300.922 395.021 292.594 398.797 286.688 400.635C279.521 402.859 278.167 401.604 252.51 404.505C234.115 406.542 233.922 407.313 229.844 406.443C217.078 403.734 215.323 395.698 201.49 392.984C193.646 391.531 192.193 393.661 183.094 392.984C174.38 392.406 164.406 389.599 153.562 382.625C162.073 362.781 172.927 340.896 186.87 318.146C189.182 314.37 191.604 310.495 194.13 306.625C197.229 301.88 200.422 297.135 203.812 292.391C213.104 279.224 222.5 267.318 231.698 256.568L280.88 255.021C291.432 294.328 301.974 333.635 312.443 372.943C313.109 375.75 313.896 378.656 314.667 381.464ZM395.026 295.005C389.411 302.073 383.698 310.208 378.464 319.693C360.068 352.807 356.193 385.146 355.708 406.057C358.333 429.969 360.849 453.885 363.453 477.896C364.531 478.573 366.078 479.349 368.109 479.833C373.339 480.995 377.599 478.672 378.859 477.896C384.271 444.979 389.594 412.156 395.026 379.24L403.839 415.74L446.823 471.406C448.172 471.313 452.828 470.922 456.797 467.146C459.505 464.63 460.573 461.724 461.057 460.276C458.927 453.979 455.245 444.203 449.052 433.068C441.208 419.031 437.432 417.193 435.693 409.542C432.786 396.469 440.047 386.594 449.536 369.073C455.344 358.229 462.693 341.865 467.531 319.307C463.281 308.948 459.12 298.688 454.859 288.328C447.307 291.135 436.948 294.135 424.365 295.396C412.745 296.651 402.667 296.073 395.026 295.005ZM67.6771 90.0417C65.4531 99.8229 65.9375 107.76 66.6146 112.797C67.4844 119.281 68.4531 125.672 73.4844 128.771C76.3906 130.516 79.8802 130.609 81.0364 130.708C81.5208 130.708 86.5573 130.802 90.4271 128.385C94.2083 125.964 95.7552 121.802 98.0781 108.438C99.1406 102.531 100.307 94.8854 101.276 86.0729C103.792 87.3334 106.307 88.5938 108.823 89.849C107.854 136.615 110.667 174.177 113.38 199.833C117.151 235.365 125.87 295.88 111.729 300.818C107.37 302.365 102.922 297.911 91.1094 300.042C87.3333 300.719 86.4635 301.396 75.7135 303.911C67.875 305.755 65.9375 305.948 63.8021 305.849C62.5469 305.849 61.0989 305.656 51.125 303.141C42.4114 300.911 42.5052 300.818 40.375 300.427C31.7604 299.073 27.401 301.495 25.3698 300.818C19.9479 298.974 21.0104 272.349 44.5416 173.693L61.4844 93.4323L67.6771 90.0417Z" fill="#F14947"/>
<path d="M184.448 97.7864C189.776 91.3958 195.474 86.6562 200.615 83.1666C207.974 83.0729 215.323 83.0729 222.786 83.0729C226.37 85.1041 233.052 89.5573 238.557 97.6875C244.37 106.307 245.823 114.635 246.219 118.797C248.641 148.135 251.057 177.375 253.479 206.708L239.245 214.359L219.682 250.083L203.521 243.208L215.526 221.328C198.292 222.875 180.953 224.427 163.729 225.974C162.469 196.156 164.313 171.271 166.432 153.073C169.734 124.703 174.177 110.276 184.448 97.7864Z" fill="#F6B33E"/>
<path d="M205.844 244.078C200.906 248.922 198.776 251.922 199.552 253.083C200.036 253.859 201.771 253.859 204.781 253.083C197.615 264.604 197.896 266.833 198.583 267.411C200.036 268.672 206.427 263.927 210.396 259.958C214.354 255.99 216.688 252.021 218.042 249.214C213.87 247.568 209.813 245.823 205.844 244.078ZM189 41.9271C187.354 44.3438 185.031 48.4115 184.344 53.8334C183.479 61.0938 185.516 72.1302 192.776 74.9375C195.583 76.0052 198.38 75.6198 200.422 74.9375V82.974C201.974 84.0417 205.359 86.1719 210.203 86.4636C216.594 86.9427 221.24 83.9427 222.693 82.974C222.786 78.6198 222.302 74.9375 221.724 72.4219C221.339 70.7761 220.948 69.0365 220.37 67.1927C219.495 64.3855 218.333 61.9688 217.26 59.9323C218.625 56.9323 217.745 53.448 215.323 51.5105C213.203 49.7657 210.203 49.4792 207.682 50.7344C207.094 49.3802 205.458 45.8907 201.583 43.474C195.958 39.9896 189.969 41.6355 189 41.9271ZM110.281 35.0521C111.25 37.9532 112.417 42.2188 112.995 47.3438C113.573 52.9636 115.026 67.099 107.859 71.2605C106.698 71.9375 104.667 72.7136 101.568 72.323C100.505 73.198 99.4375 74.0677 98.375 74.9375C98.9531 73.7761 99.5365 72.0313 99.8281 69.8073C100.214 66.1302 99.0521 63.224 98.375 61.8698C99.6302 60.8021 101.958 58.5782 103.411 54.9948C105.151 50.5417 104.667 46.6667 104.375 45.0209C105.151 44.6355 106.021 44.0573 106.891 43.1823C109.896 40.2813 110.188 36.4063 110.281 35.0521Z" fill="#ECA97C"/>
<path d="M245.151 156.75C237.505 154.719 231.698 148.714 230.146 141.161C228.5 132.839 232.266 124.219 239.729 119.672C232.568 120.349 226.458 115.891 225.49 110.474C224.521 104.469 229.953 99.625 233.536 97.6875C234.307 97.3073 240.797 93.9167 247.089 97.401C252.318 100.307 255.125 106.599 253.964 113.182C259.375 109.698 266.068 109.599 271.099 112.797C276.318 116.182 277.49 121.896 277.682 122.964C274.297 132.641 270.807 142.229 267.422 151.911L245.151 156.75ZM486.812 281.646C486.812 280.677 485.443 275.547 482.745 265.281C481.87 262.188 479.453 252.891 472.771 231.203C466.479 210.87 465.51 208.74 463.089 206.13C455.635 198.094 444.781 196.25 438.005 195.865C434.818 196.641 431.141 197.417 426.979 197.802C422.135 198.286 417.781 198.188 414.198 197.896C411.776 176.599 409.354 155.396 406.937 134.094C407.901 118.604 408.193 101.854 407.505 83.9427C407.13 74.3594 406.536 65.1615 405.677 56.2552C403.354 55.7708 400.448 55.2865 396.964 55.1875C393.286 55.1875 390.187 55.6719 387.766 56.2552C385.828 78.9115 384.667 103.599 384.667 129.932C384.755 160.818 386.505 189.281 389.312 215.13C390.38 232.948 389.51 247.37 388.25 257.635C386.896 269.057 385.443 274.479 389.026 278.646C392.219 282.323 398.026 283.292 425.328 279.708C437.339 278.161 447.307 276.417 454.766 275.062V266.057L464.25 281.453L432.979 343.609L442.177 349.516C446.234 344.87 451.76 338.479 458.057 330.828C484.391 298.974 487.099 289.776 486.807 281.646" fill="#3A5471"/>
<path d="M435.787 345.547C433.849 346.802 430.365 349.417 427.75 354.063C426.01 357.26 425.234 360.26 424.932 362.297C424.448 364.135 424.651 364.714 424.932 364.813C426.01 365.391 429.203 359.391 435.583 354.161C438.208 352.031 440.63 350.578 442.359 349.708C440.146 348.354 437.917 347 435.787 345.547ZM390.672 55.8646C388.443 53.448 385.443 49.7657 382.635 44.8282C379.427 39.2136 375.073 29.6303 376.922 28.2761C378.083 27.5 382.052 29.6303 395.026 43.6719C395.995 39.3125 396.854 37.0834 397.641 37.1823C398.901 37.2813 399.76 43.3803 400.354 55.4792C397.156 55.573 393.865 55.6719 390.672 55.8646Z" fill="#EFBF9E"/>
<mask id="mask2_353_3" style="mask-type:luminance" maskUnits="userSpaceOnUse" x="231" y="131" width="312" height="126">
<path d="M231 131.5H542.74V256.667H231V131.5Z" fill="white"/>
</mask>
<g mask="url(#mask2_353_3)">
<path d="M409.068 173.5C418.745 178.339 428.323 183.182 438.005 188.021C448.568 190.151 456.99 189.573 463.38 188.313C472.193 186.573 474.224 184.052 481.573 183.667C493.104 183.182 496.094 188.99 505.688 190.057C524.474 192.089 544.802 173.115 542.568 165.464C541.802 162.849 538.318 161.688 531.344 159.365C523.406 156.75 516.427 156.365 511.885 156.557C502.786 147.167 494.557 144.167 488.833 143.005C475.193 140.292 467.156 146.875 452.245 143.776C443.63 141.938 437.24 137.87 433.365 134.969C431.333 134.094 418.156 128.479 405.385 135.162C400.245 137.87 397.063 141.552 395.219 144.167L396.672 153.651L409.068 173.5ZM231.599 256.568C232.375 239.724 233.146 222.974 233.922 206.13C242.635 203.125 253.188 200.318 265.385 198.287C277.104 196.448 287.656 195.771 296.651 195.865C296.563 204.385 295.594 216.005 291.807 229.172C288.719 239.818 284.547 248.537 280.88 255.021L231.599 256.568Z" fill="#F6B33E"/>
</g>
<path d="M350.87 159.849C349.521 166.625 347.104 171.953 345.26 175.437C344.089 183.958 342.26 196.057 339.646 210.776C334.323 240.984 331.609 248.245 326.094 249.984C320.089 251.922 312.927 246.307 307.115 241.755C299.276 235.656 295.109 228.589 293.078 224.328C294.229 214.844 295.5 205.354 296.651 195.964L233.922 206.13L232.859 256.568C245.151 246.599 257.437 236.625 269.745 226.651C275.266 215.906 278.651 210.776 280.005 211.26C280.677 211.552 280.781 213.484 280.297 217.167C290.562 206.609 292.693 206.708 293.37 207.193C295.016 208.354 292.208 216.391 287.271 222.005C282.609 227.234 277.005 229.458 273.714 230.427C271.682 235.172 268.292 241.854 262.969 249.115C256.385 257.927 247.187 267.026 238.474 272.932C234.505 275.641 230.729 277.677 227.24 278.839C223.177 280.193 219.594 280.292 216.979 278.74C213.495 276.708 212.62 271.865 210.781 262.187C209.516 255.604 208.943 247.76 210.484 233.526C211.365 225.297 213.104 214.068 216.594 200.995C220.37 195.865 224.917 190.151 230.437 184.344C235.469 179.021 240.411 174.568 245.057 170.792C245.151 166.141 245.25 161.396 245.339 156.75L249.411 151.135C248.24 148.62 248.927 145.615 250.964 143.969C252.599 142.615 255.021 142.323 257.062 143.198C259.484 141.745 262.094 140 264.703 137.87C270.906 132.839 275.068 127.417 277.771 123.057C278.943 126.74 280.396 132.255 280.589 138.937C280.88 146.682 281.161 155.396 275.75 159.172C274.583 159.948 271.292 161.88 265 160.432C264.422 161.396 263.354 163.625 263.453 166.531C263.547 168.464 264.031 169.917 264.516 170.885C270.615 171.953 276.802 173.016 282.911 173.984C285.333 174.37 287.755 174.76 290.172 175.245C292.401 177.859 294.625 180.568 296.854 183.474C307.786 197.802 315.443 212.13 320.854 225.203C326.479 208.161 332.094 191.12 337.797 174.083C338.391 171.078 339.161 166.625 339.354 161.203C339.646 153.844 338.875 148.521 339.646 148.422C340.036 148.328 340.703 149.589 342.453 155.589C347.297 142.036 349.521 139.516 350.682 139.708C352.526 140 352.719 150.844 350.87 159.849ZM454.859 275.255C443.437 277.87 430.365 280 416.036 281.062C408.677 281.646 401.698 281.839 395.026 281.839C395.609 283.391 396.479 286.198 396.286 289.682C396.094 291.906 395.609 293.75 395.026 295.104C402.667 296.167 412.745 296.844 424.365 295.589C436.854 294.328 447.203 291.328 454.859 288.521C454.375 286.969 453.891 284.745 453.797 282.031C453.797 279.13 454.375 276.802 454.859 275.255ZM428.911 181.245C421.844 174.37 419.036 166.531 417.781 162.271C416.219 162.464 410.714 162.849 405.292 159.172C399.87 155.49 398.026 150.266 397.641 148.812C396.672 152.104 395.703 156.365 395.318 161.495C394.833 168.078 393.865 182.021 401.125 186.859C403.635 188.604 405.484 188.021 408.776 190.734C411.677 193.057 413.229 195.964 414.099 197.995C417.297 198.286 421.062 198.286 425.234 197.995C430.073 197.609 434.333 196.833 437.917 195.964V188.021C435.302 186.474 432.109 184.344 428.911 181.245Z" fill="#EFBF9E"/>
<path d="M272.552 265.187C268.682 265.187 265.583 268.38 265.583 272.255C265.583 276.125 268.682 279.224 272.552 279.224C276.427 279.224 279.521 276.125 279.521 272.255C279.521 268.38 276.427 265.187 272.552 265.187ZM258.031 375.365C254.156 375.365 251.057 378.464 251.057 382.333C251.057 386.208 254.156 389.401 258.031 389.401C261.901 389.401 265.099 386.208 265.099 382.333C265.099 378.464 261.901 375.365 258.031 375.365ZM180.672 372.458C176.802 372.458 173.693 375.656 173.693 379.526C173.693 383.401 176.802 386.5 180.672 386.5C184.547 386.5 187.729 383.401 187.729 379.526C187.729 375.656 184.547 372.458 180.672 372.458ZM272.552 306.24C268.682 306.24 265.583 309.333 265.583 313.208C265.583 317.083 268.682 320.276 272.552 320.276C276.427 320.276 279.521 317.083 279.521 313.208C279.521 309.333 276.427 306.24 272.552 306.24ZM312.443 372.943C311.656 372.656 310.797 372.458 309.922 372.458C306.052 372.458 302.943 375.656 302.943 379.526C302.943 383.401 306.052 386.5 309.922 386.5H310.021C311.568 384.948 313.214 383.302 314.766 381.562C313.896 378.656 313.109 375.75 312.443 372.943ZM227.047 337.896C223.177 337.896 219.979 340.995 219.979 344.87C219.979 348.74 223.068 351.937 227.047 351.937C230.922 351.937 234.021 348.74 234.021 344.87C234.021 340.995 230.922 337.896 227.047 337.896ZM194.13 306.625L186.87 318.146C188.125 319.406 189.87 320.276 191.901 320.276C195.776 320.276 198.969 317.083 198.969 313.208C198.776 310.109 196.839 307.594 194.13 306.625ZM406.453 95.3698C406.354 95.2708 406.255 95.177 406.161 95.177H406.052C405.969 95.177 405.969 95.2708 405.87 95.2708C405.089 94.8854 403.354 94.302 403.151 94.302C401.318 94.0156 399.479 93.8177 397.641 93.7239C393.865 93.4323 389.797 92.9479 386.12 93.9166C385.344 94.1093 385.24 95.4687 386.12 95.6614C391.25 96.5312 396.964 95.9479 402.182 96.2395C402.385 96.3385 407.13 97.1093 406.453 95.3698ZM407.615 88.2031C403.062 86.3645 398.708 85.2031 393.766 85.2031C391.833 85.2031 386.12 84.9114 385.052 86.9427C384.667 87.625 385.344 88.6875 386.12 88.3958H386.208C386.312 88.3958 386.312 88.3958 386.411 88.302C388.141 87.427 390.474 87.2343 392.703 87.2343C394.156 87.2343 395.609 87.3333 396.854 87.427C400.354 87.625 403.932 88.1093 407.323 89.1718C407.99 89.2656 408.193 88.3958 407.615 88.2031ZM405.969 78.5208C400.062 76.5885 392.703 77.651 386.797 79.0052C385.536 79.2968 386.021 81.2291 387.38 81.0364C393.573 79.875 399.87 80.2604 406.052 79.1979C406.255 79.1041 406.161 78.6197 405.969 78.5208ZM406.74 70.875C400.448 69.4218 394.156 69.2291 387.766 69.7135C386.312 69.8073 386.312 72.0312 387.766 71.9375C394.057 71.4531 400.354 71.6458 406.646 71.9375C407.13 71.9375 407.323 70.9687 406.74 70.875ZM405.677 64.0937C399.87 62.5468 393.38 61.3854 387.474 62.7395C386.505 62.9323 386.797 64.3854 387.661 64.3854C393.672 64.4843 399.385 63.901 405.484 64.8698C405.969 64.9687 406.255 64.1927 405.677 64.0937ZM405.969 55.6718C404.031 53.8333 400.729 53.7343 398.125 53.7343C394.641 53.6406 391.156 54.026 387.766 54.8958C385.443 55.4791 386.99 58.7708 388.734 58.0937C391.833 57.5104 394.922 56.9322 398.125 56.9322C400.641 56.9322 403.448 57.5104 405.677 56.5416C406.052 56.3489 406.255 55.9635 405.969 55.6718ZM462.797 323.667C457.766 321.339 453.12 317.854 448.469 314.755C447.406 314.078 446.339 315.823 447.406 316.5C450.406 318.339 453.312 320.276 456.312 322.021C458.25 323.182 460.188 324.536 462.604 324.437C462.995 324.536 463.177 323.859 462.797 323.667ZM458.333 330.25C454.182 326.859 450.104 323.276 445.953 319.891C444.885 318.922 443.24 320.568 444.297 321.437C448.469 325.021 452.922 328.214 457.667 331.12C458.151 331.411 458.818 330.635 458.333 330.25ZM454.375 335.089C452.526 333.057 450.505 331.12 448.469 329.182C446.823 327.635 445.177 325.599 443.047 324.828C442.469 324.63 442.078 325.312 442.276 325.797C443.328 327.922 445.953 329.568 447.792 331.12C449.729 332.766 451.76 334.411 453.797 335.865C454.281 336.156 454.667 335.474 454.375 335.089ZM450.505 339.833C449.245 338.38 447.307 337.411 445.661 336.349C443.812 335.187 441.875 334.026 439.943 332.958C438.974 332.474 438.208 333.828 439.078 334.411L444.885 337.604C446.63 338.573 448.276 339.927 450.104 340.51C450.589 340.51 450.792 340.125 450.505 339.833ZM446.823 343.318C443.146 341.479 439.37 339.932 435.495 338.38C434.615 337.995 434.24 339.542 435.099 339.833C438.885 341.187 442.562 342.641 446.234 344.286C446.922 344.578 447.5 343.609 446.823 343.318ZM442.276 349.031C441.5 347.771 439.943 346.901 438.693 346.224C437.24 345.349 435.583 344.771 434.24 343.802C432.677 342.641 431.042 345.349 432.677 346.516C434.047 347.385 435.786 348.062 437.339 348.74C438.693 349.323 440.339 350.193 441.792 350.094C442.177 349.901 442.562 349.417 442.276 349.031ZM454.083 273.51C449.536 274.87 445.469 276.516 440.823 277.286C435.01 278.255 429.104 278.839 423.203 279.323C417.974 279.807 412.833 280.099 407.615 280.193C403.255 280.292 398.51 279.615 394.542 281.354C394.25 281.453 394.25 282.031 394.542 282.224C398.708 284.26 404.031 283.583 408.583 283.583C414.391 283.484 420.198 283.193 426.01 282.708C435.583 281.937 447.016 281.547 455.344 276.224C456.604 275.448 455.729 273.031 454.083 273.51ZM437.24 195.672C429.776 196.057 422.62 199.255 415.068 196.932C414.099 196.641 413.615 197.995 414.391 198.578C420.005 202.547 432.01 201.286 437.917 198.286C439.177 197.609 438.594 195.573 437.24 195.672ZM402.484 196.057C400.932 198.286 399.385 200.417 397.823 202.547C396.286 204.677 394.349 206.708 393.089 208.937C392.604 209.807 393.766 210.677 394.437 210C398.224 206.516 401.031 201.094 403.547 196.641C403.932 195.964 402.87 195.38 402.484 196.057ZM455.536 264.896C452.344 252.115 450.891 239.24 448.859 226.266C448.76 225.781 447.891 225.88 447.984 226.365C448.469 233.526 449.141 240.693 449.729 247.854C450.307 253.859 450.698 260.344 453.797 265.573C454.375 266.542 455.828 265.964 455.536 264.896ZM238.375 272.932C234.406 275.641 230.63 277.677 227.146 278.839C227.339 282.516 230.328 285.516 234.115 285.516C237.99 285.516 241.089 282.422 241.089 278.547C241.089 276.224 240.01 274.193 238.375 272.932Z" fill="#F6B33E"/>
<mask id="mask3_353_3" style="mask-type:luminance" maskUnits="userSpaceOnUse" x="31" y="52" width="445" height="455">
<path d="M31.3906 52.6666H475.781V507H31.3906V52.6666Z" fill="white"/>
</mask>
<g mask="url(#mask3_353_3)">
<path d="M98.375 212.031C99.0521 211.354 98.0833 210.385 97.3073 210.969C96.1458 211.938 95.1823 213 94.3073 214.26C93.6302 215.323 92.6615 216.776 92.9531 218.036C93.0521 218.714 93.9219 218.812 94.4062 218.422C95.276 217.651 95.4687 216.198 96.0469 215.229C96.6302 214.068 97.4062 213 98.375 212.031ZM46.5781 216.682C47.2552 217.745 48.224 219.49 49.5781 219.391C50.1615 219.391 50.5469 219.005 50.5469 218.422C50.6458 217.167 49.2865 216.198 48.7083 215.229C47.9323 214.068 47.2552 212.906 46.7708 211.745C46.1875 210.484 44.1562 211.354 44.6406 212.615C45.125 213.969 45.7031 215.323 46.5781 216.682ZM36.5052 281.646C34.6667 283.391 32.5417 285.714 31.9583 288.328C31.6667 289.49 33.2187 290.26 33.9896 289.198C35.3437 287.167 36.2135 284.938 37.9583 283.099C38.8333 282.13 37.474 280.776 36.5052 281.646ZM71.4583 291.812C72.8125 290.651 73.3958 288.714 74.1719 287.167C75.0417 285.422 75.9115 283.583 76.7865 281.839C77.3646 280.776 75.7187 279.807 75.1406 280.87C74.1719 282.708 73.1042 284.552 72.0365 286.292C71.1667 287.844 70.0052 289.391 69.8125 291.135C69.7135 292.005 70.875 292.297 71.4583 291.812ZM103.99 274.677C103.411 273.417 101.281 274.286 101.766 275.641C102.927 279.031 103.99 282.807 105.729 286C106.505 287.453 108.927 286.484 108.443 284.839C107.474 281.354 105.536 277.87 103.99 274.677ZM82.1094 258.896C83.2708 257.828 83.8542 255.797 84.625 254.438C85.5 252.792 86.4635 251.245 87.526 249.698C88.1094 248.922 86.7552 247.854 86.1771 248.63C85.0156 250.182 83.8542 251.729 82.7865 253.375C81.9167 254.828 80.6562 256.568 80.6562 258.312C80.6562 259.089 81.526 259.375 82.1094 258.896ZM59.8437 263.833C59.4531 263.057 58.1979 263.635 58.3906 264.411C59.0677 266.833 59.4531 269.734 60.8073 271.865C61.5833 273.125 63.3229 272.255 63.1302 270.901C62.6458 268.38 61 266.057 59.8437 263.833ZM38.0573 264.995C39.5104 264.026 39.9948 262.188 40.7708 260.734C41.6406 258.896 42.6094 257.052 43.474 255.214C43.9583 254.344 42.6094 253.568 42.125 254.438C41.0573 256.182 39.9948 257.927 39.026 259.667C38.151 261.12 36.8958 262.573 36.8958 264.318C36.7969 264.896 37.474 265.38 38.0573 264.995ZM101.958 241.854C100.99 238.172 98.4688 234.786 96.4375 231.688C95.7552 230.719 94.4062 231.589 94.8906 232.557C96.5312 235.849 97.6927 239.625 99.6302 242.724C100.406 244.078 102.344 243.307 101.958 241.854ZM67.974 228.688C66.8125 230.719 65.5521 232.656 64.3906 234.688C63.3229 236.432 61.9687 238.271 61.4844 240.302C61.2917 241.177 62.3542 241.854 63.0365 241.177C64.4896 239.724 65.3594 237.594 66.3281 235.755C67.3958 233.719 68.4583 231.589 69.5208 229.557C70.0052 228.589 68.5573 227.719 67.974 228.688ZM99.0521 144.937C99.6302 146.099 100.021 147.552 101.182 148.229C101.667 148.521 102.443 148.229 102.536 147.651C102.828 146.297 101.958 145.036 101.281 143.875C100.505 142.521 99.6302 141.161 98.7604 139.906C97.9844 138.839 96.2396 139.807 96.9219 140.969C97.6927 142.323 98.375 143.583 99.0521 144.937ZM88.6927 192.672C87.526 194.411 86.276 196.156 84.9167 197.802C83.9479 199.062 82.4948 200.224 82.3021 201.771C82.2031 202.255 82.8854 202.641 83.2708 202.547C84.8229 202.062 85.8854 200.125 86.7552 198.865C88.0104 197.125 89.0781 195.38 90.2396 193.542C91.0156 192.573 89.3698 191.703 88.6927 192.672ZM55.776 194.318C56.6458 195.771 57.4219 197.609 59.0677 198.286C59.5521 198.479 60.1302 197.995 60.0365 197.51C59.9375 195.771 58.3906 194.318 57.5156 192.865C56.3542 191.12 55.2917 189.281 54.3229 187.344C53.7396 186.281 52.2865 187.25 52.7708 188.312C53.6406 190.349 54.6094 192.38 55.776 194.318ZM79.0104 170.792C80.5573 170.016 81.2344 167.786 82.2031 166.432C83.4635 164.687 84.9167 163.141 86.5625 161.687C87.2396 161.109 86.276 159.849 85.5937 160.432C83.8542 161.786 82.1094 163.24 80.6562 164.979C79.4948 166.333 77.5573 168.37 77.75 170.208C77.849 170.693 78.4271 171.078 79.0104 170.792ZM61.4844 147.167C62.6458 146.776 63.4219 145.714 64.099 144.745C64.974 143.682 65.7448 142.521 66.5208 141.354C67.1042 140.583 65.8437 139.615 65.1667 140.292C64.1979 141.26 63.2292 142.323 62.2604 143.391C61.4844 144.359 60.6146 145.229 60.4219 146.49C60.4219 146.875 61 147.26 61.4844 147.167ZM426.865 186.667C423.776 188.99 420 189.38 416.615 190.927C416.13 191.12 416.516 191.797 417 191.797C419.12 191.51 421.161 190.734 423.198 190.151C424.844 189.667 426.38 189.182 427.833 188.312C428.802 187.635 427.745 185.99 426.865 186.667ZM207.49 73.0052C209.812 72.8125 214.266 72.3281 215.234 69.6146C215.427 69.1302 214.75 68.6458 214.354 68.9375C213.297 69.7135 212.417 70.2969 211.068 70.6823C209.714 71.0677 208.453 71.4583 207.198 72.0364C206.807 72.2344 207.005 73.0052 207.49 73.0052ZM208.844 54.4167C210.297 54.0312 211.932 53.3542 213.198 54.5156C212.812 54.8073 212.62 55.2864 212.417 55.6771C212.229 56.1614 211.844 56.5469 211.552 56.9323C211.359 57.125 211.745 57.4167 211.932 57.3177C212.417 57.026 212.812 56.7396 213.198 56.3542C213.385 56.1614 213.682 55.9635 213.87 55.7708C214.073 56.6458 213.974 57.6094 213.87 58.4792C213.781 59.5469 215.62 59.6458 215.62 58.4792C215.62 56.6458 215.234 54.4167 213.49 53.4479C212.135 52.6719 209.51 52.4792 208.26 53.4479C207.875 53.9323 208.359 54.5156 208.844 54.4167ZM168.849 147.266C179.016 145.714 185.219 126.448 174.172 121.995C173.599 121.703 173.203 122.672 173.688 123.062C179.12 126.547 178.531 132.937 175.927 137.969C174.083 141.651 171.568 143.49 167.88 145.229C166.823 145.812 167.792 147.458 168.849 147.266ZM167.984 163.141C179.896 163.047 187.057 148.719 189.38 138.937C191.802 128.87 190.74 114.349 179.312 110.083C178.531 109.792 178.25 110.859 178.828 111.344C189.094 118.125 189.38 129.74 185.995 140.583C184.542 145.328 182.401 149.88 179.016 153.656C175.625 157.432 171.75 158.786 167.396 160.818C166.146 161.302 166.823 163.141 167.984 163.141ZM212.135 214.359C195.771 214.651 178.927 217.75 162.953 220.943C161.016 221.328 161.792 224.333 163.823 223.943C179.896 220.844 196.255 218.812 212.328 215.62C213.005 215.422 212.812 214.359 212.135 214.359ZM210.198 86.4635C214.557 86.3646 218.526 83.5573 222.688 83.651C223.547 83.651 224.141 82.3958 223.464 81.8177C221.234 79.8802 219.104 81.526 216.682 82.3021C211.359 84.1354 206.521 84.4271 201.281 82.0104C200.516 81.6198 199.547 82.5885 200.312 83.2656C202.938 85.6875 206.604 86.5573 210.198 86.4635ZM217.849 130.323C217.74 129.646 216.771 129.932 216.88 130.609C218.62 140.005 220.266 149.297 221.615 158.786C222.979 168.177 223.547 177.859 225.688 187.057C225.88 188.12 227.625 187.927 227.625 186.766C227.333 177.667 225.203 168.177 223.547 159.172C221.818 149.589 219.88 139.906 217.849 130.323ZM254.927 179.891C259.573 180.281 265.286 176.698 265.578 171.76C265.667 170.792 264.214 170.693 264.031 171.568C261.219 180.474 248.828 179.406 244.76 172.339C244.568 172.052 243.99 172.146 244.083 172.536C244.568 177.182 250.859 179.604 254.927 179.891ZM295.109 196.062C292.01 196.156 288.812 196.641 285.714 197.224C285.427 196.547 285.026 195.865 284.75 195.188C284.266 194.026 283.974 192.771 283.682 191.51C283.578 191.125 282.906 191.219 282.906 191.609C283.094 193.448 283.49 195.672 284.266 197.609C278.161 198.87 271.958 200.516 265.964 201.578C255.312 203.417 244.667 204.87 234.016 206.031C233.917 203.615 233.714 201.286 233.432 199.156C233.432 198.87 232.948 198.771 232.948 199.062C232.26 204.193 231.5 210.198 232.26 215.328C232.37 215.906 233.229 215.812 233.339 215.328C233.823 213.292 234.016 211.068 234.115 208.745C244.474 207.583 254.734 206.13 264.901 204.193C274.776 202.354 286.198 201 295.396 196.74C295.495 196.448 295.396 196.062 295.109 196.062ZM456.214 467.443C458.245 465.698 460.182 463.276 460.474 460.469C460.568 459.891 459.698 459.5 459.214 459.984C457.469 461.823 456.115 463.859 454.177 465.312C453.115 466.083 452.036 466.667 450.792 467.151C449.823 467.536 449.047 467.635 448.562 468.698C448.271 469.182 448.469 469.766 448.948 470.052C451.177 471.505 454.568 468.797 456.214 467.443ZM363.656 478.672C368.109 481.38 374.979 481.964 379.24 478.38C380.016 477.703 379.146 476.641 378.276 476.833C373.432 477.995 369.745 478.479 365.302 475.958C363.453 474.896 361.911 477.51 363.656 478.672ZM416.698 309.432C415.839 309.63 415.453 310.5 415.354 311.276C415.25 311.854 415.734 312.146 416.219 312.24C416.422 312.531 416.807 312.724 417.182 312.724C417.667 312.724 418.354 312.339 418.453 311.755C418.552 311.177 418.552 310.792 418.453 310.208C418.151 309.63 417.385 309.24 416.698 309.432ZM418.151 299.948C417.292 299.948 416.615 301.203 417.385 301.786L417.484 301.88C417.87 302.271 418.453 302.271 418.839 301.88L418.938 301.786C419.604 301.109 419.031 299.948 418.151 299.948ZM455.052 305.562C452.63 303.432 449.047 302.563 446.229 300.719C442.948 298.589 439.938 295.974 437.333 293.073C436.943 292.589 436.062 293.266 436.458 293.75C438.589 296.943 441.109 299.75 444.208 302.078C446.917 304.109 450.885 307.109 454.458 307.016C455.146 307.109 455.729 306.141 455.052 305.562ZM405.672 296.849C405.964 296.266 405.188 295.88 404.896 296.365C402.177 300.333 399.755 304.401 396.182 307.594C392.214 311.177 387.172 313.307 382.245 315.146C380.984 315.63 381.568 317.661 382.812 317.177C392.979 313.115 400.724 306.818 405.672 296.849ZM417 328.604C415.453 328.12 413.797 328.12 412.255 327.734C412.161 327.635 411.964 327.635 411.859 327.635C411.771 327.635 411.677 327.536 411.578 327.536C409.641 326.766 408.094 325.505 406.536 324.052C406.052 323.568 405.083 324.245 405.479 324.828C406.641 326.474 408.578 328.219 410.802 329.38C407.125 338.865 403.833 348.453 400.443 357.938C397.443 366.266 392.604 375.464 395.219 384.469C395.604 385.922 397.734 385.339 397.542 383.792C395.797 374.203 400.927 363.844 403.833 354.938C406.536 346.609 409.438 338.286 411.964 329.865C413.708 330.542 415.453 330.734 417.099 330.25C417.776 329.958 417.776 328.797 417 328.604ZM280.292 253.568C272.839 254.828 265.286 254.344 257.922 255.312C257.349 255.411 257.349 256.38 257.922 256.474C265.286 258.026 273.708 257.734 281.068 256.281C282.813 255.99 282.036 253.281 280.292 253.568ZM253.474 155.01C254.833 157.526 258.609 158.687 261.125 159.656C261.307 159.755 261.51 159.365 261.307 159.271C260.057 158.495 258.802 157.818 257.542 157.042C256.281 156.271 255.312 155.203 254.151 154.333C253.667 154.042 253.281 154.625 253.474 155.01ZM251.542 148.521C251.542 147.943 251.625 147.359 251.828 146.875C252.109 147.167 252.411 147.266 252.797 147.458C253.078 147.651 253.281 147.75 253.667 147.75C253.865 147.75 253.958 147.458 253.958 147.359C253.865 147.073 253.667 146.875 253.38 146.682C253.078 146.49 252.896 146.198 252.594 146.005C253.188 145.62 254.047 145.135 254.635 145.427C255.016 145.62 255.411 145.229 255.219 144.844C254.635 143.781 252.703 144.552 252.021 145.036C250.958 145.812 250.172 147.266 250.375 148.719C250.474 149.396 251.542 149.203 251.542 148.521ZM54.4167 395.99C53.0625 395.505 51.0312 394.635 48.8021 392.891H38.151L36.1198 402.089C45.125 402.281 54.125 402.474 63.0365 402.672C62.9375 401.505 62.6458 399.859 61.4896 398.604C59.9375 396.859 57.8073 397.151 54.4167 395.99ZM83.7552 395.406C82.401 394.922 80.5573 394.245 78.3333 392.891H68.4583C68.3646 395.604 68.1667 398.411 68.0729 401.12C75.3333 401.219 82.4948 401.219 89.7552 401.312C90.0469 400.344 90.2396 398.99 89.5625 397.828C88.6927 396.375 86.7604 396.375 83.7552 395.406ZM473.25 469.182C471.026 467.729 468.703 467.927 468.016 468.021C463.375 479.833 460.182 485.547 458.333 485.156C457.568 484.964 457.083 483.802 456.88 481.672C455.052 485.354 453.307 488.161 452.042 490.094C450.589 492.323 449.62 493.484 449.62 495.229C449.724 497.745 451.854 499.682 453.214 500.745C460.755 491.062 468.219 481.479 475.76 471.797C475.276 471.12 474.609 470.052 473.25 469.182ZM376.724 488.74C377.792 492.13 378.943 495.422 380.016 498.807C369.078 501.615 358.125 504.427 347.198 507.234C347.099 505.974 347.099 504.328 347.875 502.682C349.411 499.005 353.589 496.776 358.526 496.677C359.578 497.068 360.656 497.26 361.516 497.359C369.562 498.036 375.755 490.094 376.724 488.74Z" fill="#3A5471"/>
</g>
</svg>
