<svg width="600" height="600" viewBox="0 0 600 600" fill="none" xmlns="http://www.w3.org/2000/svg">
<mask id="mask0_206_356" style="mask-type:luminance" maskUnits="userSpaceOnUse" x="302" y="12" width="68" height="182">
<path d="M302.667 12.302H369.334V193.333H302.667V12.302Z" fill="white"/>
</mask>
<g mask="url(#mask0_206_356)">
<path d="M345.182 77.13C333.589 58.2811 321.688 17.0571 320.011 14.6977C318.328 12.3384 314.688 12.4425 312.458 14.6977C302.255 25.104 301.583 48.8279 308.083 72.6456C310.115 80.1456 312.792 87.4113 316.115 94.4373C320.188 103.703 338.386 142.844 329.297 184.234L367.958 193.323C373.026 138.562 357.734 97.5311 345.182 77.13Z" fill="#FF6671"/>
</g>
<path d="M353.812 151.411C353.812 151.411 284.948 200.068 263.906 194.255C255.432 202.719 240.067 325.651 240.067 325.651L309.026 320.854L403.729 264.307C403.729 264.307 373.411 156.625 353.812 151.411Z" fill="#FF6671"/>
<path d="M405.214 242.745C418.511 214.453 408.813 194.208 396.115 182.401C396.136 181.188 396.026 179.99 395.792 178.802C391 138.469 344.87 128.938 328.594 131.646C316.521 133.646 305.24 135.708 294.907 142.255C291.865 144.182 288.365 146.62 284.74 149.182C289.464 135.912 295.193 123.495 301.526 115.896C306.151 110.354 312.203 98.9584 312.183 89.3178C312.183 69.5886 307.276 57.8542 301.261 50.9584C300.782 50.4115 300.198 50.0261 299.511 49.7917C298.823 49.5573 298.12 49.5105 297.412 49.6563C296.698 49.7969 296.068 50.1094 295.521 50.5886C294.979 51.0678 294.589 51.6511 294.354 52.3386C291.25 61.6303 287.427 79.1511 275.177 95.6355C273.125 98.4792 271.547 101.568 270.453 104.901C264.818 121.276 247.88 139.667 230.75 162.766C197.021 208.234 195.032 245.479 186.11 268.589C169.594 311.349 196.453 348.161 213.443 361.62C215.193 362.995 216.349 364.76 216.917 366.906C235.547 436.771 231.302 506.823 226.354 564.448C226.318 564.844 226.349 565.24 226.443 565.625C226.542 566.016 226.698 566.375 226.917 566.708C227.13 567.047 227.396 567.339 227.714 567.583C228.026 567.828 228.37 568.021 228.75 568.151C287.271 587.76 326.948 572.766 361.698 542.979C362 542.719 362.245 542.417 362.443 542.078C362.646 541.74 362.782 541.375 362.865 540.984C362.943 540.599 362.959 540.208 362.907 539.818C362.86 539.427 362.75 539.052 362.573 538.698C341.537 495.339 321.349 444.646 313.896 388.141C313.36 384.25 313.938 380.542 315.636 377C322.839 362.234 339.979 350.224 356.761 334.042C391.417 307.344 406.714 272.401 405.563 246.833C405.526 245.464 405.396 244.135 405.214 242.745ZM374.323 257.479C355.047 280.458 312.589 280.672 286.505 273.063C278.115 270.661 268.677 272.75 259.823 279.484C259.714 278.286 259.651 277.245 259.641 276.26C276.672 229.75 278.844 247.729 272 198.234C272.657 193.823 273.776 188.141 275.25 181.802C282.511 181.646 291.323 179.151 300.422 172.537C316.448 160.943 333.037 155.75 351.5 167.896C337.115 168.641 324.323 175.089 306.907 192.073C292.62 205.969 270.943 235.516 281.735 238.573C286.808 239.776 291.828 239.573 296.792 237.964C295.589 240.849 297.714 246.906 307.828 248.401C314.818 249.432 315.766 251.422 347.641 240.01C353.011 238.083 368.151 236.224 373.386 249.135C374.505 251.823 374.813 254.604 374.323 257.479ZM350 206.135C343.875 208.724 337.87 212.344 332.547 215.099C328.532 217.245 324.657 219.615 320.922 222.224C325.37 218.396 330.162 215.063 335.302 212.234C339.766 209.156 344.667 207.12 350 206.135Z" fill="#FF8089"/>
<path d="M289.37 243.078C286.214 243.109 283.209 242.453 280.354 241.115C279.922 240.911 279.547 240.63 279.229 240.276C278.906 239.922 278.667 239.521 278.505 239.068C278.344 238.62 278.276 238.156 278.302 237.677C278.328 237.203 278.443 236.75 278.646 236.318C278.854 235.885 279.13 235.51 279.49 235.187C279.844 234.87 280.245 234.63 280.693 234.469C281.146 234.312 281.61 234.245 282.084 234.271C282.563 234.297 283.016 234.411 283.448 234.615C284.985 235.292 286.594 235.703 288.266 235.854C289.943 236 291.594 235.88 293.229 235.49C297.063 234.682 300.516 233.057 303.589 230.625L307.927 227.208C326.578 212.5 349.787 194.198 376.542 204.203C376.995 204.37 377.396 204.609 377.75 204.937C378.104 205.26 378.386 205.641 378.589 206.078C378.792 206.516 378.901 206.974 378.917 207.453C378.938 207.932 378.86 208.396 378.693 208.849C378.526 209.297 378.276 209.698 377.948 210.052C377.62 210.401 377.235 210.672 376.797 210.87C376.36 211.068 375.896 211.172 375.417 211.182C374.938 211.198 374.474 211.115 374.021 210.943C351.068 202.349 330.511 218.552 312.375 232.854C310.896 234.031 309.438 235.177 307.995 236.297C304.026 239.427 299.568 241.516 294.62 242.552C292.886 242.896 291.136 243.073 289.37 243.078Z" fill="#3A5471"/>
<path d="M404.063 243.63C403.589 243.63 403.13 243.542 402.688 243.359C402.245 243.177 401.86 242.917 401.521 242.578C401.183 242.24 400.922 241.854 400.74 241.411C400.558 240.969 400.469 240.51 400.469 240.036C400.516 237.839 400.313 235.667 399.844 233.521C399.38 231.375 398.672 229.313 397.724 227.333C396.771 225.354 395.599 223.51 394.214 221.813C392.823 220.109 391.255 218.589 389.511 217.26C389.141 216.958 388.839 216.604 388.61 216.188C388.38 215.766 388.24 215.323 388.188 214.849C388.136 214.375 388.172 213.906 388.308 213.448C388.438 212.99 388.657 212.578 388.953 212.203C389.25 211.833 389.61 211.531 390.026 211.302C390.443 211.073 390.891 210.927 391.365 210.875C391.834 210.823 392.302 210.859 392.761 210.995C393.219 211.125 393.636 211.339 394.005 211.635C396.167 213.307 398.104 215.208 399.823 217.333C401.542 219.453 402.995 221.745 404.177 224.208C405.365 226.667 406.25 229.234 406.839 231.901C407.427 234.568 407.698 237.266 407.662 240C407.667 240.479 407.578 240.943 407.396 241.385C407.214 241.833 406.959 242.224 406.62 242.568C406.282 242.906 405.891 243.172 405.448 243.354C405.005 243.536 404.542 243.63 404.063 243.63Z" fill="#3A5471"/>
<path d="M282.058 229.484C281.766 229.484 281.479 229.453 281.193 229.391C280.729 229.276 280.308 229.078 279.927 228.792C279.542 228.511 279.229 228.167 278.979 227.761C278.735 227.349 278.578 226.912 278.505 226.438C278.433 225.969 278.453 225.5 278.568 225.037C282.563 208.761 307.339 178.287 337.089 167.682C358.526 159.995 379.683 163.292 398.287 177.188C398.672 177.474 398.985 177.828 399.229 178.245C399.474 178.656 399.63 179.104 399.698 179.578C399.766 180.057 399.735 180.526 399.615 180.995C399.495 181.458 399.292 181.886 399.005 182.271C398.714 182.656 398.365 182.969 397.948 183.214C397.537 183.458 397.089 183.615 396.615 183.682C396.136 183.755 395.667 183.729 395.198 183.609C394.735 183.49 394.308 183.287 393.922 183C377.141 170.438 358.787 167.573 339.464 174.49C310.297 184.943 288.516 214.526 285.521 226.802C285.422 227.182 285.261 227.542 285.042 227.87C284.823 228.203 284.558 228.49 284.245 228.734C283.933 228.974 283.589 229.162 283.214 229.292C282.839 229.422 282.453 229.484 282.058 229.484Z" fill="#3A5471"/>
<path d="M359.578 272.151C359.156 272.146 358.75 272.073 358.354 271.922C357.959 271.776 357.599 271.568 357.276 271.292C356.959 271.021 356.693 270.703 356.485 270.333C356.276 269.969 356.136 269.578 356.063 269.162C355.99 268.745 355.995 268.333 356.068 267.917C356.141 267.5 356.287 267.11 356.495 266.745C356.709 266.38 356.974 266.063 357.302 265.792C357.625 265.526 357.985 265.318 358.38 265.172C365.011 262.776 369.167 259.094 370.094 254.818C370.823 251.375 369.443 247.625 366.412 244.641C361.688 240.057 352.375 243.068 341.599 246.531C326.891 251.328 308.599 257.177 294.917 243.677C294.599 243.339 294.354 242.953 294.183 242.521C294.011 242.089 293.933 241.636 293.938 241.172C293.938 240.703 294.031 240.255 294.209 239.828C294.391 239.396 294.641 239.016 294.969 238.682C295.297 238.349 295.677 238.094 296.104 237.906C296.531 237.724 296.979 237.625 297.443 237.615C297.912 237.599 298.36 237.677 298.797 237.839C299.235 238.005 299.625 238.245 299.964 238.563C310.537 248.99 325.214 244.266 339.391 239.688C351.834 235.682 363.584 231.896 371.412 239.474C376.203 244.146 378.375 250.438 377.115 256.328C375.667 263.125 369.922 268.672 360.813 271.912C360.417 272.068 360.005 272.146 359.578 272.151Z" fill="#3A5471"/>
<path d="M270.453 186.885C264.984 186.885 259.391 185.062 253.333 180.302C253 180.031 252.687 179.734 252.406 179.406C252.13 179.078 251.88 178.724 251.667 178.349C251.453 177.974 251.276 177.583 251.135 177.177C250.995 176.766 250.891 176.349 250.828 175.922C250.766 175.495 250.745 175.068 250.766 174.635C250.786 174.203 250.844 173.776 250.943 173.354C251.042 172.937 251.182 172.531 251.359 172.135C251.536 171.739 251.745 171.364 251.995 171.01C254.578 167.38 257.417 163.963 260.505 160.75C263.594 157.536 266.901 154.568 270.427 151.838C273.953 149.114 277.661 146.661 281.547 144.479C285.432 142.302 289.458 140.417 293.625 138.828C294.062 138.677 294.516 138.62 294.979 138.646C295.443 138.672 295.885 138.786 296.302 138.984C296.724 139.182 297.094 139.448 297.406 139.792C297.724 140.13 297.964 140.516 298.13 140.953C298.297 141.385 298.375 141.833 298.365 142.297C298.359 142.76 298.26 143.208 298.083 143.635C297.901 144.062 297.646 144.443 297.318 144.771C296.995 145.099 296.615 145.354 296.188 145.542C288.542 148.453 281.474 152.406 274.99 157.396C268.505 162.385 262.87 168.203 258.094 174.849C269.156 183.37 277.849 179.057 290.953 172.557C305.885 165.161 326.339 155.021 358.766 162.562C359.229 162.672 359.656 162.864 360.042 163.141C360.432 163.417 360.75 163.76 361 164.167C361.255 164.568 361.422 165.01 361.5 165.479C361.578 165.948 361.562 166.417 361.453 166.88C361.344 167.349 361.151 167.771 360.875 168.161C360.599 168.552 360.255 168.87 359.849 169.12C359.443 169.375 359.005 169.542 358.536 169.62C358.068 169.698 357.599 169.682 357.135 169.573C327.224 162.609 308.885 171.698 294.151 179.005C285.906 183.12 278.328 186.885 270.453 186.885Z" fill="#3A5471"/>
<path d="M263.609 266C262.807 265.995 262.088 265.75 261.453 265.271C261.068 264.979 260.76 264.63 260.516 264.224C260.276 263.813 260.12 263.37 260.057 262.896C259.989 262.427 260.016 261.958 260.135 261.495C260.255 261.037 260.458 260.615 260.745 260.234C260.937 259.969 280.63 233.037 268.609 199.448C268.422 198.99 268.333 198.516 268.344 198.026C268.349 197.537 268.458 197.068 268.656 196.62C268.859 196.167 269.141 195.776 269.5 195.448C269.864 195.115 270.276 194.865 270.739 194.698C271.203 194.537 271.677 194.469 272.167 194.5C272.656 194.531 273.125 194.662 273.562 194.88C274 195.104 274.375 195.401 274.693 195.776C275.01 196.156 275.239 196.578 275.38 197.047C288.734 234.375 267.396 263.375 266.484 264.583C266.141 265.031 265.719 265.38 265.213 265.63C264.708 265.88 264.172 266 263.609 266Z" fill="#3A5471"/>
<path d="M244.599 303.016C243.953 303.016 243.354 302.859 242.797 302.537C242.385 302.297 242.036 301.99 241.745 301.609C241.458 301.229 241.25 300.813 241.125 300.349C241.005 299.891 240.974 299.422 241.036 298.948C241.099 298.479 241.25 298.037 241.489 297.62C262.411 261.495 282.25 266.453 301.427 271.167C314.781 274.474 328.594 277.891 344.583 268.302C344.989 268.052 345.432 267.885 345.906 267.813C346.38 267.734 346.849 267.755 347.318 267.865C347.781 267.974 348.208 268.172 348.599 268.453C348.984 268.734 349.307 269.078 349.557 269.49C349.807 269.896 349.974 270.339 350.047 270.813C350.125 271.287 350.104 271.755 349.995 272.219C349.885 272.688 349.687 273.115 349.406 273.505C349.125 273.891 348.781 274.214 348.37 274.464C329.849 285.589 313.885 281.656 299.797 278.141C280.896 273.469 265.969 269.75 247.76 301.219C247.437 301.781 246.989 302.224 246.422 302.547C245.854 302.87 245.25 303.026 244.599 303.016Z" fill="#3A5471"/>
<path d="M282.573 380.792C276.334 380.813 270.339 379.615 264.594 377.193C261.209 375.714 258.026 373.88 255.047 371.698C252.073 369.51 249.37 367.021 246.948 364.234C244.521 361.448 242.438 358.427 240.683 355.177C238.933 351.922 237.558 348.516 236.563 344.958C236.427 344.49 236.386 344.016 236.443 343.526C236.495 343.042 236.646 342.589 236.886 342.162C237.13 341.74 237.443 341.375 237.834 341.078C238.219 340.781 238.651 340.573 239.125 340.453C239.599 340.333 240.078 340.313 240.563 340.385C241.042 340.458 241.495 340.625 241.907 340.88C242.323 341.141 242.672 341.469 242.953 341.87C243.235 342.271 243.427 342.708 243.532 343.188C244.396 346.203 245.584 349.089 247.084 351.844C248.584 354.599 250.365 357.156 252.427 359.526C254.485 361.891 256.782 364.005 259.308 365.865C261.828 367.729 264.526 369.292 267.396 370.563C280.068 375.938 294.969 374.162 310.433 365.276C310.844 365.042 311.287 364.891 311.761 364.828C312.235 364.766 312.703 364.797 313.167 364.922C313.625 365.047 314.047 365.255 314.427 365.547C314.802 365.839 315.115 366.188 315.349 366.604C315.589 367.016 315.74 367.464 315.802 367.938C315.865 368.406 315.834 368.875 315.709 369.339C315.584 369.797 315.375 370.219 315.084 370.599C314.792 370.979 314.443 371.287 314.026 371.526C301.896 378.391 291.349 380.792 282.573 380.792Z" fill="#3A5471"/>
</svg>
