<svg width="600" height="600" viewBox="0 0 600 600" fill="none" xmlns="http://www.w3.org/2000/svg">
<g clip-path="url(#clip0_14_853)">
<path d="M552.011 373.677L528.74 390.083L542.146 408.307L561.88 386.01L589.125 394.37C580.761 384.188 572.287 374.109 563.917 363.922C559.844 367.245 555.875 370.464 552.011 373.677ZM432.208 538.141C432.636 526.99 433.063 515.844 433.599 504.797L411.396 503.724L414.938 538.25L384.474 557.87L431.672 556.151C431.886 550.042 432.099 544.146 432.208 538.141ZM214.261 301.099C213.078 338.943 211.896 376.786 210.719 414.74C208.896 451.729 207.177 488.823 205.354 525.813H186.266L175.432 447.979L165.24 358.349L160.63 358.026L105.5 525.703C98.7397 523.99 92.0887 522.167 85.3335 520.453C87.4793 497.51 90.2658 473.495 93.9116 448.62C97.4533 424.177 101.531 400.698 105.927 378.396C111.396 353.203 116.87 328.005 122.229 302.813C153.016 302.276 183.688 301.635 214.261 301.099Z" fill="#446DB8"/>
<path d="M393.917 269.469C391.984 305.281 391.661 345.161 394.13 388.474C396.703 433.286 401.854 474.245 408.073 510.589C410.755 511.979 416.547 514.661 424.375 514.552C431.672 514.448 437.031 511.979 439.713 510.589C441.109 479.604 441.646 447.333 441.213 413.667C441 395.766 440.463 378.292 439.713 361.245C446.687 379.042 453.333 394.047 458.911 405.948C470.604 431.146 476.182 439.828 485.729 442.297C491.734 443.797 496.776 442.188 504.068 439.828C512.219 437.146 527.453 430.5 542.146 413.349C542.25 410.99 542.25 403.161 536.677 396.302C533.995 392.979 530.885 391.047 528.739 389.974C525.734 390.297 521.979 390.943 517.906 392.333C510.292 395.016 505.14 399.302 502.031 402.198C498.708 385.365 494.63 367.677 489.588 349.234C481.974 321.359 473.39 295.844 464.489 272.792C441 271.828 417.406 270.651 393.917 269.469ZM286.12 70.8073C282.583 68.0208 279.151 65.125 275.609 62.3333L254.588 88.2812L247.187 97.5L235.385 112.083L195.807 146.927L191.521 150.677L183.906 152.823L175.646 155.292C174.25 156.896 171.354 159.578 166.849 161.292C160.521 163.651 154.943 162.365 152.906 161.828L117.297 175.339L104.854 190.667L95.4165 202.464L79.755 221.87L53.2655 202.786L42.7498 195.172L39.5363 198.708L29.5571 209.755C39.8592 224.443 49.4009 235.807 56.9113 244.167C67.9582 256.391 72.7863 260.036 79.005 260.677C85.979 261.427 92.0884 258.104 99.0623 253.604C100.349 252.745 101.745 251.885 103.14 250.922C106.036 248.99 108.609 246.953 110.969 245.026C115.583 241.167 119.015 237.411 121.479 234.625L119.87 303.135L126.63 303.026L137.89 302.812L217.797 301.203L215.437 255.318L214.687 240.203L212.219 191.422C216.401 187.453 220.37 183.594 224.125 180.057C227.771 176.516 231.203 173.089 234.422 169.87C238.068 166.224 241.396 162.797 244.396 159.792C259.521 144.354 262.63 140.172 265.526 135.135C270.463 126.557 271.318 121.302 277.864 101.151C279.687 95.4687 281.401 90.4271 283.01 85.8177C284.833 80.4583 286.552 75.8437 287.838 72.4166C287.302 71.7708 286.656 71.3437 286.12 70.8073ZM414.937 121.521C408.396 113.156 408.182 102.437 413.542 96.3229C417.724 91.5 424.052 90.9635 425.88 90.8541C428.667 81.0989 437.781 74.6666 447.114 75.526C454.943 76.2708 461.807 81.8489 464.385 89.8906C466.099 90.6406 469.958 92.4635 472.64 96.6406C477.578 104.146 474.573 112.62 474.25 113.693C478.114 112.943 481.974 114.016 484.12 116.693C487.338 120.552 486.802 127.63 481.651 132.021C486.156 131.703 490.448 133.849 492.484 137.495C495.167 142.104 493.88 148.641 489.052 152.286C471.568 163.865 454.193 175.339 436.708 186.917L430.167 134.49L414.937 121.521Z" fill="#F9E1C7"/>
<path d="M430.812 164.401L420.406 162.688C412.364 154.969 401.635 142.854 392.734 125.911C386.193 113.37 382.547 101.792 380.401 92.6771C378.146 92.5729 373.75 92.5729 369.031 94.8229C361.844 98.1459 358.625 104.26 357.661 106.188C358.198 118.943 360.448 137.495 368.172 158.401C375.896 179.411 386.302 194.958 394.234 205.146C393.161 213.182 391.338 225.406 387.802 240.203C385.01 252.104 383.51 255.745 385.333 260.464C390.265 273.01 411.291 275.365 424.375 276.76C435.745 278.047 461.594 280.833 469.318 268.078C470.39 266.255 470.927 264.646 471.786 251.995C472.64 240.521 473.073 230.979 473.286 224.333C490.338 211.578 503.745 199.781 513.401 190.672C527.344 177.589 532.812 170.729 535.708 166.979C544.828 154.969 550.51 143.714 554.052 135.563C553.729 133.417 552.979 129.24 550.083 124.953C546.651 119.911 542.25 117.448 540.213 116.589C531.849 126.344 518.547 139.531 499.672 151.219C482.078 162.047 465.672 167.833 453.656 171.052C451.729 171.589 447.114 172.656 441.432 171.052C435.531 169.333 432.099 165.906 430.812 164.401ZM147.974 131.276C146.578 130.313 139.5 125.38 137.89 115.729C136.495 108.01 139.5 102.005 140.573 100.292C136.068 94.7188 136.495 87.5313 140.25 84.099C143.682 80.9948 148.833 81.9584 149.474 82.1719C150.547 76.2761 155.161 72.2031 159.984 72.3073C164.812 72.3073 167.818 76.3854 168.245 76.9219C172.427 73.7031 178.005 73.2761 182.187 75.849C187.015 78.7396 187.656 84.2084 187.765 84.849C189.588 85.4948 194.094 87.4271 196.666 92.1406C200.099 98.5729 198.276 107.474 191.734 113.906C177.041 119.589 162.453 125.49 147.974 131.276Z" fill="#3CA27A"/>
<path d="M421.589 105.005C420.729 106.828 419.443 109.51 418.26 112.833C417.083 116.161 411.182 135.672 418.37 147.141C420.083 149.932 422.125 151.646 423.302 152.505C425.771 154.432 428.344 156.365 430.813 158.401V164.297C432.099 165.797 435.641 169.229 441.323 170.839C446.901 172.443 451.62 171.37 453.552 170.839C452.797 167.083 452.156 162.474 452.266 157.005C452.37 152.286 452.906 148.214 453.552 144.786C456.552 144.25 458.807 141.568 458.807 138.568C458.807 135.562 456.552 132.776 453.552 132.349C452.37 130.526 451.083 128.057 450.224 124.734C448.401 117.234 450.656 111.016 451.729 108.547C452.906 105.651 452.156 102.437 450.01 100.719C447.438 98.5729 443.146 98.8958 440.573 101.687C439.927 102.542 436.281 106.615 430.167 107.151C425.984 107.474 422.766 105.755 421.589 105.005ZM184.979 96.0052C185.833 97.8281 187.12 100.505 188.302 103.828C189.479 107.151 195.38 126.661 188.193 138.135C186.479 140.922 184.443 142.641 183.26 143.5C180.792 145.427 178.219 147.359 175.75 149.396V155.292C174.464 156.792 170.927 160.224 165.24 161.828C159.662 163.437 154.943 162.365 153.016 161.828C153.766 158.078 154.406 153.469 154.302 148C154.193 143.281 153.656 139.208 153.016 135.776C148.833 135.776 145.828 132.135 146.255 128.703C146.578 125.698 149.474 123.234 153.016 123.234C154.193 121.411 155.589 118.839 156.339 115.625C158.594 106.187 154.406 98.1458 153.016 95.8958C155.162 98.8958 159.021 99.8594 161.917 98.5729C164.167 97.5052 165.672 95.2552 165.885 92.6771C168.354 93.4271 171.141 94.0729 174.146 94.6094C178.005 95.3594 181.651 95.7916 184.979 96.0052Z" fill="#ECA97C"/>
<mask id="mask0_14_853" style="mask-type:luminance" maskUnits="userSpaceOnUse" x="0" y="31" width="600" height="509">
<path d="M0 31.7969H600V539.974H0V31.7969Z" fill="white"/>
</mask>
<g mask="url(#mask0_14_853)">
<path d="M286.016 70.6979C290.735 68.5573 297.599 64.8021 303.927 58.1562C313.151 48.5104 319.802 34.6771 317.011 32.2135C315.188 30.6042 308.75 33.0729 287.839 50.974C288.693 43.8958 288.693 40.3594 287.839 40.1458C286.443 39.8229 283.011 47.651 277.432 63.7292C280.224 66.0885 283.12 68.4531 286.016 70.6979ZM39.6408 198.708C39.3179 196.995 38.8908 194.531 38.0314 191.74C35.245 182.307 29.771 173.406 28.1616 173.943C27.4116 174.266 27.1981 177.052 29.6668 187.776C7.56787 174.266 1.4585 172.87 0.276205 174.375C-1.76025 176.839 7.78141 188.849 16.5835 196.672C22.37 201.818 27.8439 205.25 31.8127 207.396C34.3856 204.5 37.0679 201.604 39.6408 198.708ZM549.974 124.948C552.87 129.13 553.62 133.312 553.943 135.562C558.771 128.917 563.49 122.271 568.318 115.625C574.964 112.724 586.016 106.615 594.057 94.3958C595.24 92.5729 601.886 82.4948 599.526 80.026C597.917 78.3125 591.271 80.2448 568.318 97.0729C570.677 86.8906 571.531 81.7448 570.781 81.5312C569.818 81.2083 566.386 88.8177 560.38 104.255C554.802 109.083 549.224 113.906 543.646 118.62C545.365 119.802 547.828 121.839 549.974 124.948ZM373.86 92.6771L363.026 70.0573C363.88 53.974 363.349 45.7187 361.417 45.401C360.13 45.1823 358.198 48.6146 355.625 55.6875C340.823 37.25 335.672 34.4583 333.849 35.5312C331.063 37.1406 334.281 48.0781 336.318 53.3333C339.75 62.4427 345.005 68.6667 348.651 72.3073C351.656 83.6719 354.552 94.9323 357.552 106.292C358.735 104.042 361.203 99.9687 365.813 96.6406C368.922 94.3958 371.818 93.3229 373.86 92.6771ZM87.2658 520.984L85.3335 536.318L97.1304 539.745L103.781 525.276L87.2658 520.984ZM205.25 523.13L202.891 539.745H189.479L186.479 522.594L205.25 523.13Z" fill="#ECA97C"/>
</g>
<path d="M478.115 342.802C483.797 362.635 486.802 386.01 499.458 402.948C500.422 404.234 502.672 403.057 501.708 401.661C489.479 383.651 486.156 360.708 480.042 340.12C473.286 317.609 465.672 295.307 458.161 273.01C457.948 272.255 456.661 272.578 456.875 273.328C464.167 296.49 471.464 319.536 478.115 342.802ZM510.609 408.417C514.26 408.203 517.906 405.63 521.016 403.807C524.984 401.552 528.844 398.979 532.708 396.516C533.781 395.87 533.135 394.156 531.849 394.479C528.417 395.443 525.521 398.443 522.516 400.375C518.76 402.839 514.688 405.844 510.396 407.234C509.755 407.344 509.859 408.417 510.609 408.417ZM482.297 401.771C486.047 409.594 495.807 416.458 504.5 411.953C505.786 411.313 504.927 409.271 503.531 409.594C488.089 413.453 483.583 398.016 479.292 386.547C474.682 374.109 470.495 361.563 466.526 348.911C458.807 323.932 452.693 298.526 447.438 273.01C447.224 271.938 445.615 272.365 445.719 273.438C450.974 303.458 458.594 333.151 468.031 362.208C472.323 375.286 476.286 389.333 482.297 401.771ZM518.547 415.813C525.521 412.167 533.562 409.271 539.786 404.557C540.646 403.911 540.214 402.307 539.036 402.734C531.635 405.63 524.875 410.776 517.906 414.849C517.37 415.172 517.906 416.135 518.547 415.813ZM458.484 377.755C463.526 391.693 470.068 405.094 479.401 416.563C483.906 422.031 487.875 426.854 495.38 426.536C502.031 426.318 508.786 424.068 513.938 419.885C514.901 419.031 513.615 417.526 512.542 418.172C505.25 422.141 494.521 427.5 487.016 421.281C481.651 416.885 477.469 410.24 473.823 404.448C466.312 392.333 461.167 378.932 457.089 365.318C448.078 335.729 442.182 305.172 436.708 274.724C436.495 273.76 434.781 273.974 434.885 274.938C437.245 293.38 441.109 311.714 445.182 329.724C449.047 345.911 452.906 362.208 458.484 377.755ZM441.646 360.385C440.25 357.703 438.75 355.026 437.354 352.344C437.464 355.13 437.464 357.813 437.354 360.599C438.75 360.599 440.25 360.495 441.646 360.385ZM539.891 412.063C528.417 420.958 515.547 429.323 501.922 434.792C490.984 439.188 480.688 436.505 473.286 427.391C469.318 422.458 466.745 416.563 464.49 410.667C461.38 402.734 458.161 394.906 454.729 387.083C450.974 378.609 446.901 370.464 442.609 362.313C438 363.385 432.099 361.672 428.24 359.526C427.594 359.208 428.021 358.135 428.667 358.453C430.812 359.313 433.062 360.063 435.318 360.385C434.781 355.776 434.349 351.167 434.031 346.557C433.922 346.339 433.812 346.234 433.708 346.021C433.385 345.484 433.599 345.052 433.812 344.734C433.172 335.193 432.849 325.542 432.099 316C430.812 301.099 429.094 286.193 427.38 271.401C427.271 270.651 428.557 270.542 428.667 271.188C430.917 285.661 432.635 300.349 434.031 314.927C435.104 325.432 436.391 336.26 436.927 346.984C443.359 358.135 449.047 369.714 454.406 381.401C459.88 393.297 463.953 405.844 469.745 417.531C472.75 423.641 476.932 429.536 483.151 432.755C490.984 436.719 498.922 433.932 506.214 430.396C517.693 424.818 528.63 418.063 539.141 410.99C540 410.563 540.536 411.63 539.891 412.063ZM423.089 329.615C420.839 309.891 419.333 289.839 415.901 270.328C415.797 269.792 414.938 269.901 414.938 270.438C415.797 290.911 418.906 311.391 421.052 331.76C423.198 351.484 425.344 371.323 427.057 391.156C430.703 431.359 432.74 471.885 430.812 512.302C430.703 513.911 433.172 513.911 433.276 512.302C435.422 471.563 433.172 430.714 429.417 390.083C427.594 369.818 425.448 349.771 423.089 329.615ZM413.115 332.724C411.182 312.354 408.286 291.661 408.932 271.188C408.932 270.438 407.859 270.438 407.859 271.188C406.464 291.448 409.469 312.464 411.182 332.724C412.792 352.453 414.615 372.177 416.12 391.906C419.229 432.109 421.693 472.313 421.052 512.625C421.052 514.552 423.948 514.552 424.052 512.625C424.911 472.313 422.339 432 418.797 391.906C416.87 372.286 414.938 352.557 413.115 332.724ZM397.24 270.005C394.99 350.734 407.75 431.25 410.219 511.875C410.323 513.802 413.328 513.802 413.219 511.875C410.646 431.036 399.708 350.844 398.526 270.005C398.526 269.151 397.24 269.151 397.24 270.005ZM214.365 239.99C210.182 239.99 206.75 243.417 206.75 247.599C206.75 251.781 210.182 255.214 214.365 255.214C214.797 255.214 215.115 255.214 215.547 255.104L214.797 239.99H214.365ZM199.24 278.156C195.057 278.156 191.625 281.583 191.625 285.766C191.625 289.948 195.057 293.38 199.24 293.38C203.427 293.38 206.859 289.948 206.859 285.766C206.859 281.583 203.427 278.156 199.24 278.156ZM39.6406 198.714C39.8542 202.677 43.1771 205.896 47.2552 205.896C49.724 205.896 51.9792 204.714 53.3698 202.891L42.8594 195.281L39.6406 198.714ZM285.047 70.8073C280.865 70.8073 277.432 74.2396 277.432 78.4167C277.432 81.9584 279.792 84.849 283.12 85.7084C284.943 80.349 286.656 75.7344 287.943 72.3073C287.406 71.8802 286.766 71.3438 286.229 70.9115C285.693 70.8073 285.37 70.8073 285.047 70.8073ZM254.589 88.3906L247.188 97.6094C247.938 101.042 250.943 103.609 254.589 103.609C258.771 103.609 262.203 100.182 262.203 96.0052C262.203 91.7136 258.771 88.3906 254.589 88.3906ZM242.896 123.661C238.714 123.661 235.281 127.094 235.281 131.271C235.281 135.458 238.714 138.885 242.896 138.885C247.078 138.885 250.51 135.458 250.51 131.271C250.51 127.094 247.078 123.661 242.896 123.661ZM227.667 165.474C223.484 165.474 220.052 168.906 220.052 173.089C220.052 176.089 221.766 178.552 224.234 179.839C227.88 176.302 231.312 172.87 234.531 169.656C233.245 167.188 230.667 165.474 227.667 165.474ZM199.24 153.25C199.24 150.677 197.953 148.323 195.917 146.927L184.12 152.823V153.146C184.12 157.328 187.552 160.755 191.734 160.755C195.807 160.865 199.24 157.432 199.24 153.25ZM146.469 224.87C142.286 224.87 138.854 228.302 138.854 232.479C138.854 236.661 142.286 240.094 146.469 240.094C150.656 240.094 154.089 236.661 154.089 232.479C154.089 228.302 150.656 224.87 146.469 224.87ZM203.745 216.188C203.745 212.005 200.312 208.573 196.13 208.573C191.948 208.573 188.516 212.005 188.516 216.188C188.516 220.365 191.948 223.797 196.13 223.797C200.312 223.797 203.745 220.365 203.745 216.188ZM132.312 289.948C128.13 289.948 124.698 293.375 124.698 297.557C124.698 299.594 125.448 301.417 126.844 302.813L138.104 302.599C139.286 301.313 140.036 299.49 140.036 297.557C139.927 293.375 136.495 289.948 132.312 289.948ZM166.312 260.786C162.13 260.786 158.698 264.214 158.698 268.396C158.698 272.578 162.13 276.01 166.312 276.01C170.495 276.01 173.927 272.578 173.927 268.396C173.927 264.214 170.495 260.786 166.312 260.786ZM144.755 203C148.938 203 152.37 199.568 152.37 195.385C152.37 191.203 148.938 187.776 144.755 187.776C140.573 187.776 137.141 191.203 137.141 195.385C137.141 199.568 140.573 203 144.755 203ZM67.4219 224.87C63.2396 224.87 59.8073 228.302 59.8073 232.479C59.8073 236.661 63.2396 240.094 67.4219 240.094C71.6042 240.094 75.0365 236.661 75.0365 232.479C75.0365 228.302 71.6042 224.87 67.4219 224.87ZM104.104 239.984C99.9219 239.984 96.4896 243.417 96.4896 247.599C96.4896 249.958 97.5625 251.995 99.1719 253.385L111.078 244.813C110.109 242.021 107.323 239.984 104.104 239.984ZM100.885 204.823C98.7396 204.823 96.8073 203.964 95.4167 202.464L104.854 190.776C107 192.172 108.396 194.531 108.396 197.208C108.5 201.391 105.073 204.823 100.885 204.823Z" fill="#EF4A46"/>
<mask id="mask1_14_853" style="mask-type:luminance" maskUnits="userSpaceOnUse" x="51" y="90" width="504" height="478">
<path d="M51.4844 90.7604H554.521V567.948H51.4844V90.7604Z" fill="white"/>
</mask>
<g mask="url(#mask1_14_853)">
<path d="M536.89 383.974C536.031 383.865 536.031 384.938 536.458 385.365C539.036 387.297 541.713 388.688 543.859 391.156C546.114 393.62 547.614 396.516 548.687 399.625C549.333 401.661 552.547 400.802 551.906 398.766C549.87 392.443 544.078 384.724 536.89 383.974ZM530.026 388.797C528.953 388.583 528.417 389.974 529.276 390.51C532.062 392.229 534.422 393.943 536.245 396.839C538.177 399.839 539.25 403.271 540.213 406.698C540.75 408.74 543.969 407.88 543.432 405.844C541.396 399.198 537.531 390.62 530.026 388.797ZM432.099 521.63C429.417 520.771 426.411 521.094 423.625 520.88C420.515 520.557 417.51 519.917 414.401 519.807C413.755 519.807 413.437 520.771 414.078 521.094C416.974 522.49 420.193 523.13 423.302 523.563C426.094 523.99 429.417 524.63 432.099 523.776C433.172 523.453 433.172 521.953 432.099 521.63ZM432.422 512.516C429.312 512.734 426.521 513.802 423.411 513.802C420.083 513.802 416.76 513.161 413.437 512.625C412.042 512.411 411.614 514.125 412.901 514.661C419.015 517.021 427.167 518.198 433.172 514.984C434.349 514.448 433.812 512.411 432.422 512.516ZM549.224 123.344C546.651 120.448 543.542 116.912 539.573 116.479C538.604 116.375 538.281 117.87 539.14 118.193C545.042 121.089 551.479 127.844 551.479 134.813C551.479 136.745 554.479 136.745 554.479 134.813C554.265 130.313 552.12 126.662 549.224 123.344ZM379.651 91.9271C370.208 90.5313 361.094 97.3959 356.375 105.115C355.625 106.292 357.234 107.365 358.198 106.51C364.849 100.505 369.245 93.2136 379.437 93.5365C380.292 93.5365 380.505 92.0365 379.651 91.9271ZM471.031 201.818C471.568 207.932 471.786 214.146 471.786 220.365C471.786 226.479 471.031 232.802 471.568 238.917C471.677 239.771 472.963 240.094 473.177 239.13C475.536 227.229 473.39 213.719 471.89 201.818C471.786 201.281 470.927 201.281 471.031 201.818ZM396.917 189.167C395.094 197.854 392.734 207.073 392.734 215.969C392.734 216.615 393.807 216.828 393.917 216.078C395.526 207.177 396.703 198.172 397.776 189.167C397.776 188.849 397.026 188.74 396.917 189.167ZM397.13 185.521C397.026 186.057 396.812 186.703 397.026 187.24C397.13 187.453 397.349 187.453 397.453 187.344C397.776 186.917 397.776 186.276 397.885 185.74C398.099 185.203 397.239 184.99 397.13 185.521ZM453.765 169.656C446.364 168.37 436.068 170.833 431.453 163.115C431.026 162.365 429.739 162.901 430.062 163.651C432.958 171.802 446.469 173.089 453.765 171.802C454.838 171.693 454.838 169.87 453.765 169.656ZM437.463 156.792C440.573 156.896 444.542 156.146 446.469 153.469C446.901 152.823 446.042 152.287 445.505 152.5C444.328 153.146 443.255 154.005 442.073 154.646C440.677 155.292 439.073 155.932 437.463 156.042C437.031 156.146 437.031 156.792 437.463 156.792ZM454.302 135.349C453.87 135.026 453.443 135.672 453.765 136.099C454.406 136.849 454.838 137.708 454.943 138.563H454.625C453.552 138.776 452.156 139.099 451.297 139.958C450.974 140.281 451.297 140.708 451.729 140.708C452.797 140.604 453.87 139.958 454.943 139.635C454.838 140.281 454.625 140.818 454.193 141.354C454.088 141.458 453.979 141.672 454.088 141.891C454.193 142.104 454.193 142.208 454.515 142.318C454.729 142.422 454.943 142.318 455.052 142.208C456.552 140.172 456.552 136.958 454.302 135.349ZM123.515 212.109C122.229 224.01 120.515 237.094 122.125 248.99C122.229 249.422 122.875 249.422 122.979 248.99C124.698 236.984 123.948 224.224 124.588 212.109C124.588 211.469 123.625 211.469 123.515 212.109ZM212.328 202.677C212.432 203.214 213.187 203.214 213.187 202.677C213.724 194.531 212.755 185.953 210.719 178.021C210.609 177.484 209.755 177.698 209.859 178.234C211.896 186.38 211.469 194.422 212.328 202.677ZM175 155.073C172.536 157.005 170.713 159.578 167.818 161.078C163.417 163.328 158.698 161.938 154.088 161.188C152.479 160.974 151.833 163.224 153.443 163.651C161.917 166.01 171.568 164.51 175.969 156.042C176.073 155.396 175.536 154.646 175 155.073ZM168.458 147.891C168.672 148 168.781 147.677 168.568 147.573C164.489 145.75 160.307 143.391 157.411 139.849C156.875 139.208 156.015 140.172 156.448 140.818C159.557 144.677 163.953 146.177 168.458 147.891ZM151.083 129.24C150.76 129.026 150.333 128.807 150.01 128.703C150.224 127.734 150.656 126.88 151.62 126.557C152.265 126.344 151.943 125.484 151.406 125.589C149.797 125.911 148.937 127.521 148.614 129.026C148.297 130.63 148.937 132.24 150.224 133.203C150.87 133.63 151.51 132.667 150.974 132.24C150.224 131.594 149.797 130.849 149.797 129.99C150.01 130.094 150.333 130.094 150.547 130.203C150.974 130.313 151.297 130.417 151.729 130.417C151.943 130.417 152.156 130.094 151.943 129.88C151.729 129.667 151.406 129.453 151.083 129.24ZM219.62 544.573C215.437 543.182 209.755 541.464 202.89 539.75H189.479V560.01H237.427C237.64 558.62 237.75 556.365 236.781 554.115C235.172 550.469 231.526 548.432 219.62 544.573ZM85.3332 536.318C89.3019 537.5 93.1665 538.677 97.1301 539.75C96.8071 544.359 96.4894 548.865 96.2759 553.474C89.1978 559.906 77.7186 567.839 63.6665 567.948C61.0936 567.948 53.0519 568.052 51.7603 564.62C50.3696 560.76 58.4165 554.438 65.2759 549.182C72.9999 543.073 80.1821 539 85.3332 536.318Z" fill="#3B5572"/>
</g>
</g>
<defs>
<clipPath id="clip0_14_853">
<rect width="600" height="600" fill="white"/>
</clipPath>
</defs>
</svg>
