<svg width="24" height="25" viewBox="0 0 24 25" fill="none" xmlns="http://www.w3.org/2000/svg">
<path d="M10.25 22.5C14.5302 22.5 18 19.0302 18 14.75C18 10.4698 14.5302 7 10.25 7C5.96979 7 2.5 10.4698 2.5 14.75C2.5 19.0302 5.96979 22.5 10.25 22.5Z" stroke="#5EB0B2" stroke-width="1.5" stroke-linecap="round" stroke-linejoin="round"/>
<path d="M21.5 3.5L16 9" stroke="#5EB0B2" stroke-width="1.5" stroke-linecap="round" stroke-linejoin="round"/>
<path d="M15 3.5H21.5V10" stroke="#5EB0B2" stroke-width="1.5" stroke-linecap="round" stroke-linejoin="round"/>
<path d="M10.25 21.5C14.5302 21.5 18 18.0302 18 13.75C18 9.46979 14.5302 6 10.25 6C5.96979 6 2.5 9.46979 2.5 13.75C2.5 18.0302 5.96979 21.5 10.25 21.5Z" stroke="#A1D5D6" stroke-width="1.5" stroke-linecap="round" stroke-linejoin="round"/>
<path d="M21.5 2.5L16 8" stroke="#A1D5D6" stroke-width="1.5" stroke-linecap="round" stroke-linejoin="round"/>
<path d="M15 2.5H21.5V9" stroke="#A1D5D6" stroke-width="1.5" stroke-linecap="round" stroke-linejoin="round"/>
</svg>
