<svg width="24" height="25" viewBox="0 0 24 25" fill="none" xmlns="http://www.w3.org/2000/svg">
<path d="M12 17C15.866 17 19 13.866 19 10C19 6.13401 15.866 3 12 3C8.13401 3 5 6.13401 5 10C5 13.866 8.13401 17 12 17Z" stroke="#5EB0B2" stroke-width="1.5" stroke-linecap="round" stroke-linejoin="round"/>
<path d="M12 17V23" stroke="#5EB0B2" stroke-width="1.5" stroke-linecap="round" stroke-linejoin="round"/>
<path d="M15 20H9" stroke="#5EB0B2" stroke-width="1.5" stroke-linecap="round" stroke-linejoin="round"/>
<path d="M12 16C15.866 16 19 12.866 19 9C19 5.13401 15.866 2 12 2C8.13401 2 5 5.13401 5 9C5 12.866 8.13401 16 12 16Z" stroke="#A1D5D6" stroke-width="1.5" stroke-linecap="round" stroke-linejoin="round"/>
<path d="M12 16V22" stroke="#A1D5D6" stroke-width="1.5" stroke-linecap="round" stroke-linejoin="round"/>
<path d="M15 19H9" stroke="#A1D5D6" stroke-width="1.5" stroke-linecap="round" stroke-linejoin="round"/>
</svg>
