<svg width="18" height="28" viewBox="0 0 18 28" fill="none" xmlns="http://www.w3.org/2000/svg">
<path d="M8.5 2V8" stroke="#5EB0B2" stroke-width="1.5" stroke-linecap="round" stroke-linejoin="round"/>
<path d="M6.50002 3L10.7427 7.24264" stroke="#5EB0B2" stroke-width="1.5" stroke-linecap="round" stroke-linejoin="round"/>
<path d="M10.7426 3.00004L6.5 7.24268" stroke="#5EB0B2" stroke-width="1.5" stroke-linecap="round" stroke-linejoin="round"/>
<path d="M11.5 5H5.5" stroke="#5EB0B2" stroke-width="1.5" stroke-linecap="round" stroke-linejoin="round"/>
<path d="M8.5 5V11" stroke="#5EB0B2" stroke-width="1.5" stroke-linecap="round" stroke-linejoin="round"/>
<path d="M8.75 26.5C13.0302 26.5 16.5 23.0302 16.5 18.75C16.5 14.4698 13.0302 11 8.75 11C4.46979 11 1 14.4698 1 18.75C1 23.0302 4.46979 26.5 8.75 26.5Z" stroke="#5EB0B2" stroke-width="1.5" stroke-linecap="round" stroke-linejoin="round"/>
<path d="M8.5 1V7" stroke="#A1D5D6" stroke-width="1.5" stroke-linecap="round" stroke-linejoin="round"/>
<path d="M6.50002 2L10.7427 6.24264" stroke="#A1D5D6" stroke-width="1.5" stroke-linecap="round" stroke-linejoin="round"/>
<path d="M10.7426 2.00004L6.5 6.24268" stroke="#A1D5D6" stroke-width="1.5" stroke-linecap="round" stroke-linejoin="round"/>
<path d="M11.5 4H5.5" stroke="#A1D5D6" stroke-width="1.5" stroke-linecap="round" stroke-linejoin="round"/>
<path d="M8.5 4V10" stroke="#A1D5D6" stroke-width="1.5" stroke-linecap="round" stroke-linejoin="round"/>
<path d="M8.75 25.5C13.0302 25.5 16.5 22.0302 16.5 17.75C16.5 13.4698 13.0302 10 8.75 10C4.46979 10 1 13.4698 1 17.75C1 22.0302 4.46979 25.5 8.75 25.5Z" stroke="#A1D5D6" stroke-width="1.5" stroke-linecap="round" stroke-linejoin="round"/>
</svg>
