<svg width="27" height="31" viewBox="0 0 27 31" fill="none" xmlns="http://www.w3.org/2000/svg">
<path d="M13.25 22.5C17.5302 22.5 21 19.0302 21 14.75C21 10.4698 17.5302 7 13.25 7C8.96979 7 5.5 10.4698 5.5 14.75C5.5 19.0302 8.96979 22.5 13.25 22.5Z" stroke="#5EB0B2" stroke-width="1.5" stroke-linecap="round" stroke-linejoin="round"/>
<path d="M24.5 3.5L19 9" stroke="#5EB0B2" stroke-width="1.5" stroke-linecap="round" stroke-linejoin="round"/>
<path d="M18 3.5H24.5V10" stroke="#5EB0B2" stroke-width="1.5" stroke-linecap="round" stroke-linejoin="round"/>
<path d="M1 4L6.5 9.5" stroke="#5EB0B2" stroke-width="1.5" stroke-linecap="round" stroke-linejoin="round"/>
<path d="M5.5 4H1V8" stroke="#5EB0B2" stroke-width="1.5" stroke-linecap="round" stroke-linejoin="round"/>
<path d="M13 23V29" stroke="#5EB0B2" stroke-width="1.5" stroke-linecap="round" stroke-linejoin="round"/>
<path d="M16 26H10" stroke="#5EB0B2" stroke-width="1.5" stroke-linecap="round" stroke-linejoin="round"/>
<path d="M6.5 6.12869L3 9.37134" stroke="#5EB0B2" stroke-width="1.5" stroke-linecap="round" stroke-linejoin="round"/>
<path d="M13.25 22.5C17.5302 22.5 21 19.0302 21 14.75C21 10.4698 17.5302 7 13.25 7C8.96979 7 5.5 10.4698 5.5 14.75C5.5 19.0302 8.96979 22.5 13.25 22.5Z" stroke="#5EB0B2" stroke-width="1.5" stroke-linecap="round" stroke-linejoin="round"/>
<path d="M24.5 3.5L19 9" stroke="#5EB0B2" stroke-width="1.5" stroke-linecap="round" stroke-linejoin="round"/>
<path d="M18 3.5H24.5V10" stroke="#5EB0B2" stroke-width="1.5" stroke-linecap="round" stroke-linejoin="round"/>
<path d="M1 4L6.5 9.5" stroke="#5EB0B2" stroke-width="1.5" stroke-linecap="round" stroke-linejoin="round"/>
<path d="M5.5 4H1V8" stroke="#5EB0B2" stroke-width="1.5" stroke-linecap="round" stroke-linejoin="round"/>
<path d="M13 23V29" stroke="#5EB0B2" stroke-width="1.5" stroke-linecap="round" stroke-linejoin="round"/>
<path d="M16 26H10" stroke="#5EB0B2" stroke-width="1.5" stroke-linecap="round" stroke-linejoin="round"/>
<path d="M6.5 6.12869L3 9.37134" stroke="#5EB0B2" stroke-width="1.5" stroke-linecap="round" stroke-linejoin="round"/>
<path d="M13.25 21.5C17.5302 21.5 21 18.0302 21 13.75C21 9.46979 17.5302 6 13.25 6C8.96979 6 5.5 9.46979 5.5 13.75C5.5 18.0302 8.96979 21.5 13.25 21.5Z" stroke="#A1D5D6" stroke-width="1.5" stroke-linecap="round" stroke-linejoin="round"/>
<path d="M24.5 2.5L19 8" stroke="#A1D5D6" stroke-width="1.5" stroke-linecap="round" stroke-linejoin="round"/>
<path d="M18 2.5H24.5V9" stroke="#A1D5D6" stroke-width="1.5" stroke-linecap="round" stroke-linejoin="round"/>
<path d="M1 3L6.5 8.5" stroke="#A1D5D6" stroke-width="1.5" stroke-linecap="round" stroke-linejoin="round"/>
<path d="M5.5 3H1V7" stroke="#A1D5D6" stroke-width="1.5" stroke-linecap="round" stroke-linejoin="round"/>
<path d="M13 22V28" stroke="#A1D5D6" stroke-width="1.5" stroke-linecap="round" stroke-linejoin="round"/>
<path d="M16 25H10" stroke="#A1D5D6" stroke-width="1.5" stroke-linecap="round" stroke-linejoin="round"/>
<path d="M6.5 5.12869L3 8.37134" stroke="#A1D5D6" stroke-width="1.5" stroke-linecap="round" stroke-linejoin="round"/>
<path d="M13.25 21.5C17.5302 21.5 21 18.0302 21 13.75C21 9.46979 17.5302 6 13.25 6C8.96979 6 5.5 9.46979 5.5 13.75C5.5 18.0302 8.96979 21.5 13.25 21.5Z" stroke="#A1D5D6" stroke-width="1.5" stroke-linecap="round" stroke-linejoin="round"/>
<path d="M24.5 2.5L19 8" stroke="#A1D5D6" stroke-width="1.5" stroke-linecap="round" stroke-linejoin="round"/>
<path d="M18 2.5H24.5V9" stroke="#A1D5D6" stroke-width="1.5" stroke-linecap="round" stroke-linejoin="round"/>
<path d="M1 3L6.5 8.5" stroke="#A1D5D6" stroke-width="1.5" stroke-linecap="round" stroke-linejoin="round"/>
<path d="M5.5 3H1V7" stroke="#A1D5D6" stroke-width="1.5" stroke-linecap="round" stroke-linejoin="round"/>
<path d="M13 22V28" stroke="#A1D5D6" stroke-width="1.5" stroke-linecap="round" stroke-linejoin="round"/>
<path d="M16 25H10" stroke="#A1D5D6" stroke-width="1.5" stroke-linecap="round" stroke-linejoin="round"/>
<path d="M6.5 5.12869L3 8.37134" stroke="#A1D5D6" stroke-width="1.5" stroke-linecap="round" stroke-linejoin="round"/>
</svg>
