<svg width="350" height="350" viewBox="0 0 350 350" fill="none" xmlns="http://www.w3.org/2000/svg">
<mask id="mask0_31_379" style="mask-type:luminance" maskUnits="userSpaceOnUse" x="17" y="218" width="316" height="114">
<path d="M17.8887 218.556H332.111V331.133H17.8887V218.556Z" fill="white"/>
</mask>
<g mask="url(#mask0_31_379)">
<path d="M332.047 331.279H17.9556L72.9195 218.729H277.08L332.047 331.279Z" fill="#F2F2F2"/>
</g>
<path d="M43.4766 316.884L82.7361 225.276H267.264L306.526 316.884H43.4766Z" fill="#4CDBC4"/>
<path d="M142.282 270.424L137.047 316.884H306.526L301.945 307.724L142.282 270.424Z" fill="#54C0EB"/>
<path d="M136.394 263.226L142.282 225.276H82.7363L73.5762 247.522L136.394 263.226Z" fill="#54C0EB"/>
<path d="M116.107 316.884H146.863L155.37 225.276H133.775L116.107 316.884Z" fill="white"/>
<path d="M75.5384 242.29L68.9941 257.338L291.475 316.884H306.526L298.673 298.563L75.5384 242.29Z" fill="white"/>
<path d="M246.981 47.2925C207.062 7.37674 142.282 7.37674 102.366 47.2925C62.453 87.2053 62.453 151.986 102.366 191.905L174.344 263.885L246.324 191.905C286.894 151.986 286.894 87.2053 246.981 47.2925Z" fill="#E87B80"/>
<path d="M120.689 119.267C120.689 89.171 144.901 64.9596 175 64.9596C205.103 64.9596 229.311 89.171 229.311 119.267C229.311 149.37 205.103 173.581 175 173.581C144.901 173.581 120.689 149.37 120.689 119.267Z" fill="white"/>
</svg>
