<svg width="389" height="389" viewBox="0 0 389 389" fill="none" xmlns="http://www.w3.org/2000/svg">
<path d="M296.228 90.3176C274.231 87.3224 257.658 102.869 243.405 102.869C229.152 102.869 222.014 92.4753 201.73 92.4753H201.723C197.971 87.6331 193.625 83.9187 188.685 82.5241C168.04 76.6992 146.388 99.1782 129.403 104.507C112.013 109.97 84.6142 112.935 63.1111 112.935C8.29995 166.45 2.51223 222.419 63.1111 281.714C85.9041 281.714 113.961 270.939 129.613 254.589C129.613 254.589 154.067 255.909 166.075 249.635C178.086 243.355 181.067 228.686 190.022 225.853C198.967 223.01 208.439 228.575 217.674 228.575C226.913 228.575 232.015 220.812 232.015 220.812C239.124 230.044 253.096 230.044 253.096 230.044C262.47 251.006 280.158 267.522 297.024 273.816C367.926 257.54 389.037 184.015 350.91 124.673C327.385 116.308 318.217 93.3229 296.228 90.3176Z" fill="#D6EAE8"/>
<path d="M63.1112 112.935C92.1072 112.935 115.609 150.714 115.609 197.323C115.609 243.935 92.1072 281.714 63.1112 281.714C34.1151 281.714 10.613 243.935 10.613 197.323C10.613 150.714 34.1151 112.935 63.1112 112.935ZM95.3894 197.323C95.3894 164.822 83.6248 137.879 68.2269 132.932C66.5588 132.395 64.8536 132.115 63.1112 132.115C45.2854 132.115 30.8329 161.307 30.8329 197.323C30.8329 233.336 45.2854 262.538 63.1112 262.538C69.6654 262.538 75.7638 258.59 80.8559 251.806C89.6118 240.143 95.3894 220.096 95.3894 197.323Z" fill="#E87B80"/>
<path d="M80.856 251.807C75.7639 258.59 69.6655 262.538 63.1112 262.538C45.2854 262.538 30.833 233.336 30.833 197.323C30.833 161.307 45.2854 132.115 63.1112 132.115C64.8536 132.115 66.5589 132.395 68.227 132.932C83.6249 137.879 95.3895 164.822 95.3895 197.323C95.3895 220.096 89.6119 240.143 80.856 251.807Z" fill="#C3DDDA"/>
<path d="M350.91 124.673C375.844 133.53 384.164 174.165 369.496 215.436C354.83 256.7 322.728 282.971 297.801 274.103C297.541 274.016 297.284 273.921 297.024 273.816C272.695 264.405 264.702 224.185 279.212 183.34C293.88 142.08 325.983 115.809 350.91 124.673Z" fill="#C3DDDA"/>
<path d="M63.1416 194.608C62.868 190.786 62.7262 186.808 62.7262 182.786C62.7262 170.586 64.0668 158.548 66.5993 147.972C66.9809 146.385 66.0017 144.791 64.418 144.413C62.8309 144.031 61.2371 145.011 60.8589 146.598C58.2183 157.616 56.8203 170.13 56.8203 182.786C56.8203 186.946 56.9655 191.066 57.2492 195.03C57.3606 196.584 58.6573 197.772 60.1903 197.772C60.2612 197.772 60.3355 197.769 60.4064 197.765C62.034 197.647 63.2564 196.236 63.1416 194.608Z" fill="#E7F2F1"/>
<path d="M66.6025 217.604C66.221 216.02 64.6272 215.044 63.0435 215.422C61.4564 215.804 60.4805 217.398 60.8587 218.981C63.604 230.432 67.6358 240.126 72.522 247.015C73.0994 247.829 74.0077 248.261 74.933 248.261C75.5239 248.261 76.1216 248.085 76.6382 247.717C77.9686 246.775 78.2827 244.931 77.3406 243.601C72.8866 237.317 69.1722 228.328 66.6025 217.604Z" fill="#E7F2F1"/>
<path d="M261.325 143.018C259.988 142.083 258.148 142.407 257.213 143.741C256.645 144.551 243.354 163.913 243.354 199.389C243.354 205.913 244.256 212.535 246.032 219.069C246.39 220.383 247.582 221.247 248.882 221.247C249.139 221.247 249.399 221.213 249.659 221.142C251.232 220.717 252.161 219.093 251.732 217.519C250.091 211.488 249.257 205.386 249.257 199.389C249.257 165.912 261.923 147.31 262.048 147.131C262.983 145.797 262.659 143.957 261.325 143.018Z" fill="#E7F2F1"/>
<path d="M220.535 182.452C220.133 180.868 218.525 179.912 216.945 180.318C215.365 180.72 214.409 182.327 214.811 183.907C215.112 185.092 222.28 213.004 229.675 222.611C230.256 223.368 231.134 223.763 232.019 223.763C232.647 223.763 233.278 223.564 233.815 223.152C235.109 222.155 235.348 220.302 234.356 219.008C227.7 210.364 220.605 182.729 220.535 182.452Z" fill="#E7F2F1"/>
<path d="M219.589 137.629C219.802 137.629 220.015 137.605 220.231 137.558C221.821 137.204 222.828 135.63 222.476 134.036C222.26 133.067 217.104 110.129 206.609 94.2312C205.708 92.8704 203.877 92.4922 202.517 93.3938C201.156 94.292 200.781 96.1222 201.679 97.483C211.566 112.455 216.658 135.086 216.709 135.313C217.016 136.69 218.235 137.629 219.589 137.629Z" fill="#E7F2F1"/>
<path d="M145.129 203.661C145.122 203.661 145.119 203.661 145.115 203.661C143.484 203.671 142.167 204.998 142.174 206.629C142.178 206.933 142.14 237.229 127.479 252.546C126.351 253.725 126.391 255.595 127.57 256.72C128.141 257.27 128.877 257.54 129.609 257.54C130.389 257.54 131.163 257.236 131.743 256.629C148.036 239.606 148.084 207.943 148.08 206.602C148.073 204.975 146.753 203.661 145.129 203.661Z" fill="#E7F2F1"/>
<path d="M142.326 171.488C142.542 171.488 142.762 171.464 142.981 171.413C144.572 171.055 145.568 169.472 145.21 167.885C140.931 148.955 130.19 133.935 113.29 123.241C111.912 122.37 110.088 122.778 109.217 124.156C108.343 125.534 108.755 127.357 110.132 128.232C125.665 138.058 135.529 151.835 139.449 169.185C139.76 170.556 140.979 171.488 142.326 171.488Z" fill="#E7F2F1"/>
<path d="M149.778 118.118C148.671 116.923 146.804 116.852 145.608 117.959C144.413 119.07 144.342 120.938 145.449 122.133C153.608 130.93 158.764 140.378 160.776 150.214C161.064 151.612 162.293 152.574 163.667 152.574C163.863 152.574 164.062 152.554 164.261 152.514C165.858 152.189 166.888 150.629 166.561 149.029C164.332 138.122 158.686 127.718 149.778 118.118Z" fill="#E7F2F1"/>
<path d="M350.022 148.134C349.202 146.729 347.398 146.253 345.99 147.07C344.582 147.888 344.103 149.694 344.916 151.106C345.045 151.325 357.566 173.497 348.118 200.855C338.717 228.105 306.594 237.938 306.273 238.033C304.706 238.496 303.815 240.14 304.277 241.704C304.656 242.987 305.831 243.821 307.107 243.821C307.384 243.821 307.664 243.78 307.945 243.696C309.383 243.274 343.292 232.948 353.699 202.78C364.063 172.778 350.6 149.127 350.022 148.134Z" fill="#E7F2F1"/>
<path d="M325.342 249.132C319.473 253.333 312.375 255.345 304.224 255.112C302.573 255.045 301.235 256.352 301.188 257.983C301.144 259.61 302.427 260.971 304.058 261.015C304.538 261.029 305.014 261.035 305.487 261.035C314.357 261.035 322.188 258.648 328.779 253.934C330.106 252.985 330.41 251.138 329.462 249.814C328.513 248.487 326.669 248.18 325.342 249.132Z" fill="#E7F2F1"/>
<path d="M321.877 172.045C323.046 170.91 323.073 169.039 321.935 167.871C320.8 166.703 318.93 166.672 317.761 167.814C300.776 184.333 291.902 203.624 291.386 225.154C291.348 226.785 292.638 228.139 294.269 228.176C294.293 228.176 294.317 228.176 294.34 228.176C295.937 228.176 297.251 226.9 297.291 225.296C297.768 205.366 306.041 187.449 321.877 172.045Z" fill="#E7F2F1"/>
</svg>
