<svg width="357" height="357" viewBox="0 0 357 357" fill="none" xmlns="http://www.w3.org/2000/svg">
<mask id="mask0_19_7685" style="mask-type:luminance" maskUnits="userSpaceOnUse" x="26" y="27" width="312" height="312">
<path d="M26.917 27.8716H337.507V338.462H26.917V27.8716Z" fill="white"/>
</mask>
<g mask="url(#mask0_19_7685)">
<path d="M182.212 27.8716C96.4452 27.8716 26.917 97.3998 26.917 183.167C26.917 268.933 96.4452 338.462 182.212 338.462C267.979 338.462 337.507 268.933 337.507 183.167C337.507 97.3998 267.979 27.8716 182.212 27.8716ZM182.212 312.585C110.735 312.585 52.7902 254.641 52.7902 183.167C52.7902 111.689 110.735 53.7479 182.212 53.7479C253.686 53.7479 311.631 111.689 311.631 183.167C311.631 254.641 253.686 312.585 182.212 312.585Z" fill="#94A5EE"/>
</g>
<mask id="mask1_19_7685" style="mask-type:luminance" maskUnits="userSpaceOnUse" x="47" y="27" width="291" height="292">
<path d="M47.5996 27.8716H337.507V318.92H47.5996V27.8716Z" fill="white"/>
</mask>
<g mask="url(#mask1_19_7685)">
<mask id="mask2_19_7685" style="mask-type:luminance" maskUnits="userSpaceOnUse" x="-36" y="-36" width="429" height="429">
<path d="M392.7 -35.6997H-35.6997V392.7H392.7V-35.6997Z" fill="black" fill-opacity="0.4"/>
</mask>
<g mask="url(#mask2_19_7685)">
<mask id="mask3_19_7685" style="mask-type:luminance" maskUnits="userSpaceOnUse" x="47" y="27" width="291" height="292">
<path d="M337.96 27.7666H47.5996V318.92H337.96V27.7666Z" fill="white"/>
</mask>
<g mask="url(#mask3_19_7685)">
<mask id="mask4_19_7685" style="mask-type:luminance" maskUnits="userSpaceOnUse" x="58" y="27" width="280" height="258">
<path d="M58.7065 27.8716H337.507V284.013H58.7065V27.8716Z" fill="white"/>
</mask>
<g mask="url(#mask4_19_7685)">
<path d="M177.899 33.3072C263.666 33.3072 333.194 102.835 333.194 188.602C333.194 224.373 320.978 257.222 300.655 283.477C323.602 256.41 337.507 221.433 337.507 183.167C337.507 97.3998 267.979 27.8716 182.212 27.8716C132.214 27.8716 87.8616 51.5941 59.4565 88.292C87.9422 54.69 130.398 33.3072 177.899 33.3072Z" fill="#9CD8FF"/>
</g>
<path d="M48.48 188.602C48.48 260.08 106.424 318.021 177.899 318.021C219.859 318.021 257.04 297.968 280.688 267.018C256.95 294.869 221.675 312.586 182.212 312.586C110.735 312.586 52.7906 254.641 52.7906 183.167C52.7906 153.646 62.7879 126.527 79.4231 104.754C60.1662 127.345 48.48 156.587 48.48 188.602Z" fill="#9CD8FF"/>
</g>
</g>
</g>
<mask id="mask5_19_7685" style="mask-type:luminance" maskUnits="userSpaceOnUse" x="26" y="42" width="293" height="297">
<path d="M26.917 42.8394H318.919V338.461H26.917V42.8394Z" fill="white"/>
</mask>
<g mask="url(#mask5_19_7685)">
<mask id="mask6_19_7685" style="mask-type:luminance" maskUnits="userSpaceOnUse" x="-36" y="-36" width="429" height="429">
<path d="M392.7 -35.6997H-35.6997V392.7H392.7V-35.6997Z" fill="black" fill-opacity="0.3"/>
</mask>
<g mask="url(#mask6_19_7685)">
<mask id="mask7_19_7685" style="mask-type:luminance" maskUnits="userSpaceOnUse" x="26" y="42" width="293" height="297">
<path d="M318.92 42.8394H26.1802V338.753H318.92V42.8394Z" fill="white"/>
</mask>
<g mask="url(#mask7_19_7685)">
<mask id="mask8_19_7685" style="mask-type:luminance" maskUnits="userSpaceOnUse" x="26" y="95" width="292" height="244">
<path d="M26.917 95.2002H317.333V338.462H26.917V95.2002Z" fill="white"/>
</mask>
<g mask="url(#mask8_19_7685)">
<path d="M188.587 328.152C102.817 328.152 33.2916 258.624 33.2916 172.854C33.2916 144.681 40.9088 118.337 54.0236 95.5566C36.9421 120.5 26.917 150.653 26.917 183.167C26.917 268.934 96.4452 338.462 182.212 338.462C239.806 338.462 289.96 307.033 316.772 260.465C288.794 301.318 241.839 328.152 188.587 328.152Z" fill="#798FEE"/>
</g>
<mask id="mask9_19_7685" style="mask-type:luminance" maskUnits="userSpaceOnUse" x="75" y="43" width="244" height="204">
<path d="M75.3667 43.0293H318.127V246.727H75.3667V43.0293Z" fill="white"/>
</mask>
<g mask="url(#mask9_19_7685)">
<path d="M318.006 172.854C318.006 101.38 260.062 43.4385 188.584 43.4385C139.924 43.4385 97.5832 70.325 75.4814 110.023C98.8073 76.055 137.891 53.7487 182.213 53.7487C253.687 53.7487 311.628 111.69 311.628 183.167C311.628 205.982 305.678 227.386 295.315 245.999C309.608 225.186 318.006 200.01 318.006 172.854Z" fill="#798FEE"/>
</g>
</g>
</g>
</g>
<mask id="mask10_19_7685" style="mask-type:luminance" maskUnits="userSpaceOnUse" x="26" y="50" width="301" height="289">
<path d="M26.917 50.7734H326.059V338.462H26.917V50.7734Z" fill="white"/>
</mask>
<g mask="url(#mask10_19_7685)">
<mask id="mask11_19_7685" style="mask-type:luminance" maskUnits="userSpaceOnUse" x="-36" y="-36" width="429" height="429">
<path d="M392.7 -35.6997H-35.6997V392.7H392.7V-35.6997Z" fill="black" fill-opacity="0.4"/>
</mask>
<g mask="url(#mask11_19_7685)">
<mask id="mask12_19_7685" style="mask-type:luminance" maskUnits="userSpaceOnUse" x="26" y="50" width="301" height="289">
<path d="M326.06 50.7734H26.1802V338.753H326.06V50.7734Z" fill="white"/>
</mask>
<g mask="url(#mask12_19_7685)">
<mask id="mask13_19_7685" style="mask-type:luminance" maskUnits="userSpaceOnUse" x="26" y="120" width="300" height="219">
<path d="M26.917 120.586H325.774V338.462H26.917V120.586Z" fill="white"/>
</mask>
<g mask="url(#mask13_19_7685)">
<path d="M183.197 336.271C97.4307 336.271 27.9025 266.746 27.9025 180.979C27.9025 159.751 32.1883 139.534 39.8985 121.104C31.5902 140.119 26.917 161.087 26.917 183.167C26.917 268.934 96.4452 338.462 182.212 338.462C246.751 338.462 302.07 299.077 325.511 243.042C301.553 297.896 246.884 336.271 183.197 336.271Z" fill="#DBF6FF"/>
</g>
<mask id="mask14_19_7685" style="mask-type:luminance" maskUnits="userSpaceOnUse" x="63" y="51" width="251" height="183">
<path d="M63.4668 51.2163H313.367V233.24H63.4668V51.2163Z" fill="white"/>
</mask>
<g mask="url(#mask14_19_7685)">
<path d="M312.62 180.979C312.62 109.502 254.676 51.5605 183.198 51.5605C129.379 51.5605 83.2537 84.4281 63.7427 131.173C83.7712 85.6057 129.242 53.7484 182.213 53.7484C253.687 53.7484 311.628 111.69 311.628 183.167C311.628 200.822 308.071 217.637 301.668 232.97C308.669 217.048 312.62 199.486 312.62 180.979Z" fill="#DBF6FF"/>
</g>
</g>
</g>
</g>
<path d="M252.85 52.9614C251.561 56.5066 242.785 56.5717 233.249 53.1071C223.714 49.6394 217.026 43.9559 218.315 40.4076C219.608 36.8593 228.381 36.7942 237.919 40.2619C247.455 43.7265 254.139 49.4131 252.85 52.9614Z" fill="#DBF1FF" fill-opacity="0.5"/>
<path d="M273.632 66.6188C272.581 68.3357 267.988 67.437 263.371 64.6138C258.754 61.7876 255.862 58.106 256.913 56.3892C257.963 54.6724 262.559 55.5679 267.177 58.3942C271.794 61.2174 274.682 64.8989 273.632 66.6188Z" fill="#DBF1FF" fill-opacity="0.5"/>
<path d="M38.7466 186.694C38.7466 264.161 101.547 326.962 179.018 326.962C224.492 326.962 264.791 305.229 290.422 271.682C264.695 301.866 226.46 321.071 183.691 321.071C106.22 321.071 43.4198 258.27 43.4198 180.799C43.4198 148.806 54.2507 119.412 72.2835 95.8135C51.412 120.298 38.7466 151.994 38.7466 186.694Z" fill="#9CD8FF" fill-opacity="0.4"/>
<path d="M178.444 36.543C261.942 36.543 329.633 104.234 329.633 187.732C329.633 222.558 317.739 254.539 297.952 280.099C320.296 253.746 333.829 219.695 333.829 182.439C333.829 98.9406 266.141 31.25 182.64 31.25C133.968 31.25 90.7869 54.3465 63.1318 90.0713C90.8644 57.3618 132.198 36.543 178.444 36.543Z" fill="#9CD8FF" fill-opacity="0.4"/>
<mask id="mask15_19_7685" style="mask-type:luminance" maskUnits="userSpaceOnUse" x="26" y="53" width="287" height="286">
<path d="M26.917 53.1533H312.573V338.462H26.917V53.1533Z" fill="white"/>
</mask>
<g mask="url(#mask15_19_7685)">
<mask id="mask16_19_7685" style="mask-type:luminance" maskUnits="userSpaceOnUse" x="-36" y="-36" width="429" height="429">
<path d="M392.7 -35.6997H-35.6997V392.7H392.7V-35.6997Z" fill="black" fill-opacity="0.4"/>
</mask>
<g mask="url(#mask16_19_7685)">
<mask id="mask17_19_7685" style="mask-type:luminance" maskUnits="userSpaceOnUse" x="26" y="53" width="287" height="286">
<path d="M312.574 53.1533H26.1802V338.753H312.574V53.1533Z" fill="white"/>
</mask>
<g mask="url(#mask17_19_7685)">
<mask id="mask18_19_7685" style="mask-type:luminance" maskUnits="userSpaceOnUse" x="74" y="53" width="238" height="203">
<path d="M74.5737 53.3115H311.78V255.453H74.5737V53.3115Z" fill="white"/>
</mask>
<g mask="url(#mask18_19_7685)">
<path d="M311.78 182.941C311.78 111.466 253.836 53.522 182.362 53.522C137.634 53.522 98.2126 76.2156 74.9673 110.71C98.2343 76.3396 137.582 53.7482 182.213 53.7482C253.687 53.7482 311.632 111.689 311.632 183.167C311.632 209.914 303.509 234.765 289.607 255.397C303.602 234.721 311.78 209.787 311.78 182.941Z" fill="#EEEEEE"/>
</g>
<mask id="mask19_19_7685" style="mask-type:luminance" maskUnits="userSpaceOnUse" x="26" y="95" width="286" height="244">
<path d="M26.917 95.9941H311.779V338.463H26.917V95.9941Z" fill="white"/>
</mask>
<g mask="url(#mask19_19_7685)">
<path d="M182.361 338.236C96.594 338.236 27.0657 268.71 27.0657 182.941C27.0657 150.832 36.8151 121.005 53.5092 96.2441C36.7252 121.048 26.917 150.959 26.917 183.167C26.917 268.934 96.4452 338.462 182.212 338.462C235.87 338.462 283.164 311.244 311.06 269.863C283.145 311.117 235.923 338.236 182.361 338.236Z" fill="#EEEEEE"/>
</g>
</g>
</g>
</g>
<path d="M103.48 299.301C101.534 302.118 95.9283 301.613 90.9607 298.176C85.9961 294.739 83.548 289.673 85.4941 286.859C87.4433 284.042 93.0494 284.544 98.0139 287.981C102.982 291.417 105.427 296.484 103.48 299.301Z" fill="#EEEEEE" fill-opacity="0.3"/>
<path d="M114.627 306.85C113.756 308.586 110.571 308.75 107.512 307.216C104.45 305.682 102.675 303.032 103.542 301.297C104.413 299.561 107.599 299.397 110.661 300.934C113.719 302.465 115.498 305.115 114.627 306.85Z" fill="#EEEEEE" fill-opacity="0.3"/>
</svg>
