<svg width="339" height="339" viewBox="0 0 339 339" fill="none" xmlns="http://www.w3.org/2000/svg">
<path d="M24.2508 57.121L80.6448 7.52462C81.2069 7.03025 81.7895 6.5653 82.3987 6.12978C83.0049 5.69132 83.6317 5.28522 84.2791 4.9115C84.9265 4.53777 85.5915 4.19348 86.2713 3.88449C86.954 3.57551 87.6455 3.29889 88.3547 3.05759C89.0639 2.81629 89.7819 2.6103 90.5088 2.43962C91.2386 2.26895 91.9713 2.13358 92.7129 2.03647C93.4544 1.93642 94.1989 1.87462 94.9464 1.84814C95.6938 1.8246 96.4413 1.83343 97.1887 1.88345C97.9332 1.93053 98.6777 2.01587 99.4134 2.13652C100.152 2.25718 100.882 2.41314 101.606 2.60441C102.33 2.79863 103.039 3.02522 103.739 3.28712C104.44 3.55197 105.128 3.84624 105.799 4.17582C106.47 4.5054 107.123 4.86736 107.759 5.26168C108.395 5.656 109.01 6.07975 109.604 6.53587C110.198 6.98905 110.766 7.47166 111.314 7.98369C111.861 8.49278 112.382 9.02835 112.876 9.5904L310.988 234.861C311.483 235.423 311.948 236.008 312.383 236.614C312.822 237.221 313.228 237.85 313.601 238.498C313.975 239.145 314.319 239.807 314.628 240.49C314.937 241.17 315.214 241.864 315.455 242.571C315.697 243.28 315.903 243.998 316.073 244.725C316.244 245.454 316.379 246.19 316.476 246.932C316.576 247.673 316.638 248.418 316.665 249.165C316.688 249.913 316.677 250.657 316.629 251.405C316.582 252.152 316.497 252.894 316.376 253.632C316.256 254.371 316.1 255.101 315.906 255.822C315.714 256.545 315.488 257.258 315.226 257.958C314.961 258.658 314.667 259.344 314.337 260.015C314.005 260.686 313.643 261.339 313.251 261.975C312.857 262.61 312.43 263.225 311.977 263.82C311.524 264.414 311.041 264.985 310.529 265.532C310.02 266.077 309.482 266.598 308.922 267.092L252.528 316.689C251.966 317.183 251.381 317.648 250.775 318.083C250.165 318.519 249.539 318.925 248.891 319.302C248.244 319.675 247.582 320.017 246.899 320.329C246.219 320.638 245.525 320.911 244.816 321.153C244.109 321.394 243.391 321.603 242.662 321.774C241.935 321.944 241.199 322.077 240.457 322.177C239.716 322.274 238.971 322.339 238.224 322.362C237.476 322.389 236.729 322.377 235.985 322.33C235.237 322.283 234.496 322.197 233.757 322.077C233.018 321.956 232.288 321.8 231.565 321.606C230.844 321.415 230.131 321.185 229.431 320.923C228.731 320.661 228.045 320.364 227.374 320.034C226.703 319.705 226.047 319.343 225.411 318.949C224.776 318.554 224.161 318.13 223.569 317.677C222.975 317.221 222.404 316.739 221.857 316.229C221.309 315.717 220.791 315.182 220.297 314.62L22.182 89.3496C21.6877 88.7875 21.2227 88.2049 20.7872 87.5957C20.3517 86.9895 19.9456 86.3627 19.5689 85.7153C19.1952 85.0679 18.8538 84.4029 18.5419 83.7231C18.2329 83.0434 17.9593 82.3489 17.718 81.6397C17.4767 80.9334 17.2677 80.2154 17.097 79.4856C16.9264 78.7588 16.7939 78.0231 16.6939 77.2815C16.5968 76.54 16.532 75.7955 16.5085 75.048C16.482 74.3006 16.4938 73.5531 16.5409 72.8057C16.588 72.0612 16.6733 71.3196 16.7939 70.581C16.9146 69.8424 17.0706 69.1126 17.2648 68.3887C17.4561 67.6648 17.6856 66.9556 17.9475 66.2552C18.2094 65.5548 18.5066 64.8692 18.8362 64.1953C19.1658 63.5244 19.5277 62.8711 19.922 62.2355C20.3164 61.5998 20.7401 60.9848 21.1933 60.3904C21.6494 59.7989 22.132 59.228 22.6411 58.6807C23.1531 58.1333 23.6887 57.6125 24.2508 57.121Z" fill="#FFE8C0"/>
<path d="M58.9804 77.9819C58.9804 78.3939 58.9598 78.8029 58.9186 79.2149C58.8804 79.6239 58.8186 80.03 58.7391 80.4332C58.6567 80.8393 58.5596 81.2365 58.439 81.6309C58.3183 82.0252 58.18 82.4136 58.024 82.7932C57.8651 83.1728 57.6886 83.5466 57.4943 83.9085C57.3001 84.2734 57.0912 84.6236 56.8617 84.9679C56.6321 85.3093 56.3879 85.6388 56.126 85.9596C55.8641 86.2774 55.5875 86.5805 55.2961 86.8718C55.0048 87.1632 54.7017 87.4398 54.3839 87.7017C54.0632 87.9636 53.7336 88.2078 53.3922 88.4373C53.0509 88.6639 52.6977 88.8758 52.3328 89.07C51.9709 89.2643 51.5972 89.4408 51.2176 89.5997C50.8379 89.7557 50.4495 89.894 50.0552 90.0146C49.6609 90.1324 49.2636 90.2324 48.8604 90.3148C48.4543 90.3943 48.0483 90.4531 47.6392 90.4943C47.2302 90.5355 46.8182 90.5561 46.4062 90.5561C45.9942 90.5561 45.5823 90.5355 45.1732 90.4943C44.7642 90.4531 44.3581 90.3943 43.952 90.3148C43.5489 90.2324 43.1516 90.1324 42.7573 90.0146C42.3629 89.894 41.9745 89.7557 41.5949 89.5997C41.2153 89.4408 40.8416 89.2643 40.4796 89.07C40.1147 88.8758 39.7616 88.6639 39.4202 88.4373C39.0789 88.2078 38.7464 87.9636 38.4285 87.7017C38.1107 87.4398 37.8076 87.1632 37.5163 86.8718C37.225 86.5805 36.9484 86.2774 36.6865 85.9596C36.4246 85.6388 36.1803 85.3093 35.9508 84.9679C35.7213 84.6236 35.5123 84.2734 35.3181 83.9085C35.1239 83.5466 34.9473 83.1728 34.7884 82.7932C34.6324 82.4136 34.4941 82.0252 34.3735 81.6309C34.2528 81.2365 34.1528 80.8393 34.0733 80.4332C33.9939 80.03 33.9321 79.6239 33.8938 79.2149C33.8526 78.8029 33.832 78.3939 33.832 77.9819C33.832 77.5699 33.8526 77.1579 33.8938 76.7489C33.9321 76.3399 33.9939 75.9338 34.0733 75.5277C34.1528 75.1245 34.2528 74.7243 34.3735 74.3329C34.4941 73.9386 34.6324 73.5502 34.7884 73.1706C34.9473 72.788 35.1239 72.4172 35.3181 72.0553C35.5123 71.6904 35.7213 71.3373 35.9508 70.9959C36.1803 70.6546 36.4246 70.322 36.6865 70.0042C36.9484 69.6864 37.225 69.3804 37.5163 69.089C37.8076 68.8007 38.1107 68.524 38.4285 68.2621C38.7464 68.0002 39.0789 67.756 39.4202 67.5265C39.7616 67.2969 40.1147 67.0851 40.4796 66.8938C40.8416 66.6996 41.2153 66.523 41.5949 66.3641C41.9745 66.2081 42.3629 66.0698 42.7573 65.9492C43.1516 65.8285 43.5489 65.7285 43.952 65.649C44.3581 65.5696 44.7642 65.5078 45.1732 65.4695C45.5823 65.4283 45.9942 65.4077 46.4062 65.4077C46.8182 65.4077 47.2302 65.4283 47.6392 65.4695C48.0483 65.5078 48.4543 65.5696 48.8604 65.649C49.2636 65.7285 49.6609 65.8285 50.0552 65.9492C50.4495 66.0698 50.8379 66.2081 51.2176 66.3641C51.5972 66.523 51.9709 66.6996 52.3328 66.8938C52.6977 67.0851 53.0509 67.2969 53.3922 67.5265C53.7336 67.756 54.0632 68.0002 54.3839 68.2621C54.7017 68.524 55.0048 68.8007 55.2961 69.089C55.5875 69.3804 55.8641 69.6864 56.126 70.0042C56.3879 70.322 56.6321 70.6546 56.8617 70.9959C57.0912 71.3373 57.3001 71.6904 57.4943 72.0553C57.6886 72.4172 57.8651 72.788 58.024 73.1706C58.18 73.5502 58.3183 73.9386 58.439 74.3329C58.5596 74.7243 58.6567 75.1245 58.7391 75.5277C58.8186 75.9338 58.8804 76.3399 58.9186 76.7489C58.9598 77.1579 58.9804 77.5699 58.9804 77.9819Z" fill="#F65DBB"/>
<path d="M84.1206 56.0674C84.1206 56.4793 84.1 56.8884 84.0617 57.3004C84.0205 57.7094 83.9587 58.1155 83.8793 58.5186C83.7998 58.9247 83.6997 59.322 83.5791 59.7163C83.4614 60.1106 83.3231 60.4991 83.1642 60.8787C83.0053 61.2583 82.8316 61.632 82.6374 61.994C82.4432 62.3559 82.2313 62.709 82.0018 63.0533C81.7723 63.3947 81.528 63.7243 81.2661 64.0421C81.0072 64.3629 80.7306 64.666 80.4392 64.9573C80.1479 65.2486 79.8419 65.5252 79.524 65.7871C79.2062 66.0461 78.8766 66.2933 78.5324 66.5199C78.191 66.7494 77.8379 66.9613 77.4759 67.1555C77.111 67.3497 76.7402 67.5263 76.3606 67.6822C75.9781 67.8411 75.5926 67.9794 75.1983 68.1001C74.8039 68.2178 74.4037 68.3179 74.0006 68.3973C73.5974 68.4797 73.1884 68.5386 72.7794 68.5798C72.3703 68.621 71.9583 68.6416 71.5464 68.6416C71.1344 68.6416 70.7253 68.621 70.3163 68.5798C69.9043 68.5386 69.4982 68.4797 69.0951 68.3973C68.689 68.3179 68.2917 68.2178 67.8974 68.1001C67.5031 67.9794 67.1146 67.8411 66.735 67.6822C66.3554 67.5263 65.9846 67.3497 65.6197 67.1555C65.2578 66.9613 64.9047 66.7494 64.5604 66.5199C64.219 66.2933 63.8894 66.0461 63.5716 65.7871C63.2509 65.5252 62.9478 65.2486 62.6564 64.9573C62.3651 64.666 62.0885 64.3629 61.8266 64.0421C61.5676 63.7243 61.3204 63.3947 61.0939 63.0533C60.8643 62.709 60.6525 62.3559 60.4582 61.994C60.264 61.632 60.0875 61.2583 59.9315 60.8787C59.7726 60.4991 59.6343 60.1106 59.5136 59.7163C59.3959 59.322 59.2959 58.9247 59.2164 58.5186C59.134 58.1155 59.0752 57.7094 59.034 57.3004C58.9928 56.8884 58.9722 56.4793 58.9722 56.0674C58.9722 55.6554 58.9928 55.2434 59.034 54.8344C59.0752 54.4253 59.134 54.0163 59.2164 53.6131C59.2959 53.21 59.3959 52.8098 59.5136 52.4155C59.6343 52.0211 59.7726 51.6356 59.9315 51.256C60.0875 50.8735 60.264 50.5027 60.4582 50.1378C60.6525 49.7758 60.8643 49.4227 61.0939 49.0814C61.3204 48.7371 61.5676 48.4075 61.8266 48.0897C62.0885 47.7719 62.3651 47.4658 62.6564 47.1745C62.9478 46.8832 63.2509 46.6065 63.5716 46.3476C63.8894 46.0857 64.219 45.8414 64.5604 45.6119C64.9047 45.3824 65.2578 45.1705 65.6197 44.9763C65.9846 44.7821 66.3554 44.6085 66.735 44.4495C67.1146 44.2936 67.5031 44.1523 67.8974 44.0346C68.2917 43.914 68.689 43.8139 69.0951 43.7345C69.4982 43.655 69.9043 43.5932 70.3163 43.552C70.7253 43.5138 71.1344 43.4932 71.5464 43.4932C71.9583 43.4932 72.3703 43.5138 72.7794 43.552C73.1884 43.5932 73.5974 43.655 74.0006 43.7345C74.4037 43.8139 74.8039 43.914 75.1983 44.0346C75.5926 44.1523 75.9781 44.2936 76.3606 44.4495C76.7402 44.6085 77.111 44.7821 77.4759 44.9763C77.8379 45.1705 78.191 45.3824 78.5324 45.6119C78.8766 45.8414 79.2062 46.0857 79.524 46.3476C79.8419 46.6065 80.1479 46.8832 80.4392 47.1745C80.7306 47.4658 81.0072 47.7719 81.2661 48.0897C81.528 48.4075 81.7723 48.7371 82.0018 49.0814C82.2313 49.4227 82.4432 49.7758 82.6374 50.1378C82.8316 50.5027 83.0053 50.8735 83.1642 51.256C83.3231 51.6356 83.4614 52.0211 83.5791 52.4155C83.6997 52.8098 83.7998 53.21 83.8793 53.6131C83.9587 54.0163 84.0205 54.4253 84.0617 54.8344C84.1 55.2434 84.1206 55.6554 84.1206 56.0674Z" fill="#F97645"/>
<path d="M108.433 32.8496C108.433 33.2616 108.412 33.6735 108.371 34.0826C108.33 34.4916 108.271 34.8977 108.192 35.3038C108.109 35.707 108.009 36.1072 107.892 36.5015C107.771 36.8929 107.633 37.2813 107.474 37.6609C107.318 38.0435 107.141 38.4142 106.947 38.7762C106.753 39.1411 106.541 39.4942 106.314 39.8356C106.085 40.1769 105.841 40.5095 105.579 40.8273C105.317 41.1451 105.04 41.4511 104.749 41.7424C104.457 42.0338 104.154 42.3074 103.834 42.5693C103.516 42.8313 103.186 43.0755 102.845 43.305C102.501 43.5346 102.147 43.7464 101.785 43.9407C101.424 44.1319 101.05 44.3085 100.67 44.4674C100.291 44.6234 99.9021 44.7617 99.5078 44.8823C99.1135 45.003 98.7162 45.103 98.3101 45.1825C97.907 45.2619 97.5009 45.3237 97.0919 45.362C96.6799 45.4032 96.2708 45.4238 95.8589 45.4238C95.4469 45.4238 95.0349 45.4032 94.6259 45.362C94.2168 45.3237 93.8078 45.2619 93.4046 45.1825C93.0015 45.103 92.6013 45.003 92.207 44.8823C91.8126 44.7617 91.4271 44.6234 91.0475 44.4674C90.665 44.3085 90.2942 44.1319 89.9322 43.9407C89.5674 43.7464 89.2142 43.5346 88.8729 43.305C88.5286 43.0755 88.199 42.8313 87.8812 42.5693C87.5634 42.3074 87.2573 42.0338 86.966 41.7424C86.6747 41.4511 86.401 41.1451 86.1391 40.8273C85.8772 40.5095 85.6329 40.1769 85.4034 39.8356C85.1739 39.4942 84.962 39.1411 84.7678 38.7762C84.5736 38.4142 84.4 38.0435 84.241 37.6609C84.0851 37.2813 83.9438 36.8929 83.8261 36.5015C83.7055 36.1072 83.6054 35.707 83.526 35.3038C83.4465 34.9007 83.3847 34.4916 83.3435 34.0826C83.3053 33.6735 83.2847 33.2616 83.2847 32.8496C83.2847 32.4376 83.3053 32.0286 83.3435 31.6166C83.3847 31.2076 83.4465 30.8015 83.526 30.3983C83.6054 29.9922 83.7055 29.5949 83.8261 29.2006C83.9438 28.8063 84.0851 28.4179 84.241 28.0383C84.4 27.6586 84.5736 27.2849 84.7678 26.923C84.962 26.561 85.1739 26.2079 85.4034 25.8636C85.6329 25.5222 85.8772 25.1927 86.1391 24.8719C86.401 24.5541 86.6747 24.251 86.966 23.9597C87.2573 23.6683 87.5634 23.3917 87.8812 23.1298C88.199 22.8679 88.5286 22.6237 88.8729 22.3941C89.2142 22.1676 89.5674 21.9557 89.9322 21.7615C90.2942 21.5672 90.665 21.3907 91.0475 21.2347C91.4271 21.0758 91.8126 20.9375 92.207 20.8168C92.6013 20.6991 93.0015 20.5991 93.4046 20.5167C93.8078 20.4372 94.2168 20.3784 94.6259 20.3372C95.0349 20.296 95.4469 20.2754 95.8589 20.2754C96.2708 20.2754 96.6799 20.296 97.0919 20.3372C97.5009 20.3784 97.907 20.4372 98.3101 20.5167C98.7162 20.5991 99.1135 20.6991 99.5078 20.8168C99.9021 20.9375 100.291 21.0758 100.67 21.2347C101.05 21.3907 101.424 21.5672 101.785 21.7615C102.147 21.9557 102.501 22.1676 102.845 22.3941C103.186 22.6237 103.516 22.8679 103.834 23.1298C104.154 23.3917 104.457 23.6683 104.749 23.9597C105.04 24.251 105.317 24.5541 105.579 24.8719C105.841 25.1927 106.085 25.5222 106.314 25.8636C106.541 26.2079 106.753 26.561 106.947 26.923C107.141 27.2849 107.318 27.6586 107.474 28.0383C107.633 28.4179 107.771 28.8063 107.892 29.2006C108.009 29.5949 108.109 29.9922 108.192 30.3983C108.271 30.8015 108.33 31.2076 108.371 31.6166C108.412 32.0286 108.433 32.4376 108.433 32.8496Z" fill="#F65DBB"/>
<path d="M83.0996 104.66C83.0996 105.072 83.079 105.481 83.0378 105.893C82.9966 106.302 82.9377 106.708 82.8583 107.112C82.7759 107.518 82.6758 107.915 82.5581 108.309C82.4374 108.704 82.2991 109.092 82.1402 109.472C81.9843 109.851 81.8077 110.225 81.6135 110.587C81.4193 110.949 81.2074 111.302 80.9808 111.646C80.7513 111.988 80.507 112.317 80.2451 112.638C79.9832 112.956 79.7066 113.259 79.4153 113.55C79.124 113.842 78.8209 114.118 78.5001 114.38C78.1823 114.642 77.8527 114.886 77.5114 115.116C77.1671 115.342 76.8139 115.554 76.452 115.748C76.09 115.943 75.7163 116.119 75.3367 116.275C74.9571 116.434 74.5686 116.572 74.1743 116.693C73.78 116.811 73.3827 116.911 72.9766 116.993C72.5735 117.073 72.1674 117.132 71.7584 117.173C71.3464 117.214 70.9373 117.235 70.5254 117.235C70.1134 117.235 69.7014 117.214 69.2924 117.173C68.8833 117.132 68.4743 117.073 68.0711 116.993C67.668 116.911 67.2678 116.811 66.8735 116.693C66.4791 116.572 66.0936 116.434 65.714 116.275C65.3315 116.119 64.9607 115.943 64.5988 115.748C64.2339 115.554 63.8807 115.342 63.5394 115.116C63.198 114.886 62.8655 114.642 62.5477 114.38C62.2299 114.118 61.9238 113.842 61.6325 113.55C61.3412 113.259 61.0675 112.956 60.8056 112.638C60.5437 112.317 60.2995 111.988 60.0699 111.646C59.8404 111.302 59.6285 110.949 59.4343 110.587C59.2401 110.225 59.0665 109.851 58.9076 109.472C58.7516 109.092 58.6103 108.704 58.4926 108.309C58.372 107.915 58.2719 107.518 58.1925 107.112C58.113 106.708 58.0512 106.302 58.01 105.893C57.9718 105.481 57.9512 105.072 57.9512 104.66C57.9512 104.248 57.9718 103.836 58.01 103.427C58.0512 103.018 58.113 102.609 58.1925 102.206C58.2719 101.803 58.372 101.403 58.4926 101.008C58.6103 100.617 58.7516 100.229 58.9076 99.849C59.0665 99.4665 59.2401 99.0957 59.4343 98.7338C59.6285 98.3689 59.8404 98.0157 60.0699 97.6744C60.2995 97.333 60.5437 97.0005 60.8056 96.6827C61.0675 96.3649 61.3412 96.0588 61.6325 95.7675C61.9238 95.4762 62.2299 95.2025 62.5477 94.9406C62.8655 94.6787 63.198 94.4345 63.5394 94.2049C63.8807 93.9754 64.2339 93.7635 64.5988 93.5693C64.9607 93.3751 65.3315 93.2015 65.714 93.0426C66.0936 92.8866 66.4791 92.7483 66.8735 92.6276C67.2678 92.507 67.668 92.4069 68.0711 92.3275C68.4743 92.248 68.8833 92.1862 69.2924 92.145C69.7014 92.1068 70.1134 92.0862 70.5254 92.0862C70.9373 92.0862 71.3464 92.1068 71.7584 92.145C72.1674 92.1862 72.5735 92.248 72.9766 92.3275C73.3827 92.4069 73.78 92.507 74.1743 92.6276C74.5686 92.7483 74.9571 92.8866 75.3367 93.0426C75.7163 93.2015 76.09 93.3751 76.452 93.5693C76.8139 93.7635 77.1671 93.9754 77.5114 94.2049C77.8527 94.4345 78.1823 94.6787 78.5001 94.9406C78.8209 95.2025 79.124 95.4762 79.4153 95.7675C79.7066 96.0588 79.9832 96.3649 80.2451 96.6827C80.507 97.0005 80.7513 97.333 80.9808 97.6744C81.2074 98.0157 81.4193 98.3689 81.6135 98.7338C81.8077 99.0957 81.9843 99.4665 82.1402 99.849C82.2991 100.229 82.4374 100.617 82.5581 101.008C82.6758 101.403 82.7759 101.803 82.8583 102.206C82.9377 102.609 82.9966 103.018 83.0378 103.427C83.079 103.836 83.0996 104.248 83.0996 104.66Z" fill="#F97645"/>
<path d="M133.322 59.8576C133.322 60.2696 133.302 60.6787 133.26 61.0906C133.222 61.4997 133.16 61.9058 133.081 62.3089C133.001 62.715 132.901 63.1123 132.781 63.5066C132.66 63.9009 132.522 64.2894 132.366 64.669C132.207 65.0486 132.03 65.4223 131.836 65.7843C131.642 66.1492 131.433 66.4993 131.203 66.8436C130.974 67.185 130.73 67.5146 130.468 67.8353C130.206 68.1531 129.929 68.4562 129.638 68.7476C129.347 69.0389 129.044 69.3155 128.726 69.5774C128.408 69.8393 128.075 70.0836 127.734 70.3131C127.393 70.5397 127.04 70.7515 126.675 70.9458C126.313 71.14 125.942 71.3165 125.559 71.4755C125.18 71.6314 124.791 71.7697 124.397 71.8904C124.003 72.0081 123.605 72.1081 123.202 72.1905C122.796 72.27 122.39 72.3288 121.981 72.37C121.572 72.4112 121.16 72.4318 120.748 72.4318C120.336 72.4318 119.924 72.4112 119.515 72.37C119.106 72.3288 118.7 72.27 118.294 72.1905C117.891 72.1081 117.493 72.0081 117.099 71.8904C116.705 71.7697 116.316 71.6314 115.937 71.4755C115.557 71.3165 115.183 71.14 114.821 70.9458C114.457 70.7515 114.106 70.5397 113.762 70.3131C113.421 70.0836 113.091 69.8393 112.77 69.5774C112.453 69.3155 112.149 69.0389 111.858 68.7476C111.567 68.4562 111.29 68.1531 111.028 67.8353C110.766 67.5146 110.522 67.185 110.293 66.8436C110.066 66.4993 109.854 66.1492 109.66 65.7843C109.466 65.4223 109.289 65.0486 109.13 64.669C108.974 64.2894 108.836 63.9009 108.715 63.5066C108.598 63.1123 108.498 62.715 108.415 62.3089C108.336 61.9058 108.274 61.4997 108.236 61.0906C108.194 60.6787 108.174 60.2696 108.174 59.8576C108.174 59.4457 108.194 59.0337 108.236 58.6246C108.274 58.2156 108.336 57.8095 108.415 57.4034C108.498 57.0003 108.598 56.6001 108.715 56.2087C108.836 55.8144 108.974 55.4259 109.13 55.0463C109.289 54.6638 109.466 54.293 109.66 53.931C109.854 53.5661 110.066 53.213 110.293 52.8717C110.522 52.5303 110.766 52.1978 111.028 51.88C111.29 51.5621 111.567 51.2561 111.858 50.9648C112.149 50.6764 112.453 50.3998 112.77 50.1379C113.091 49.876 113.421 49.6317 113.762 49.4022C114.106 49.1727 114.457 48.9608 114.821 48.7695C115.183 48.5753 115.557 48.3987 115.937 48.2398C116.316 48.0839 116.705 47.9456 117.099 47.8249C117.493 47.7043 117.891 47.6042 118.294 47.5247C118.7 47.4453 119.106 47.3835 119.515 47.3452C119.924 47.304 120.336 47.2834 120.748 47.2834C121.16 47.2834 121.572 47.304 121.981 47.3452C122.39 47.3835 122.796 47.4453 123.202 47.5247C123.605 47.6042 124.003 47.7043 124.397 47.8249C124.791 47.9456 125.18 48.0839 125.559 48.2398C125.939 48.3987 126.313 48.5753 126.675 48.7695C127.04 48.9608 127.393 49.1727 127.734 49.4022C128.075 49.6317 128.408 49.876 128.726 50.1379C129.044 50.3998 129.347 50.6764 129.638 50.9648C129.929 51.2561 130.206 51.5621 130.468 51.88C130.73 52.1978 130.974 52.5303 131.203 52.8717C131.433 53.213 131.642 53.5661 131.836 53.931C132.03 54.293 132.207 54.6638 132.366 55.0463C132.522 55.4259 132.66 55.8144 132.781 56.2087C132.901 56.6001 133.001 57.0003 133.081 57.4034C133.16 57.8095 133.222 58.2156 133.26 58.6246C133.302 59.0337 133.322 59.4457 133.322 59.8576Z" fill="#F97645"/>
<path d="M106.043 131.339C106.043 131.751 106.023 132.16 105.982 132.572C105.943 132.981 105.882 133.387 105.802 133.79C105.72 134.196 105.62 134.593 105.502 134.988C105.381 135.382 105.243 135.771 105.087 136.15C104.928 136.53 104.752 136.904 104.557 137.265C104.363 137.627 104.151 137.981 103.925 138.325C103.695 138.666 103.451 138.996 103.189 139.314C102.927 139.634 102.65 139.937 102.359 140.229C102.068 140.52 101.765 140.797 101.447 141.059C101.126 141.321 100.797 141.565 100.455 141.794C100.111 142.021 99.7607 142.233 99.3958 142.427C99.0339 142.621 98.6601 142.798 98.2805 142.954C97.9009 143.113 97.5125 143.251 97.1182 143.372C96.7238 143.489 96.3266 143.589 95.9234 143.672C95.5173 143.751 95.1112 143.81 94.7022 143.851C94.2902 143.892 93.8812 143.913 93.4692 143.913C93.0572 143.913 92.6453 143.892 92.2362 143.851C91.8272 143.81 91.4211 143.751 91.015 143.672C90.6118 143.589 90.2146 143.489 89.8203 143.372C89.4259 143.251 89.0375 143.113 88.6579 142.954C88.2753 142.798 87.9046 142.621 87.5426 142.427C87.1777 142.233 86.8246 142.021 86.4832 141.794C86.1419 141.565 85.8093 141.321 85.4915 141.059C85.1737 140.797 84.8706 140.52 84.5793 140.229C84.288 139.937 84.0113 139.634 83.7494 139.314C83.4875 138.996 83.2433 138.666 83.0138 138.325C82.7842 137.981 82.5753 137.627 82.3811 137.265C82.1869 136.904 82.0103 136.53 81.8514 136.15C81.6954 135.771 81.5571 135.382 81.4365 134.988C81.3158 134.593 81.2158 134.196 81.1363 133.79C81.0569 133.387 80.9951 132.981 80.9568 132.572C80.9156 132.16 80.895 131.751 80.895 131.339C80.895 130.927 80.9156 130.515 80.9568 130.106C80.9951 129.697 81.0569 129.288 81.1363 128.885C81.2158 128.481 81.3158 128.081 81.4365 127.687C81.5571 127.293 81.6954 126.907 81.8514 126.528C82.0103 126.145 82.1869 125.774 82.3811 125.412C82.5753 125.047 82.7842 124.694 83.0138 124.353C83.2433 124.009 83.4875 123.679 83.7494 123.361C84.0113 123.043 84.288 122.737 84.5793 122.446C84.8706 122.155 85.1737 121.881 85.4915 121.619C85.8093 121.357 86.1419 121.113 86.4832 120.883C86.8246 120.654 87.1777 120.442 87.5426 120.248C87.9046 120.054 88.2753 119.88 88.6579 119.721C89.0375 119.565 89.4259 119.424 89.8203 119.306C90.2146 119.185 90.6118 119.085 91.015 119.006C91.4211 118.926 91.8272 118.865 92.2362 118.824C92.6453 118.785 93.0572 118.765 93.4692 118.765C93.8812 118.765 94.2902 118.785 94.7022 118.824C95.1112 118.865 95.5173 118.926 95.9234 119.006C96.3266 119.085 96.7238 119.185 97.1182 119.306C97.5125 119.424 97.9009 119.565 98.2805 119.721C98.6601 119.88 99.0339 120.054 99.3958 120.248C99.7607 120.442 100.111 120.654 100.455 120.883C100.797 121.113 101.126 121.357 101.447 121.619C101.765 121.881 102.068 122.155 102.359 122.446C102.65 122.737 102.927 123.043 103.189 123.361C103.451 123.679 103.695 124.009 103.925 124.353C104.151 124.694 104.363 125.047 104.557 125.412C104.752 125.774 104.928 126.145 105.087 126.528C105.243 126.907 105.381 127.293 105.502 127.687C105.62 128.081 105.72 128.481 105.802 128.885C105.882 129.288 105.943 129.697 105.982 130.106C106.023 130.515 106.043 130.927 106.043 131.339Z" fill="#F65DBB"/>
<path d="M157.526 86.8659C157.526 87.2779 157.505 87.687 157.464 88.096C157.426 88.508 157.364 88.9141 157.285 89.3172C157.202 89.7204 157.105 90.1206 156.984 90.5149C156.864 90.9092 156.725 91.2947 156.569 91.6773C156.411 92.0569 156.234 92.4277 156.04 92.7926C155.846 93.1545 155.637 93.5076 155.407 93.8519C155.178 94.1933 154.933 94.5229 154.671 94.8407C154.409 95.1585 154.133 95.4645 153.842 95.7559C153.55 96.0472 153.247 96.3238 152.929 96.5857C152.612 96.8447 152.279 97.0919 151.938 97.3184C151.596 97.548 151.243 97.7598 150.878 97.9541C150.516 98.1483 150.143 98.3248 149.763 98.4808C149.383 98.6397 148.995 98.778 148.601 98.8987C148.206 99.0164 147.809 99.1164 147.406 99.1959C147 99.2783 146.594 99.3371 146.185 99.3783C145.776 99.4195 145.364 99.4401 144.952 99.4401C144.54 99.4401 144.128 99.4195 143.719 99.3783C143.31 99.3371 142.904 99.2783 142.497 99.1959C142.094 99.1164 141.697 99.0164 141.303 98.8987C140.908 98.778 140.52 98.6397 140.14 98.4808C139.761 98.3248 139.387 98.1483 139.025 97.9541C138.66 97.7598 138.307 97.548 137.966 97.3184C137.624 97.0919 137.292 96.8447 136.974 96.5857C136.656 96.3238 136.353 96.0472 136.062 95.7559C135.77 95.4645 135.494 95.1585 135.232 94.8407C134.97 94.5229 134.726 94.1933 134.496 93.8519C134.267 93.5076 134.058 93.1545 133.864 92.7926C133.669 92.4277 133.493 92.0569 133.334 91.6773C133.178 91.2947 133.04 90.9092 132.919 90.5149C132.798 90.1206 132.701 89.7204 132.619 89.3172C132.539 88.9141 132.477 88.508 132.439 88.096C132.398 87.687 132.377 87.2779 132.377 86.8659C132.377 86.454 132.398 86.042 132.439 85.6329C132.477 85.2239 132.539 84.8149 132.619 84.4117C132.701 84.0086 132.798 83.6084 132.919 83.214C133.04 82.8197 133.178 82.4342 133.334 82.0517C133.493 81.6721 133.669 81.3013 133.864 80.9364C134.058 80.5744 134.267 80.2213 134.496 79.88C134.726 79.5357 134.97 79.2061 135.232 78.8883C135.494 78.5704 135.77 78.2644 136.062 77.9731C136.353 77.6817 136.656 77.4051 136.974 77.1462C137.292 76.8843 137.624 76.64 137.966 76.4105C138.307 76.181 138.66 75.9691 139.025 75.7749C139.387 75.5807 139.761 75.407 140.14 75.2481C140.52 75.0892 140.908 74.9509 141.303 74.8332C141.697 74.7126 142.094 74.6125 142.497 74.5331C142.904 74.4536 143.31 74.3918 143.719 74.3506C144.128 74.3123 144.54 74.2917 144.952 74.2917C145.364 74.2917 145.776 74.3123 146.185 74.3506C146.594 74.3918 147 74.4536 147.406 74.5331C147.809 74.6125 148.206 74.7126 148.601 74.8332C148.995 74.9509 149.383 75.0892 149.763 75.2481C150.143 75.407 150.516 75.5807 150.878 75.7749C151.243 75.9691 151.596 76.181 151.938 76.4105C152.279 76.64 152.612 76.8843 152.929 77.1462C153.247 77.4051 153.55 77.6817 153.842 77.9731C154.133 78.2644 154.409 78.5704 154.671 78.8883C154.933 79.2061 155.178 79.5357 155.407 79.88C155.637 80.2213 155.846 80.5744 156.04 80.9364C156.234 81.3013 156.411 81.6721 156.569 82.0517C156.725 82.4342 156.864 82.8197 156.984 83.214C157.105 83.6084 157.202 84.0086 157.285 84.4117C157.364 84.8149 157.426 85.2239 157.464 85.6329C157.505 86.042 157.526 86.454 157.526 86.8659Z" fill="#F65DBB"/>
<path d="M129.888 158.024C129.888 158.436 129.868 158.848 129.829 159.257C129.788 159.666 129.726 160.072 129.647 160.478C129.567 160.881 129.467 161.281 129.347 161.673C129.229 162.067 129.091 162.455 128.932 162.835C128.773 163.218 128.599 163.588 128.405 163.95C128.211 164.315 127.999 164.668 127.769 165.01C127.54 165.351 127.296 165.684 127.034 166.001C126.775 166.319 126.498 166.625 126.207 166.914C125.915 167.205 125.609 167.482 125.292 167.743C124.974 168.005 124.644 168.25 124.3 168.479C123.959 168.709 123.605 168.918 123.243 169.112C122.879 169.306 122.508 169.483 122.128 169.641C121.746 169.797 121.36 169.936 120.966 170.056C120.572 170.177 120.171 170.277 119.768 170.357C119.365 170.436 118.956 170.498 118.547 170.536C118.138 170.577 117.726 170.598 117.314 170.598C116.902 170.598 116.493 170.577 116.084 170.536C115.672 170.498 115.266 170.436 114.863 170.357C114.46 170.277 114.059 170.177 113.665 170.056C113.271 169.936 112.885 169.797 112.503 169.641C112.123 169.483 111.752 169.306 111.387 169.112C111.025 168.918 110.672 168.709 110.328 168.479C109.987 168.25 109.657 168.005 109.339 167.743C109.021 167.482 108.715 167.205 108.424 166.914C108.133 166.625 107.856 166.319 107.594 166.001C107.335 165.684 107.088 165.351 106.861 165.01C106.632 164.668 106.42 164.315 106.226 163.95C106.032 163.588 105.855 163.218 105.699 162.835C105.54 162.455 105.402 162.067 105.281 161.673C105.163 161.281 105.063 160.881 104.984 160.478C104.902 160.072 104.843 159.666 104.802 159.257C104.76 158.848 104.74 158.436 104.74 158.024C104.74 157.612 104.76 157.203 104.802 156.791C104.843 156.382 104.902 155.976 104.984 155.569C105.063 155.166 105.163 154.769 105.281 154.375C105.402 153.98 105.54 153.592 105.699 153.212C105.855 152.833 106.032 152.459 106.226 152.097C106.42 151.732 106.632 151.382 106.861 151.038C107.088 150.696 107.335 150.367 107.594 150.046C107.856 149.728 108.133 149.425 108.424 149.134C108.715 148.842 109.021 148.566 109.339 148.304C109.657 148.042 109.987 147.798 110.328 147.568C110.672 147.342 111.025 147.13 111.387 146.936C111.752 146.741 112.123 146.565 112.503 146.406C112.885 146.25 113.271 146.112 113.665 145.991C114.059 145.873 114.46 145.773 114.863 145.691C115.266 145.611 115.672 145.55 116.084 145.511C116.493 145.47 116.902 145.449 117.314 145.449C117.726 145.449 118.138 145.47 118.547 145.511C118.956 145.55 119.365 145.611 119.768 145.691C120.171 145.773 120.572 145.873 120.966 145.991C121.36 146.112 121.746 146.25 122.128 146.406C122.508 146.565 122.879 146.741 123.243 146.936C123.605 147.13 123.959 147.342 124.3 147.568C124.644 147.798 124.974 148.042 125.292 148.304C125.609 148.566 125.915 148.842 126.207 149.134C126.498 149.425 126.775 149.728 127.034 150.046C127.296 150.367 127.54 150.696 127.769 151.038C127.999 151.382 128.211 151.732 128.405 152.097C128.599 152.459 128.773 152.833 128.932 153.212C129.091 153.592 129.229 153.98 129.347 154.375C129.467 154.769 129.567 155.166 129.647 155.569C129.726 155.976 129.788 156.382 129.829 156.791C129.868 157.203 129.888 157.612 129.888 158.024Z" fill="#F97645"/>
<path d="M181.271 113.871C181.271 114.283 181.25 114.695 181.212 115.104C181.171 115.513 181.112 115.922 181.03 116.325C180.95 116.728 180.85 117.129 180.729 117.523C180.612 117.917 180.473 118.303 180.315 118.685C180.156 119.065 179.982 119.436 179.788 119.801C179.594 120.163 179.382 120.516 179.152 120.857C178.923 121.201 178.678 121.531 178.417 121.849C178.158 122.167 177.881 122.473 177.59 122.764C177.298 123.055 176.992 123.332 176.674 123.591C176.357 123.853 176.027 124.097 175.683 124.327C175.341 124.556 174.988 124.768 174.626 124.962C174.261 125.156 173.891 125.33 173.511 125.489C173.128 125.648 172.743 125.786 172.349 125.904C171.954 126.024 171.554 126.125 171.151 126.204C170.748 126.283 170.339 126.345 169.93 126.386C169.521 126.425 169.109 126.445 168.697 126.445C168.285 126.445 167.876 126.425 167.467 126.386C167.055 126.345 166.649 126.283 166.245 126.204C165.842 126.125 165.442 126.024 165.048 125.904C164.653 125.786 164.268 125.648 163.885 125.489C163.506 125.33 163.135 125.156 162.77 124.962C162.408 124.768 162.055 124.556 161.714 124.327C161.369 124.097 161.04 123.853 160.722 123.591C160.404 123.332 160.098 123.055 159.807 122.764C159.515 122.473 159.239 122.167 158.977 121.849C158.718 121.531 158.471 121.201 158.244 120.857C158.015 120.516 157.803 120.163 157.609 119.801C157.414 119.436 157.238 119.065 157.082 118.685C156.923 118.303 156.785 117.917 156.664 117.523C156.546 117.129 156.446 116.728 156.367 116.325C156.284 115.922 156.226 115.513 156.184 115.104C156.143 114.695 156.125 114.283 156.125 113.871C156.125 113.459 156.143 113.05 156.184 112.641C156.226 112.229 156.284 111.823 156.367 111.42C156.446 111.014 156.546 110.616 156.664 110.222C156.785 109.828 156.923 109.439 157.082 109.06C157.238 108.68 157.414 108.309 157.609 107.944C157.803 107.583 158.015 107.229 158.244 106.885C158.471 106.544 158.718 106.214 158.977 105.896C159.239 105.576 159.515 105.272 159.807 104.981C160.098 104.69 160.404 104.413 160.722 104.151C161.04 103.892 161.369 103.645 161.714 103.419C162.055 103.189 162.408 102.977 162.77 102.783C163.135 102.589 163.506 102.412 163.885 102.256C164.268 102.097 164.653 101.959 165.048 101.838C165.442 101.721 165.842 101.621 166.245 101.541C166.649 101.459 167.055 101.4 167.467 101.359C167.876 101.317 168.285 101.297 168.697 101.297C169.109 101.297 169.521 101.317 169.93 101.359C170.339 101.4 170.748 101.459 171.151 101.541C171.554 101.621 171.954 101.721 172.349 101.838C172.743 101.959 173.128 102.097 173.511 102.256C173.891 102.412 174.261 102.589 174.626 102.783C174.988 102.977 175.341 103.189 175.683 103.419C176.027 103.645 176.357 103.892 176.674 104.151C176.992 104.413 177.298 104.69 177.59 104.981C177.881 105.272 178.158 105.576 178.417 105.896C178.678 106.214 178.923 106.544 179.152 106.885C179.382 107.229 179.594 107.583 179.788 107.944C179.982 108.309 180.156 108.68 180.315 109.06C180.473 109.439 180.612 109.828 180.729 110.222C180.85 110.616 180.95 111.014 181.03 111.42C181.112 111.823 181.171 112.229 181.212 112.641C181.25 113.05 181.271 113.459 181.271 113.871Z" fill="#F97645"/>
<path d="M153.486 184.702C153.486 185.114 153.466 185.526 153.424 185.935C153.383 186.344 153.324 186.75 153.245 187.156C153.163 187.559 153.063 187.957 152.945 188.351C152.824 188.745 152.686 189.134 152.527 189.513C152.371 189.893 152.194 190.267 152 190.629C151.806 190.994 151.594 191.347 151.368 191.688C151.138 192.029 150.894 192.362 150.632 192.68C150.37 192.998 150.093 193.301 149.802 193.592C149.511 193.883 149.208 194.16 148.887 194.422C148.569 194.684 148.239 194.928 147.898 195.158C147.554 195.387 147.201 195.596 146.839 195.79C146.477 195.984 146.103 196.161 145.723 196.32C145.344 196.476 144.955 196.614 144.561 196.735C144.167 196.856 143.769 196.956 143.363 197.035C142.96 197.114 142.554 197.176 142.145 197.215C141.733 197.256 141.324 197.276 140.912 197.276C140.5 197.276 140.088 197.256 139.679 197.215C139.27 197.176 138.861 197.114 138.458 197.035C138.055 196.956 137.655 196.856 137.26 196.735C136.866 196.614 136.48 196.476 136.101 196.32C135.718 196.161 135.347 195.984 134.985 195.79C134.621 195.596 134.267 195.387 133.926 195.158C133.582 194.928 133.252 194.684 132.934 194.422C132.617 194.16 132.311 193.883 132.019 193.592C131.728 193.301 131.454 192.998 131.192 192.68C130.93 192.362 130.686 192.029 130.457 191.688C130.227 191.347 130.015 190.994 129.821 190.629C129.627 190.267 129.453 189.893 129.294 189.513C129.138 189.134 128.997 188.745 128.879 188.351C128.759 187.957 128.659 187.559 128.579 187.156C128.5 186.75 128.438 186.344 128.397 185.935C128.358 185.526 128.338 185.114 128.338 184.702C128.338 184.29 128.358 183.878 128.397 183.469C128.438 183.06 128.5 182.654 128.579 182.248C128.659 181.845 128.759 181.447 128.879 181.053C128.997 180.659 129.138 180.27 129.294 179.891C129.453 179.511 129.627 179.137 129.821 178.776C130.015 178.411 130.227 178.057 130.457 177.716C130.686 177.375 130.93 177.045 131.192 176.724C131.454 176.407 131.728 176.104 132.019 175.812C132.311 175.521 132.617 175.244 132.934 174.982C133.252 174.72 133.582 174.476 133.926 174.247C134.267 174.017 134.621 173.808 134.985 173.614C135.347 173.42 135.718 173.243 136.101 173.084C136.48 172.928 136.866 172.79 137.26 172.669C137.655 172.549 138.055 172.452 138.458 172.369C138.861 172.29 139.27 172.228 139.679 172.19C140.088 172.149 140.5 172.128 140.912 172.128C141.324 172.128 141.733 172.149 142.145 172.19C142.554 172.228 142.96 172.29 143.363 172.369C143.769 172.452 144.167 172.549 144.561 172.669C144.955 172.79 145.344 172.928 145.723 173.084C146.103 173.243 146.477 173.42 146.839 173.614C147.201 173.808 147.554 174.017 147.898 174.247C148.239 174.476 148.569 174.72 148.887 174.982C149.208 175.244 149.511 175.521 149.802 175.812C150.093 176.104 150.37 176.407 150.632 176.724C150.894 177.045 151.138 177.375 151.368 177.716C151.594 178.057 151.806 178.411 152 178.776C152.194 179.137 152.371 179.511 152.527 179.891C152.686 180.27 152.824 180.659 152.945 181.053C153.063 181.447 153.163 181.845 153.245 182.248C153.324 182.654 153.383 183.06 153.424 183.469C153.466 183.878 153.486 184.29 153.486 184.702Z" fill="#F65DBB"/>
<path d="M204.003 140.27C204.003 140.682 203.983 141.094 203.942 141.503C203.9 141.915 203.842 142.321 203.759 142.724C203.68 143.127 203.58 143.528 203.462 143.922C203.341 144.316 203.203 144.702 203.044 145.084C202.888 145.464 202.712 145.835 202.517 146.2C202.323 146.561 202.111 146.915 201.882 147.256C201.655 147.6 201.408 147.93 201.149 148.248C200.887 148.565 200.61 148.872 200.319 149.163C200.028 149.454 199.725 149.731 199.404 149.99C199.086 150.252 198.757 150.499 198.415 150.725C198.071 150.955 197.718 151.167 197.356 151.361C196.991 151.555 196.62 151.732 196.241 151.888C195.861 152.047 195.472 152.185 195.078 152.303C194.684 152.423 194.287 152.523 193.88 152.603C193.477 152.685 193.071 152.744 192.659 152.785C192.25 152.827 191.841 152.844 191.429 152.844C191.017 152.844 190.605 152.827 190.196 152.785C189.787 152.744 189.378 152.685 188.975 152.603C188.572 152.523 188.172 152.423 187.777 152.303C187.383 152.185 186.997 152.047 186.618 151.888C186.235 151.732 185.865 151.555 185.5 151.361C185.138 151.167 184.785 150.955 184.443 150.725C184.099 150.499 183.769 150.252 183.451 149.99C183.134 149.731 182.828 149.454 182.536 149.163C182.245 148.872 181.968 148.565 181.709 148.248C181.448 147.93 181.203 147.6 180.974 147.256C180.744 146.915 180.532 146.561 180.338 146.2C180.144 145.835 179.97 145.464 179.811 145.084C179.652 144.702 179.514 144.316 179.396 143.922C179.276 143.528 179.176 143.127 179.096 142.724C179.017 142.321 178.955 141.915 178.914 141.503C178.876 141.094 178.855 140.682 178.855 140.27C178.855 139.861 178.876 139.449 178.914 139.04C178.955 138.628 179.017 138.222 179.096 137.819C179.176 137.416 179.276 137.015 179.396 136.621C179.514 136.227 179.652 135.841 179.811 135.459C179.97 135.079 180.144 134.708 180.338 134.343C180.532 133.981 180.744 133.628 180.974 133.287C181.203 132.943 181.448 132.613 181.709 132.295C181.968 131.977 182.245 131.671 182.536 131.38C182.828 131.089 183.134 130.812 183.451 130.55C183.769 130.291 184.099 130.044 184.443 129.817C184.785 129.588 185.138 129.376 185.5 129.182C185.865 128.988 186.235 128.811 186.618 128.655C186.997 128.496 187.383 128.358 187.777 128.24C188.172 128.12 188.572 128.019 188.975 127.94C189.378 127.858 189.787 127.799 190.196 127.758C190.605 127.716 191.017 127.699 191.429 127.699C191.841 127.699 192.25 127.716 192.659 127.758C193.071 127.799 193.477 127.858 193.88 127.94C194.287 128.019 194.684 128.12 195.078 128.24C195.472 128.358 195.861 128.496 196.241 128.655C196.62 128.811 196.991 128.988 197.356 129.182C197.718 129.376 198.071 129.588 198.415 129.817C198.757 130.044 199.086 130.291 199.404 130.55C199.725 130.812 200.028 131.089 200.319 131.38C200.61 131.671 200.887 131.977 201.149 132.295C201.408 132.613 201.655 132.943 201.882 133.287C202.111 133.628 202.323 133.981 202.517 134.343C202.712 134.708 202.888 135.079 203.044 135.459C203.203 135.841 203.341 136.227 203.462 136.621C203.58 137.015 203.68 137.416 203.759 137.819C203.842 138.222 203.9 138.628 203.942 139.04C203.983 139.449 204.003 139.861 204.003 140.27Z" fill="#F65DBB"/>
<path d="M176.996 212.152C176.996 212.564 176.975 212.976 176.934 213.385C176.896 213.797 176.834 214.203 176.754 214.606C176.672 215.009 176.572 215.409 176.454 215.803C176.333 216.198 176.195 216.583 176.039 216.966C175.88 217.345 175.704 217.716 175.509 218.081C175.315 218.443 175.103 218.796 174.877 219.138C174.647 219.482 174.403 219.811 174.141 220.129C173.879 220.447 173.603 220.753 173.311 221.044C173.02 221.336 172.717 221.612 172.399 221.871C172.078 222.133 171.749 222.377 171.407 222.607C171.063 222.837 170.713 223.048 170.348 223.243C169.986 223.437 169.612 223.613 169.233 223.769C168.853 223.928 168.465 224.067 168.07 224.184C167.676 224.305 167.279 224.405 166.876 224.484C166.469 224.567 166.063 224.626 165.654 224.667C165.242 224.705 164.833 224.726 164.421 224.726C164.009 224.726 163.597 224.705 163.188 224.667C162.779 224.626 162.373 224.567 161.967 224.484C161.564 224.405 161.167 224.305 160.772 224.184C160.378 224.067 159.99 223.928 159.61 223.769C159.227 223.613 158.857 223.437 158.495 223.243C158.13 223.048 157.777 222.837 157.435 222.607C157.094 222.377 156.761 222.133 156.444 221.871C156.126 221.612 155.823 221.336 155.531 221.044C155.24 220.753 154.963 220.447 154.702 220.129C154.44 219.811 154.195 219.482 153.966 219.138C153.736 218.796 153.527 218.443 153.333 218.081C153.139 217.716 152.962 217.345 152.804 216.966C152.648 216.583 152.509 216.198 152.389 215.803C152.268 215.409 152.168 215.009 152.088 214.606C152.009 214.203 151.947 213.797 151.909 213.385C151.868 212.976 151.847 212.564 151.847 212.152C151.847 211.743 151.868 211.331 151.909 210.922C151.947 210.51 152.009 210.103 152.088 209.7C152.168 209.297 152.268 208.897 152.389 208.503C152.509 208.108 152.648 207.723 152.804 207.34C152.962 206.961 153.139 206.59 153.333 206.225C153.527 205.863 153.736 205.51 153.966 205.169C154.195 204.824 154.44 204.495 154.702 204.177C154.963 203.859 155.24 203.553 155.531 203.262C155.823 202.97 156.126 202.694 156.444 202.432C156.761 202.173 157.094 201.926 157.435 201.699C157.777 201.47 158.13 201.258 158.495 201.063C158.857 200.869 159.227 200.693 159.61 200.537C159.99 200.378 160.378 200.239 160.772 200.122C161.167 200.001 161.564 199.901 161.967 199.822C162.373 199.739 162.779 199.68 163.188 199.639C163.597 199.598 164.009 199.58 164.421 199.58C164.833 199.58 165.242 199.598 165.654 199.639C166.063 199.68 166.469 199.739 166.876 199.822C167.279 199.901 167.676 200.001 168.07 200.122C168.465 200.239 168.853 200.378 169.233 200.537C169.612 200.693 169.986 200.869 170.348 201.063C170.713 201.258 171.063 201.47 171.407 201.699C171.749 201.926 172.078 202.173 172.399 202.432C172.717 202.694 173.02 202.97 173.311 203.262C173.603 203.553 173.879 203.859 174.141 204.177C174.403 204.495 174.647 204.824 174.877 205.169C175.103 205.51 175.315 205.863 175.509 206.225C175.704 206.59 175.88 206.961 176.039 207.34C176.195 207.723 176.333 208.108 176.454 208.503C176.572 208.897 176.672 209.297 176.754 209.7C176.834 210.103 176.896 210.51 176.934 210.922C176.975 211.331 176.996 211.743 176.996 212.152Z" fill="#F97645"/>
<path d="M228.169 166.678C228.169 167.09 228.151 167.502 228.11 167.911C228.069 168.32 228.01 168.726 227.928 169.132C227.848 169.535 227.748 169.933 227.627 170.327C227.51 170.721 227.371 171.11 227.212 171.489C227.057 171.872 226.88 172.243 226.686 172.605C226.492 172.969 226.28 173.323 226.05 173.664C225.824 174.005 225.576 174.338 225.314 174.656C225.055 174.973 224.779 175.277 224.488 175.568C224.196 175.859 223.89 176.136 223.572 176.398C223.255 176.66 222.925 176.904 222.581 177.133C222.239 177.363 221.886 177.572 221.524 177.766C221.159 177.96 220.789 178.137 220.409 178.296C220.026 178.452 219.641 178.59 219.247 178.711C218.852 178.831 218.452 178.931 218.049 179.011C217.646 179.09 217.24 179.152 216.828 179.19C216.419 179.232 216.007 179.252 215.595 179.252C215.186 179.252 214.774 179.232 214.365 179.19C213.953 179.152 213.547 179.09 213.143 179.011C212.74 178.931 212.34 178.831 211.946 178.711C211.551 178.59 211.166 178.452 210.783 178.296C210.404 178.137 210.033 177.96 209.668 177.766C209.306 177.572 208.953 177.363 208.612 177.133C208.267 176.904 207.938 176.66 207.62 176.398C207.302 176.136 206.996 175.859 206.705 175.568C206.413 175.277 206.137 174.973 205.875 174.656C205.616 174.338 205.369 174.005 205.142 173.664C204.913 173.323 204.701 172.969 204.507 172.605C204.312 172.243 204.136 171.872 203.98 171.489C203.821 171.11 203.683 170.721 203.565 170.327C203.444 169.933 203.344 169.535 203.265 169.132C203.182 168.726 203.123 168.32 203.082 167.911C203.041 167.502 203.023 167.09 203.023 166.678C203.023 166.266 203.041 165.857 203.082 165.445C203.123 165.036 203.182 164.63 203.265 164.224C203.344 163.821 203.444 163.423 203.565 163.029C203.683 162.635 203.821 162.246 203.98 161.867C204.136 161.487 204.312 161.113 204.507 160.751C204.701 160.386 204.913 160.036 205.142 159.692C205.369 159.351 205.616 159.021 205.875 158.7C206.137 158.382 206.413 158.079 206.705 157.788C206.996 157.497 207.302 157.22 207.62 156.958C207.938 156.696 208.267 156.452 208.612 156.223C208.953 155.996 209.306 155.784 209.668 155.59C210.033 155.396 210.404 155.219 210.783 155.06C211.166 154.904 211.551 154.766 211.946 154.645C212.34 154.528 212.74 154.427 213.143 154.345C213.547 154.266 213.953 154.204 214.365 154.166C214.774 154.124 215.186 154.104 215.595 154.104C216.007 154.104 216.419 154.124 216.828 154.166C217.24 154.204 217.646 154.266 218.049 154.345C218.452 154.427 218.852 154.528 219.247 154.645C219.641 154.766 220.026 154.904 220.409 155.06C220.789 155.219 221.159 155.396 221.524 155.59C221.886 155.784 222.239 155.996 222.581 156.223C222.925 156.452 223.255 156.696 223.572 156.958C223.89 157.22 224.196 157.497 224.488 157.788C224.779 158.079 225.055 158.382 225.314 158.7C225.576 159.021 225.824 159.351 226.05 159.692C226.28 160.036 226.492 160.386 226.686 160.751C226.88 161.113 227.057 161.487 227.212 161.867C227.371 162.246 227.51 162.635 227.627 163.029C227.748 163.423 227.848 163.821 227.928 164.224C228.01 164.63 228.069 165.036 228.11 165.445C228.151 165.857 228.169 166.266 228.169 166.678Z" fill="#F97645"/>
<path d="M200.704 239.604C200.704 240.016 200.683 240.425 200.645 240.837C200.604 241.246 200.542 241.652 200.463 242.055C200.383 242.462 200.283 242.859 200.163 243.253C200.042 243.648 199.904 244.036 199.748 244.416C199.589 244.795 199.415 245.169 199.221 245.531C199.027 245.896 198.815 246.246 198.585 246.59C198.356 246.932 198.112 247.261 197.85 247.582C197.588 247.9 197.314 248.203 197.023 248.494C196.731 248.785 196.425 249.062 196.108 249.324C195.79 249.586 195.457 249.83 195.116 250.06C194.774 250.286 194.421 250.498 194.056 250.692C193.695 250.887 193.324 251.063 192.941 251.222C192.562 251.378 192.173 251.516 191.782 251.637C191.387 251.755 190.987 251.855 190.584 251.937C190.181 252.017 189.772 252.075 189.363 252.117C188.954 252.158 188.542 252.178 188.13 252.178C187.718 252.178 187.309 252.158 186.897 252.117C186.488 252.075 186.082 252.017 185.679 251.937C185.272 251.855 184.875 251.755 184.481 251.637C184.087 251.516 183.698 251.378 183.319 251.222C182.939 251.063 182.565 250.887 182.203 250.692C181.841 250.498 181.488 250.286 181.144 250.06C180.803 249.83 180.473 249.586 180.152 249.324C179.834 249.062 179.531 248.785 179.24 248.494C178.949 248.203 178.672 247.9 178.41 247.582C178.148 247.261 177.904 246.932 177.674 246.59C177.448 246.246 177.236 245.896 177.042 245.531C176.848 245.169 176.671 244.795 176.515 244.416C176.356 244.036 176.218 243.648 176.097 243.253C175.979 242.859 175.879 242.462 175.797 242.055C175.718 241.652 175.659 241.246 175.617 240.837C175.576 240.425 175.556 240.016 175.556 239.604C175.556 239.192 175.576 238.78 175.617 238.371C175.659 237.962 175.718 237.556 175.797 237.15C175.879 236.747 175.979 236.347 176.097 235.955C176.218 235.561 176.356 235.173 176.515 234.793C176.671 234.41 176.848 234.04 177.042 233.678C177.236 233.313 177.448 232.96 177.674 232.618C177.904 232.277 178.148 231.944 178.41 231.627C178.672 231.309 178.949 231.003 179.24 230.711C179.531 230.423 179.834 230.146 180.152 229.884C180.473 229.623 180.803 229.378 181.144 229.149C181.488 228.919 181.841 228.707 182.203 228.516C182.565 228.322 182.939 228.145 183.319 227.986C183.698 227.83 184.087 227.692 184.481 227.571C184.875 227.451 185.272 227.351 185.679 227.271C186.082 227.192 186.488 227.13 186.897 227.092C187.309 227.051 187.718 227.03 188.13 227.03C188.542 227.03 188.954 227.051 189.363 227.092C189.772 227.13 190.181 227.192 190.584 227.271C190.987 227.351 191.387 227.451 191.782 227.571C192.173 227.692 192.562 227.83 192.941 227.986C193.324 228.145 193.695 228.322 194.056 228.516C194.421 228.707 194.774 228.919 195.116 229.149C195.457 229.378 195.79 229.623 196.108 229.884C196.425 230.146 196.731 230.423 197.023 230.711C197.314 231.003 197.588 231.309 197.85 231.627C198.112 231.944 198.356 232.277 198.585 232.618C198.815 232.96 199.027 233.313 199.221 233.678C199.415 234.04 199.589 234.41 199.748 234.793C199.904 235.173 200.042 235.561 200.163 235.955C200.283 236.347 200.383 236.747 200.463 237.15C200.542 237.556 200.604 237.962 200.645 238.371C200.683 238.78 200.704 239.192 200.704 239.604Z" fill="#F65DBB"/>
<path d="M251.652 193.077C251.652 193.489 251.631 193.901 251.59 194.31C251.552 194.719 251.49 195.128 251.411 195.531C251.328 195.934 251.228 196.334 251.11 196.729C250.99 197.12 250.851 197.509 250.695 197.888C250.537 198.271 250.36 198.642 250.166 199.003C249.972 199.368 249.76 199.722 249.533 200.063C249.304 200.404 249.059 200.737 248.797 201.055C248.535 201.372 248.259 201.678 247.968 201.97C247.676 202.261 247.373 202.535 247.055 202.797C246.735 203.059 246.405 203.303 246.064 203.532C245.719 203.762 245.369 203.974 245.004 204.168C244.642 204.362 244.269 204.536 243.889 204.695C243.509 204.851 243.121 204.989 242.727 205.11C242.332 205.23 241.935 205.33 241.532 205.41C241.126 205.489 240.72 205.551 240.311 205.592C239.902 205.63 239.49 205.651 239.078 205.651C238.666 205.651 238.254 205.63 237.845 205.592C237.436 205.551 237.029 205.489 236.623 205.41C236.22 205.33 235.823 205.23 235.429 205.11C235.034 204.989 234.646 204.851 234.266 204.695C233.884 204.536 233.513 204.362 233.151 204.168C232.786 203.974 232.433 203.762 232.092 203.532C231.75 203.303 231.418 203.059 231.1 202.797C230.782 202.535 230.479 202.261 230.188 201.97C229.896 201.678 229.62 201.372 229.358 201.055C229.096 200.737 228.852 200.404 228.622 200.063C228.393 199.722 228.184 199.368 227.989 199.003C227.795 198.642 227.619 198.271 227.46 197.888C227.304 197.509 227.166 197.12 227.045 196.729C226.924 196.334 226.824 195.934 226.745 195.531C226.665 195.128 226.603 194.719 226.565 194.31C226.524 193.901 226.503 193.489 226.503 193.077C226.503 192.665 226.524 192.256 226.565 191.844C226.603 191.435 226.665 191.029 226.745 190.626C226.824 190.22 226.924 189.822 227.045 189.428C227.166 189.034 227.304 188.645 227.46 188.266C227.619 187.886 227.795 187.512 227.989 187.15C228.184 186.788 228.393 186.435 228.622 186.091C228.852 185.75 229.096 185.42 229.358 185.099C229.62 184.781 229.896 184.478 230.188 184.187C230.479 183.896 230.782 183.619 231.1 183.357C231.418 183.095 231.75 182.851 232.092 182.621C232.433 182.395 232.786 182.183 233.151 181.989C233.513 181.795 233.887 181.618 234.266 181.462C234.646 181.303 235.034 181.165 235.429 181.044C235.823 180.926 236.22 180.826 236.623 180.744C237.029 180.665 237.436 180.606 237.845 180.564C238.254 180.523 238.666 180.503 239.078 180.503C239.49 180.503 239.902 180.523 240.311 180.564C240.72 180.606 241.126 180.665 241.532 180.744C241.935 180.826 242.332 180.926 242.727 181.044C243.121 181.165 243.509 181.303 243.889 181.462C244.269 181.618 244.642 181.795 245.004 181.989C245.369 182.183 245.719 182.395 246.064 182.621C246.405 182.851 246.735 183.095 247.055 183.357C247.373 183.619 247.676 183.896 247.968 184.187C248.259 184.478 248.535 184.781 248.797 185.099C249.059 185.42 249.304 185.75 249.533 186.091C249.76 186.435 249.972 186.788 250.166 187.15C250.36 187.512 250.537 187.886 250.695 188.266C250.851 188.645 250.99 189.034 251.11 189.428C251.228 189.822 251.328 190.22 251.411 190.626C251.49 191.029 251.552 191.435 251.59 191.844C251.631 192.256 251.652 192.665 251.652 193.077Z" fill="#F65DBB"/>
<path d="M223.829 265.897C223.829 266.306 223.808 266.718 223.767 267.127C223.729 267.539 223.667 267.945 223.587 268.348C223.508 268.752 223.408 269.152 223.287 269.546C223.166 269.94 223.028 270.326 222.872 270.709C222.713 271.088 222.537 271.459 222.342 271.824C222.151 272.186 221.939 272.539 221.71 272.88C221.48 273.225 221.236 273.554 220.974 273.872C220.712 274.19 220.436 274.496 220.147 274.787C219.856 275.078 219.55 275.355 219.232 275.617C218.914 275.876 218.582 276.123 218.24 276.35C217.899 276.579 217.546 276.791 217.181 276.985C216.819 277.18 216.448 277.356 216.066 277.512C215.686 277.671 215.298 277.809 214.903 277.927C214.512 278.048 214.112 278.148 213.709 278.227C213.302 278.31 212.896 278.368 212.487 278.41C212.078 278.451 211.666 278.468 211.254 278.468C210.842 278.468 210.433 278.451 210.021 278.41C209.612 278.368 209.206 278.31 208.803 278.227C208.397 278.148 208 278.048 207.605 277.927C207.211 277.809 206.823 277.671 206.443 277.512C206.063 277.356 205.69 277.18 205.328 276.985C204.963 276.791 204.613 276.579 204.268 276.35C203.927 276.123 203.597 275.876 203.277 275.617C202.959 275.355 202.656 275.078 202.364 274.787C202.073 274.496 201.797 274.19 201.535 273.872C201.273 273.554 201.028 273.225 200.799 272.88C200.572 272.539 200.36 272.186 200.166 271.824C199.972 271.459 199.795 271.088 199.639 270.709C199.481 270.326 199.342 269.94 199.222 269.546C199.104 269.152 199.004 268.752 198.921 268.348C198.842 267.945 198.783 267.539 198.742 267.127C198.701 266.718 198.68 266.306 198.68 265.897C198.68 265.485 198.701 265.073 198.742 264.664C198.783 264.252 198.842 263.846 198.921 263.443C199.004 263.04 199.104 262.64 199.222 262.245C199.342 261.851 199.481 261.465 199.639 261.083C199.795 260.703 199.972 260.333 200.166 259.968C200.36 259.606 200.572 259.253 200.799 258.911C201.028 258.567 201.273 258.237 201.535 257.92C201.797 257.602 202.073 257.296 202.364 257.004C202.656 256.713 202.959 256.436 203.277 256.177C203.597 255.916 203.927 255.671 204.268 255.442C204.613 255.212 204.963 255 205.328 254.806C205.69 254.612 206.063 254.435 206.443 254.279C206.823 254.12 207.211 253.982 207.605 253.864C208 253.744 208.397 253.644 208.803 253.564C209.206 253.482 209.612 253.423 210.021 253.382C210.433 253.344 210.842 253.323 211.254 253.323C211.666 253.323 212.078 253.344 212.487 253.382C212.896 253.423 213.302 253.482 213.709 253.564C214.112 253.644 214.512 253.744 214.903 253.864C215.298 253.982 215.686 254.12 216.066 254.279C216.448 254.435 216.819 254.612 217.181 254.806C217.546 255 217.899 255.212 218.24 255.442C218.582 255.671 218.914 255.916 219.232 256.177C219.55 256.436 219.856 256.713 220.147 257.004C220.436 257.296 220.712 257.602 220.974 257.92C221.236 258.237 221.48 258.567 221.71 258.911C221.939 259.253 222.151 259.606 222.342 259.968C222.537 260.333 222.713 260.703 222.872 261.083C223.028 261.465 223.166 261.851 223.287 262.245C223.408 262.64 223.508 263.04 223.587 263.443C223.667 263.846 223.729 264.252 223.767 264.664C223.808 265.073 223.829 265.485 223.829 265.897Z" fill="#F97645"/>
<path d="M274.775 220.644C274.775 221.053 274.755 221.465 274.714 221.874C274.675 222.286 274.613 222.692 274.534 223.096C274.452 223.499 274.352 223.899 274.234 224.293C274.113 224.688 273.975 225.073 273.819 225.456C273.66 225.835 273.483 226.206 273.289 226.571C273.095 226.933 272.883 227.286 272.657 227.627C272.427 227.972 272.183 228.301 271.921 228.619C271.659 228.937 271.382 229.243 271.091 229.534C270.8 229.826 270.497 230.102 270.179 230.364C269.858 230.623 269.528 230.87 269.187 231.097C268.843 231.326 268.493 231.538 268.128 231.732C267.766 231.927 267.392 232.103 267.012 232.259C266.633 232.418 266.244 232.556 265.85 232.674C265.456 232.795 265.059 232.895 264.655 232.974C264.249 233.057 263.843 233.115 263.434 233.157C263.022 233.198 262.613 233.216 262.201 233.216C261.789 233.216 261.377 233.198 260.968 233.157C260.559 233.115 260.153 233.057 259.747 232.974C259.344 232.895 258.944 232.795 258.552 232.674C258.158 232.556 257.769 232.418 257.39 232.259C257.007 232.103 256.636 231.927 256.275 231.732C255.91 231.538 255.557 231.326 255.215 231.097C254.874 230.87 254.541 230.623 254.223 230.364C253.906 230.102 253.6 229.826 253.311 229.534C253.02 229.243 252.743 228.937 252.481 228.619C252.219 228.301 251.975 227.972 251.746 227.627C251.516 227.286 251.307 226.933 251.113 226.571C250.919 226.206 250.742 225.835 250.583 225.456C250.427 225.073 250.289 224.688 250.168 224.293C250.048 223.899 249.948 223.499 249.868 223.096C249.789 222.692 249.727 222.286 249.689 221.874C249.648 221.465 249.627 221.053 249.627 220.644C249.627 220.232 249.648 219.82 249.689 219.411C249.727 218.999 249.789 218.593 249.868 218.19C249.948 217.787 250.048 217.387 250.168 216.992C250.289 216.598 250.427 216.213 250.583 215.83C250.742 215.45 250.919 215.08 251.113 214.715C251.307 214.353 251.516 214 251.746 213.658C251.975 213.314 252.219 212.984 252.481 212.667C252.743 212.349 253.02 212.043 253.311 211.751C253.6 211.46 253.906 211.183 254.223 210.924C254.541 210.663 254.874 210.415 255.215 210.189C255.557 209.959 255.91 209.747 256.275 209.553C256.636 209.359 257.007 209.182 257.39 209.026C257.769 208.868 258.158 208.729 258.552 208.612C258.944 208.491 259.344 208.391 259.747 208.311C260.153 208.229 260.559 208.17 260.968 208.129C261.377 208.088 261.789 208.07 262.201 208.07C262.613 208.07 263.022 208.088 263.434 208.129C263.843 208.17 264.249 208.229 264.655 208.311C265.059 208.391 265.456 208.491 265.85 208.612C266.244 208.729 266.633 208.868 267.012 209.026C267.392 209.182 267.766 209.359 268.128 209.553C268.493 209.747 268.843 209.959 269.187 210.189C269.528 210.415 269.858 210.663 270.179 210.924C270.497 211.183 270.8 211.46 271.091 211.751C271.382 212.043 271.659 212.349 271.921 212.667C272.183 212.984 272.427 213.314 272.657 213.658C272.883 214 273.095 214.353 273.289 214.715C273.483 215.08 273.66 215.45 273.819 215.83C273.975 216.213 274.113 216.598 274.234 216.992C274.352 217.387 274.452 217.787 274.534 218.19C274.613 218.593 274.675 218.999 274.714 219.411C274.755 219.82 274.775 220.232 274.775 220.644Z" fill="#F97645"/>
<path d="M247.967 292.196C247.967 292.608 247.947 293.017 247.908 293.426C247.867 293.838 247.805 294.244 247.726 294.648C247.646 295.054 247.546 295.451 247.426 295.845C247.308 296.24 247.167 296.628 247.011 297.008C246.852 297.387 246.678 297.758 246.484 298.123C246.29 298.485 246.078 298.838 245.848 299.182C245.619 299.524 245.375 299.853 245.113 300.171C244.851 300.492 244.577 300.795 244.286 301.086C243.995 301.378 243.689 301.654 243.371 301.916C243.053 302.175 242.72 302.422 242.379 302.649C242.038 302.878 241.685 303.09 241.32 303.284C240.958 303.479 240.587 303.655 240.204 303.811C239.825 303.97 239.439 304.108 239.045 304.229C238.651 304.347 238.25 304.447 237.847 304.526C237.444 304.609 237.035 304.667 236.626 304.709C236.217 304.75 235.805 304.77 235.393 304.77C234.981 304.77 234.572 304.75 234.16 304.709C233.751 304.667 233.345 304.609 232.942 304.526C232.536 304.447 232.138 304.347 231.744 304.229C231.35 304.108 230.961 303.97 230.582 303.811C230.202 303.655 229.828 303.479 229.466 303.284C229.104 303.09 228.751 302.878 228.407 302.649C228.066 302.422 227.736 302.175 227.418 301.916C227.098 301.654 226.794 301.378 226.503 301.086C226.212 300.795 225.935 300.492 225.673 300.171C225.411 299.853 225.167 299.524 224.938 299.182C224.711 298.838 224.499 298.485 224.305 298.123C224.111 297.758 223.934 297.387 223.778 297.008C223.619 296.628 223.481 296.24 223.36 295.845C223.243 295.451 223.143 295.054 223.06 294.648C222.981 294.244 222.922 293.838 222.881 293.426C222.839 293.017 222.819 292.608 222.819 292.196C222.819 291.784 222.839 291.372 222.881 290.963C222.922 290.554 222.981 290.145 223.06 289.742C223.143 289.339 223.243 288.939 223.36 288.544C223.481 288.15 223.619 287.765 223.778 287.382C223.934 287.002 224.111 286.632 224.305 286.267C224.499 285.905 224.711 285.552 224.938 285.21C225.167 284.866 225.411 284.536 225.673 284.219C225.935 283.901 226.212 283.595 226.503 283.303C226.794 283.012 227.098 282.735 227.418 282.476C227.736 282.215 228.066 281.97 228.407 281.741C228.751 281.511 229.104 281.299 229.466 281.105C229.828 280.911 230.202 280.737 230.582 280.578C230.961 280.42 231.35 280.281 231.744 280.164C232.138 280.043 232.536 279.943 232.942 279.863C233.345 279.784 233.751 279.722 234.16 279.681C234.572 279.643 234.981 279.622 235.393 279.622C235.805 279.622 236.217 279.643 236.626 279.681C237.035 279.722 237.444 279.784 237.847 279.863C238.25 279.943 238.651 280.043 239.045 280.164C239.439 280.281 239.825 280.42 240.204 280.578C240.587 280.737 240.958 280.911 241.32 281.105C241.685 281.299 242.038 281.511 242.379 281.741C242.72 281.97 243.053 282.215 243.371 282.476C243.689 282.735 243.995 283.012 244.286 283.303C244.577 283.595 244.851 283.901 245.113 284.219C245.375 284.536 245.619 284.866 245.848 285.21C246.078 285.552 246.29 285.905 246.484 286.267C246.678 286.632 246.852 287.002 247.011 287.382C247.167 287.765 247.308 288.15 247.426 288.544C247.546 288.939 247.646 289.339 247.726 289.742C247.805 290.145 247.867 290.554 247.908 290.963C247.947 291.372 247.967 291.784 247.967 292.196Z" fill="#F65DBB"/>
<path d="M298.441 248.208C298.441 248.62 298.423 249.029 298.382 249.441C298.341 249.851 298.282 250.257 298.2 250.66C298.12 251.066 298.02 251.463 297.899 251.857C297.782 252.252 297.643 252.64 297.484 253.02C297.329 253.399 297.152 253.773 296.958 254.135C296.764 254.497 296.552 254.85 296.322 255.194C296.096 255.536 295.848 255.865 295.589 256.186C295.327 256.504 295.051 256.807 294.76 257.098C294.468 257.39 294.162 257.666 293.844 257.928C293.527 258.19 293.197 258.434 292.853 258.664C292.511 258.891 292.158 259.102 291.796 259.297C291.431 259.491 291.061 259.667 290.681 259.823C290.298 259.982 289.913 260.121 289.519 260.241C289.124 260.359 288.724 260.459 288.321 260.541C287.918 260.621 287.512 260.68 287.1 260.721C286.691 260.762 286.282 260.783 285.87 260.783C285.458 260.783 285.046 260.762 284.637 260.721C284.225 260.68 283.819 260.621 283.415 260.541C283.012 260.459 282.612 260.359 282.218 260.241C281.823 260.121 281.438 259.982 281.055 259.823C280.676 259.667 280.305 259.491 279.94 259.297C279.578 259.102 279.225 258.891 278.884 258.664C278.539 258.434 278.21 258.19 277.892 257.928C277.574 257.666 277.268 257.39 276.977 257.098C276.685 256.807 276.409 256.504 276.15 256.186C275.888 255.865 275.644 255.536 275.414 255.194C275.185 254.85 274.973 254.497 274.779 254.135C274.584 253.773 274.408 253.399 274.252 253.02C274.093 252.64 273.955 252.252 273.837 251.857C273.716 251.463 273.616 251.066 273.537 250.66C273.454 250.257 273.395 249.851 273.354 249.441C273.316 249.029 273.295 248.62 273.295 248.208C273.295 247.796 273.316 247.385 273.354 246.975C273.395 246.566 273.454 246.157 273.537 245.754C273.616 245.351 273.716 244.951 273.837 244.557C273.955 244.165 274.093 243.777 274.252 243.397C274.408 243.015 274.584 242.644 274.779 242.282C274.973 241.917 275.185 241.564 275.414 241.222C275.644 240.881 275.888 240.549 276.15 240.231C276.409 239.913 276.685 239.607 276.977 239.316C277.268 239.024 277.574 238.751 277.892 238.489C278.21 238.227 278.539 237.983 278.884 237.753C279.225 237.523 279.578 237.312 279.94 237.117C280.305 236.926 280.676 236.75 281.055 236.591C281.438 236.435 281.823 236.296 282.218 236.176C282.612 236.055 283.012 235.955 283.415 235.876C283.819 235.796 284.225 235.734 284.637 235.696C285.046 235.655 285.458 235.634 285.87 235.634C286.282 235.634 286.691 235.655 287.1 235.696C287.512 235.734 287.918 235.796 288.321 235.876C288.724 235.955 289.124 236.055 289.519 236.176C289.913 236.296 290.298 236.435 290.681 236.591C291.061 236.75 291.431 236.926 291.796 237.117C292.158 237.312 292.511 237.523 292.853 237.753C293.197 237.983 293.527 238.227 293.844 238.489C294.162 238.751 294.468 239.024 294.76 239.316C295.051 239.607 295.327 239.913 295.589 240.231C295.848 240.549 296.096 240.881 296.322 241.222C296.552 241.564 296.764 241.917 296.958 242.282C297.152 242.644 297.329 243.015 297.484 243.397C297.643 243.777 297.782 244.165 297.899 244.557C298.02 244.951 298.12 245.351 298.2 245.754C298.282 246.157 298.341 246.566 298.382 246.975C298.423 247.385 298.441 247.796 298.441 248.208Z" fill="#F65DBB"/>
<path d="M95.6907 82.5548C95.985 82.2958 96.3205 82.1016 96.6913 81.9751C97.065 81.8485 97.4475 81.7985 97.8389 81.825C98.2303 81.8485 98.604 81.9486 98.9571 82.1222C99.3103 82.2958 99.6163 82.5312 99.8782 82.8255L253.491 257.499C253.752 257.793 253.944 258.129 254.073 258.499C254.2 258.873 254.25 259.256 254.226 259.647C254.2 260.038 254.103 260.412 253.929 260.765C253.755 261.118 253.52 261.424 253.226 261.683C252.931 261.945 252.596 262.137 252.225 262.263C251.851 262.39 251.469 262.443 251.077 262.416C250.683 262.39 250.312 262.29 249.959 262.116C249.606 261.942 249.3 261.71 249.038 261.413L95.4259 86.7423C95.164 86.448 94.9698 86.1125 94.8432 85.7417C94.7167 85.368 94.6667 84.9855 94.6902 84.5941C94.7167 84.1998 94.8138 83.826 94.9874 83.4759C95.161 83.1227 95.3965 82.8167 95.6907 82.5548Z" fill="#FFA9C8"/>
<path d="M213.694 202.561L219.889 197.397C219.959 197.338 220.042 197.3 220.136 197.282C220.227 197.267 220.315 197.273 220.406 197.303C220.495 197.332 220.571 197.382 220.633 197.45C220.695 197.521 220.739 197.6 220.76 197.691L222.699 205.895C222.746 206.104 222.687 206.278 222.528 206.422C222.366 206.563 222.184 206.596 221.984 206.525L213.859 203.485C213.659 203.415 213.541 203.279 213.506 203.07C213.468 202.864 213.532 202.694 213.694 202.561Z" fill="#F33F68"/>
<path d="M235.773 227.674L241.967 222.516C242.038 222.454 242.12 222.416 242.214 222.398C242.305 222.38 242.397 222.386 242.485 222.416C242.576 222.445 242.653 222.495 242.715 222.566C242.776 222.636 242.82 222.719 242.838 222.81L244.777 231.006C244.821 231.214 244.766 231.391 244.604 231.532C244.445 231.674 244.265 231.712 244.062 231.644L235.932 228.575C235.846 228.54 235.773 228.484 235.717 228.413C235.658 228.339 235.623 228.257 235.605 228.166C235.59 228.075 235.596 227.986 235.626 227.898C235.655 227.813 235.705 227.736 235.773 227.674Z" fill="#F33F68"/>
<path d="M258.532 252.814L264.726 247.658C264.797 247.597 264.882 247.558 264.974 247.541C265.068 247.52 265.159 247.529 265.247 247.558C265.338 247.588 265.415 247.638 265.48 247.709C265.541 247.776 265.586 247.859 265.606 247.95L267.537 256.148C267.587 256.357 267.531 256.537 267.369 256.681C267.207 256.822 267.025 256.857 266.822 256.784L258.697 253.744C258.5 253.673 258.382 253.535 258.344 253.326C258.308 253.12 258.37 252.949 258.532 252.814Z" fill="#F33F68"/>
<path d="M191.621 176.498L197.815 171.342C197.889 171.28 197.971 171.242 198.062 171.224C198.156 171.207 198.248 171.213 198.339 171.242C198.427 171.271 198.504 171.321 198.568 171.392C198.63 171.463 198.674 171.542 198.695 171.633L200.625 179.832C200.675 180.041 200.619 180.22 200.458 180.364C200.299 180.509 200.113 180.541 199.91 180.467L191.779 177.428C191.688 177.392 191.615 177.336 191.553 177.263C191.491 177.186 191.453 177.104 191.438 177.007C191.42 176.913 191.429 176.818 191.462 176.73C191.494 176.639 191.547 176.562 191.621 176.498Z" fill="#F33F68"/>
<path d="M170.05 151.914L176.236 146.759C176.31 146.697 176.392 146.659 176.483 146.641C176.577 146.623 176.669 146.629 176.76 146.659C176.848 146.688 176.925 146.738 176.989 146.809C177.051 146.879 177.095 146.959 177.116 147.053L179.055 155.248C179.105 155.46 179.049 155.637 178.887 155.781C178.726 155.925 178.543 155.961 178.34 155.884L170.215 152.844C170.015 152.774 169.897 152.635 169.862 152.429C169.827 152.22 169.889 152.05 170.05 151.914Z" fill="#F33F68"/>
<path d="M147.433 127.09L153.627 121.925C153.701 121.863 153.783 121.825 153.877 121.808C153.968 121.79 154.06 121.796 154.151 121.825C154.239 121.855 154.316 121.905 154.38 121.975C154.445 122.046 154.486 122.125 154.507 122.22L156.437 130.424C156.49 130.633 156.434 130.812 156.272 130.956C156.108 131.098 155.925 131.13 155.722 131.054L147.597 128.014C147.509 127.978 147.433 127.925 147.371 127.852C147.309 127.778 147.268 127.693 147.253 127.599C147.235 127.505 147.244 127.41 147.277 127.319C147.309 127.228 147.362 127.151 147.433 127.09Z" fill="#F33F68"/>
<path d="M125.477 101.977L131.663 96.821C131.736 96.7592 131.819 96.7209 131.91 96.7033C132.004 96.6856 132.095 96.6915 132.184 96.7209C132.275 96.7504 132.351 96.8004 132.416 96.871C132.478 96.9417 132.522 97.0211 132.543 97.1153L134.508 105.275C134.555 105.484 134.497 105.658 134.338 105.802C134.179 105.943 133.996 105.979 133.793 105.911L125.668 102.871C125.583 102.839 125.509 102.789 125.448 102.718C125.389 102.648 125.348 102.568 125.327 102.477C125.309 102.386 125.312 102.297 125.339 102.209C125.365 102.121 125.409 102.044 125.477 101.977Z" fill="#F33F68"/>
<path d="M103.754 77.7169L109.949 72.5524C110.022 72.4906 110.105 72.4524 110.196 72.4347C110.29 72.4171 110.381 72.423 110.47 72.4524C110.561 72.4818 110.637 72.5318 110.702 72.6025C110.764 72.6731 110.808 72.7525 110.829 72.8467L112.759 81.051C112.803 81.2599 112.747 81.4335 112.588 81.5748C112.427 81.719 112.247 81.7543 112.044 81.6866L103.919 78.6468C103.828 78.6115 103.752 78.5585 103.693 78.482C103.631 78.4084 103.59 78.3231 103.575 78.2289C103.557 78.1318 103.566 78.0406 103.596 77.9494C103.628 77.8581 103.681 77.7816 103.754 77.7169Z" fill="#F33F68"/>
<path d="M95.685 96.9063L89.8085 102.415C89.7378 102.48 89.6584 102.524 89.5672 102.547C89.4759 102.568 89.3847 102.568 89.2935 102.545C89.2023 102.521 89.1228 102.477 89.0551 102.412C88.9874 102.344 88.9404 102.268 88.9139 102.177L86.5038 94.1107C86.4126 93.8841 86.4538 93.687 86.6244 93.5163C86.7951 93.3456 86.9923 93.3044 87.2189 93.3956L95.4997 95.9617C95.7115 96.0264 95.8351 96.1647 95.8793 96.3795C95.9205 96.5944 95.8557 96.768 95.685 96.9063Z" fill="#F33F68"/>
<path d="M118.058 120.725L112.179 126.239C112.111 126.304 112.032 126.348 111.937 126.369C111.846 126.392 111.755 126.392 111.664 126.366C111.573 126.342 111.493 126.298 111.425 126.23C111.358 126.166 111.311 126.086 111.284 125.995L108.874 117.92C108.815 117.714 108.862 117.535 109.015 117.382C109.168 117.229 109.348 117.185 109.554 117.249L117.844 119.809C117.938 119.836 118.017 119.886 118.082 119.957C118.15 120.027 118.194 120.11 118.214 120.204C118.238 120.298 118.235 120.392 118.205 120.486C118.179 120.578 118.129 120.657 118.058 120.725Z" fill="#F33F68"/>
<path d="M140.732 147.188L134.852 152.703C134.782 152.765 134.702 152.806 134.611 152.829C134.52 152.85 134.429 152.85 134.34 152.824C134.249 152.8 134.17 152.756 134.102 152.691C134.034 152.626 133.987 152.55 133.958 152.459L131.557 144.384C131.495 144.178 131.542 143.998 131.695 143.845C131.848 143.692 132.027 143.648 132.233 143.713L140.523 146.273C140.617 146.303 140.697 146.353 140.761 146.423C140.826 146.494 140.87 146.576 140.891 146.67C140.912 146.765 140.909 146.859 140.879 146.95C140.853 147.044 140.803 147.121 140.732 147.188Z" fill="#F33F68"/>
<path d="M162.691 172.622L156.802 178.137C156.735 178.199 156.652 178.24 156.561 178.264C156.473 178.284 156.381 178.284 156.29 178.258C156.199 178.234 156.119 178.19 156.052 178.125C155.984 178.06 155.937 177.984 155.911 177.893L153.506 169.818C153.445 169.612 153.492 169.432 153.645 169.279C153.798 169.126 153.98 169.082 154.186 169.147L162.476 171.707C162.567 171.734 162.646 171.784 162.714 171.854C162.779 171.925 162.823 172.007 162.847 172.102C162.867 172.196 162.864 172.29 162.838 172.384C162.808 172.475 162.761 172.555 162.691 172.622Z" fill="#F33F68"/>
<path d="M185.705 196.196L179.826 201.702C179.758 201.767 179.679 201.811 179.587 201.835C179.496 201.858 179.405 201.858 179.314 201.835C179.223 201.811 179.143 201.767 179.075 201.699C179.008 201.635 178.961 201.558 178.934 201.467L176.521 193.392C176.456 193.174 176.503 192.989 176.668 192.83C176.833 192.674 177.024 192.636 177.236 192.712L185.526 195.281C185.617 195.314 185.694 195.367 185.755 195.437C185.817 195.511 185.858 195.593 185.876 195.687C185.894 195.781 185.888 195.873 185.858 195.964C185.829 196.055 185.776 196.132 185.705 196.196Z" fill="#F33F68"/>
<path d="M206.749 221.309L200.869 226.821C200.802 226.886 200.719 226.93 200.628 226.954C200.537 226.977 200.445 226.977 200.354 226.951C200.263 226.927 200.184 226.88 200.116 226.815C200.048 226.748 200.001 226.671 199.975 226.58L197.565 218.505C197.506 218.296 197.55 218.117 197.706 217.967C197.859 217.814 198.038 217.769 198.244 217.831L206.534 220.391C206.625 220.421 206.705 220.471 206.772 220.541C206.84 220.612 206.884 220.694 206.905 220.789C206.928 220.883 206.925 220.977 206.896 221.068C206.869 221.162 206.819 221.242 206.749 221.309Z" fill="#F33F68"/>
<path d="M229.308 247.17L223.428 252.679C223.36 252.743 223.278 252.787 223.187 252.811C223.096 252.832 223.004 252.832 222.913 252.808C222.822 252.782 222.742 252.737 222.675 252.67C222.607 252.605 222.56 252.526 222.534 252.434L220.123 244.31C220.05 244.092 220.097 243.9 220.265 243.742C220.432 243.583 220.624 243.544 220.839 243.63L229.122 246.19C229.346 246.249 229.481 246.393 229.525 246.622C229.57 246.852 229.496 247.034 229.308 247.17Z" fill="#F33F68"/>
<path d="M250.628 271.582L244.742 277.097C244.672 277.159 244.592 277.2 244.501 277.224C244.41 277.244 244.318 277.244 244.227 277.218C244.139 277.194 244.06 277.15 243.992 277.085C243.924 277.02 243.877 276.944 243.848 276.853L241.443 268.778C241.385 268.572 241.432 268.392 241.585 268.239C241.738 268.086 241.917 268.042 242.123 268.107L250.413 270.667C250.507 270.694 250.586 270.744 250.651 270.814C250.719 270.885 250.763 270.967 250.784 271.061C250.807 271.156 250.804 271.25 250.775 271.344C250.748 271.435 250.698 271.515 250.628 271.582Z" fill="#F33F68"/>
<path d="M264.912 268.234L270.12 274.349C270.179 274.422 270.22 274.505 270.238 274.596C270.255 274.69 270.25 274.781 270.22 274.87C270.191 274.961 270.144 275.037 270.073 275.099C270.005 275.164 269.923 275.208 269.832 275.229L261.651 277.233C261.439 277.289 261.26 277.236 261.112 277.071C260.965 276.906 260.933 276.721 261.012 276.518L263.967 268.399C264.035 268.193 264.176 268.072 264.391 268.034C264.605 267.998 264.779 268.063 264.912 268.234Z" fill="#F33F68"/>
<path d="M84.1293 77.3315L79.5092 70.7281C79.4563 70.6516 79.4239 70.5662 79.4151 70.472C79.4063 70.3808 79.421 70.2896 79.4592 70.2043C79.4945 70.1189 79.5504 70.0454 79.624 69.9894C79.6976 69.9306 79.78 69.8923 79.8712 69.8776L88.2138 68.6417C88.4286 68.6064 88.6022 68.6799 88.7317 68.8536C88.8612 69.0301 88.8788 69.2155 88.7847 69.4127L85.0651 77.2815C85.0209 77.3668 84.9591 77.4345 84.8767 77.4875C84.7973 77.5404 84.7061 77.5699 84.6119 77.5728C84.5148 77.5787 84.4236 77.561 84.3382 77.5169C84.25 77.4728 84.1823 77.411 84.1293 77.3315Z" fill="#F33F68"/>
<path d="M52.4216 71.3077C52.4216 71.6638 52.3539 72.0052 52.2186 72.3318C52.0832 72.6584 51.889 72.9498 51.6389 73.1999C51.3887 73.45 51.0974 73.6442 50.7708 73.7796C50.4441 73.915 50.1028 73.9827 49.7467 73.9827C49.3906 73.9827 49.0522 73.915 48.7226 73.7796C48.396 73.6442 48.1047 73.45 47.8545 73.1999C47.6044 72.9498 47.4102 72.6584 47.2748 72.3318C47.1395 72.0052 47.0718 71.6638 47.0718 71.3077C47.0718 70.9546 47.1395 70.6133 47.2748 70.2837C47.4102 69.957 47.6044 69.6686 47.8545 69.4156C48.1047 69.1654 48.396 68.9712 48.7226 68.8359C49.0522 68.7005 49.3906 68.6328 49.7467 68.6328C50.1028 68.6328 50.4441 68.7005 50.7708 68.8359C51.0974 68.9712 51.3887 69.1654 51.6389 69.4156C51.889 69.6686 52.0832 69.957 52.2186 70.2837C52.3539 70.6133 52.4216 70.9546 52.4216 71.3077Z" fill="#FFE8C0"/>
<path d="M75.4602 97.38C75.4602 97.7331 75.3925 98.0745 75.2571 98.4011C75.1218 98.7307 74.9276 99.0191 74.6774 99.2692C74.4244 99.5223 74.136 99.7136 73.8093 99.8489C73.4798 99.9843 73.1384 100.055 72.7853 100.055C72.4292 100.055 72.0879 99.9843 71.7612 99.8489C71.4346 99.7136 71.1432 99.5223 70.8931 99.2692C70.643 99.0191 70.4488 98.7307 70.3134 98.4011C70.178 98.0745 70.1104 97.7331 70.1104 97.38C70.1104 97.0239 70.178 96.6826 70.3134 96.356C70.4488 96.0264 70.643 95.738 70.8931 95.4879C71.1432 95.2377 71.4346 95.0435 71.7612 94.9081C72.0879 94.7728 72.4292 94.7021 72.7853 94.7021C73.1384 94.7021 73.4798 94.7728 73.8093 94.9081C74.136 95.0435 74.4244 95.2377 74.6774 95.4879C74.9276 95.738 75.1218 96.0264 75.2571 96.356C75.3925 96.6826 75.4602 97.0239 75.4602 97.38Z" fill="#FFE8C0"/>
<path d="M98.5339 125.03C98.5339 125.386 98.4662 125.724 98.3309 126.054C98.1926 126.38 98.0013 126.672 97.7512 126.922C97.4981 127.172 97.2097 127.366 96.8831 127.502C96.5535 127.637 96.2121 127.705 95.859 127.705C95.5029 127.705 95.1616 127.637 94.8349 127.502C94.5083 127.366 94.217 127.172 93.9668 126.922C93.7167 126.672 93.5225 126.38 93.3871 126.054C93.2518 125.724 93.1841 125.386 93.1841 125.03C93.1841 124.674 93.2518 124.332 93.3871 124.006C93.5225 123.679 93.7167 123.388 93.9668 123.137C94.217 122.887 94.5083 122.693 94.8349 122.558C95.1616 122.422 95.5029 122.355 95.859 122.355C96.2121 122.355 96.5535 122.422 96.8831 122.558C97.2097 122.693 97.4981 122.887 97.7512 123.137C98.0013 123.388 98.1926 123.679 98.3309 124.006C98.4662 124.332 98.5339 124.674 98.5339 125.03Z" fill="#FFE8C0"/>
<path d="M122.664 151.279C122.664 151.635 122.596 151.976 122.461 152.303C122.325 152.629 122.131 152.921 121.881 153.171C121.631 153.421 121.343 153.615 121.013 153.751C120.686 153.886 120.345 153.954 119.989 153.954C119.636 153.954 119.294 153.886 118.968 153.751C118.638 153.615 118.35 153.421 118.1 153.171C117.847 152.921 117.655 152.629 117.52 152.303C117.382 151.976 117.314 151.635 117.314 151.279C117.314 150.926 117.382 150.584 117.52 150.255C117.655 149.928 117.847 149.64 118.1 149.387C118.35 149.136 118.638 148.942 118.968 148.807C119.294 148.671 119.636 148.604 119.989 148.604C120.345 148.604 120.686 148.671 121.013 148.807C121.343 148.942 121.631 149.136 121.881 149.387C122.131 149.64 122.325 149.928 122.461 150.255C122.596 150.584 122.664 150.926 122.664 151.279Z" fill="#FFE8C0"/>
<path d="M146.261 178.278C146.261 178.634 146.194 178.975 146.058 179.302C145.92 179.632 145.729 179.92 145.479 180.17C145.226 180.42 144.937 180.614 144.611 180.75C144.281 180.885 143.94 180.953 143.587 180.953C143.23 180.953 142.889 180.885 142.562 180.75C142.236 180.614 141.945 180.42 141.694 180.17C141.444 179.92 141.25 179.632 141.115 179.302C140.979 178.975 140.912 178.634 140.912 178.278C140.912 177.925 140.979 177.583 141.115 177.257C141.25 176.927 141.444 176.639 141.694 176.389C141.945 176.136 142.236 175.944 142.562 175.809C142.889 175.671 143.23 175.603 143.587 175.603C143.94 175.603 144.281 175.671 144.611 175.809C144.937 175.944 145.226 176.136 145.479 176.389C145.729 176.639 145.92 176.927 146.058 177.257C146.194 177.583 146.261 177.925 146.261 178.278Z" fill="#FFE8C0"/>
<path d="M171.371 206.561C171.371 206.914 171.304 207.255 171.168 207.585C171.033 207.911 170.839 208.2 170.589 208.453C170.338 208.703 170.05 208.894 169.72 209.033C169.394 209.168 169.052 209.236 168.696 209.236C168.343 209.236 168.002 209.168 167.675 209.033C167.346 208.894 167.057 208.703 166.807 208.453C166.554 208.2 166.363 207.911 166.227 207.585C166.089 207.255 166.021 206.914 166.021 206.561C166.021 206.205 166.089 205.863 166.227 205.537C166.363 205.21 166.554 204.919 166.807 204.669C167.057 204.418 167.346 204.224 167.675 204.089C168.002 203.953 168.343 203.886 168.696 203.886C169.052 203.886 169.394 203.953 169.72 204.089C170.05 204.224 170.338 204.418 170.589 204.669C170.839 204.919 171.033 205.21 171.168 205.537C171.304 205.863 171.371 206.205 171.371 206.561Z" fill="#FFE8C0"/>
<path d="M195.475 233.739C195.475 234.092 195.408 234.434 195.272 234.763C195.137 235.09 194.943 235.378 194.693 235.632C194.442 235.882 194.154 236.076 193.824 236.211C193.498 236.347 193.156 236.414 192.8 236.414C192.447 236.414 192.106 236.347 191.776 236.211C191.45 236.076 191.161 235.882 190.911 235.632C190.658 235.378 190.467 235.09 190.331 234.763C190.193 234.434 190.125 234.092 190.125 233.739C190.125 233.383 190.193 233.042 190.331 232.715C190.467 232.389 190.658 232.097 190.911 231.847C191.161 231.597 191.45 231.403 191.776 231.267C192.106 231.132 192.447 231.064 192.8 231.064C193.156 231.064 193.498 231.132 193.824 231.267C194.154 231.403 194.442 231.597 194.693 231.847C194.943 232.097 195.137 232.389 195.272 232.715C195.408 233.042 195.475 233.383 195.475 233.739Z" fill="#FFE8C0"/>
<path d="M216.604 259.494C216.604 259.85 216.536 260.191 216.401 260.518C216.265 260.845 216.071 261.136 215.821 261.386C215.571 261.636 215.28 261.831 214.953 261.966C214.626 262.101 214.285 262.169 213.929 262.169C213.576 262.169 213.234 262.101 212.905 261.966C212.578 261.831 212.29 261.636 212.037 261.386C211.787 261.136 211.592 260.845 211.457 260.518C211.322 260.191 211.254 259.85 211.254 259.494C211.254 259.141 211.322 258.8 211.457 258.47C211.592 258.143 211.787 257.855 212.037 257.602C212.29 257.352 212.578 257.16 212.905 257.022C213.234 256.887 213.576 256.819 213.929 256.819C214.285 256.819 214.626 256.887 214.953 257.022C215.28 257.16 215.571 257.352 215.821 257.602C216.071 257.855 216.265 258.143 216.401 258.47C216.536 258.8 216.604 259.141 216.604 259.494Z" fill="#FFE8C0"/>
<path d="M241.753 286.552C241.753 286.908 241.685 287.247 241.55 287.576C241.414 287.903 241.22 288.191 240.97 288.444C240.717 288.694 240.428 288.889 240.102 289.024C239.772 289.159 239.431 289.227 239.078 289.227C238.722 289.227 238.38 289.159 238.054 289.024C237.727 288.889 237.436 288.694 237.186 288.444C236.935 288.191 236.741 287.903 236.606 287.576C236.471 287.247 236.403 286.908 236.403 286.552C236.403 286.196 236.471 285.855 236.606 285.528C236.741 285.201 236.935 284.91 237.186 284.66C237.436 284.41 237.727 284.216 238.054 284.08C238.38 283.945 238.722 283.877 239.078 283.877C239.431 283.877 239.772 283.945 240.102 284.08C240.428 284.216 240.717 284.41 240.97 284.66C241.22 284.91 241.414 285.201 241.55 285.528C241.685 285.855 241.753 286.196 241.753 286.552Z" fill="#FFE8C0"/>
<path d="M103.033 27.6703C103.033 28.0264 102.965 28.3677 102.827 28.6943C102.692 29.0239 102.5 29.3123 102.247 29.5624C101.997 29.8126 101.709 30.0068 101.379 30.1422C101.053 30.2775 100.711 30.3452 100.358 30.3452C100.002 30.3452 99.6606 30.2775 99.334 30.1422C99.0044 30.0068 98.716 29.8126 98.4659 29.5624C98.2157 29.3123 98.0215 29.0239 97.8862 28.6943C97.7508 28.3677 97.6831 28.0264 97.6831 27.6703C97.6831 27.3172 97.7508 26.9758 97.8862 26.6492C98.0215 26.3196 98.2157 26.0312 98.4659 25.7811C98.716 25.528 99.0044 25.3367 99.334 25.2014C99.6606 25.063 100.002 24.9954 100.358 24.9954C100.711 24.9954 101.053 25.063 101.379 25.2014C101.709 25.3367 101.997 25.528 102.247 25.7811C102.5 26.0312 102.692 26.3196 102.827 26.6492C102.965 26.9758 103.033 27.3172 103.033 27.6703Z" fill="#FFE8C0"/>
<path d="M126.069 53.7428C126.069 54.0959 126.001 54.4373 125.866 54.7669C125.731 55.0935 125.536 55.3819 125.286 55.635C125.036 55.8851 124.748 56.0764 124.418 56.2147C124.092 56.35 123.75 56.4177 123.394 56.4177C123.041 56.4177 122.7 56.35 122.37 56.2147C122.043 56.0764 121.755 55.8851 121.505 55.635C121.252 55.3819 121.061 55.0935 120.925 54.7669C120.787 54.4373 120.719 54.0959 120.719 53.7428C120.719 53.3867 120.787 53.0454 120.925 52.7187C121.061 52.3921 121.252 52.1008 121.505 51.8506C121.755 51.6005 122.043 51.4063 122.37 51.2709C122.7 51.1356 123.041 51.0679 123.394 51.0679C123.75 51.0679 124.092 51.1356 124.418 51.2709C124.748 51.4063 125.036 51.6005 125.286 51.8506C125.536 52.1008 125.731 52.3921 125.866 52.7187C126.001 53.0454 126.069 53.3867 126.069 53.7428Z" fill="#FFE8C0"/>
<path d="M149.142 81.3925C149.142 81.7485 149.075 82.0899 148.939 82.4165C148.804 82.7432 148.61 83.0345 148.36 83.2846C148.109 83.5347 147.821 83.729 147.491 83.8643C147.165 83.9997 146.823 84.0674 146.467 84.0674C146.114 84.0674 145.773 83.9997 145.443 83.8643C145.117 83.729 144.828 83.5347 144.575 83.2846C144.325 83.0345 144.134 82.7432 143.996 82.4165C143.86 82.0899 143.792 81.7485 143.792 81.3925C143.792 81.0393 143.86 80.698 143.996 80.3684C144.134 80.0417 144.325 79.7534 144.575 79.5003C144.828 79.2502 145.117 79.0589 145.443 78.9206C145.773 78.7852 146.114 78.7175 146.467 78.7175C146.823 78.7175 147.165 78.7852 147.491 78.9206C147.821 79.0589 148.109 79.2502 148.36 79.5003C148.61 79.7534 148.804 80.0417 148.939 80.3684C149.075 80.698 149.142 81.0393 149.142 81.3925Z" fill="#FFE8C0"/>
<path d="M173.276 107.641C173.276 107.998 173.208 108.339 173.073 108.666C172.937 108.995 172.743 109.284 172.493 109.534C172.24 109.784 171.951 109.978 171.625 110.113C171.295 110.249 170.954 110.316 170.601 110.316C170.245 110.316 169.903 110.249 169.577 110.113C169.25 109.978 168.959 109.784 168.709 109.534C168.458 109.284 168.264 108.995 168.129 108.666C167.993 108.339 167.926 107.998 167.926 107.641C167.926 107.288 167.993 106.947 168.129 106.617C168.264 106.291 168.458 106.002 168.709 105.752C168.959 105.499 169.25 105.308 169.577 105.173C169.903 105.034 170.245 104.967 170.601 104.967C170.954 104.967 171.295 105.034 171.625 105.173C171.951 105.308 172.24 105.499 172.493 105.752C172.743 106.002 172.937 106.291 173.073 106.617C173.208 106.947 173.276 107.288 173.276 107.641Z" fill="#FFE8C0"/>
<path d="M196.87 134.644C196.87 134.997 196.803 135.338 196.667 135.668C196.532 135.994 196.338 136.283 196.088 136.533C195.837 136.786 195.549 136.977 195.219 137.113C194.893 137.251 194.551 137.319 194.195 137.319C193.842 137.319 193.501 137.251 193.171 137.113C192.845 136.977 192.556 136.786 192.306 136.533C192.053 136.283 191.862 135.994 191.724 135.668C191.588 135.338 191.521 134.997 191.521 134.644C191.521 134.288 191.588 133.946 191.724 133.62C191.862 133.29 192.053 133.002 192.306 132.752C192.556 132.501 192.845 132.307 193.171 132.172C193.501 132.036 193.842 131.969 194.195 131.969C194.551 131.969 194.893 132.036 195.219 132.172C195.549 132.307 195.837 132.501 196.088 132.752C196.338 133.002 196.532 133.29 196.667 133.62C196.803 133.946 196.87 134.288 196.87 134.644Z" fill="#FFE8C0"/>
<path d="M221.983 162.923C221.983 163.279 221.915 163.62 221.78 163.947C221.645 164.274 221.451 164.565 221.2 164.815C220.947 165.065 220.659 165.259 220.332 165.395C220.003 165.53 219.661 165.598 219.308 165.598C218.952 165.598 218.611 165.53 218.284 165.395C217.958 165.259 217.666 165.065 217.416 164.815C217.166 164.565 216.972 164.274 216.836 163.947C216.701 163.62 216.633 163.279 216.633 162.923C216.633 162.567 216.701 162.228 216.836 161.899C216.972 161.572 217.166 161.281 217.416 161.031C217.666 160.781 217.958 160.586 218.284 160.451C218.611 160.316 218.952 160.248 219.308 160.248C219.661 160.248 220.003 160.316 220.332 160.451C220.659 160.586 220.947 160.781 221.2 161.031C221.451 161.281 221.645 161.572 221.78 161.899C221.915 162.228 221.983 162.567 221.983 162.923Z" fill="#FFE8C0"/>
<path d="M246.087 190.102C246.087 190.458 246.019 190.799 245.884 191.126C245.748 191.453 245.554 191.744 245.304 191.994C245.051 192.244 244.762 192.438 244.436 192.574C244.106 192.709 243.765 192.777 243.412 192.777C243.056 192.777 242.714 192.709 242.388 192.574C242.061 192.438 241.77 192.244 241.52 191.994C241.269 191.744 241.075 191.453 240.94 191.126C240.804 190.799 240.737 190.458 240.737 190.102C240.737 189.749 240.804 189.407 240.94 189.078C241.075 188.751 241.269 188.463 241.52 188.21C241.77 187.96 242.061 187.765 242.388 187.63C242.714 187.495 243.056 187.427 243.412 187.427C243.765 187.427 244.106 187.495 244.436 187.63C244.762 187.765 245.051 187.96 245.304 188.21C245.554 188.463 245.748 188.751 245.884 189.078C246.019 189.407 246.087 189.749 246.087 190.102Z" fill="#FFE8C0"/>
<path d="M267.221 215.857C267.221 216.213 267.154 216.554 267.018 216.881C266.883 217.21 266.689 217.499 266.439 217.749C266.189 217.999 265.897 218.193 265.571 218.328C265.244 218.464 264.903 218.531 264.547 218.531C264.193 218.531 263.852 218.464 263.522 218.328C263.196 218.193 262.907 217.999 262.654 217.749C262.404 217.499 262.21 217.21 262.075 216.881C261.939 216.554 261.872 216.213 261.872 215.857C261.872 215.503 261.939 215.162 262.075 214.835C262.21 214.506 262.404 214.217 262.654 213.967C262.907 213.714 263.196 213.523 263.522 213.388C263.852 213.252 264.193 213.182 264.547 213.182C264.903 213.182 265.244 213.252 265.571 213.388C265.897 213.523 266.189 213.714 266.439 213.967C266.689 214.217 266.883 214.506 267.018 214.835C267.154 215.162 267.221 215.503 267.221 215.857Z" fill="#FFE8C0"/>
<path d="M292.364 242.915C292.364 243.271 292.293 243.612 292.158 243.939C292.023 244.265 291.828 244.557 291.578 244.807C291.328 245.057 291.04 245.251 290.71 245.387C290.384 245.522 290.042 245.59 289.686 245.59C289.333 245.59 288.992 245.522 288.665 245.387C288.335 245.251 288.047 245.057 287.797 244.807C287.544 244.557 287.353 244.265 287.217 243.939C287.082 243.612 287.011 243.271 287.011 242.915C287.011 242.562 287.082 242.22 287.217 241.891C287.353 241.564 287.544 241.276 287.797 241.023C288.047 240.772 288.335 240.581 288.665 240.443C288.992 240.307 289.333 240.24 289.686 240.24C290.042 240.24 290.384 240.307 290.71 240.443C291.04 240.581 291.328 240.772 291.578 241.023C291.828 241.276 292.023 241.564 292.158 241.891C292.293 242.22 292.364 242.562 292.364 242.915Z" fill="#FFE8C0"/>
<path d="M76.905 49.9584C76.905 50.3144 76.8373 50.6558 76.702 50.9824C76.5637 51.3091 76.3724 51.6004 76.1223 51.8505C75.8692 52.1007 75.5808 52.2949 75.2542 52.4302C74.9246 52.5656 74.5832 52.6333 74.2301 52.6333C73.874 52.6333 73.5327 52.5656 73.206 52.4302C72.8794 52.2949 72.5881 52.1007 72.3379 51.8505C72.0878 51.6004 71.8936 51.3091 71.7582 50.9824C71.6229 50.6558 71.5552 50.3144 71.5552 49.9584C71.5552 49.6023 71.6229 49.2639 71.7582 48.9343C71.8936 48.6077 72.0878 48.3163 72.3379 48.0662C72.5881 47.8161 72.8794 47.6219 73.206 47.4865C73.5327 47.3511 73.874 47.2834 74.2301 47.2834C74.5832 47.2834 74.9246 47.3511 75.2542 47.4865C75.5808 47.6219 75.8692 47.8161 76.1223 48.0662C76.3724 48.3163 76.5637 48.6077 76.702 48.9343C76.8373 49.2639 76.905 49.6023 76.905 49.9584Z" fill="#FFE8C0"/>
</svg>
