<svg width="360" height="360" viewBox="0 0 360 360" fill="none" xmlns="http://www.w3.org/2000/svg">
<path d="M180.278 247.241C180.622 260.691 174.875 273.222 170.39 285.634C165.909 298.05 162.459 309.891 164.068 322.538C165.678 335.181 167.403 337.25 173.265 341.963C179.128 346.678 177.403 343.803 179.356 342.309C181.312 340.813 181.54 338.4 180.506 336.331C179.472 334.263 180.162 335.641 180.047 335.297C179.703 334.606 180.278 335.984 180.047 335.297C179.815 334.606 179.356 333.456 178.897 332.538C178.437 331.619 178.322 331.503 178.093 330.928C177.862 330.353 177.862 330.353 177.747 330.122C177.172 328.975 177.978 330.928 177.634 329.778C176.712 327.25 175.909 324.606 175.334 321.963C174.759 319.319 175.103 320.581 174.99 319.894C174.875 319.203 175.103 321.272 174.99 319.778C174.875 318.281 174.99 319.203 174.99 318.856C174.875 317.478 174.759 316.1 174.759 314.719C174.759 313.341 174.759 311.959 174.759 310.581C174.759 309.2 174.759 309.316 174.875 308.741C174.99 308.166 174.875 308.053 174.875 307.706C174.99 306.444 174.875 308.053 174.875 307.019C176.828 294.144 182.115 282.188 184.643 269.428C187.172 256.666 186.828 254.253 185.793 246.55C184.759 238.85 183.956 244.366 182.69 244.481C181.425 244.597 180.162 245.863 180.278 247.241Z" fill="#E87B80"/>
<path d="M179.013 253.219C179.013 262.184 183.15 270.116 185.335 278.622C187.519 287.131 185.794 280.463 185.91 281.381C186.025 282.303 186.025 282.303 186.138 282.763C186.138 283.106 186.138 283.338 186.138 283.681C186.369 285.634 186.369 287.706 186.369 289.659C186.369 291.613 186.369 291.497 186.138 292.419C185.91 293.338 186.138 292.994 186.138 293.338C186.138 293.913 186.025 294.372 185.91 294.947C185.563 296.9 185.103 298.741 184.528 300.578C183.956 302.419 183.841 302.763 183.494 303.913C183.15 305.063 183.15 304.947 182.922 305.406C182.691 305.869 182.806 305.753 182.575 306.328C181.541 308.397 180.391 310.466 179.244 312.419C177.172 316.1 182.231 320.353 185.219 317.019C191.197 310.35 194.3 301.5 195.103 292.647C195.91 283.797 193.841 274.944 190.163 266.784C186.485 258.622 186.253 258.047 185.794 253.334C185.335 248.619 184.3 249.884 182.347 249.884C180.391 249.884 178.897 251.494 178.897 253.334L179.013 253.219Z" fill="#E87B80"/>
<mask id="mask0_19_902" style="mask-type:luminance" maskUnits="userSpaceOnUse" x="176" y="13" width="106" height="92">
<path d="M176.799 13.0781H281.377V104.8H176.799V13.0781Z" fill="white"/>
</mask>
<g mask="url(#mask0_19_902)">
<path d="M190.162 100.444C190.162 99.5218 190.162 98.603 190.162 97.5686C190.162 96.5343 190.047 96.4186 189.931 95.8436C189.703 94.0061 189.703 92.1655 189.356 90.4405C189.012 88.7186 189.356 89.9811 189.356 90.2124C189.356 89.8655 189.356 89.5218 189.241 89.178C189.241 88.3718 189.128 87.5686 189.012 86.878C188.897 85.2686 188.781 83.5436 188.781 81.9343C188.781 78.8311 188.781 75.728 189.012 72.7374C189.241 69.7499 189.128 71.128 189.241 70.3249C189.356 69.5186 189.241 69.6343 189.356 69.2905C189.241 70.4405 189.356 69.5186 189.356 69.2905C189.472 68.1405 189.703 66.9905 189.816 65.8405C189.703 66.7593 189.931 64.6905 189.816 65.8405C189.931 64.9218 189.931 64.8061 190.047 64.2311C190.506 61.2436 191.197 58.1405 192 55.2655C192.806 52.3905 192.919 52.2749 193.381 50.7811C193.841 49.2874 193.841 49.5186 194.069 48.828C194.3 48.1374 194.3 48.1374 194.416 47.9093C195.103 46.2999 193.953 48.9436 194.644 47.4468C195.909 44.803 197.172 42.2749 198.781 39.8624C200.391 37.4468 199.356 38.9405 199.703 38.4811C200.047 38.0218 200.047 38.0218 200.162 37.7905C200.737 36.9874 200.162 37.7905 200.047 38.0218C200.506 36.9874 201.772 35.953 202.575 35.1468C203.381 34.3436 204.184 33.5374 205.103 32.7343C206.022 31.928 205.909 32.0436 206.369 31.6999C206.828 31.353 207.403 30.7811 206.712 31.353C206.022 31.928 207.059 31.1249 207.172 31.0093C209.128 29.5155 211.197 28.2499 213.378 27.2155C215.562 26.1811 213.841 26.9874 214.069 26.8718C213.378 27.0999 215.219 26.2968 214.069 26.8718C214.759 26.6405 215.103 26.5249 215.562 26.2968C216.828 25.8374 217.978 25.4905 219.241 25.1468C220.506 24.803 221.541 24.5718 222.575 24.3436C223.609 24.1124 223.841 23.9968 224.412 23.9968C224.3 23.9968 223.266 24.1124 224.184 23.9968C225.103 23.8811 224.987 23.9968 225.447 23.8811C227.862 23.653 230.162 23.653 232.575 23.8811C234.987 24.1124 233.837 23.8811 234.412 24.1124C234.987 24.3436 234.875 23.8811 234.184 24.1124C234.3 24.1124 234.875 24.228 234.987 24.228C236.137 24.4561 237.403 24.803 238.553 25.1468C239.7 25.4905 240.966 25.8374 242 26.4124C241.884 26.4124 240.85 25.8374 241.769 26.4124C242.691 26.9874 242.231 26.6405 242.459 26.7561C243.034 27.0999 243.725 27.3311 244.3 27.6749C245.334 28.2499 246.369 28.8249 247.287 29.3999C248.206 29.9749 248.322 30.0905 248.781 30.4343C249.241 30.7811 249.472 31.1249 248.55 30.2061C248.781 30.4343 249.241 30.6655 249.472 31.0093C251.541 32.7343 253.494 34.6874 255.219 36.7561C256.941 38.828 255.562 37.2186 255.794 37.4468C254.872 36.1811 256.597 38.4811 255.794 37.4468C256.712 38.7124 256.597 38.5968 256.941 39.0561C257.747 40.2061 258.437 41.3561 259.125 42.5061C259.816 43.6561 260.391 44.803 260.85 45.953C261.309 47.103 261.194 46.528 261.309 46.8749C261.194 46.4124 260.619 45.1499 261.081 46.4124C261.541 47.678 261.541 47.678 261.769 48.3686C262.691 51.0124 263.378 53.7718 263.725 56.5311L263.378 54.3468C263.837 57.5655 263.837 60.6686 264.412 63.8874C264.987 67.1061 268.897 70.0936 272.344 69.8655C275.794 69.6343 279.584 67.4499 280.275 63.8874C280.966 60.3218 280.85 61.128 280.85 60.0936C280.85 59.0593 280.506 57.4499 280.391 56.1843C280.275 54.9218 279.931 53.5405 279.584 52.1624C278.781 48.9436 277.631 45.953 276.253 42.9655C273.837 37.5624 270.275 32.6186 266.022 28.4811C261.769 24.3436 256.941 20.8936 251.656 18.3655C246.369 15.8343 240.159 14.2249 233.953 13.6499C227.747 13.078 222.344 13.7655 216.828 15.2593C211.309 16.7561 214.528 15.9499 213.378 16.4093C212.231 16.8686 212.116 16.8686 211.425 17.0999C210.737 17.3311 210.391 17.5593 209.816 17.7905C209.587 17.7905 209.356 18.0186 209.128 18.1343C209.816 17.9061 209.816 17.9061 209.012 18.1343C206.369 19.2843 203.841 20.5499 201.309 22.0436C196.137 25.378 191.772 29.5155 188.206 34.4593C184.644 39.3999 181.541 47.103 179.816 53.8843C178.094 60.6686 176.828 70.2093 177.519 78.4874C178.209 86.7624 178.322 86.7624 179.244 90.8999C180.162 95.0405 181.425 99.4093 183.841 102.512C186.253 105.616 189.931 104.35 190.162 100.787V100.444Z" fill="#E87B80"/>
</g>
<mask id="mask1_19_902" style="mask-type:luminance" maskUnits="userSpaceOnUse" x="84" y="13" width="105" height="92">
<path d="M84.8003 13.0781H188.8V104.8H84.8003V13.0781Z" fill="white"/>
</mask>
<g mask="url(#mask1_19_902)">
<path d="M182.116 102.053C182.691 101.362 183.151 100.672 183.494 99.8687C183.841 99.0625 184.301 97.9125 184.76 96.8781C185.451 95.2687 186.026 93.5469 186.485 91.9375C187.288 88.2562 187.863 84.4625 188.322 80.6719C189.129 73.1969 188.782 65.9562 187.404 58.6C186.026 51.2406 183.841 44.3437 180.391 38.0219C176.944 31.7 172.922 27.7906 167.863 23.9969C162.807 20.2031 163.382 20.8938 160.966 19.6281C158.554 18.3656 158.785 18.5937 157.635 18.0187L156.369 17.4437C156.944 17.675 157.06 17.675 156.369 17.4437C155.794 17.2156 155.335 16.9844 154.76 16.7562C153.957 16.4094 153.266 16.1812 152.463 15.8344C147.176 14.1125 141.313 13.0781 135.682 13.0781C123.497 13.0781 112.116 17.5594 102.807 25.2625C93.4975 32.9625 93.3818 34.8031 90.51 40.7812C87.635 46.7594 87.5193 47.2188 86.6006 50.6656C85.6818 54.1156 85.91 53.5406 85.6818 55.0344C85.4506 56.5312 84.9912 57.9094 84.9912 59.2875C84.9912 60.6687 85.335 62.1625 85.5662 63.5406C86.1412 66.875 90.1631 69.75 93.4975 69.5187C96.8318 69.2906 100.622 67.1062 101.429 63.5406C102.232 59.9781 102.004 57.2187 102.463 54L102.116 56.1844C102.463 53.7719 103.038 51.3562 103.726 49.0562C104.416 46.7594 104.532 46.875 104.876 45.8375C105.222 44.8031 104.072 47.6781 104.647 46.3C105.222 44.9187 104.876 45.8375 104.991 45.4937C105.335 44.9187 105.566 44.2281 105.91 43.6562C107.06 41.5844 108.21 39.5156 109.588 37.5625C110.969 35.6094 110.047 36.9875 110.163 36.7562C110.163 36.7562 109.129 38.0219 109.819 37.2187C110.507 36.4125 110.507 36.4125 110.854 35.9531C111.657 34.9187 112.579 34 113.497 33.0781C114.416 32.1594 115.222 31.4688 116.026 30.7812C116.829 30.0906 116.485 30.4344 116.601 30.3187C117.404 29.6312 116.485 30.4344 116.369 30.55C116.944 30.2062 117.519 29.7437 117.979 29.4C119.013 28.7094 120.047 28.1344 121.082 27.5625C122.116 26.9875 122.004 27.1 122.576 26.8719C123.151 26.6406 123.038 26.6406 123.266 26.525C123.497 26.525 123.613 26.4125 123.841 26.2969C124.185 26.1812 124.072 26.2969 123.382 26.525C123.841 26.525 124.532 26.0656 124.876 25.9531C125.219 25.8375 126.026 25.4906 126.601 25.3781C127.863 25.0312 129.129 24.6875 130.394 24.4562C131.657 24.2281 131.197 24.3437 131.197 24.3437C131.197 24.3437 129.819 24.4562 130.969 24.3437C132.116 24.2281 132.004 24.2281 132.576 24.2281C133.841 24.2281 135.107 24.1125 136.485 24.1125C137.863 24.1125 138.785 24.1125 139.932 24.3437C141.082 24.5719 140.966 24.3437 141.541 24.5719C140.279 24.3437 141.197 24.5719 141.541 24.5719C141.888 24.5719 142.232 24.5719 142.576 24.8031C144.991 25.2625 147.404 25.8375 149.704 26.7562C152.001 27.675 150.854 27.2156 151.429 27.4469C150.622 27.1 152.001 27.675 151.429 27.4469C152.232 27.7906 151.888 27.675 152.116 27.7906C153.266 28.3656 154.416 29.0562 155.451 29.6312C156.485 30.2062 157.404 30.8937 158.322 31.5844C159.244 32.275 158.785 31.9281 159.013 32.0437C157.979 31.2406 159.704 32.5031 159.013 32.0437C160.047 32.85 160.047 32.85 160.507 33.3094C162.347 34.9187 163.841 36.6437 165.451 38.4812C167.06 40.3219 164.876 37.6781 165.335 38.2531C165.794 38.8281 165.794 38.8281 165.91 39.0562C166.254 39.5156 166.485 39.975 166.829 40.4375C167.519 41.5844 168.21 42.7344 168.897 43.8844C169.588 45.0344 170.279 46.6437 170.966 48.0219C171.426 49.0562 171.657 49.4031 170.966 48.0219C171.082 48.3687 171.197 48.7125 171.313 48.9437C171.657 49.7469 171.888 50.5531 172.232 51.3562C173.266 54.3469 174.069 57.3344 174.76 60.4375C175.451 63.5406 175.451 63.8875 175.679 65.6125C175.91 67.3344 175.679 66.3 175.794 66.6469C175.679 65.6125 175.794 66.6469 175.794 67.1062C175.794 67.5656 175.794 67.7969 175.794 68.1406L176.026 69.75C176.026 70.4406 176.026 70.4406 176.026 69.75C176.485 73.1969 176.713 76.7625 176.713 80.325C176.713 83.8906 176.485 87.1094 176.026 90.5562C175.566 94.0062 176.138 89.4062 176.026 91.0156C175.91 92.625 175.794 92.3969 175.794 93.0844C175.794 93.775 175.679 94.8094 175.566 95.6156C175.451 96.4187 175.451 97.225 175.335 97.9125C175.219 98.9469 175.219 99.9844 175.335 101.019C175.566 104.581 179.588 105.384 181.657 102.741L182.116 102.053Z" fill="#E87B80"/>
</g>
<path d="M189.588 252.872C189.588 252.872 189.703 252.872 189.816 252.988C189.816 252.988 189.703 252.759 189.356 252.644C189.356 252.644 189.356 252.644 189.472 252.644C189.472 252.644 189.472 252.644 189.588 252.759V252.872Z" fill="#F9D2C1"/>
<path d="M201.309 179.303C200.506 178.841 199.587 178.381 198.669 178.037C198.897 178.037 199.012 178.153 199.241 178.269C200.391 178.728 199.931 178.613 198.094 177.806C197.862 177.806 197.631 177.694 197.403 177.578C196.025 177.119 194.528 177.003 193.15 176.888C191.197 176.888 189.356 177.231 187.519 177.806C187.519 177.806 187.287 177.694 187.287 177.578C187.287 177.578 187.172 177.578 187.059 177.463C186.828 177.119 186.484 176.772 186.253 176.544C186.253 176.544 186.137 176.428 186.025 176.312C186.025 176.312 185.794 175.853 185.562 175.394C185.562 175.394 185.562 175.394 185.562 175.278C185.562 175.162 185.562 174.934 185.45 174.703C185.45 174.359 185.45 174.013 185.45 173.669C185.45 173.325 185.562 173.094 185.678 172.75C185.678 172.75 185.678 172.75 185.678 172.519C191.425 173.094 196.944 171.484 201.197 167.463C206.137 162.863 203.381 154.816 197.403 152.978C196.137 152.631 194.991 152.403 193.725 152.287C195.909 150.909 197.747 149.184 199.356 146.884C200.966 144.584 200.85 141.366 199.816 138.953C198.781 136.538 197.172 135.159 194.991 134.241C198.206 132.631 200.966 130.216 202.691 127.112C205.45 122.169 202.919 116.538 197.631 114.697C193.381 113.203 188.553 112.972 183.956 113.894C183.956 113.894 183.956 113.778 183.956 113.663C183.956 113.663 183.956 113.663 183.956 113.547C184.184 113.203 184.416 112.859 184.644 112.513C184.759 112.513 184.875 112.513 184.991 112.513C188.437 112.972 191.884 113.203 195.334 112.628C198.781 112.169 202.459 109.984 203.953 106.766C204.987 104.581 205.334 102.513 204.3 100.213C203.381 98.0281 201.772 96.8781 199.587 95.9594C194.3 93.8906 187.634 93.775 182.231 95.7281C181.425 96.075 180.622 96.4188 179.816 96.7656C179.703 96.5344 179.587 96.4188 179.472 96.1906C177.287 92.2812 176.828 85.2688 176.828 84.5781C175.909 84.6938 174.991 85.0375 174.069 85.3844C173.494 85.6125 173.034 85.8438 172.575 86.0719C172.347 86.1875 172.231 86.3031 172 86.4188C171.541 86.7625 171.197 86.9938 170.737 87.3375C170.506 87.5688 170.506 87.4531 170.853 87.2219C170.853 87.2219 171.081 87.1094 171.081 86.9938C170.391 87.3375 169.931 87.7969 169.472 88.4875C169.244 88.8312 169.012 89.0625 168.897 89.4062C168.437 90.0969 168.094 90.9 167.862 91.7063C167.403 93.0844 167.175 94.5812 167.287 95.9594C167.403 98.8344 168.322 101.822 170.047 104.122C170.162 104.35 170.391 104.466 170.506 104.697C169.587 106.191 168.781 107.8 168.209 109.525C166.6 114.006 166.6 119.297 168.209 123.894C167.862 124.469 167.519 125.159 167.175 125.847C164.3 132.056 163.956 138.838 167.175 145.047C167.403 145.506 167.747 146.081 167.978 146.541C167.747 147.228 167.403 148.034 167.287 148.725C165.794 154.816 167.287 160.45 171.197 165.278C170.737 166.312 170.278 167.231 169.816 168.266C167.403 175.05 169.472 182.175 174.069 187.35C173.841 187.694 173.494 188.153 173.266 188.5C170.162 193.441 169.244 199.419 170.278 205.166C169.012 206.431 167.978 207.925 167.175 209.534C166.828 210.225 166.484 210.916 166.253 211.719C164.875 214.822 167.287 209.306 165.909 212.409C165.678 212.984 165.45 213.328 165.334 213.903C164.991 215.512 164.759 217.122 164.759 218.731C164.759 222.181 165.794 225.512 167.519 228.387C165.678 233.216 166.253 238.619 168.669 243.103C169.472 244.481 170.391 245.747 171.541 246.781C171.081 249.884 171.541 252.528 172.806 255.288C173.15 255.978 173.494 256.666 173.956 257.356C174.3 257.816 174.759 258.391 175.103 258.85C174.069 257.472 174.184 257.7 175.566 259.425C175.794 259.656 176.137 259.884 176.484 260.231C180.047 262.991 184.991 264.944 189.241 263.219C191.541 262.759 193.609 260.691 193.494 258.275C193.494 255.978 191.884 254.022 189.816 253.447C189.703 253.447 189.587 253.334 189.472 253.219C189.472 253.219 189.472 253.219 189.241 253.103C189.128 252.988 188.897 252.872 188.897 252.872C188.897 252.872 188.897 252.872 189.012 252.872C188.781 252.644 188.669 252.528 188.437 252.3C188.437 252.184 187.978 251.838 187.862 251.725C187.862 251.725 187.862 251.838 187.862 251.953C187.862 251.838 187.634 251.609 187.519 251.494C187.287 251.15 187.403 251.034 187.519 251.494C191.884 250.459 195.794 247.816 198.094 243.906C200.047 240.572 198.781 235.631 195.334 233.791C197.631 230.688 197.403 226.203 194.644 223.1C192.919 221.147 190.737 219.766 188.322 219.075C193.15 218.387 197.519 215.397 199.356 210.456C199.587 209.65 199.703 208.959 199.816 208.156C199.816 207.697 199.931 207.238 199.931 206.775C199.931 206.2 199.816 205.628 199.703 204.938C199.703 205.281 199.703 205.513 199.703 205.856C199.472 203.097 198.322 200.8 196.253 199.075C193.609 197.006 190.275 196.431 186.944 196.891C186.6 196.891 186.137 197.006 185.794 197.119C185.794 197.006 185.794 196.891 185.794 196.775C185.794 196.544 185.909 196.316 186.025 196.084C186.025 196.084 186.025 196.084 186.025 195.972C186.253 195.509 186.484 195.166 186.712 194.706C191.541 195.509 196.712 194.706 200.737 191.947C205.219 188.959 205.678 182.291 200.737 179.416L201.309 179.303ZM187.172 170.681C187.172 170.681 187.172 170.681 187.403 170.566C187.059 170.909 186.828 171.141 186.712 171.141C186.712 171.141 186.944 170.909 186.944 170.794L187.172 170.681ZM179.587 95.6156C179.587 95.6156 179.587 95.8438 179.703 95.9594C179.703 95.9594 179.703 95.8438 179.587 95.6156ZM182.691 213.903C182.922 213.559 183.15 213.559 182.347 214.247C182.347 214.134 182.459 214.019 182.575 213.903H182.691ZM181.081 218.847C181.081 218.847 181.081 218.847 181.081 218.731C181.081 218.731 181.081 218.731 181.081 218.616C181.081 218.616 181.081 218.387 181.081 218.272V218.041C181.081 218.041 181.081 218.156 181.081 218.272C181.081 218.272 181.081 218.272 181.081 218.156C181.081 218.156 181.081 218.156 181.081 218.387C181.081 218.503 181.081 218.731 181.081 218.963V218.847ZM181.081 217.812C181.081 217.353 181.312 217.006 181.081 217.812V217.812ZM182.806 221.147C182.691 221.031 182.459 220.8 182.347 220.684C182.459 220.684 182.691 220.916 182.922 221.147H182.806ZM183.034 221.375C183.034 221.375 182.922 221.259 182.806 221.147C182.806 221.147 182.806 221.147 183.034 221.375ZM183.725 221.606C183.725 221.606 183.725 221.606 183.609 221.606C183.381 221.606 183.15 221.375 183.034 221.259C183.15 221.259 183.494 221.491 183.956 221.722C183.956 221.722 183.956 221.722 183.841 221.722L183.725 221.606ZM189.012 246.206C189.587 246.206 190.047 246.55 188.781 246.206C188.781 246.206 188.897 246.206 189.012 246.206ZM189.703 209.881C189.703 209.881 189.703 209.881 189.587 209.881C189.587 209.881 189.703 209.881 189.816 209.881H189.703ZM189.356 209.994C188.322 210.341 188.669 209.994 189.356 209.994V209.994ZM187.747 203.672C187.747 203.672 187.747 203.672 187.862 203.556C187.862 203.556 187.862 203.556 187.747 203.672C188.437 203.328 188.322 203.444 187.978 203.672C188.437 203.672 188.322 203.672 187.862 203.787C188.322 203.787 188.094 203.903 187.634 203.787C187.634 203.787 187.747 203.787 187.862 203.787L187.747 203.672ZM186.6 203.097C186.484 202.869 186.369 202.638 186.253 202.522C186.253 202.522 186.253 202.522 186.253 202.409C186.6 202.869 186.6 203.097 186.6 203.213V203.097ZM185.909 198.269C185.909 197.925 186.025 197.694 186.137 197.35C186.137 197.35 186.137 197.581 185.909 198.384V198.269ZM187.403 177.806C187.403 177.806 187.287 177.694 187.172 177.578C187.172 177.578 187.287 177.578 187.403 177.694V177.806ZM193.034 179.531C193.034 179.531 193.034 179.531 192.919 179.531C192.691 179.531 192.459 179.531 192.347 179.531C192.459 179.531 192.806 179.531 193.266 179.531C193.266 179.531 193.266 179.531 193.15 179.531H193.034Z" fill="#F9D2C1"/>
<path d="M188.094 251.494C188.094 251.494 188.094 251.262 187.978 251.262C187.978 251.262 187.978 251.262 188.094 251.378V251.494Z" fill="#F9D2C1"/>
<path d="M187.863 203.788C187.863 203.788 187.978 203.788 188.094 203.788C188.094 203.788 188.094 203.788 187.863 203.788C187.978 203.788 188.094 203.787 188.207 203.672C188.207 203.672 188.094 203.672 187.978 203.672L187.863 203.788Z" fill="#F9D2C1"/>
</svg>
