<svg width="630" height="544" viewBox="0 0 630 544" fill="none" xmlns="http://www.w3.org/2000/svg">
<path d="M172.72 6.30003C97.8249 35.14 56.9299 119.985 23.1249 197.62C5.49991 238.09 -11.7401 287.555 10.8999 325.01C28.3099 353.8 63.3249 363.855 85.0649 388.99C114.615 423.175 114.49 478.67 144.285 512.605C173.975 546.415 223.73 547.825 265.77 537.21C307.81 526.6 348.315 506.41 391.475 505.19C436.575 503.905 480.125 523.545 525.185 525.945C570.245 528.35 623.565 503.44 628.975 455.12C633.105 418.23 607.74 385.49 600.315 349.205C591.73 307.265 607.605 264.71 617.67 223.16C627.74 181.61 630.02 131.53 601.335 101.735C560.58 59.405 493.605 88.455 437.39 81.585C387.195 75.455 345.17 39.48 299.015 17.34C252.86 -4.79997 193.005 -1.49997 172.72 6.31503V6.30003Z" fill="white"/>
<path fill-rule="evenodd" clip-rule="evenodd" d="M333.281 125.265C216.563 45.7669 103.789 228.533 333.281 345.96C407.116 308.233 445.449 263.73 459.709 223.272H453.035C444.539 223.88 440.492 217.103 436.649 210.629C434.627 207.392 432.806 204.359 431.187 203.854C430.276 203.549 429.064 206.484 427.648 210.629C426.637 213.664 425.727 217.203 424.816 220.744C422.085 231.466 419.354 242.388 412.375 244.815C408.331 246.334 405.396 243.399 403.273 237.635C400.947 230.96 398.721 218.722 396.395 206.18C393.057 188.075 389.516 169.061 388.709 169.061C387.695 169.162 384.562 195.358 381.526 221.35V221.453C378.392 247.647 375.357 273.541 370.098 277.89C366.761 280.621 363.725 279.912 360.893 276.474C356.444 271.011 352.297 254.324 348.25 238.344C344.609 223.88 341.171 210.023 339.553 209.012C339.45 209.012 339.249 209.618 338.643 210.428C336.923 213.26 335.306 217.812 333.89 221.959C333.08 224.285 332.27 226.509 331.46 228.43C327.517 237.838 323.674 239.657 318.818 237.635C316.491 236.624 314.67 234.702 312.548 232.376C308.705 228.43 303.343 222.869 294.543 222.97L270.877 223.272H238.107C235.78 223.272 233.859 221.35 233.859 219.024C233.859 216.597 235.78 214.676 238.107 214.676H270.877V214.776L294.442 214.474C306.984 214.271 313.762 221.35 318.717 226.509C320.233 228.128 321.549 229.443 322.155 229.745C322.459 229.846 322.155 228.43 323.571 225.093C324.28 223.576 324.987 221.453 325.797 219.127C327.416 214.575 329.134 209.417 331.46 205.876C334.697 200.717 338.744 198.29 344.206 201.831C348.655 204.663 352.498 220.035 356.545 236.32C359.781 249.065 363.119 262.314 365.951 268.383C368.176 260.999 370.603 240.771 373.03 220.44V220.339C376.468 190.806 380.009 160.968 388.304 160.563C396.596 160.058 400.846 182.916 404.79 204.663C407.015 216.801 409.241 228.634 411.364 234.702C413.285 231.466 414.905 224.992 416.522 218.619C417.432 214.98 418.443 211.238 419.454 208.001C422.389 199.201 426.434 193.233 433.918 195.66C438.47 197.179 441.201 201.628 443.933 206.281C446.46 210.428 449.192 214.877 452.428 214.776L452.934 214.676H462.441C484.59 133.761 409.847 73.1776 333.281 125.265ZM409.543 236.724C410.048 236.523 410.453 236.118 410.959 235.512C410.048 236.32 408.331 237.129 409.543 236.724Z" fill="#45ADAF"/>
<path fill-rule="evenodd" clip-rule="evenodd" d="M504.111 315.919C504.111 315.919 533.039 276.169 535.061 247.141C536.275 230.656 530.712 225.701 525.755 226.104C522.722 226.408 521.002 227.824 519.991 229.745C516.754 235.915 522.923 281.227 504.111 315.919Z" fill="#FF914D"/>
<path fill-rule="evenodd" clip-rule="evenodd" d="M514.126 250.278C513.821 265.752 510.989 294.375 495.414 317.943C498.447 288.307 499.662 260.189 497.74 246.739C496.526 238.747 500.977 233.186 505.731 232.577C515.137 231.466 514.126 244.715 514.126 250.278Z" fill="#FF914D"/>
<path fill-rule="evenodd" clip-rule="evenodd" d="M464.867 308.333C472.151 300.545 480.342 318.854 461.834 340.294C461.834 340.294 453.743 350.51 434.627 359.511C429.368 365.884 443.932 368.311 470.33 353.95C496.727 339.587 534.15 297.612 541.939 239.556C542.545 232.781 548.209 230.555 550.94 232.275C554.682 234.702 555.897 241.681 555.593 250.582C554.277 299.232 534.15 352.937 495.817 384.09C419.354 446.192 389.72 408.465 343.597 487.154C327.921 316.527 403.069 374.784 464.867 308.333Z" fill="#FF914D"/>
<path fill-rule="evenodd" clip-rule="evenodd" d="M162.451 315.919C162.451 315.919 133.523 276.169 131.501 247.141C130.39 230.656 135.953 225.701 140.907 226.104C143.84 226.408 145.56 227.824 146.674 229.745C149.908 235.915 143.639 281.227 162.451 315.919Z" fill="#FF914D"/>
<path fill-rule="evenodd" clip-rule="evenodd" d="M152.539 250.278C152.74 265.752 155.575 294.375 171.25 317.943C168.114 288.307 166.902 260.189 168.924 246.739C170.139 238.747 165.587 233.186 160.934 232.577C151.528 231.466 152.438 244.715 152.539 250.278Z" fill="#FF914D"/>
<path fill-rule="evenodd" clip-rule="evenodd" d="M201.795 308.333C194.413 300.545 186.32 318.854 204.73 340.294C204.73 340.294 212.921 350.51 232.038 359.511C237.296 365.884 222.631 368.311 196.232 353.95C169.834 339.587 132.512 297.612 124.623 239.556C124.117 232.781 118.453 230.555 115.722 232.275C111.98 234.702 110.768 241.681 110.969 250.582C112.385 299.232 132.412 352.937 170.745 384.09C247.208 446.192 276.844 408.465 323.065 487.154C338.643 316.527 263.492 374.784 201.795 308.333Z" fill="#FF914D"/>
</svg>
