<svg width="1440" height="507" viewBox="0 0 1440 507" fill="none" xmlns="http://www.w3.org/2000/svg">
<mask id="mask0_6_738" style="mask-type:luminance" maskUnits="userSpaceOnUse" x="0" y="0" width="1440" height="507">
<path d="M0 3.8147e-06H1440V507H0V3.8147e-06Z" fill="white"/>
</mask>
<g mask="url(#mask0_6_738)">
<path d="M820.76 24.1406C719.88 35.901 704.979 93.2865 585.141 99.3698C439.854 106.776 421.911 24.4427 265.573 22.2135C125.755 20.2865 119.974 85.8854 -31.9011 88.4219C-189.458 90.9583 -197.974 15.3177 -340.422 33.3646C-445.662 46.5469 -498.49 90.4479 -556.078 96.7344L-549.891 507.151C-410.583 497.313 -380.271 412.146 -241.37 407.995C-81.3751 403.229 -49.5417 514.042 100.208 496.203C221.87 481.599 224.099 405.458 342.625 397.042C477.365 387.411 502.807 483.932 651.141 485.25C777.776 486.37 783.453 416.203 926.609 408.094C1069.68 399.984 1086.3 468.724 1235.14 463.146C1384.27 457.672 1388.43 387.917 1510.61 397.042C1649.4 407.385 1689.46 500.865 1819.13 496.203C1897.09 493.464 1958.73 456.964 1995.44 430.099C1995.44 290.484 1995.44 150.974 1995.44 11.3646C1949.71 48.5729 1877.52 95.0104 1786.07 99.5729C1639.07 106.875 1594.34 -1.51041 1444.51 0.416671C1304.39 2.03646 1295.06 97.75 1147.23 99.3698C1010.05 100.891 991.401 18.7708 849.656 22.2135M849.656 22.2135C839.318 22.5208 829.687 23.125 820.76 24.1406L849.656 22.2135Z" fill="#45ADAF"/>
</g>
</svg>
