<svg width="24" height="24" viewBox="0 0 24 24" fill="none" xmlns="http://www.w3.org/2000/svg">
<path opacity="0.4" d="M22 7.81V16.19C22 19 20.71 20.93 18.44 21.66C17.78 21.89 17.02 22 16.19 22H7.81C6.98 22 6.22 21.89 5.56 21.66C3.29 20.93 2 19 2 16.19V7.81C2 4.17 4.17 2 7.81 2H16.19C19.83 2 22 4.17 22 7.81Z" fill="#9D9D9D"/>
<path d="M18.44 21.66C17.78 21.89 17.02 22 16.19 22H7.81C6.98 22 6.22 21.89 5.56 21.66C5.91 19.02 8.67 16.97 12 16.97C15.33 16.97 18.09 19.02 18.44 21.66Z" fill="#9D9D9D"/>
<path d="M15.58 11.58C15.58 13.56 13.98 15.17 12 15.17C10.02 15.17 8.42 13.56 8.42 11.58C8.42 9.60002 10.02 8 12 8C13.98 8 15.58 9.60002 15.58 11.58Z" fill="#9D9D9D"/>
</svg>
