<svg width="24" height="24" viewBox="0 0 24 24" fill="none" xmlns="http://www.w3.org/2000/svg">
<path d="M21 11.5C21 16.75 16.75 21 11.5 21C6.25 21 2 16.75 2 11.5C2 6.25 6.25 2 11.5 2" stroke="white" stroke-width="1.5" stroke-linecap="round" stroke-linejoin="round"/>
<path d="M22 22L20 20" stroke="white" stroke-width="1.5" stroke-linecap="round" stroke-linejoin="round"/>
<path d="M14.5 6.13C14.15 5.03 14.56 3.66 15.72 3.29C16.33 3.09 17.08 3.26 17.51 3.85C17.91 3.24 18.69 3.1 19.29 3.29C20.45 3.66 20.86 5.03 20.51 6.13C19.96 7.88 18.04 8.79 17.51 8.79C16.97 8.79 15.07 7.9 14.5 6.13Z" stroke="white" stroke-width="1.5" stroke-linecap="round" stroke-linejoin="round"/>
</svg>
